<?xml version="1.0" standalone="no"?>
<!DOCTYPE svg PUBLIC "-//W3C//DTD SVG 1.1//EN" "http://www.w3.org/Graphics/SVG/1.1/DTD/svg11.dtd" >
<svg xmlns="http://www.w3.org/2000/svg" xmlns:xlink="http://www.w3.org/1999/xlink" version="1.1">
<metadata>
Created by FontForge 20201107 at Tue Nov 28 19:43:42 2017
 By Jimmy Wärting
Copyright 1990-2003 Bitstream Inc. All rights reserved.
</metadata>
<defs>
<font id="Charter-BlackItalic" horiz-adv-x="1024" >
  <font-face 
    font-family="Charter Black"
    font-weight="900"
    font-style="italic"
    font-stretch="normal"
    units-per-em="2048"
    panose-1="2 4 8 3 5 5 6 9 2 3"
    ascent="1638"
    descent="-410"
    x-height="1030"
    cap-height="1374"
    bbox="-375 -483 2791 1972"
    underline-thickness="246"
    underline-position="-346"
    slope="-11"
    unicode-range="U+0020-F002"
  />
<missing-glyph horiz-adv-x="1229" 
d="M102 -362v1806h1024v-1806h-1024zM217 -248h795v1577h-795v-1577z" />
    <glyph glyph-name=".notdef" horiz-adv-x="1229" 
d="M102 -362v1806h1024v-1806h-1024zM217 -248h795v1577h-795v-1577z" />
    <glyph glyph-name="space" unicode=" " horiz-adv-x="653" 
 />
    <glyph glyph-name="exclam" unicode="!" horiz-adv-x="702" 
d="M250 377q81 0 137.5 -57.5t56.5 -139.5q0 -79 -57 -135.5t-137 -56.5t-137.5 56t-57.5 136q0 82 57 139.5t138 57.5zM610 1141l-266 -682h-117v674q0 140 54.5 206t169.5 66q91 0 137.5 -39t46.5 -115q0 -20 -6.5 -49t-18.5 -61z" />
    <glyph glyph-name="quotedbl" unicode="&#x22;" horiz-adv-x="694" 
d="M496 856l-74 458q-1 8 -1.5 16.5t-0.5 23.5q0 51 25.5 79.5t70.5 28.5t70.5 -28t25.5 -78q0 -13 -3 -36q-1 -4 -1 -5l-73 -459h-39zM160 856l-74 459q-1 7 -1.5 15.5t-0.5 23.5q0 52 24.5 80t69.5 28q47 0 71.5 -27.5t24.5 -80.5q0 -16 -0.5 -24.5t-1.5 -15.5l-73 -458
h-39z" />
    <glyph glyph-name="numbersign" unicode="#" horiz-adv-x="1575" 
d="M602 588h240l86 252h-244zM723 1454l164 -37l-150 -422h248l154 457l164 -35l-150 -422h274v-155h-325l-86 -252h325v-156h-378l-158 -479l-166 33l147 446h-233l-166 -479l-162 33l154 446h-277v156h330l80 252h-307v155h362z" />
    <glyph glyph-name="dollar" unicode="$" horiz-adv-x="1309" 
d="M694 532l-81 -395q98 5 163.5 65.5t65.5 145.5q0 61 -37.5 108t-110.5 76zM649 868l73 369q-94 -5 -150 -60t-56 -143q0 -58 33 -99t100 -67zM780 1528h129l-30 -156q81 -3 166 -19.5t174 -45.5l-74 -361h-174l10 264q-37 11 -70 17.5t-63 9.5l-78 -397q195 -62 285 -151
t90 -220q0 -188 -158.5 -322.5t-402.5 -144.5l-41 -221h-133l46 223q-83 3 -182 20.5t-215 49.5l74 366h174v-258q36 -15 79.5 -25.5t98.5 -17.5l84 422q-183 56 -268.5 146t-85.5 227q0 181 148 304t386 136z" />
    <glyph glyph-name="percent" unicode="%" horiz-adv-x="2009" 
d="M1346 240q0 -79 22 -116.5t70 -37.5q79 0 139.5 140.5t60.5 338.5q0 80 -23 120t-69 40q-81 0 -140.5 -140.5t-59.5 -344.5zM1421 -25q-150 0 -235.5 84.5t-85.5 233.5q0 236 133.5 388.5t339.5 152.5q151 0 236 -84.5t85 -233.5q0 -235 -134 -388t-339 -153zM455 541
q-154 0 -241 84t-87 231q0 237 134 390t339 153q151 0 237.5 -85.5t86.5 -234.5q0 -233 -133 -385.5t-336 -152.5zM373 805q0 -79 22.5 -116.5t69.5 -37.5q79 0 140 141t61 341q0 79 -23 118t-70 39q-80 0 -140 -140.5t-60 -344.5zM1661 1374l-1118 -1374h-189l1119 1374
h188z" />
    <glyph glyph-name="ampersand" unicode="&#x26;" horiz-adv-x="1612" 
d="M485 637q-54 -37 -80 -87t-26 -116q0 -107 74 -179.5t184 -72.5q45 0 92 15.5t96 46.5zM784 745l275 -311q50 48 87.5 97.5t67.5 105.5l-14 35l-96 10v111h450v-115l-147 -21q-33 -53 -93.5 -126.5t-166.5 -188.5q92 -128 167 -176.5t173 -48.5q5 0 16.5 1t18.5 1v-115
q-120 -15 -176 -21t-84 -6q-130 0 -212.5 40.5t-148.5 134.5q-117 -91 -231.5 -137t-225.5 -46q-174 0 -288.5 105t-114.5 262q0 140 93 239t265 142q-73 63 -112 139t-39 156q0 162 153 275.5t383 113.5q191 0 299.5 -81.5t108.5 -223.5q0 -139 -108 -232t-300 -119z
M719 821q82 54 124 124t42 153q0 79 -38.5 125.5t-103.5 46.5q-69 0 -117 -53t-48 -130q0 -61 33.5 -124.5t107.5 -141.5z" />
    <glyph glyph-name="quotesingle" unicode="'" horiz-adv-x="358" 
d="M160 856l-74 459q-1 7 -1.5 15.5t-0.5 23.5q0 52 24.5 80t69.5 28q47 0 71.5 -27.5t24.5 -80.5q0 -16 -0.5 -24.5t-1.5 -15.5l-73 -458h-39z" />
    <glyph glyph-name="parenleft" unicode="(" horiz-adv-x="901" 
d="M977 1470l-23 -122q-83 -5 -155 -48t-127 -120q-50 -71 -89 -159t-69 -196q-48 -176 -73 -333t-25 -283q0 -183 61.5 -278t181.5 -99l-24 -123h-23q-240 0 -369.5 153.5t-129.5 438.5q0 134 28.5 282t83.5 300q44 123 111 226t156 183q97 89 219.5 133.5t265.5 44.5z" />
    <glyph glyph-name="parenright" unicode=")" horiz-adv-x="901" 
d="M-123 -291l23 123q83 5 154 47.5t126 120.5q49 68 88.5 156.5t69.5 197.5q49 182 74.5 339t25.5 278q0 182 -61.5 277.5t-181.5 99.5l24 122h23q240 0 369.5 -153.5t129.5 -437.5q0 -134 -28.5 -282.5t-83.5 -299.5q-44 -123 -111 -226t-156 -184q-97 -88 -219.5 -133
t-265.5 -45z" />
    <glyph glyph-name="asterisk" unicode="*" 
d="M193 1171l165 70l185 -170l-21 -35l-272 -10zM268 694l11 168l253 150l25 -23l-119 -262zM754 694l-160 33l-27 262l33 23l201 -152zM997 1171l-108 -147l-268 12l-7 37l244 168zM647 1470l94 -124l-139 -256h-41l-49 256z" />
    <glyph glyph-name="plus" unicode="+" horiz-adv-x="1706" 
d="M938 1221v-527h514v-166h-514v-528h-170v528h-514v166h514v527h170z" />
    <glyph glyph-name="comma" unicode="," horiz-adv-x="659" 
d="M-102 -252q118 19 190 88t86 178h-123q-16 19 -23.5 41t-7.5 51q0 89 56 147t141 58q82 0 129 -46t47 -126q0 -187 -148 -336t-368 -176z" />
    <glyph glyph-name="hyphen" unicode="-" horiz-adv-x="682" 
d="M-6 360l47 267h580l-48 -267h-579z" />
    <glyph glyph-name="period" unicode="." horiz-adv-x="659" 
d="M236 377q81 0 137.5 -57.5t56.5 -139.5q0 -79 -57 -135.5t-137 -56.5t-137.5 56t-57.5 136q0 82 57 139.5t138 57.5z" />
    <glyph glyph-name="slash" unicode="/" horiz-adv-x="985" 
d="M903 1374h217l-1175 -1564h-219z" />
    <glyph glyph-name="zero" unicode="0" horiz-adv-x="1309" 
d="M760 1257q-68 0 -120.5 -49t-92.5 -149q-64 -160 -99.5 -353.5t-35.5 -383.5q0 -99 38 -153t107 -54q83 0 142.5 76t107.5 243q46 164 71 318.5t25 269.5t-36.5 175t-106.5 60zM535 -29q-221 0 -343 144.5t-122 406.5q0 182 64 360t173 302q93 106 214 161.5t261 55.5
q210 0 334.5 -140.5t124.5 -377.5q0 -210 -62.5 -392.5t-177.5 -310.5q-93 -104 -210 -156.5t-256 -52.5z" />
    <glyph glyph-name="one" unicode="1" horiz-adv-x="1309" 
d="M164 0v123l229 14l33 33l192 983l-321 -33v117l504 152h200l-241 -1219l22 -37l211 -12v-121h-829z" />
    <glyph glyph-name="two" unicode="2" horiz-adv-x="1309" 
d="M485 909q-46 -14 -84 -21t-67 -7q-82 0 -128 41t-46 114q0 51 29.5 105t82.5 102q87 77 208 118.5t261 41.5q207 0 328 -98t121 -265q0 -202 -205.5 -396t-626.5 -390h557l70 192h180l-86 -446h-1048v180q436 283 614 477t178 375q0 108 -59 161.5t-178 53.5h-35z" />
    <glyph glyph-name="three" unicode="3" horiz-adv-x="1309" 
d="M514 971q-37 -19 -72 -28t-69 -9q-76 0 -119 38.5t-43 106.5q0 131 158 225.5t395 94.5q207 0 326.5 -82t119.5 -221q0 -138 -118 -235t-328 -130q188 -12 284.5 -85t96.5 -204q0 -202 -190.5 -336.5t-485.5 -134.5q-191 0 -314.5 79.5t-123.5 197.5q0 80 53.5 132
t138.5 52q38 0 70 -8t57 -25l17 -264q36 -9 61.5 -12.5t46.5 -3.5q129 0 214 84.5t85 214.5q0 100 -64 151.5t-190 51.5q-30 0 -65 -4.5t-76 -12.5l37 180q12 -1 25 -1.5t38 -0.5q171 0 267 73t96 202q0 97 -65.5 150t-186.5 53h-21z" />
    <glyph glyph-name="four" unicode="4" horiz-adv-x="1309" 
d="M788 1069l-522 -541h410zM872 1384h287l-168 -856h238l-37 -192h-238l-77 -393h-316l76 393h-645l41 192z" />
    <glyph glyph-name="five" unicode="5" horiz-adv-x="1309" 
d="M346 1374h897l-53 -258h-696l-64 -278q99 25 172.5 37t132.5 12q190 0 304 -103.5t114 -273.5q0 -115 -56.5 -216t-168.5 -188q-83 -61 -198.5 -96t-237.5 -35q-203 0 -324 77t-121 202q0 78 53.5 130t132.5 52q40 0 74 -9t66 -28l6 -268q32 -6 58 -9t44 -3
q132 0 224 92.5t92 224.5q0 123 -83.5 185.5t-246.5 62.5q-49 0 -116 -6.5t-144 -18.5z" />
    <glyph glyph-name="six" unicode="6" horiz-adv-x="1309" 
d="M461 739q-23 -78 -34 -156t-11 -157q0 -148 46.5 -225.5t135.5 -77.5q101 0 175.5 106t74.5 256q0 134 -60 204.5t-174 70.5q-32 0 -70.5 -5t-82.5 -16zM1126 1477l39 -179l-98 17q-216 -45 -362 -159t-216 -292q79 42 159 63t163 21q177 0 283 -109.5t106 -291.5
q0 -123 -54.5 -233.5t-154.5 -190.5q-88 -72 -201 -111t-231 -39q-224 0 -360 134.5t-136 357.5q0 248 127 470t347 357q127 79 274.5 125t314.5 60z" />
    <glyph glyph-name="seven" unicode="7" horiz-adv-x="1309" 
d="M291 1374h1044l-24 -168l-813 -1206v-61h-281l797 1151h-574l-71 -224h-176z" />
    <glyph glyph-name="eight" unicode="8" horiz-adv-x="1309" 
d="M506 612q-60 -45 -91.5 -110.5t-31.5 -143.5q0 -112 66 -178.5t178 -66.5q99 0 160 56.5t61 147.5q0 73 -58 129t-284 166zM813 799q60 50 90.5 114t30.5 138q0 97 -50.5 154t-135.5 57q-90 0 -145.5 -54t-55.5 -141q0 -72 45.5 -124t220.5 -144zM922 745
q137 -62 201.5 -142.5t64.5 -188.5q0 -199 -176.5 -325t-462.5 -126q-219 0 -354.5 100.5t-135.5 260.5q0 126 91 216.5t256 127.5q-98 55 -146.5 129.5t-48.5 169.5q0 198 165 320t437 122q196 0 311 -85.5t115 -229.5q0 -121 -78.5 -207t-238.5 -142z" />
    <glyph glyph-name="nine" unicode="9" horiz-adv-x="1309" 
d="M860 662q25 78 37 154.5t12 150.5q0 136 -49.5 211t-138.5 75q-107 0 -182.5 -102t-75.5 -254q0 -124 64 -193t180 -69q29 0 66 6.5t87 20.5zM209 -123l-47 182l117 -6q196 69 334 191.5t208 290.5q-93 -43 -174.5 -64.5t-150.5 -21.5q-171 0 -281.5 111t-110.5 282
q0 122 61.5 235t174.5 197q84 64 192.5 96.5t237.5 32.5q225 0 358.5 -128.5t133.5 -346.5q0 -182 -97 -376.5t-260 -336.5q-134 -118 -308.5 -202.5t-387.5 -135.5z" />
    <glyph glyph-name="colon" unicode=":" horiz-adv-x="793" 
d="M418 1016q81 0 138.5 -57.5t57.5 -139.5q0 -79 -58 -135.5t-138 -56.5t-137.5 56t-57.5 136q0 82 57 139.5t138 57.5zM305 377q82 0 139.5 -57.5t57.5 -139.5q0 -79 -58 -135.5t-139 -56.5q-79 0 -135.5 56t-56.5 136q0 83 56 140t136 57z" />
    <glyph glyph-name="semicolon" unicode=";" horiz-adv-x="793" 
d="M418 1016q81 0 138.5 -57.5t57.5 -139.5q0 -79 -58 -135.5t-138 -56.5t-137.5 56t-57.5 136q0 82 57 139.5t138 57.5zM-14 -252q117 18 189 87.5t87 178.5h-123q-16 18 -24.5 41t-8.5 51q0 88 56.5 146.5t140.5 58.5q82 0 129 -46t47 -126q0 -187 -148 -336t-368 -176z
" />
    <glyph glyph-name="less" unicode="&#x3c;" horiz-adv-x="1706" 
d="M1442 991l-934 -381l934 -381v-182l-1178 483v160l1178 486v-185z" />
    <glyph glyph-name="equal" unicode="=" horiz-adv-x="1706" 
d="M1452 487v-165h-1198v165h1198zM1452 901v-168h-1198v168h1198z" />
    <glyph glyph-name="greater" unicode="&#x3e;" horiz-adv-x="1706" 
d="M1442 690v-160l-1178 -483v182l934 381l-934 381v185z" />
    <glyph glyph-name="question" unicode="?" horiz-adv-x="1063" 
d="M461 571l-27 -131h-158l50 254q184 56 281.5 154t97.5 227q0 88 -57.5 133.5t-168.5 46.5l-147 -260q-19 -1 -35 -1.5t-29 -0.5q-70 0 -109.5 29t-39.5 80q0 125 138 212t347 87q218 0 335.5 -80.5t117.5 -228.5q0 -186 -152 -319t-444 -202zM324 377q81 0 137.5 -57.5
t56.5 -139.5q0 -79 -57 -135.5t-137 -56.5t-137.5 56t-57.5 136q0 82 57 139.5t138 57.5z" />
    <glyph glyph-name="at" unicode="@" horiz-adv-x="1929" 
d="M1454 999q-20 -53 -45 -167q-5 -26 -8 -39l-74 -344q-12 -54 -16 -82t-4 -48q0 -26 19.5 -46.5t45.5 -20.5q40 0 83.5 28t82.5 78q63 84 97 189.5t34 216.5q0 244 -161 392.5t-429 148.5q-147 0 -277 -50t-233 -145q-123 -116 -184 -260t-61 -320q0 -325 194 -521.5
t514 -196.5q133 0 265.5 37t261.5 110l40 -92q-159 -89 -317 -134.5t-305 -45.5q-172 0 -323 58.5t-269 172.5q-114 109 -171.5 257t-57.5 329q0 203 74.5 373.5t222.5 306.5q125 114 289.5 174.5t349.5 60.5q310 0 501 -180t191 -473q0 -114 -29 -216t-86 -190
q-74 -113 -184.5 -182t-216.5 -69q-84 0 -127 38t-49 117q-76 -74 -148.5 -110.5t-142.5 -36.5q-118 0 -190 89.5t-72 237.5q0 97 28.5 186t83.5 165q74 99 180 156t218 57q48 0 96.5 -13.5t101.5 -42.5l39 47h168zM1099 889q-14 2 -22 3t-14 1q-113 0 -191.5 -117.5
t-78.5 -290.5q0 -100 34.5 -153t100.5 -53q43 0 85.5 29.5t86.5 90.5l65 387z" />
    <glyph glyph-name="A" unicode="A" horiz-adv-x="1407" 
d="M721 1081l-262 -485h342zM711 1389h290l218 -1248l141 -20v-121h-649v123l133 12l30 33l-49 291h-444l-164 -297l23 -31l122 -10v-121h-487v119l121 18z" />
    <glyph glyph-name="B" unicode="B" horiz-adv-x="1421" 
d="M469 141q26 -3 51.5 -4.5t48.5 -1.5q166 0 250 75t84 222q0 112 -60.5 163.5t-193.5 51.5q-24 0 -72 -3q-8 -1 -12 -1zM590 781q9 -2 18.5 -2.5t28.5 -0.5q152 0 230.5 73t78.5 214q0 95 -49.5 137.5t-159.5 42.5q-23 0 -35 -0.5t-22 -1.5zM174 1374h725q213 0 313.5 -66
t100.5 -206q0 -128 -93 -222t-270 -143q158 -6 242 -81t84 -210q0 -205 -155 -325.5t-423 -120.5h-737v121l139 12l27 33l207 1053l-23 32l-137 9v114z" />
    <glyph glyph-name="C" unicode="C" horiz-adv-x="1374" 
d="M1386 1333l-73 -375h-183l-4 246l-26 39q-23 3 -45 4.5t-43 1.5q-249 0 -403 -190t-154 -498q0 -213 100 -326.5t289 -113.5q25 0 38 0.5t23 1.5l43 39l103 270h188l-78 -387q-127 -38 -234.5 -57t-195.5 -19q-308 0 -485.5 164.5t-177.5 446.5q0 163 67 313t193 268
q126 119 286.5 180.5t343.5 61.5q94 0 201 -17.5t227 -52.5z" />
    <glyph glyph-name="D" unicode="D" horiz-adv-x="1561" 
d="M680 1241l-215 -1104q12 -1 25.5 -1.5t39.5 -0.5q97 0 172 21t136 65q119 89 191.5 263t72.5 376q0 189 -91.5 286t-271.5 97q-23 0 -36 -0.5t-23 -1.5zM170 1374h664q327 0 490 -133.5t163 -400.5q0 -179 -73 -345t-206 -290q-114 -108 -266 -156.5t-379 -48.5h-610v123
l145 10l27 31l203 1050l-21 31l-137 12v117z" />
    <glyph glyph-name="E" unicode="E" horiz-adv-x="1309" 
d="M172 1374h1116l-67 -342h-162l-6 174l-27 31h-350l-88 -461h205l30 29l58 151h141l-96 -503h-135v157l-29 29h-201l-98 -498h426l26 25l89 235h178l-78 -401h-1147v119l141 14l25 33l205 1040l-21 35l-135 12v121z" />
    <glyph glyph-name="F" unicode="F" horiz-adv-x="1208" 
d="M170 1374h1104l-74 -366h-162l-8 204l-24 25h-330l-94 -485h211l41 22l61 158h143l-100 -514h-137v170l-33 22h-213l-86 -446l18 -31l140 -8v-125h-670v117l143 18l25 29l207 1059l-21 24l-141 8v119z" />
    <glyph glyph-name="G" unicode="G" horiz-adv-x="1536" 
d="M1440 1329l-70 -371h-186v261l-31 34q-33 3 -49 3.5t-31 0.5q-279 0 -447.5 -186t-168.5 -493q0 -225 111 -341t327 -118l78 409l-23 31l-153 12v123h678v-119l-134 -16l-30 -27l-90 -458q-129 -49 -255.5 -74t-248.5 -25q-297 0 -468 154.5t-171 421.5q0 206 81.5 377
t235.5 291q120 92 272.5 139t329.5 47q112 0 221.5 -19t221.5 -57z" />
    <glyph glyph-name="H" unicode="H" horiz-adv-x="1663" 
d="M178 1374h653v-119l-141 -8l-18 -24l-84 -426h512l82 415l-31 35l-123 13v114h662v-117l-142 -12l-22 -24l-205 -1053l16 -33l140 -16v-119h-664v123l131 12l35 35l92 475h-512l-92 -475l20 -41l138 -8v-121h-672v121l133 12l37 35l203 1046l-21 33l-127 6v121z" />
    <glyph glyph-name="I" unicode="I" horiz-adv-x="834" 
d="M180 1374h682v-117l-143 -8l-35 -26l-205 -1067l25 -29l141 -6v-121h-684v121l148 10l30 33l203 1055l-23 32l-139 4v119z" />
    <glyph glyph-name="J" unicode="J" horiz-adv-x="1067" 
d="M432 1374h678v-121l-145 -10l-29 -39l-100 -631q-50 -309 -201.5 -456.5t-419.5 -147.5q-67 0 -149 16t-170 46l77 387h187l6 -295l29 -25q121 17 181 101.5t113 390.5l109 629l-18 30l-148 6v119z" />
    <glyph glyph-name="K" unicode="K" horiz-adv-x="1450" 
d="M170 1374h664v-114l-140 -13l-22 -26l-101 -512h74l490 503l-11 31l-123 10v121h551v-117l-168 -22l-442 -444l248 -482q65 -126 117 -160t145 -34q6 0 19 1t20 1l-1 -113q-12 -1 -35 -3q-211 -19 -277 -19q-124 0 -198 56.5t-161 240.5l-145 309h-125l-80 -424l20 -39
l127 -4v-121h-663v121l137 10l29 31l205 1059l-23 30l-131 6v117z" />
    <glyph glyph-name="L" unicode="L" horiz-adv-x="1194" 
d="M170 1374h664v-119l-127 -8l-39 -26l-207 -1080h332l41 25l81 270h199l-86 -436h-1075v119l131 14l35 25l205 1065l-23 26l-131 11v114z" />
    <glyph glyph-name="M" unicode="M" horiz-adv-x="2019" 
d="M184 1374h654v-65l125 -863l454 883v45h621v-121l-140 -12l-30 -29l-185 -1050l23 -31l129 -12v-119h-643v123l133 12l33 29l186 1071l-629 -1235h-204l-181 1223l-223 -1063l21 -27l129 -12v-121h-504v121l139 18l31 35l221 1034l-14 37l-146 12v117z" />
    <glyph glyph-name="N" unicode="N" horiz-adv-x="1579" 
d="M170 1374h567v-47l373 -954l168 846l-25 28l-143 15v112h524v-114l-137 -11l-37 -24l-235 -1225h-303l-433 1087l-178 -911l17 -41l143 -14v-121h-518v125l143 10l27 33l209 1053l-29 30l-133 9v114z" />
    <glyph glyph-name="O" unicode="O" horiz-adv-x="1597" 
d="M1133 850q0 193 -68.5 297t-194.5 104q-75 0 -142.5 -45t-127.5 -135q-70 -105 -108.5 -251t-38.5 -308q0 -180 72 -284.5t194 -104.5q82 0 158 53.5t129 149.5q61 112 94 248t33 276zM897 1405q285 0 449.5 -155.5t164.5 -424.5q0 -190 -68 -352t-200 -287
q-115 -107 -260.5 -162t-316.5 -55q-270 0 -431 161t-161 431q0 129 35 250t104 227q111 175 290.5 271t393.5 96z" />
    <glyph glyph-name="P" unicode="P" horiz-adv-x="1319" 
d="M672 1235l-115 -596q24 0 53 -2h8q155 0 241.5 102.5t86.5 284.5q0 106 -59 159.5t-176 53.5q-6 0 -19 -1t-20 -1zM174 1374h647q260 0 381 -87t121 -273q0 -232 -176 -375t-467 -143q-37 0 -74 2t-76 6l-63 -338l25 -37l143 -8v-121h-678v121l133 12l33 27l205 1050
l-23 41l-131 11v112z" />
    <glyph glyph-name="Q" unicode="Q" horiz-adv-x="1597" 
d="M1036 72q67 -134 126.5 -182t150.5 -48q30 0 79.5 9t118.5 26v-121q-133 -51 -235.5 -76.5t-171.5 -25.5q-108 0 -187.5 51t-171.5 184l-57 86q-287 4 -450.5 162t-163.5 432q0 195 82.5 370t230.5 294q104 84 239.5 128t291.5 44q272 0 431.5 -160t159.5 -436
q0 -241 -123 -432.5t-350 -304.5zM1133 858q0 191 -68 291t-197 100q-63 0 -118.5 -29.5t-106.5 -89.5q-88 -102 -140 -264.5t-52 -339.5q0 -192 70.5 -297.5t199.5 -105.5q82 0 151.5 50t128.5 151q61 104 96.5 247t35.5 287z" />
    <glyph glyph-name="R" unicode="R" horiz-adv-x="1464" 
d="M680 1239l-96 -503q10 -2 21 -2.5t32 -0.5q148 0 236 87t88 231q0 97 -63 142.5t-200 45.5h-18zM180 1374h694q239 0 352 -73t113 -228q0 -158 -126.5 -262t-348.5 -125q78 -14 133.5 -48.5t92.5 -90.5q42 -67 87 -229q12 -45 19 -68q23 -80 68.5 -107.5t162.5 -27.5
v-115q-92 -11 -160 -15.5t-122 -4.5q-88 0 -151 23.5t-107 74.5q-46 52 -75 225q-5 26 -7 39q-29 158 -81.5 208t-166.5 50l-86 -440l14 -27l146 -12v-121h-670v121l129 12l35 27l207 1052l-23 33l-129 12v117z" />
    <glyph glyph-name="S" unicode="S" horiz-adv-x="1214" 
d="M1159 1325l-72 -362h-176l-8 258l-29 32q-14 3 -29.5 3.5t-45.5 0.5q-130 0 -207.5 -59.5t-77.5 -157.5q0 -117 260 -244l17 -8q12 -6 36 -17q137 -66 191 -134q32 -41 48.5 -88.5t16.5 -95.5q0 -205 -184 -344.5t-463 -139.5q-97 0 -202.5 21.5t-223.5 64.5l82 381h184
v-270l31 -41q33 -3 58 -4.5t47 -1.5q144 0 232.5 62t88.5 161q0 112 -221 215q-60 28 -94 45q-120 59 -184 149t-64 199q0 192 169.5 324.5t422.5 132.5q89 0 187.5 -20.5t209.5 -61.5z" />
    <glyph glyph-name="T" unicode="T" horiz-adv-x="1284" 
d="M166 1374h1229l-80 -416h-164v252l-37 25h-190l-207 -1073l22 -25l150 -16v-121h-703v123l158 10l29 35l200 1067h-188l-41 -25l-84 -252h-176z" />
    <glyph glyph-name="U" unicode="U" horiz-adv-x="1569" 
d="M166 1374h659v-114l-131 -9l-28 -20l-131 -684q-13 -58 -17 -91.5t-4 -62.5q0 -104 73 -164.5t199 -60.5q61 0 119 19.5t107 56.5q44 33 71 89t52 177l143 694l-18 37l-142 19v114h510v-117l-135 -14l-31 -31l-133 -675q-33 -171 -73 -256.5t-105 -147.5
q-86 -81 -211 -122.5t-285 -41.5q-229 0 -363 102.5t-134 274.5q0 64 27 197l1 5l133 675l-32 24l-121 8v119z" />
    <glyph glyph-name="V" unicode="V" horiz-adv-x="1370" 
d="M49 1374h670v-117l-141 -10l-27 -35l137 -837l463 852l-16 24l-127 4v119h497v-112l-135 -23l-686 -1239h-272l-219 1239l-144 18v117z" />
    <glyph glyph-name="W" unicode="W" horiz-adv-x="2009" 
d="M86 1374h643v-117l-135 -10l-35 -43l62 -753l434 923h274l96 -946l340 793l-16 26l-123 8v119h488v-110l-144 -27l-543 -1237h-262l-112 981l-469 -981h-265l-100 1237l-133 18v119z" />
    <glyph glyph-name="X" unicode="X" horiz-adv-x="1374" 
d="M104 1374h660v-114l-125 -15l-10 -31l147 -327l311 334l-14 30l-117 9v114h512v-114l-125 -15l-489 -508l283 -606l143 -18v-113h-674v119l135 8l19 35l-162 346l-324 -352l21 -29l131 -10v-117h-530v119l129 20l495 527l-268 575l-148 12v121z" />
    <glyph glyph-name="Y" unicode="Y" horiz-adv-x="1298" 
d="M47 1374h649v-119l-123 -12l-18 -31l172 -485l350 475l-16 37l-137 14v121h518v-112l-135 -29l-514 -678l-76 -393l20 -25l150 -16v-121h-692v123l151 12l31 39l65 340l-247 725l-148 18v117z" />
    <glyph glyph-name="Z" unicode="Z" horiz-adv-x="1251" 
d="M229 1374h1024l7 -114l-861 -1119h428l37 31l78 260h197l-86 -432h-1078v121l856 1112h-385l-34 -19l-74 -251h-191z" />
    <glyph glyph-name="bracketleft" unicode="[" horiz-adv-x="1014" 
d="M115 -270l305 1720h637l-25 -139h-321l-254 -1442h321l-24 -139h-639z" />
    <glyph glyph-name="backslash" unicode="\" horiz-adv-x="985" 
d="M854 -190l-838 1564h211l838 -1564h-211z" />
    <glyph glyph-name="bracketright" unicode="]" horiz-adv-x="1014" 
d="M856 1450l-303 -1720h-639l25 139h321l254 1442h-321l24 139h639z" />
    <glyph glyph-name="asciicircum" unicode="^" horiz-adv-x="2048" 
d="M1130 1462l502 -565h-104l-506 397l-506 -397h-104l503 565h215z" />
    <glyph glyph-name="underscore" unicode="_" 
d="M1024 -311v-172h-1024v172h1024z" />
    <glyph glyph-name="grave" unicode="`" 
d="M301 1532h305l125 -389h-176z" />
    <glyph glyph-name="a" unicode="a" horiz-adv-x="1331" 
d="M750 917q-6 2 -11.5 2.5t-17.5 0.5q-135 0 -228.5 -144.5t-93.5 -357.5q0 -115 39.5 -171.5t118.5 -56.5q31 0 76 15t110 47l95 541zM958 979l117 57h139l-135 -666q-7 -31 -10.5 -60t-3.5 -54q0 -56 25.5 -87.5t70.5 -31.5q30 0 66.5 8.5t83.5 26.5l-4 -106
q-105 -41 -200.5 -61.5t-182.5 -20.5q-93 0 -141 40t-48 117q-99 -79 -193 -118t-184 -39q-148 0 -233.5 105.5t-85.5 289.5q0 157 57.5 285.5t173.5 232.5q75 67 177.5 103t218.5 36q62 0 131 -13t161 -44z" />
    <glyph glyph-name="b" unicode="b" horiz-adv-x="1284" 
d="M473 94q2 0 8 -1q29 -3 39 -3q126 0 226 155.5t100 362.5q0 117 -45 176.5t-133 59.5q-31 0 -69.5 -11t-84.5 -32l-102 -613zM516 1507h123l-115 -612q108 70 197.5 104.5t165.5 34.5q138 0 224.5 -104.5t86.5 -274.5q0 -140 -57 -272.5t-160 -230.5q-91 -88 -213.5 -130
t-286.5 -42q-121 0 -226 22.5t-194 67.5l50 258l170 972l-181 25v84z" />
    <glyph glyph-name="c" unicode="c" horiz-adv-x="1018" 
d="M930 313v-145q-132 -96 -255.5 -143.5t-242.5 -47.5q-179 0 -286 115.5t-107 308.5q0 122 41.5 233t118.5 193q92 99 220.5 154t266.5 55q137 0 209 -48t72 -140q0 -83 -62.5 -136t-167.5 -61l-149 264q-91 -66 -145 -192t-54 -274q0 -126 55.5 -196.5t155.5 -70.5
q33 0 69 8t81 25q34 14 80.5 39.5t99.5 58.5z" />
    <glyph glyph-name="d" unicode="d" horiz-adv-x="1352" 
d="M753 928q-6 1 -13 1.5t-21 0.5q-45 0 -82.5 -15t-67.5 -45q-78 -79 -124 -204t-46 -258q0 -108 41 -163t121 -55q34 0 80 15.5t102 46.5l91 549zM1161 1507h119l-205 -1157q-1 -7 -3 -19q-9 -57 -9 -77q0 -54 25 -80.5t77 -26.5q21 0 56 8t84 23v-100
q-109 -46 -205.5 -70t-169.5 -24q-92 0 -142 40t-59 121q-118 -88 -201 -124.5t-159 -36.5q-142 0 -233 109.5t-91 283.5q0 136 53 267.5t146 225.5q78 80 184 123t223 43q50 0 103.5 -8t111.5 -24l54 294l-181 27v82z" />
    <glyph glyph-name="e" unicode="e" horiz-adv-x="1071" 
d="M379 571q152 15 251 85.5t99 158.5q0 46 -26.5 72t-73.5 26q-86 0 -153.5 -91t-96.5 -251zM365 465v-14q0 -134 60 -203.5t175 -69.5q75 0 163 36t181 105v-157q-144 -96 -268 -142.5t-234 -46.5q-185 0 -297 118.5t-112 314.5q0 140 58.5 261.5t172.5 217.5
q87 73 202 112t243 39q136 0 214 -63.5t78 -173.5q0 -158 -160 -246t-450 -88h-26z" />
    <glyph glyph-name="f" unicode="f" horiz-adv-x="764" 
d="M883 1178l-187 225q-47 -107 -80 -211.5t-53 -208.5h285v-152h-305l-70 -485q-28 -193 -92.5 -339t-173.5 -265q-89 -96 -181 -144.5t-188 -48.5q-85 0 -137.5 47.5t-52.5 124.5q0 58 34 100t101 64l237 -176q54 117 100 437l3 20l98 665l-143 -18v113l172 78
q42 230 192.5 367.5t356.5 137.5q113 0 183.5 -46.5t70.5 -119.5q0 -57 -43.5 -99t-126.5 -66z" />
    <glyph glyph-name="g" unicode="g" horiz-adv-x="1176" 
d="M301 49q-45 -42 -66.5 -82.5t-21.5 -83.5q0 -85 76.5 -149t183.5 -64q91 0 151 41t60 101q0 37 -32 67.5t-107 63.5zM702 805q0 56 -25.5 87.5t-72.5 31.5q-72 0 -129 -104t-57 -240q0 -60 26 -93.5t72 -33.5q74 0 130 104t56 248zM936 961h287v-127l-217 -1
q5 -24 7.5 -48.5t2.5 -49.5q0 -172 -135.5 -281t-368.5 -122l-27 -53l314 -146q131 -63 175 -114t44 -125q0 -56 -28 -107t-79 -88q-92 -68 -220 -106.5t-263 -38.5q-238 0 -366 70t-128 200q0 96 81.5 171.5t260.5 145.5q8 60 31.5 109t65.5 92q-142 21 -217.5 98
t-75.5 199q0 172 145 280.5t379 108.5q88 0 171 -17t161 -50z" />
    <glyph glyph-name="h" unicode="h" horiz-adv-x="1360" 
d="M551 1507h121l-148 -686q137 108 240 160.5t180 52.5q101 0 166.5 -63.5t65.5 -161.5q0 -25 -6 -64t-17 -89l-55 -244q-12 -53 -18.5 -95t-6.5 -67q0 -59 25.5 -87t79.5 -28q22 0 55 7t78 22v-98q-125 -41 -222 -61.5t-163 -20.5q-91 0 -141 42.5t-50 120.5q0 30 14 102
q2 9 3 13l63 303q10 46 15.5 81t5.5 56q0 51 -27 81t-72 30q-37 0 -91 -24.5t-138 -81.5l-129 -707h-342l270 1313l-178 22l-2 80z" />
    <glyph glyph-name="i" unicode="i" horiz-adv-x="739" 
d="M467 1034h129l-123 -620q-10 -53 -15 -98t-5 -76q0 -43 24 -68t66 -25q22 0 61 7t101 22v-100q-131 -46 -229 -68t-173 -22q-103 0 -153 43.5t-50 132.5q0 23 7 69t20 107l104 493l-176 23v94zM508 1528q83 0 127.5 -40t44.5 -114q0 -86 -60 -141t-155 -55
q-75 0 -121.5 42.5t-46.5 108.5q0 85 60.5 142t150.5 57z" />
    <glyph glyph-name="j" unicode="j" horiz-adv-x="692" 
d="M483 1034h115l-106 -657q-3 -13 -7 -37q-63 -390 -241 -567q-46 -46 -119 -93.5t-158 -87.5q-34 -16 -70.5 -24t-74.5 -8q-88 0 -134 38t-46 111q0 57 26.5 100t73.5 62l283 -137q27 48 50 137t48 244l115 714l-195 31v88zM508 1528q83 0 127.5 -40t44.5 -114
q0 -86 -60 -141t-155 -55q-75 0 -121.5 42.5t-46.5 108.5q0 85 60.5 142t150.5 57z" />
    <glyph glyph-name="k" unicode="k" horiz-adv-x="1284" 
d="M543 1507h119l-186 -943l4 4q448 474 571 474q63 0 111 -52.5t48 -121.5q0 -85 -58.5 -144t-168.5 -85l-78 158l-123 -95l152 -352q61 -142 106 -186.5t113 -44.5q15 0 41.5 4t67.5 12v-94q-120 -30 -207 -44.5t-144 -14.5q-104 0 -161 48t-127 234l-93 252l-81 -102
l-80 -414h-328l254 1307l-178 20l-6 80z" />
    <glyph glyph-name="l" unicode="l" horiz-adv-x="721" 
d="M537 1507h122l-206 -1087q-15 -77 -21 -117t-6 -63q0 -48 23 -73.5t67 -25.5q31 0 71 8t91 23v-98q-148 -51 -242 -74t-155 -23q-93 0 -148 49.5t-55 133.5q0 32 7 88t19 117l187 940l-182 22v84z" />
    <glyph glyph-name="m" unicode="m" horiz-adv-x="2023" 
d="M471 1034h113l-47 -213q113 103 222 158t199 55q108 0 166 -52.5t64 -156.5q119 104 226.5 156.5t199.5 52.5q103 0 166 -64t63 -169q0 -18 -3.5 -42.5t-10.5 -53.5l-53 -246q-16 -72 -24.5 -126.5t-8.5 -86.5q0 -54 23.5 -77.5t78.5 -23.5q23 0 56 7t84 22v-100
q-128 -47 -228.5 -70.5t-173.5 -23.5q-85 0 -135.5 47.5t-50.5 128.5q0 30 3.5 57.5t10.5 54.5l82 342q7 29 10.5 53t3.5 39q0 57 -27 84t-83 27q-41 0 -99 -24t-118 -66l-121 -723h-336l121 631l9 52.5t3 25.5q0 49 -28.5 76.5t-79.5 27.5q-45 0 -99 -21.5t-117 -64.5
l-122 -727h-332l155 823l-167 17v94z" />
    <glyph glyph-name="n" unicode="n" horiz-adv-x="1370" 
d="M471 1034h111l-50 -215q137 109 242 162t182 53q102 0 167 -63.5t65 -161.5q0 -29 -5.5 -68.5t-15.5 -85.5l-57 -243q-12 -53 -18.5 -95t-6.5 -67q0 -59 25.5 -87t79.5 -28q22 0 55 7t78 22v-98q-125 -41 -222 -61.5t-163 -20.5q-90 0 -139 42.5t-49 120.5q0 30 14 103
q1 7 2 12l63 303q9 41 14 76.5t5 60.5q0 52 -26.5 81.5t-71.5 29.5q-36 0 -86 -23t-138 -81l-118 -709h-353l164 825l-176 15v84z" />
    <glyph glyph-name="o" unicode="o" horiz-adv-x="1270" 
d="M655 899q-114 0 -188 -145.5t-74 -378.5q0 -139 40 -205t124 -66q111 0 184.5 147t73.5 374q0 141 -39 207.5t-121 66.5zM676 1030q236 0 367 -115.5t131 -322.5q0 -271 -183.5 -445t-470.5 -174q-229 0 -356 121t-127 338q0 131 52.5 245t154.5 202q82 71 196 111
t236 40z" />
    <glyph glyph-name="p" unicode="p" horiz-adv-x="1305" 
d="M401 25l-55 -332l193 -43v-96h-672v102l137 41l19 33l190 1101l-166 17v94l408 92h127l-33 -160q95 81 183.5 120.5t174.5 39.5q142 0 226 -101t84 -271q0 -289 -183 -476.5t-463 -187.5q-33 0 -73 6.5t-97 20.5zM422 152q27 -11 53 -16t53 -5q146 0 243 143t97 361
q0 98 -38.5 150.5t-110.5 52.5q-39 0 -85 -18t-102 -54z" />
    <glyph glyph-name="q" unicode="q" horiz-adv-x="1305" 
d="M755 926q-6 1 -12.5 1.5t-19.5 0.5q-61 0 -109.5 -26t-91.5 -81q-60 -78 -95.5 -190t-35.5 -228q0 -111 40 -163t126 -52q33 0 76.5 11t105.5 34l101 562zM948 989l137 49h125l-243 -1360l178 -36v-88h-666v98l131 26l27 31l82 424q-107 -76 -191 -110.5t-159 -34.5
q-149 0 -235.5 107.5t-86.5 293.5q0 131 48.5 252.5t140.5 220.5q82 88 185.5 132t229.5 44q60 0 131.5 -11.5t165.5 -37.5z" />
    <glyph glyph-name="r" unicode="r" horiz-adv-x="1063" 
d="M807 623l-62 200q-112 -48 -177 -135t-87 -219l-78 -469h-335l163 829l-180 15v90l418 100h98l-53 -280q130 161 219 227t172 66q78 0 125 -51.5t47 -135.5q0 -107 -73 -171.5t-197 -65.5z" />
    <glyph glyph-name="s" unicode="s" horiz-adv-x="999" 
d="M713 678l-111 233q-9 2 -20.5 3t-32.5 1q-65 0 -104 -32.5t-39 -85.5q0 -76 157 -151l52 -26q146 -72 204 -136t58 -148q0 -150 -142.5 -256.5t-349.5 -106.5q-177 0 -286 66t-109 170q0 68 44 107.5t120 39.5q33 0 70.5 -12t76.5 -35l-41 -188q29 -15 61 -22t68 -7
q71 0 117.5 41t46.5 100q0 82 -159 152q-16 7 -23 10q-161 72 -219 135t-58 156q0 152 137 250t351 98q160 0 248 -50.5t88 -143.5q0 -74 -54.5 -117t-150.5 -45z" />
    <glyph glyph-name="t" unicode="t" horiz-adv-x="848" 
d="M461 1276h174l-55 -291h278v-151h-305l-86 -455q-7 -39 -10.5 -73.5t-3.5 -61.5q0 -48 28 -74.5t80 -26.5q29 0 74.5 10t114.5 31v-116q-153 -45 -252.5 -65.5t-157.5 -20.5q-110 0 -169.5 52.5t-59.5 149.5q0 25 3 53t11 70l98 527h-147v88l213 110z" />
    <glyph glyph-name="u" unicode="u" horiz-adv-x="1370" 
d="M457 1034h129l-121 -628q-6 -32 -9 -53.5t-3 -35.5q0 -58 25.5 -84t82.5 -26q33 0 81.5 15t131.5 52l121 705l238 55h102l-109 -626v-2q-24 -132 -24 -166q0 -53 27.5 -80t80.5 -27q22 0 54 7.5t75 23.5v-90q-131 -48 -233 -72.5t-168 -24.5q-85 0 -128 45.5t-48 138.5
q-163 -101 -259.5 -142.5t-166.5 -41.5q-98 0 -156.5 61.5t-58.5 164.5q0 18 7 65q3 21 5 33l88 530l-166 17v78z" />
    <glyph glyph-name="v" unicode="v" horiz-adv-x="1128" 
d="M479 0h-256l19 90l-74 754l-182 22v80l362 88h94q18 -30 28 -67.5t17 -116.5l54 -606q73 85 142.5 177.5t135.5 192.5l-57 361q47 33 90 49t84 16q74 0 117 -41.5t43 -111.5q0 -120 -166.5 -361.5t-450.5 -525.5z" />
    <glyph glyph-name="w" unicode="w" horiz-adv-x="1753" 
d="M354 1038h119q13 -59 19 -100.5t8 -77.5l22 -500l299 566v59l309 25l39 -779l265 367l-58 377q36 31 74.5 47t77.5 16q81 0 127.5 -44t46.5 -120q0 -105 -104 -272t-468 -602h-241l-47 705l-383 -705h-260l20 92l-33 742l-202 30v88z" />
    <glyph glyph-name="x" unicode="x" horiz-adv-x="1157" 
d="M961 657l-76 138q-59 -41 -107 -91.5t-88 -111.5l98 -303q28 -86 75 -122t130 -36q26 0 51 2t52 6v-100q-126 -28 -217 -41.5t-146 -13.5q-117 0 -177.5 70.5t-111.5 279.5q-142 -214 -219.5 -282t-156.5 -68q-65 0 -108.5 45.5t-43.5 113.5q0 72 45.5 124t136.5 85
l88 -129q62 49 114 106t95 122q-35 101 -69 194t-68 180l-211 6v93l365 110h102q37 -74 68 -157t59 -177q106 179 192 256.5t175 77.5q65 0 105 -41.5t40 -109.5q0 -80 -50.5 -139.5t-141.5 -86.5z" />
    <glyph glyph-name="y" unicode="y" horiz-adv-x="1096" 
d="M309 1034h117q28 -37 44.5 -84.5t25.5 -109.5l79 -559l33 77q168 404 289 676h86l172 -55v-70l-145 -71q-102 -150 -240.5 -456t-216.5 -433q-122 -198 -243.5 -299t-237.5 -101q-81 0 -131 48t-50 122q0 68 37.5 116.5t104.5 68.5l157 -140q60 12 125 83.5t148 218.5
h-158l-145 776l-193 22v90z" />
    <glyph glyph-name="z" unicode="z" horiz-adv-x="1042" 
d="M858 1053l178 -123l-680 -639l168 49q36 -51 88.5 -77.5t116.5 -26.5q20 0 45.5 6t63.5 20l-154 174q24 52 60 78.5t81 26.5q63 0 103.5 -46.5t40.5 -119.5q0 -72 -41 -155.5t-107 -141.5q-45 -41 -109 -63.5t-134 -22.5q-72 0 -205.5 45.5t-204.5 46.5l-49 -117
l-176 105l665 655l-164 -33q-64 55 -103.5 76t-76.5 21q-27 0 -53.5 -7.5t-50.5 -21.5l137 -144q-34 -55 -72.5 -82.5t-83.5 -27.5q-48 0 -78 39.5t-30 103.5q0 62 30.5 131t86.5 133q55 63 120.5 96t135.5 33q61 0 188.5 -54t204.5 -68z" />
    <glyph glyph-name="braceleft" unicode="{" 
d="M903 1313q-146 -6 -200 -60.5t-54 -205.5v-86q0 -162 -83.5 -251.5t-254.5 -109.5q171 -20 254.5 -108.5t83.5 -249.5v-131q0 -141 54.5 -193t199.5 -56v-134h-67q-286 0 -394 83t-108 298v155q0 151 -52.5 208.5t-187.5 57.5h-33v140h33q135 0 187.5 57.5t52.5 208.5
v133q0 213 107 296t393 83h69v-135z" />
    <glyph glyph-name="bar" unicode="|" 
d="M602 1565v-2048h-178v2048h178z" />
    <glyph glyph-name="braceright" unicode="}" 
d="M109 1448h67q286 0 393 -83t107 -296v-133q0 -151 53.5 -208.5t190.5 -57.5h30v-140h-32q-137 0 -189.5 -57t-52.5 -209v-155q0 -215 -108 -298t-392 -83h-67v135q144 3 197.5 55t53.5 193v131q0 160 84.5 249t255.5 109q-170 20 -255 109.5t-85 251.5v86q0 152 -53 206
t-198 60v135z" />
    <glyph glyph-name="asciitilde" unicode="~" horiz-adv-x="1706" 
d="M1530 600q-103 -71 -197.5 -106t-183.5 -35q-44 0 -92.5 8.5t-98.5 26.5q-25 8 -76 26q-212 74 -319 74q-82 0 -174 -38t-211 -122v187q106 72 202 107.5t185 35.5q62 0 125.5 -12t168.5 -48q13 -4 42 -15q164 -58 250 -58q85 0 177 37t202 116v-184z" />
    <glyph glyph-name="Adieresis" unicode="&#xc4;" horiz-adv-x="1407" 
d="M721 1081l-262 -485h342zM711 1389h290l218 -1248l141 -20v-121h-649v123l133 12l30 33l-49 291h-444l-164 -297l23 -31l122 -10v-121h-487v119l121 18zM1090 1860q64 0 110 -49t46 -117q0 -67 -46.5 -115.5t-109.5 -48.5q-66 0 -112 47.5t-46 116.5t46.5 117.5
t111.5 48.5zM623 1860q64 0 110 -49t46 -117q0 -67 -46 -115.5t-110 -48.5q-66 0 -111 47.5t-45 116.5t45.5 117.5t110.5 48.5z" />
    <glyph glyph-name="Aring" unicode="&#xc5;" horiz-adv-x="1407" 
d="M872 1849q-49 0 -84.5 -35t-35.5 -85q0 -51 35.5 -88t84.5 -37q52 0 88.5 36.5t36.5 88.5q0 50 -36 85t-89 35zM872 1972q103 0 174.5 -71.5t71.5 -174.5q0 -102 -71 -172.5t-175 -70.5q-102 0 -172.5 70.5t-70.5 172.5q0 104 70.5 175t172.5 71zM721 1081l-262 -485h342
zM711 1389h290l218 -1248l141 -20v-121h-649v123l133 12l30 33l-49 291h-444l-164 -297l23 -31l122 -10v-121h-487v119l121 18z" />
    <glyph glyph-name="Ccedilla" unicode="&#xc7;" horiz-adv-x="1374" 
d="M1386 1333l-73 -375h-183l-4 246l-26 39q-23 3 -45 4.5t-43 1.5q-249 0 -403 -190t-154 -498q0 -213 100 -326.5t289 -113.5q25 0 38 0.5t23 1.5l43 39l103 270h188l-78 -387q-127 -38 -234.5 -57t-195.5 -19q-308 0 -485.5 164.5t-177.5 446.5q0 163 67 313t193 268
q126 119 286.5 180.5t343.5 61.5q94 0 201 -17.5t227 -52.5zM628 0h125l-20 -106h20q74 0 113 -30.5t39 -88.5q0 -115 -86 -186.5t-225 -71.5q-35 0 -76.5 6t-93.5 18l22 119q46 -9 81 -13.5t58 -4.5q54 0 85.5 21.5t31.5 57.5q0 21 -21 33.5t-57 12.5q-11 -1 -37 -4
q-4 0 -6 -1z" />
    <glyph glyph-name="Eacute" unicode="&#xc9;" horiz-adv-x="1309" 
d="M172 1374h1116l-67 -342h-162l-6 174l-27 31h-350l-88 -461h205l30 29l58 151h141l-96 -503h-135v157l-29 29h-201l-98 -498h426l26 25l89 235h178l-78 -401h-1147v119l141 14l25 33l205 1040l-21 35l-135 12v121zM960 1899h305l-405 -389h-176z" />
    <glyph glyph-name="Ntilde" unicode="&#xd1;" horiz-adv-x="1579" 
d="M170 1374h567v-47l373 -954l168 846l-25 28l-143 15v112h524v-114l-137 -11l-37 -24l-235 -1225h-303l-433 1087l-178 -911l17 -41l143 -14v-121h-518v125l143 10l27 33l209 1053l-29 30l-133 9v114zM1207 1876h135q-25 -158 -86.5 -235.5t-163.5 -77.5q-73 0 -167 46
t-118 46q-39 0 -63.5 -31t-34.5 -93l-137 -1q23 157 85.5 234.5t166.5 77.5q68 0 162 -44.5t122 -44.5q42 0 65.5 29.5t33.5 93.5z" />
    <glyph glyph-name="Odieresis" unicode="&#xd6;" horiz-adv-x="1597" 
d="M1133 850q0 193 -68.5 297t-194.5 104q-75 0 -142.5 -45t-127.5 -135q-70 -105 -108.5 -251t-38.5 -308q0 -180 72 -284.5t194 -104.5q82 0 158 53.5t129 149.5q61 112 94 248t33 276zM897 1405q285 0 449.5 -155.5t164.5 -424.5q0 -190 -68 -352t-200 -287
q-115 -107 -260.5 -162t-316.5 -55q-270 0 -431 161t-161 431q0 129 35 250t104 227q111 175 290.5 271t393.5 96zM1186 1860q64 0 110 -49t46 -117q0 -67 -46.5 -115.5t-109.5 -48.5q-66 0 -112 47.5t-46 116.5t46.5 117.5t111.5 48.5zM719 1860q64 0 110 -49t46 -117
q0 -67 -46 -115.5t-110 -48.5q-66 0 -111 47.5t-45 116.5t45.5 117.5t110.5 48.5z" />
    <glyph glyph-name="Udieresis" unicode="&#xdc;" horiz-adv-x="1569" 
d="M166 1374h659v-114l-131 -9l-28 -20l-131 -684q-13 -58 -17 -91.5t-4 -62.5q0 -104 73 -164.5t199 -60.5q61 0 119 19.5t107 56.5q44 33 71 89t52 177l143 694l-18 37l-142 19v114h510v-117l-135 -14l-31 -31l-133 -675q-33 -171 -73 -256.5t-105 -147.5
q-86 -81 -211 -122.5t-285 -41.5q-229 0 -363 102.5t-134 274.5q0 64 27 197l1 5l133 675l-32 24l-121 8v119zM1171 1860q64 0 110 -49t46 -117q0 -67 -46.5 -115.5t-109.5 -48.5q-66 0 -112 47.5t-46 116.5t46.5 117.5t111.5 48.5zM704 1860q64 0 110 -49t46 -117
q0 -67 -46 -115.5t-110 -48.5q-66 0 -111 47.5t-45 116.5t45.5 117.5t110.5 48.5z" />
    <glyph glyph-name="aacute" unicode="&#xe1;" horiz-adv-x="1331" 
d="M750 917q-6 2 -11.5 2.5t-17.5 0.5q-135 0 -228.5 -144.5t-93.5 -357.5q0 -115 39.5 -171.5t118.5 -56.5q31 0 76 15t110 47l95 541zM958 979l117 57h139l-135 -666q-7 -31 -10.5 -60t-3.5 -54q0 -56 25.5 -87.5t70.5 -31.5q30 0 66.5 8.5t83.5 26.5l-4 -106
q-105 -41 -200.5 -61.5t-182.5 -20.5q-93 0 -141 40t-48 117q-99 -79 -193 -118t-184 -39q-148 0 -233.5 105.5t-85.5 289.5q0 157 57.5 285.5t173.5 232.5q75 67 177.5 103t218.5 36q62 0 131 -13t161 -44zM926 1532h305l-405 -389h-176z" />
    <glyph glyph-name="agrave" unicode="&#xe0;" horiz-adv-x="1331" 
d="M750 917q-6 2 -11.5 2.5t-17.5 0.5q-135 0 -228.5 -144.5t-93.5 -357.5q0 -115 39.5 -171.5t118.5 -56.5q31 0 76 15t110 47l95 541zM958 979l117 57h139l-135 -666q-7 -31 -10.5 -60t-3.5 -54q0 -56 25.5 -87.5t70.5 -31.5q30 0 66.5 8.5t83.5 26.5l-4 -106
q-105 -41 -200.5 -61.5t-182.5 -20.5q-93 0 -141 40t-48 117q-99 -79 -193 -118t-184 -39q-148 0 -233.5 105.5t-85.5 289.5q0 157 57.5 285.5t173.5 232.5q75 67 177.5 103t218.5 36q62 0 131 -13t161 -44zM455 1532h305l125 -389h-176z" />
    <glyph glyph-name="acircumflex" unicode="&#xe2;" horiz-adv-x="1331" 
d="M750 917q-6 2 -11.5 2.5t-17.5 0.5q-135 0 -228.5 -144.5t-93.5 -357.5q0 -115 39.5 -171.5t118.5 -56.5q31 0 76 15t110 47l95 541zM958 979l117 57h139l-135 -666q-7 -31 -10.5 -60t-3.5 -54q0 -56 25.5 -87.5t70.5 -31.5q30 0 66.5 8.5t83.5 26.5l-4 -106
q-105 -41 -200.5 -61.5t-182.5 -20.5q-93 0 -141 40t-48 117q-99 -79 -193 -118t-184 -39q-148 0 -233.5 105.5t-85.5 289.5q0 157 57.5 285.5t173.5 232.5q75 67 177.5 103t218.5 36q62 0 131 -13t161 -44zM717 1532h228l149 -389h-207l-90 223l-176 -223h-205z" />
    <glyph glyph-name="adieresis" unicode="&#xe4;" horiz-adv-x="1331" 
d="M750 917q-6 2 -11.5 2.5t-17.5 0.5q-135 0 -228.5 -144.5t-93.5 -357.5q0 -115 39.5 -171.5t118.5 -56.5q31 0 76 15t110 47l95 541zM958 979l117 57h139l-135 -666q-7 -31 -10.5 -60t-3.5 -54q0 -56 25.5 -87.5t70.5 -31.5q30 0 66.5 8.5t83.5 26.5l-4 -106
q-105 -41 -200.5 -61.5t-182.5 -20.5q-93 0 -141 40t-48 117q-99 -79 -193 -118t-184 -39q-148 0 -233.5 105.5t-85.5 289.5q0 157 57.5 285.5t173.5 232.5q75 67 177.5 103t218.5 36q62 0 131 -13t161 -44zM1006 1493q64 0 110 -49t46 -117q0 -67 -46.5 -115.5
t-109.5 -48.5q-66 0 -112 47.5t-46 116.5t46.5 117.5t111.5 48.5zM539 1493q64 0 110 -49t46 -117q0 -67 -46 -115.5t-110 -48.5q-66 0 -111 47.5t-45 116.5t45.5 117.5t110.5 48.5z" />
    <glyph glyph-name="atilde" unicode="&#xe3;" horiz-adv-x="1331" 
d="M750 917q-6 2 -11.5 2.5t-17.5 0.5q-135 0 -228.5 -144.5t-93.5 -357.5q0 -115 39.5 -171.5t118.5 -56.5q31 0 76 15t110 47l95 541zM958 979l117 57h139l-135 -666q-7 -31 -10.5 -60t-3.5 -54q0 -56 25.5 -87.5t70.5 -31.5q30 0 66.5 8.5t83.5 26.5l-4 -106
q-105 -41 -200.5 -61.5t-182.5 -20.5q-93 0 -141 40t-48 117q-99 -79 -193 -118t-184 -39q-148 0 -233.5 105.5t-85.5 289.5q0 157 57.5 285.5t173.5 232.5q75 67 177.5 103t218.5 36q62 0 131 -13t161 -44zM1037 1509h135q-25 -158 -86.5 -235.5t-163.5 -77.5
q-73 0 -167 46t-118 46q-39 0 -63.5 -31t-34.5 -93l-137 -1q23 157 85.5 234.5t166.5 77.5q68 0 162 -44.5t122 -44.5q42 0 65.5 29.5t33.5 93.5z" />
    <glyph glyph-name="aring" unicode="&#xe5;" horiz-adv-x="1331" 
d="M725 1487q-49 0 -85 -36.5t-36 -86.5t36 -86.5t85 -36.5q52 0 88.5 36t36.5 87t-36.5 87t-88.5 36zM725 1608q103 0 174.5 -71t71.5 -173q0 -103 -71.5 -174.5t-174.5 -71.5t-173.5 71.5t-70.5 174.5t70.5 173.5t173.5 70.5zM750 917q-6 2 -11.5 2.5t-17.5 0.5
q-135 0 -228.5 -144.5t-93.5 -357.5q0 -115 39.5 -171.5t118.5 -56.5q31 0 76 15t110 47l95 541zM958 979l117 57h139l-135 -666q-7 -31 -10.5 -60t-3.5 -54q0 -56 25.5 -87.5t70.5 -31.5q30 0 66.5 8.5t83.5 26.5l-4 -106q-105 -41 -200.5 -61.5t-182.5 -20.5
q-93 0 -141 40t-48 117q-99 -79 -193 -118t-184 -39q-148 0 -233.5 105.5t-85.5 289.5q0 157 57.5 285.5t173.5 232.5q75 67 177.5 103t218.5 36q62 0 131 -13t161 -44z" />
    <glyph glyph-name="ccedilla" unicode="&#xe7;" horiz-adv-x="1018" 
d="M930 313v-145q-132 -96 -255.5 -143.5t-242.5 -47.5q-179 0 -286 115.5t-107 308.5q0 122 41.5 233t118.5 193q92 99 220.5 154t266.5 55q137 0 209 -48t72 -140q0 -83 -62.5 -136t-167.5 -61l-149 264q-91 -66 -145 -192t-54 -274q0 -126 55.5 -196.5t155.5 -70.5
q33 0 69 8t81 25q34 14 80.5 39.5t99.5 58.5zM316 0h125l-20 -106h20q74 0 113 -30.5t39 -88.5q0 -115 -86 -186.5t-225 -71.5q-35 0 -76.5 6t-93.5 18l22 119q46 -9 81 -13.5t58 -4.5q54 0 85.5 21.5t31.5 57.5q0 21 -21 33.5t-57 12.5q-11 -1 -37 -4q-4 0 -6 -1z" />
    <glyph glyph-name="eacute" unicode="&#xe9;" horiz-adv-x="1071" 
d="M379 571q152 15 251 85.5t99 158.5q0 46 -26.5 72t-73.5 26q-86 0 -153.5 -91t-96.5 -251zM365 465v-14q0 -134 60 -203.5t175 -69.5q75 0 163 36t181 105v-157q-144 -96 -268 -142.5t-234 -46.5q-185 0 -297 118.5t-112 314.5q0 140 58.5 261.5t172.5 217.5
q87 73 202 112t243 39q136 0 214 -63.5t78 -173.5q0 -158 -160 -246t-450 -88h-26zM797 1532h305l-405 -389h-176z" />
    <glyph glyph-name="egrave" unicode="&#xe8;" horiz-adv-x="1071" 
d="M379 571q152 15 251 85.5t99 158.5q0 46 -26.5 72t-73.5 26q-86 0 -153.5 -91t-96.5 -251zM365 465v-14q0 -134 60 -203.5t175 -69.5q75 0 163 36t181 105v-157q-144 -96 -268 -142.5t-234 -46.5q-185 0 -297 118.5t-112 314.5q0 140 58.5 261.5t172.5 217.5
q87 73 202 112t243 39q136 0 214 -63.5t78 -173.5q0 -158 -160 -246t-450 -88h-26zM326 1532h305l125 -389h-176z" />
    <glyph glyph-name="ecircumflex" unicode="&#xea;" horiz-adv-x="1071" 
d="M379 571q152 15 251 85.5t99 158.5q0 46 -26.5 72t-73.5 26q-86 0 -153.5 -91t-96.5 -251zM365 465v-14q0 -134 60 -203.5t175 -69.5q75 0 163 36t181 105v-157q-144 -96 -268 -142.5t-234 -46.5q-185 0 -297 118.5t-112 314.5q0 140 58.5 261.5t172.5 217.5
q87 73 202 112t243 39q136 0 214 -63.5t78 -173.5q0 -158 -160 -246t-450 -88h-26zM588 1532h228l149 -389h-207l-90 223l-176 -223h-205z" />
    <glyph glyph-name="edieresis" unicode="&#xeb;" horiz-adv-x="1071" 
d="M379 571q152 15 251 85.5t99 158.5q0 46 -26.5 72t-73.5 26q-86 0 -153.5 -91t-96.5 -251zM365 465v-14q0 -134 60 -203.5t175 -69.5q75 0 163 36t181 105v-157q-144 -96 -268 -142.5t-234 -46.5q-185 0 -297 118.5t-112 314.5q0 140 58.5 261.5t172.5 217.5
q87 73 202 112t243 39q136 0 214 -63.5t78 -173.5q0 -158 -160 -246t-450 -88h-26zM877 1493q64 0 110 -49t46 -117q0 -67 -46.5 -115.5t-109.5 -48.5q-66 0 -112 47.5t-46 116.5t46.5 117.5t111.5 48.5zM410 1493q64 0 110 -49t46 -117q0 -67 -46 -115.5t-110 -48.5
q-66 0 -111 47.5t-45 116.5t45.5 117.5t110.5 48.5z" />
    <glyph glyph-name="iacute" unicode="&#xed;" horiz-adv-x="739" 
d="M231 831l-176 23v94l412 86h129l-123 -620q-10 -53 -15 -98t-5 -76q0 -43 24 -68t66 -25q22 0 61 7t101 22v-100q-131 -46 -229 -68t-173 -22q-103 0 -153 43.5t-50 132.5q0 23 7 69t20 107zM570 1532h305l-405 -389h-176z" />
    <glyph glyph-name="igrave" unicode="&#xec;" horiz-adv-x="739" 
d="M231 831l-176 23v94l412 86h129l-123 -620q-10 -53 -15 -98t-5 -76q0 -43 24 -68t66 -25q22 0 61 7t101 22v-100q-131 -46 -229 -68t-173 -22q-103 0 -153 43.5t-50 132.5q0 23 7 69t20 107zM99 1532h305l125 -389h-176z" />
    <glyph glyph-name="icircumflex" unicode="&#xee;" horiz-adv-x="739" 
d="M231 831l-176 23v94l412 86h129l-123 -620q-10 -53 -15 -98t-5 -76q0 -43 24 -68t66 -25q22 0 61 7t101 22v-100q-131 -46 -229 -68t-173 -22q-103 0 -153 43.5t-50 132.5q0 23 7 69t20 107zM361 1532h228l149 -389h-207l-90 223l-176 -223h-205z" />
    <glyph glyph-name="idieresis" unicode="&#xef;" horiz-adv-x="739" 
d="M231 831l-176 23v94l412 86h129l-123 -620q-10 -53 -15 -98t-5 -76q0 -43 24 -68t66 -25q22 0 61 7t101 22v-100q-131 -46 -229 -68t-173 -22q-103 0 -153 43.5t-50 132.5q0 23 7 69t20 107zM650 1493q64 0 110 -49t46 -117q0 -67 -46.5 -115.5t-109.5 -48.5
q-66 0 -112 47.5t-46 116.5t46.5 117.5t111.5 48.5zM183 1493q64 0 110 -49t46 -117q0 -67 -46 -115.5t-110 -48.5q-66 0 -111 47.5t-45 116.5t45.5 117.5t110.5 48.5z" />
    <glyph glyph-name="ntilde" unicode="&#xf1;" horiz-adv-x="1370" 
d="M471 1034h111l-50 -215q137 109 242 162t182 53q102 0 167 -63.5t65 -161.5q0 -29 -5.5 -68.5t-15.5 -85.5l-57 -243q-12 -53 -18.5 -95t-6.5 -67q0 -59 25.5 -87t79.5 -28q22 0 55 7t78 22v-98q-125 -41 -222 -61.5t-163 -20.5q-90 0 -139 42.5t-49 120.5q0 30 14 103
q1 7 2 12l63 303q9 41 14 76.5t5 60.5q0 52 -26.5 81.5t-71.5 29.5q-36 0 -86 -23t-138 -81l-118 -709h-353l164 825l-176 15v84zM1057 1509h135q-25 -158 -86.5 -235.5t-163.5 -77.5q-73 0 -167 46t-118 46q-39 0 -63.5 -31t-34.5 -93l-137 -1q23 157 85.5 234.5
t166.5 77.5q68 0 162 -44.5t122 -44.5q42 0 65.5 29.5t33.5 93.5z" />
    <glyph glyph-name="oacute" unicode="&#xf3;" horiz-adv-x="1270" 
d="M655 899q-114 0 -188 -145.5t-74 -378.5q0 -139 40 -205t124 -66q111 0 184.5 147t73.5 374q0 141 -39 207.5t-121 66.5zM676 1030q236 0 367 -115.5t131 -322.5q0 -271 -183.5 -445t-470.5 -174q-229 0 -356 121t-127 338q0 131 52.5 245t154.5 202q82 71 196 111
t236 40zM895 1532h305l-405 -389h-176z" />
    <glyph glyph-name="ograve" unicode="&#xf2;" horiz-adv-x="1270" 
d="M655 899q-114 0 -188 -145.5t-74 -378.5q0 -139 40 -205t124 -66q111 0 184.5 147t73.5 374q0 141 -39 207.5t-121 66.5zM676 1030q236 0 367 -115.5t131 -322.5q0 -271 -183.5 -445t-470.5 -174q-229 0 -356 121t-127 338q0 131 52.5 245t154.5 202q82 71 196 111
t236 40zM424 1532h305l125 -389h-176z" />
    <glyph glyph-name="ocircumflex" unicode="&#xf4;" horiz-adv-x="1270" 
d="M655 899q-114 0 -188 -145.5t-74 -378.5q0 -139 40 -205t124 -66q111 0 184.5 147t73.5 374q0 141 -39 207.5t-121 66.5zM676 1030q236 0 367 -115.5t131 -322.5q0 -271 -183.5 -445t-470.5 -174q-229 0 -356 121t-127 338q0 131 52.5 245t154.5 202q82 71 196 111
t236 40zM686 1532h228l149 -389h-207l-90 223l-176 -223h-205z" />
    <glyph glyph-name="odieresis" unicode="&#xf6;" horiz-adv-x="1270" 
d="M655 899q-114 0 -188 -145.5t-74 -378.5q0 -139 40 -205t124 -66q111 0 184.5 147t73.5 374q0 141 -39 207.5t-121 66.5zM676 1030q236 0 367 -115.5t131 -322.5q0 -271 -183.5 -445t-470.5 -174q-229 0 -356 121t-127 338q0 131 52.5 245t154.5 202q82 71 196 111
t236 40zM975 1493q64 0 110 -49t46 -117q0 -67 -46.5 -115.5t-109.5 -48.5q-66 0 -112 47.5t-46 116.5t46.5 117.5t111.5 48.5zM508 1493q64 0 110 -49t46 -117q0 -67 -46 -115.5t-110 -48.5q-66 0 -111 47.5t-45 116.5t45.5 117.5t110.5 48.5z" />
    <glyph glyph-name="otilde" unicode="&#xf5;" horiz-adv-x="1270" 
d="M655 899q-114 0 -188 -145.5t-74 -378.5q0 -139 40 -205t124 -66q111 0 184.5 147t73.5 374q0 141 -39 207.5t-121 66.5zM676 1030q236 0 367 -115.5t131 -322.5q0 -271 -183.5 -445t-470.5 -174q-229 0 -356 121t-127 338q0 131 52.5 245t154.5 202q82 71 196 111
t236 40zM1006 1509h135q-25 -158 -86.5 -235.5t-163.5 -77.5q-73 0 -167 46t-118 46q-39 0 -63.5 -31t-34.5 -93l-137 -1q23 157 85.5 234.5t166.5 77.5q68 0 162 -44.5t122 -44.5q42 0 65.5 29.5t33.5 93.5z" />
    <glyph glyph-name="uacute" unicode="&#xfa;" horiz-adv-x="1370" 
d="M457 1034h129l-121 -628q-6 -32 -9 -53.5t-3 -35.5q0 -58 25.5 -84t82.5 -26q33 0 81.5 15t131.5 52l121 705l238 55h102l-109 -626v-2q-24 -132 -24 -166q0 -53 27.5 -80t80.5 -27q22 0 54 7.5t75 23.5v-90q-131 -48 -233 -72.5t-168 -24.5q-85 0 -128 45.5t-48 138.5
q-163 -101 -259.5 -142.5t-166.5 -41.5q-98 0 -156.5 61.5t-58.5 164.5q0 18 7 65q3 21 5 33l88 530l-166 17v78zM946 1532h305l-405 -389h-176z" />
    <glyph glyph-name="ugrave" unicode="&#xf9;" horiz-adv-x="1370" 
d="M457 1034h129l-121 -628q-6 -32 -9 -53.5t-3 -35.5q0 -58 25.5 -84t82.5 -26q33 0 81.5 15t131.5 52l121 705l238 55h102l-109 -626v-2q-24 -132 -24 -166q0 -53 27.5 -80t80.5 -27q22 0 54 7.5t75 23.5v-90q-131 -48 -233 -72.5t-168 -24.5q-85 0 -128 45.5t-48 138.5
q-163 -101 -259.5 -142.5t-166.5 -41.5q-98 0 -156.5 61.5t-58.5 164.5q0 18 7 65q3 21 5 33l88 530l-166 17v78zM475 1532h305l125 -389h-176z" />
    <glyph glyph-name="ucircumflex" unicode="&#xfb;" horiz-adv-x="1370" 
d="M457 1034h129l-121 -628q-6 -32 -9 -53.5t-3 -35.5q0 -58 25.5 -84t82.5 -26q33 0 81.5 15t131.5 52l121 705l238 55h102l-109 -626v-2q-24 -132 -24 -166q0 -53 27.5 -80t80.5 -27q22 0 54 7.5t75 23.5v-90q-131 -48 -233 -72.5t-168 -24.5q-85 0 -128 45.5t-48 138.5
q-163 -101 -259.5 -142.5t-166.5 -41.5q-98 0 -156.5 61.5t-58.5 164.5q0 18 7 65q3 21 5 33l88 530l-166 17v78zM737 1532h228l149 -389h-207l-90 223l-176 -223h-205z" />
    <glyph glyph-name="udieresis" unicode="&#xfc;" horiz-adv-x="1370" 
d="M457 1034h129l-121 -628q-6 -32 -9 -53.5t-3 -35.5q0 -58 25.5 -84t82.5 -26q33 0 81.5 15t131.5 52l121 705l238 55h102l-109 -626v-2q-24 -132 -24 -166q0 -53 27.5 -80t80.5 -27q22 0 54 7.5t75 23.5v-90q-131 -48 -233 -72.5t-168 -24.5q-85 0 -128 45.5t-48 138.5
q-163 -101 -259.5 -142.5t-166.5 -41.5q-98 0 -156.5 61.5t-58.5 164.5q0 18 7 65q3 21 5 33l88 530l-166 17v78zM1026 1493q64 0 110 -49t46 -117q0 -67 -46.5 -115.5t-109.5 -48.5q-66 0 -112 47.5t-46 116.5t46.5 117.5t111.5 48.5zM559 1493q64 0 110 -49t46 -117
q0 -67 -46 -115.5t-110 -48.5q-66 0 -111 47.5t-45 116.5t45.5 117.5t110.5 48.5z" />
    <glyph glyph-name="dagger" unicode="&#x2020;" 
d="M1042 991l-172 -133l-272 105l8 45l307 112zM90 991l164 129l276 -112l-6 -45l-311 -105zM580 938l63 -336l-293 -866h-43l39 866l191 336h43zM657 1470l109 -155l-170 -287h-43l-64 287z" />
    <glyph glyph-name="degree" unicode="&#xb0;" horiz-adv-x="674" 
d="M522 1165q0 77 -53.5 131t-130.5 54t-131.5 -54t-54.5 -131q0 -76 54.5 -131t131.5 -55t130.5 54.5t53.5 131.5zM338 1460q123 0 209 -87t86 -210q0 -121 -87 -208t-210 -87t-208 85.5t-85 209.5q0 125 86 211t209 86z" />
    <glyph glyph-name="cent" unicode="&#xa2;" horiz-adv-x="1309" 
d="M623 131l155 803q-151 -17 -244.5 -158t-93.5 -354q0 -126 45.5 -198.5t137.5 -92.5zM846 1266h125l-39 -205q98 -12 170.5 -30.5t128.5 -45.5l-66 -301h-141l-4 219q-28 13 -55.5 22t-55.5 13l-159 -811q35 3 70.5 11.5t68.5 21.5l76 215h153l-65 -318
q-75 -21 -156.5 -35t-171.5 -22l-45 -223h-127l43 225q-233 24 -361.5 146.5t-128.5 320.5q0 260 190.5 422.5t507.5 171.5z" />
    <glyph glyph-name="sterling" unicode="&#xa3;" horiz-adv-x="1309" 
d="M0 0l39 193q125 18 181.5 109t68.5 300h-148l33 148h121q11 306 160.5 474.5t410.5 168.5q170 0 274.5 -74t104.5 -191q0 -80 -48 -131t-124 -51q-20 0 -44 4.5t-52 14.5l-74 299q-4 0 -11 1t-11 1q-118 0 -180 -130t-66 -386h379l-33 -148h-363q-11 -120 -77 -202
t-201 -144l10 -18q78 9 147.5 13.5t133.5 4.5h499l-49 -256h-1081z" />
    <glyph glyph-name="section" unicode="&#xa7;" 
d="M455 831q-94 -29 -146.5 -80.5t-52.5 -113.5q0 -69 59 -126.5t222 -139.5q96 44 144 96t48 111q0 61 -65.5 121.5t-208.5 131.5zM-51 -223l51 295h137l-6 -191q42 -25 83 -37t83 -12q92 0 156.5 52.5t64.5 123.5q0 47 -30.5 83t-127.5 89q-17 10 -54 28q-135 67 -195 128
q-38 39 -57 88.5t-19 107.5q0 124 78 221t225 154q-80 51 -116 103.5t-36 119.5q0 152 140.5 249.5t367.5 97.5q77 0 161 -13.5t177 -40.5l-53 -295h-125l10 172q-42 27 -84 40.5t-84 13.5q-89 0 -151 -50.5t-62 -121.5q0 -81 163 -165q50 -26 79 -42q127 -71 180 -140
t53 -159q0 -117 -84.5 -222t-226.5 -159q86 -59 123 -112t37 -113q0 -159 -139 -261t-363 -102q-96 0 -185 17.5t-171 52.5z" />
    <glyph glyph-name="bullet" unicode="&#x2022;" horiz-adv-x="1208" 
d="M307 762q0 123 87 209t210 86q122 0 208.5 -86.5t86.5 -208.5t-87.5 -209.5t-209.5 -87.5q-123 0 -209 87t-86 210z" />
    <glyph glyph-name="paragraph" unicode="&#xb6;" 
d="M569 498h-28q-261 0 -388.5 107.5t-127.5 326.5q0 230 127 336t405 106h416v-102l-129 -21v-1413h-133v1424h-142v-764z" />
    <glyph glyph-name="germandbls" unicode="&#xdf;" horiz-adv-x="1427" 
d="M1249 965h-18q-93 0 -149 -41t-56 -107q0 -76 119 -189q33 -31 51 -48q73 -72 103 -130t30 -124q0 -147 -130.5 -248t-328.5 -101q-142 0 -238.5 66.5t-96.5 161.5q0 68 43 107.5t116 39.5q32 0 63.5 -9t65.5 -28l-36 -202q29 -6 47.5 -8.5t29.5 -2.5q71 0 115.5 39.5
t44.5 100.5q0 44 -25 84t-119 123q-7 6 -20 18q-170 148 -170 274q0 102 60 167.5t176 88.5q26 81 39.5 137t13.5 89q0 72 -35.5 109.5t-103.5 37.5q-121 0 -194.5 -126t-117.5 -413l-65 -436q-35 -227 -90 -364t-146 -236q-104 -115 -211.5 -178t-195.5 -63
q-84 0 -139.5 51.5t-55.5 128.5q0 58 35 101.5t92 55.5l236 -174q67 129 124 519l3 21l84 570q49 339 227 509.5t481 170.5q186 0 291 -81t105 -224q0 -41 -12.5 -96.5t-41.5 -140.5z" />
    <glyph glyph-name="registered" unicode="&#xae;" horiz-adv-x="1843" 
d="M838 1053v-326q5 0 15 -1t15 -1q94 0 142.5 43.5t48.5 126.5q0 73 -43.5 115.5t-118.5 42.5h-59zM500 1143h487q155 0 235.5 -56.5t80.5 -164.5q0 -97 -63.5 -155t-186.5 -75q147 -26 229 -236q8 -21 12 -32q23 -58 53.5 -78t92.5 -20h10v-80q-43 -4 -79.5 -6t-67.5 -2
q-123 0 -179.5 41t-95.5 178q-31 110 -68.5 145t-109.5 35h-12v-283l20 -24l88 -6v-78h-446v78l82 8l24 22v686l-24 21l-82 4v78zM926 1501q158 0 308.5 -63t264.5 -176q110 -112 171 -262t61 -312q0 -156 -65 -305t-183 -264q-116 -113 -261 -171.5t-309 -58.5
q-152 0 -297.5 62t-259.5 176q-116 116 -176.5 262t-60.5 307q0 159 60.5 304.5t174.5 261.5q113 114 262.5 176.5t309.5 62.5zM928 1403q-139 0 -268 -54.5t-228 -154.5q-100 -104 -152.5 -230.5t-52.5 -267.5q0 -144 52 -270t153 -227q104 -103 229 -155t265 -52
q142 0 267.5 53t223.5 154q100 103 153.5 231.5t53.5 265.5q0 141 -53.5 272t-151.5 228q-98 98 -227 152.5t-264 54.5z" />
    <glyph glyph-name="copyright" unicode="&#xa9;" horiz-adv-x="1843" 
d="M1262 262q-78 -26 -156.5 -38.5t-161.5 -12.5q-223 0 -367.5 137t-144.5 346q0 208 147 344t375 136q89 0 165.5 -13.5t142.5 -40.5v-252h-129l-33 170l-25 23q-31 5 -46 6.5t-30 1.5q-132 0 -214.5 -102.5t-82.5 -270.5q0 -173 81 -277t212 -104q23 0 43 1.5t40 5.5
l22 20l35 178h127v-258zM928 1403q-139 0 -268 -54.5t-228 -154.5q-101 -105 -154 -231.5t-53 -266.5q0 -143 52.5 -269t154.5 -228q104 -103 229 -155t265 -52q142 0 267.5 53t223.5 154q100 103 153.5 231.5t53.5 265.5q0 141 -53.5 272t-151.5 228q-98 98 -227 152.5
t-264 54.5zM926 1501q158 0 308.5 -63t264.5 -176q110 -112 171 -262t61 -312q0 -156 -65 -305t-183 -264q-116 -113 -261 -171.5t-309 -58.5q-152 0 -297.5 62t-259.5 176q-116 116 -176.5 262t-60.5 307q0 159 60.5 304.5t174.5 261.5q113 114 262.5 176.5t309.5 62.5z
" />
    <glyph glyph-name="trademark" unicode="&#x2122;" horiz-adv-x="1688" 
d="M762 817v53l57 4l8 15v395l-8 10l-57 4v58h258v-29l110 -330l109 330v29h260v-58l-59 -4l-10 -12v-393l10 -15l59 -4v-53h-260v53l49 4l8 15v395l-157 -467h-80l-158 467v-395l8 -15l54 -4v-53h-201zM223 1356h490v-162h-66l-16 96l-17 8h-75v-409l16 -12l53 -7v-53h-280
v53l53 7l16 12v409h-78l-14 -8l-14 -96h-68v162z" />
    <glyph glyph-name="acute" unicode="&#xb4;" 
d="M772 1532h305l-405 -389h-176z" />
    <glyph glyph-name="dieresis" unicode="&#xa8;" 
d="M852 1493q64 0 110 -49t46 -117q0 -67 -46.5 -115.5t-109.5 -48.5q-66 0 -112 47.5t-46 116.5t46.5 117.5t111.5 48.5zM385 1493q64 0 110 -49t46 -117q0 -67 -46 -115.5t-110 -48.5q-66 0 -111 47.5t-45 116.5t45.5 117.5t110.5 48.5z" />
    <glyph glyph-name="notequal" unicode="&#x2260;" horiz-adv-x="1706" 
d="M1327 1112l-170 -215h295v-162h-403l-197 -250h600v-161h-707l-249 -314l-123 99l170 215h-289v161h393l199 250h-592v162h700l250 315z" />
    <glyph glyph-name="AE" unicode="&#xc6;" horiz-adv-x="1948" 
d="M1018 1282l-471 -635h348zM618 1374h1324l-78 -346h-160l-6 174l-27 35h-334l-92 -463h193l30 35l52 145h143l-96 -499h-133l-7 151l-26 29h-178l-97 -494h402l33 27l81 229h181l-86 -397h-1104v115l129 18l37 37l65 338h-424l-254 -344l17 -33l123 -12v-119h-521v119
l154 26l817 1069l-20 29l-138 14v117z" />
    <glyph glyph-name="Oslash" unicode="&#xd8;" horiz-adv-x="1597" 
d="M1333 1550l97 -65l-138 -193q111 -80 165 -195.5t54 -271.5q0 -190 -68 -352t-200 -287q-114 -108 -259 -162.5t-318 -54.5q-79 0 -151.5 16t-137.5 48l-150 -213l-90 76l142 194q-103 84 -154 202t-51 269q0 128 35 248t104 227q111 175 291 272t393 97q84 0 156 -13
t135 -40zM514 211q43 -50 93 -74t108 -24q182 0 310 216t128 541q0 55 -6.5 103t-20.5 92zM457 330l608 850q-38 43 -84 63.5t-102 20.5q-82 0 -154 -46.5t-135 -138.5q-73 -104 -114.5 -249.5t-41.5 -299.5q0 -46 6 -97t17 -103z" />
    <glyph glyph-name="infinity" unicode="&#x221e;" horiz-adv-x="1706" 
d="M928 559q45 -81 109.5 -122.5t146.5 -41.5q97 0 159 61.5t62 157.5q0 95 -57 158.5t-142 63.5q-78 0 -142 -63.5t-136 -213.5zM780 662q-46 81 -111 123t-145 42q-98 0 -159.5 -62t-61.5 -159q0 -94 56.5 -156.5t140.5 -62.5q80 0 144.5 62.5t135.5 212.5zM844 750
q71 139 149.5 200.5t184.5 61.5q127 0 222 -116t95 -284q0 -178 -84.5 -288.5t-220.5 -110.5q-92 0 -166.5 57.5t-161.5 200.5q-71 -135 -148.5 -197.5t-172.5 -62.5q-137 0 -232.5 114.5t-95.5 284.5q0 179 85 289.5t220 110.5q93 0 168.5 -60t157.5 -200z" />
    <glyph glyph-name="plusminus" unicode="&#xb1;" horiz-adv-x="1706" 
d="M1452 182v-168h-1198v168h1198zM938 1206v-334h514v-165h-514v-334h-170v334h-514v165h514v334h170z" />
    <glyph glyph-name="lessequal" unicode="&#x2264;" horiz-adv-x="1706" 
d="M1446 178v-166h-1186v166h1186zM1446 1047l-889 -287l889 -287v-176l-1186 389v145l1186 392v-176z" />
    <glyph glyph-name="greaterequal" unicode="&#x2265;" horiz-adv-x="1706" 
d="M1448 178v-166h-1188v166h1188zM1446 831v-145l-1186 -389v176l891 287l-891 287v176z" />
    <glyph glyph-name="yen" unicode="&#xa5;" horiz-adv-x="1374" 
d="M1464 1374v-119l-131 -18l-262 -348h256v-119h-350l-135 -178h420v-119h-439l-55 -313l33 -31l137 -10v-119h-700v119l149 10l45 31l55 313h-450v119h430l-66 178h-309v119h256l-131 346l-125 20v119h653v-117l-129 -10l-24 -28l180 -482l336 463l-8 37l-107 23v114h471z
" />
    <glyph glyph-name="mu" unicode="&#xb5;" horiz-adv-x="1184" 
d="M68 373l108 512h207l-100 -467q-10 -46 -15.5 -82t-5.5 -57q0 -64 37 -101t102 -37q87 0 139 53.5t76 167.5l111 523h209l-113 -533l-3 -15q-15 -70 -15 -110q0 -42 22.5 -66t63.5 -24q40 0 71 21.5t58 68.5q9 17 23 49q25 60 51 60q11 0 16.5 -7.5t5.5 -23.5
q0 -28 -17 -85.5t-40 -100.5q-41 -72 -95.5 -108t-123.5 -36q-84 0 -129.5 55t-47.5 156q-42 -104 -109.5 -157.5t-156.5 -53.5q-99 0 -156.5 58t-68.5 168q-23 -124 -48 -315q-39 -306 -134 -306q-47 0 -73 26.5t-26 74.5q0 52 69 282.5t108 409.5z" />
    <glyph glyph-name="partialdiff" unicode="&#x2202;" horiz-adv-x="1075" 
d="M758 639q17 103 26 186.5t9 147.5q0 120 -29 174.5t-92 54.5q-62 0 -147 -58.5t-122 -58.5t-64.5 26t-27.5 60q0 66 79 115t200 49q176 0 287.5 -159t111.5 -422q0 -338 -150 -558.5t-376 -220.5q-161 0 -266 112t-105 286q0 193 113 322.5t278 129.5q101 0 167.5 -45
t107.5 -141zM705 504q0 116 -41 178.5t-117 62.5q-105 0 -174.5 -131.5t-69.5 -337.5q0 -116 40.5 -177.5t117.5 -61.5q105 0 174.5 132.5t69.5 334.5z" />
    <glyph glyph-name="summation" unicode="&#x2211;" horiz-adv-x="1499" 
d="M18 1473h1199l120 -394h-82l-81 238q-15 43 -50.5 60.5t-130.5 17.5h-628l745 -809v-41l-784 -709h893q47 0 64.5 13.5t29.5 50.5l69 229h84l-159 -522h-1289v55l875 787l-875 964v60z" />
    <glyph glyph-name="product" unicode="&#x220f;" horiz-adv-x="1673" 
d="M51 1473h1569v-78h-190v-1710h190v-78h-643v78h184v1710h-653v-1710h186v-78h-643v78h189v1710h-189v78z" />
    <glyph glyph-name="pi" unicode="&#x3c0;" horiz-adv-x="1427" 
d="M1352 653h-342q-12 -73 -17.5 -147t-5.5 -152v-147q0 -129 -33 -189.5t-102 -60.5q-49 0 -74.5 30t-25.5 87q0 64 74.5 253.5t107.5 325.5h-381q-12 -68 -18.5 -141t-6.5 -152q0 -4 1 -21q1 -67 1 -130q0 -129 -33.5 -190.5t-103.5 -61.5q-48 0 -73 29t-25 86
q0 65 75 254.5t107 326.5h-139q-5 0 -15.5 -1t-15.5 -1q-106 0 -153 -36.5t-68 -135.5h-59q41 227 128.5 316.5t266.5 89.5h981z" />
    <glyph glyph-name="integral" unicode="&#x222b;" horiz-adv-x="1120" 
d="M324 -258q106 0 122 692q2 81 3 123q13 538 113 766.5t312 228.5q87 0 143 -45.5t56 -111.5q0 -61 -34 -95t-95 -34q-45 0 -74.5 22.5t-40.5 65.5q-4 17 -6 45q-3 40 -26 41q-101 0 -119 -615q-5 -161 -8 -249q-10 -280 -30.5 -427t-59.5 -245q-55 -136 -139.5 -205.5
t-194.5 -69.5q-87 0 -142 44t-55 112q0 63 35.5 97t99.5 34q39 0 66 -18t41 -54q6 -16 9 -59t24 -43z" />
    <glyph glyph-name="ordfeminine" unicode="&#xaa;" horiz-adv-x="999" 
d="M563 1294h-22q-102 0 -172 -100.5t-70 -249.5q0 -80 29.5 -120t89.5 -40q23 0 55 10t84 33l72 379zM719 1337l88 39h104l-102 -465q-6 -30 -8 -48t-2 -32q0 -38 19 -60.5t52 -22.5q23 0 51 6t62 18l-2 -76q-83 -29 -155 -43t-134 -14q-69 0 -105 28.5t-36 82.5
q-77 -57 -146.5 -84t-136.5 -27q-111 0 -175 74.5t-64 204.5q0 108 43 198t131 164q55 46 132.5 71t164.5 25q48 0 99 -9t120 -30z" />
    <glyph glyph-name="ordmasculine" unicode="&#xba;" horiz-adv-x="952" 
d="M492 1280q-86 0 -141.5 -102t-55.5 -265q0 -96 30 -142t93 -46q83 0 138.5 102.5t55.5 262.5q0 98 -29 144t-91 46zM508 1372q177 0 275 -80.5t98 -226.5q0 -189 -137.5 -310.5t-352.5 -121.5q-172 0 -267 84.5t-95 236.5q0 93 39 172t114 140q61 50 147 78t179 28z" />
    <glyph glyph-name="Omega" unicode="&#x3a9;" horiz-adv-x="1569" 
d="M1122 221h301l54 168h67l-117 -389h-516q111 218 167.5 434.5t56.5 423.5q0 278 -87.5 417.5t-261.5 139.5t-262 -139t-88 -416q0 -205 57 -421.5t169 -438.5h-519l-116 389h67l53 -168h302v23q-158 127 -240 283.5t-82 330.5q0 277 188 458t471 181q284 0 471 -180.5
t187 -458.5q0 -176 -82 -332t-240 -282v-23z" />
    <glyph glyph-name="ae" unicode="&#xe6;" horiz-adv-x="1630" 
d="M948 573q160 23 249 89.5t89 162.5q0 42 -21.5 66t-58.5 24q-85 0 -154.5 -91.5t-103.5 -250.5zM641 504q-147 -19 -221 -72t-74 -141q0 -55 33.5 -87t91.5 -32q30 0 70.5 13t107.5 44q-12 41 -18 76.5t-6 67.5q0 30 4 62t12 69zM913 926q113 58 198 83t165 25
q125 0 204 -70.5t79 -181.5q0 -147 -150.5 -223t-463.5 -86q-1 -2 -1 -5q-4 -32 -4 -46q0 -111 63.5 -175.5t172.5 -64.5q66 0 144.5 30.5t174.5 92.5v-158q-125 -80 -245.5 -122.5t-225.5 -42.5q-117 0 -198 39t-136 122q-103 -83 -203 -122t-206 -39q-118 0 -192.5 66
t-74.5 171q0 167 155 262.5t503 141.5q8 41 12 72t4 53q0 82 -48 122.5t-146 40.5h-15l-45 -227h-235q-43 0 -64.5 17t-21.5 51q0 27 20.5 63t59.5 74q70 72 176 108.5t245 36.5q91 0 163.5 -26t135.5 -82z" />
    <glyph glyph-name="oslash" unicode="&#xf8;" horiz-adv-x="1270" 
d="M442 143q21 -25 49 -37t66 -12q123 0 200 142.5t77 375.5q0 35 -4.5 69t-12.5 67zM391 252l381 610q-23 23 -50.5 34t-62.5 11q-125 0 -202.5 -139.5t-77.5 -370.5q0 -36 3 -72t9 -73zM975 1200l94 -63l-102 -168q103 -60 155 -155t52 -224q0 -272 -185 -444.5
t-481 -172.5q-44 0 -82 5.5t-72 15.5l-116 -182l-97 65l101 160q-104 64 -155.5 159.5t-51.5 225.5q0 268 186.5 439t483.5 171q38 0 76 -5t75 -15z" />
    <glyph glyph-name="questiondown" unicode="&#xbf;" horiz-adv-x="1063" 
d="M700 1012q-81 0 -138.5 57.5t-57.5 138.5q0 79 58 136t138 57q79 0 136 -56.5t57 -136.5q0 -81 -56.5 -138.5t-136.5 -57.5zM563 817l25 131h160l-50 -254q-184 -56 -281.5 -153.5t-97.5 -227.5q0 -88 57 -133t168 -47l146 260q9 1 20.5 1.5t32.5 0.5q79 0 120.5 -27
t41.5 -79q0 -126 -137.5 -213.5t-347.5 -87.5q-218 0 -335.5 80t-117.5 229q0 186 152 319t444 201z" />
    <glyph glyph-name="exclamdown" unicode="&#xa1;" horiz-adv-x="702" 
d="M438 1014q-81 0 -137.5 57.5t-56.5 138.5q0 80 57 136.5t137 56.5q79 0 137 -57t58 -136q0 -81 -57.5 -138.5t-137.5 -57.5zM78 250l266 682h117v-674q0 -140 -54 -205t-169 -65q-90 0 -137.5 38t-47.5 109q0 25 6.5 54t18.5 61z" />
    <glyph glyph-name="logicalnot" unicode="&#xac;" horiz-adv-x="1706" 
d="M1452 862v-502h-166v336h-1032v166h1198z" />
    <glyph glyph-name="radical" unicode="&#x221a;" horiz-adv-x="1323" 
d="M1325 1675v-110h-108l-594 -1606h-82l-316 872l-131 -49l-28 95l305 108l247 -688l510 1378h197z" />
    <glyph glyph-name="florin" unicode="&#x192;" horiz-adv-x="1309" 
d="M76 76l174 -232q40 51 68 134.5t57 244.5l67 389h-233l27 146h223q40 301 214 472t437 171q89 0 138.5 -39.5t49.5 -110.5t-49.5 -123.5t-154.5 -91.5l-172 244q-32 -52 -60 -171.5t-61 -350.5h321l-26 -146h-318l-49 -274q-26 -150 -76 -252.5t-137 -185.5
q-92 -90 -204.5 -140.5t-217.5 -50.5q-97 0 -158 43.5t-61 110.5q0 68 54 125.5t147 87.5z" />
    <glyph glyph-name="approxequal" unicode="&#x2248;" horiz-adv-x="1706" 
d="M1530 406q-107 -73 -200 -106.5t-189 -33.5q-89 0 -279.5 66.5t-298.5 66.5q-84 0 -173.5 -36t-211.5 -121v184q112 75 206.5 110t180.5 35q118 0 309 -67.5t277 -67.5q83 0 172 36.5t207 119.5v-186zM1530 795q-109 -75 -201.5 -108.5t-187.5 -33.5q-88 0 -278.5 67.5
t-299.5 67.5q-82 0 -170 -35t-215 -122v184q109 73 205 109.5t182 36.5q120 0 310 -68t268 -68q92 0 181 35t206 119v-184z" />
    <glyph glyph-name="Delta" unicode="&#x2206;" horiz-adv-x="1350" 
d="M958 250l-380 899l-385 -899h765zM705 1497l641 -1497h-1340l651 1497h48z" />
    <glyph glyph-name="guillemotleft" unicode="&#xab;" horiz-adv-x="938" 
d="M905 897l-37 -207l-245 -198l176 -197l-37 -207l-328 311l33 185zM485 897l-36 -207l-246 -198l176 -197l-37 -207l-328 311l33 185z" />
    <glyph glyph-name="guillemotright" unicode="&#xbb;" horiz-adv-x="938" 
d="M522 897l328 -313l-33 -185l-438 -311l37 207l246 197l-177 198zM102 897l328 -313l-33 -185l-438 -311l37 207l246 197l-176 198z" />
    <glyph glyph-name="ellipsis" unicode="&#x2026;" horiz-adv-x="2048" 
d="M248 377q81 0 137.5 -57.5t56.5 -139.5q0 -79 -57 -135.5t-137 -56.5t-137.5 56t-57.5 136q0 82 57 139.5t138 57.5zM930 377q81 0 137.5 -57.5t56.5 -139.5q0 -79 -57 -135.5t-137 -56.5t-137.5 56t-57.5 136q0 82 57 139.5t138 57.5zM1614 377q81 0 137.5 -57.5
t56.5 -139.5q0 -79 -57 -135.5t-137 -56.5t-137.5 56t-57.5 136q0 82 57 139.5t138 57.5z" />
    <glyph glyph-name="nonbreakingspace" unicode="&#xa0;" horiz-adv-x="1309" 
 />
    <glyph glyph-name="Agrave" unicode="&#xc0;" horiz-adv-x="1407" 
d="M721 1081l-262 -485h342zM711 1389h290l218 -1248l141 -20v-121h-649v123l133 12l30 33l-49 291h-444l-164 -297l23 -31l122 -10v-121h-487v119l121 18zM539 1899h305l125 -389h-176z" />
    <glyph glyph-name="Atilde" unicode="&#xc3;" horiz-adv-x="1407" 
d="M721 1081l-262 -485h342zM711 1389h290l218 -1248l141 -20v-121h-649v123l133 12l30 33l-49 291h-444l-164 -297l23 -31l122 -10v-121h-487v119l121 18zM1121 1876h135q-25 -158 -86.5 -235.5t-163.5 -77.5q-73 0 -167 46t-118 46q-39 0 -63.5 -31t-34.5 -93l-137 -1
q23 157 85.5 234.5t166.5 77.5q68 0 162 -44.5t122 -44.5q42 0 65.5 29.5t33.5 93.5z" />
    <glyph glyph-name="Otilde" unicode="&#xd5;" horiz-adv-x="1597" 
d="M1133 850q0 193 -68.5 297t-194.5 104q-75 0 -142.5 -45t-127.5 -135q-70 -105 -108.5 -251t-38.5 -308q0 -180 72 -284.5t194 -104.5q82 0 158 53.5t129 149.5q61 112 94 248t33 276zM897 1405q285 0 449.5 -155.5t164.5 -424.5q0 -190 -68 -352t-200 -287
q-115 -107 -260.5 -162t-316.5 -55q-270 0 -431 161t-161 431q0 129 35 250t104 227q111 175 290.5 271t393.5 96zM1217 1876h135q-25 -158 -86.5 -235.5t-163.5 -77.5q-73 0 -167 46t-118 46q-39 0 -63.5 -31t-34.5 -93l-137 -1q23 157 85.5 234.5t166.5 77.5
q68 0 162 -44.5t122 -44.5q42 0 65.5 29.5t33.5 93.5z" />
    <glyph glyph-name="OE" unicode="&#x152;" horiz-adv-x="2128" 
d="M862 1237q-65 0 -125 -34t-108 -99q-81 -110 -127.5 -264.5t-46.5 -317.5q0 -181 64 -274.5t188 -93.5q166 0 283.5 210t117.5 523q0 165 -65.5 257.5t-180.5 92.5zM1174 1217l32 157h912l-72 -340h-164l-6 174l-31 25h-327l-88 -461h176l41 33l51 147h145l-96 -497h-139
l-2 155l-31 25h-174l-94 -494h401l27 25l92 237h178l-82 -403h-981l25 127q-84 -76 -180.5 -114t-206.5 -38q-227 0 -364.5 157.5t-137.5 420.5q0 184 66.5 353t189.5 294q94 97 215 149t252 52q128 0 216 -44t157 -140z" />
    <glyph glyph-name="oe" unicode="&#x153;" horiz-adv-x="1788" 
d="M1108 575q148 13 242 82t94 160q0 47 -21.5 70.5t-64.5 23.5q-79 0 -150.5 -94t-99.5 -242zM651 903q-106 0 -180 -149.5t-74 -374.5q0 -133 39 -200.5t115 -67.5q59 0 102 42t78 136q33 84 50.5 176.5t17.5 181.5q0 127 -37.5 191.5t-110.5 64.5zM1020 889
q101 73 199 109t196 36q138 0 219.5 -65.5t81.5 -175.5q0 -161 -148.5 -239t-467.5 -83v-29q0 -124 60.5 -193t170.5 -69q68 0 149.5 32t176.5 95v-155q-140 -88 -258 -132.5t-211 -44.5q-105 0 -182 36.5t-123 107.5q-90 -73 -185.5 -108.5t-201.5 -35.5
q-212 0 -333.5 118.5t-121.5 324.5q0 265 182 440.5t459 175.5q111 0 194.5 -35.5t143.5 -109.5z" />
    <glyph glyph-name="endash" unicode="&#x2013;" 
d="M-55 371l43 245h1024l-43 -245h-1024z" />
    <glyph glyph-name="emdash" unicode="&#x2014;" horiz-adv-x="2048" 
d="M-51 371l45 245h2048l-45 -245h-2048z" />
    <glyph glyph-name="quotedblleft" unicode="&#x201c;" horiz-adv-x="1186" 
d="M1184 1278q-117 -18 -189 -88t-86 -178h121q17 -20 25 -42.5t8 -49.5q0 -89 -55.5 -147t-141.5 -58q-81 0 -128.5 46t-47.5 126q0 187 148 336t368 176zM672 1278q-118 -18 -190.5 -88t-86.5 -178h123q17 -20 25 -42.5t8 -49.5q0 -89 -55.5 -147t-141.5 -58
q-82 0 -130 46.5t-48 125.5q0 187 149 336t369 176z" />
    <glyph glyph-name="quotedblright" unicode="&#x201d;" horiz-adv-x="1186" 
d="M676 836q118 18 190.5 87.5t85.5 178.5h-123q-16 18 -24 41t-8 51q0 88 56 146.5t140 58.5q82 0 130 -46.5t48 -125.5q0 -188 -148 -337.5t-368 -174.5zM164 836q118 18 189 87t85 179h-121q-16 18 -24 41t-8 51q0 88 56 146.5t140 58.5q82 0 129 -46.5t47 -125.5
q0 -188 -148 -337.5t-368 -174.5z" />
    <glyph glyph-name="quoteleft" unicode="&#x2018;" horiz-adv-x="678" 
d="M672 1278q-119 -18 -191 -87.5t-86 -178.5h123q16 -19 23.5 -41t7.5 -51q0 -89 -55 -147t-140 -58q-82 0 -130 46.5t-48 125.5q0 187 148 336t368 176z" />
    <glyph glyph-name="quoteright" unicode="&#x2019;" horiz-adv-x="678" 
d="M164 836q118 18 189 87t85 179h-121q-16 18 -24 41t-8 51q0 88 56 146.5t140 58.5q82 0 129 -46.5t47 -125.5q0 -188 -148 -337.5t-368 -174.5z" />
    <glyph glyph-name="divide" unicode="&#xf7;" horiz-adv-x="1706" 
d="M854 367q57 0 97 -40.5t40 -97.5q0 -56 -39.5 -95.5t-97.5 -39.5t-97.5 39t-39.5 96t40.5 97.5t96.5 40.5zM1452 694v-166h-1198v166h1198zM854 1128q57 0 97 -41t40 -98q0 -56 -39.5 -95.5t-97.5 -39.5t-97.5 39t-39.5 96t40.5 98t96.5 41z" />
    <glyph glyph-name="lozenge" unicode="&#x25ca;" horiz-adv-x="1012" 
d="M506 1409l-385 -817l385 -825l385 825zM506 1653l500 -1061l-500 -1069l-500 1069z" />
    <glyph glyph-name="ydieresis" unicode="&#xff;" horiz-adv-x="1096" 
d="M309 1034h117q28 -37 44.5 -84.5t25.5 -109.5l79 -559l33 77q168 404 289 676h86l172 -55v-70l-145 -71q-102 -150 -240.5 -456t-216.5 -433q-122 -198 -243.5 -299t-237.5 -101q-81 0 -131 48t-50 122q0 68 37.5 116.5t104.5 68.5l157 -140q60 12 125 83.5t148 218.5
h-158l-145 776l-193 22v90zM889 1493q64 0 110 -49t46 -117q0 -67 -46.5 -115.5t-109.5 -48.5q-66 0 -112 47.5t-46 116.5t46.5 117.5t111.5 48.5zM422 1493q64 0 110 -49t46 -117q0 -67 -46 -115.5t-110 -48.5q-66 0 -111 47.5t-45 116.5t45.5 117.5t110.5 48.5z" />
    <glyph glyph-name="Ydieresis" unicode="&#x178;" horiz-adv-x="1298" 
d="M47 1374h649v-119l-123 -12l-18 -31l172 -485l350 475l-16 37l-137 14v121h518v-112l-135 -29l-514 -678l-76 -393l20 -25l150 -16v-121h-692v123l151 12l31 39l65 340l-247 725l-148 18v117zM1036 1860q64 0 110 -49t46 -117q0 -67 -46.5 -115.5t-109.5 -48.5
q-66 0 -112 47.5t-46 116.5t46.5 117.5t111.5 48.5zM569 1860q64 0 110 -49t46 -117q0 -67 -46 -115.5t-110 -48.5q-66 0 -111 47.5t-45 116.5t45.5 117.5t110.5 48.5z" />
    <glyph glyph-name="fraction" unicode="&#x2215;" horiz-adv-x="342" 
d="M518 1374h164l-860 -1374h-164z" />
    <glyph glyph-name="currency" unicode="&#xa4;" horiz-adv-x="1309" 
d="M1333 1319l-61 -350h-166l-6 241l-29 33q-24 11 -61.5 18t-67.5 7q-104 0 -173 -80.5t-126 -278.5h389l-47 -118l-373 -1q-2 -14 -10.5 -48t-11.5 -51q-2 -13 -5 -39.5t-5 -39.5h325l-49 -118l-293 -1q-5 -36 -7.5 -65.5t-2.5 -52.5q0 -130 53.5 -199.5t151.5 -69.5
q32 0 62.5 5t53.5 14l39 31l97 254h164l-64 -363q-140 -46 -225 -61t-193 -15q-225 0 -355 139t-132 383l-211 1l49 118h169q3 22 10 66q1 7 1 10q4 22 9.5 46.5t13.5 56.5h-199l47 118h193q95 234 267 363t388 129q121 0 220 -21t171 -61z" />
    <glyph glyph-name="guilsinglleft" unicode="&#x2039;" horiz-adv-x="588" 
d="M485 897l-36 -207l-246 -198l176 -197l-37 -207l-328 311l33 185z" />
    <glyph glyph-name="guilsinglright" unicode="&#x203a;" horiz-adv-x="588" 
d="M102 897l328 -313l-33 -185l-438 -311l37 207l246 197l-176 198z" />
    <glyph glyph-name="fi" unicode="&#xf001;" horiz-adv-x="1421" 
d="M1034 1405q31 52 75.5 78t102.5 26q68 0 107 -38.5t39 -104.5q0 -78 -54.5 -129t-138.5 -51q-59 0 -97.5 25t-59.5 77l-109 -94l-209 209q-45 -103 -78 -207.5t-53 -212.5h447l141 51h127l-121 -620q-10 -53 -15 -98t-5 -76q0 -43 24 -68t66 -25q22 0 61 7t100 22v-100
q-130 -46 -228 -68t-173 -22q-103 0 -153 43.5t-50 132.5q0 25 7 70.5t20 105.5l104 502h-368l-70 -494q-27 -191 -91.5 -338t-174.5 -266q-89 -96 -181 -144.5t-188 -48.5q-85 0 -137.5 47.5t-52.5 124.5q0 58 34 100t101 64l237 -176q54 117 100 437l3 20l98 665l-143 -18
v113l172 78q42 229 192 367t355 138q90 0 152 -27t85 -77z" />
    <glyph glyph-name="fi" unicode="&#xfb01;" horiz-adv-x="1421" 
d="M1034 1405q31 52 75.5 78t102.5 26q68 0 107 -38.5t39 -104.5q0 -78 -54.5 -129t-138.5 -51q-59 0 -97.5 25t-59.5 77l-109 -94l-209 209q-45 -103 -78 -207.5t-53 -212.5h447l141 51h127l-121 -620q-10 -53 -15 -98t-5 -76q0 -43 24 -68t66 -25q22 0 61 7t100 22v-100
q-130 -46 -228 -68t-173 -22q-103 0 -153 43.5t-50 132.5q0 25 7 70.5t20 105.5l104 502h-368l-70 -494q-27 -191 -91.5 -338t-174.5 -266q-89 -96 -181 -144.5t-188 -48.5q-85 0 -137.5 47.5t-52.5 124.5q0 58 34 100t101 64l237 -176q54 117 100 437l3 20l98 665l-143 -18
v113l172 78q42 229 192 367t355 138q90 0 152 -27t85 -77z" />
    <glyph glyph-name="fl" unicode="&#xf002;" horiz-adv-x="1446" 
d="M1022 1427l240 80h118l-204 -1087q-13 -69 -19 -113.5t-6 -66.5q0 -48 23 -73.5t67 -25.5q31 0 71 8t91 23v-98q-148 -51 -242 -74t-155 -23q-94 0 -148.5 50t-54.5 135q0 24 7.5 78.5t20.5 124.5l185 927l-148 -82l-178 193q-45 -103 -78 -207.5t-53 -212.5h248v-143
h-264l-70 -494q-27 -191 -91.5 -338t-174.5 -266q-89 -96 -181 -144.5t-188 -48.5q-85 0 -137.5 47.5t-52.5 124.5q0 58 34 100t101 64l237 -176q54 117 100 437l3 20l98 665l-143 -18v113l172 78q41 228 191 365.5t354 137.5q81 0 139 -20t88 -60z" />
    <glyph glyph-name="fl" unicode="&#xfb02;" horiz-adv-x="1446" 
d="M1022 1427l240 80h118l-204 -1087q-13 -69 -19 -113.5t-6 -66.5q0 -48 23 -73.5t67 -25.5q31 0 71 8t91 23v-98q-148 -51 -242 -74t-155 -23q-94 0 -148.5 50t-54.5 135q0 24 7.5 78.5t20.5 124.5l185 927l-148 -82l-178 193q-45 -103 -78 -207.5t-53 -212.5h248v-143
h-264l-70 -494q-27 -191 -91.5 -338t-174.5 -266q-89 -96 -181 -144.5t-188 -48.5q-85 0 -137.5 47.5t-52.5 124.5q0 58 34 100t101 64l237 -176q54 117 100 437l3 20l98 665l-143 -18v113l172 78q41 228 191 365.5t354 137.5q81 0 139 -20t88 -60z" />
    <glyph glyph-name="daggerdbl" unicode="&#x2021;" 
d="M90 991l164 127l276 -110l-6 -45l-311 -99zM1042 991l-172 -127l-272 99l8 45l307 110zM-47 215l166 129l276 -113l-8 -45l-311 -96zM907 215l-172 -125l-274 96l8 45l307 113zM338 -270l-98 155l163 287h39l52 -287zM580 942l59 -340l-186 -342h-35l-66 342l193 340h35z
M662 1470l100 -155l-160 -287h-39l-55 287z" />
    <glyph glyph-name="periodcentered" unicode="&#xb7;" horiz-adv-x="659" 
d="M328 883q81 0 138.5 -58t57.5 -139q0 -79 -58 -135.5t-138 -56.5t-136.5 56t-56.5 136q0 83 56 140t137 57z" />
    <glyph glyph-name="quotesinglbase" unicode="&#x201a;" horiz-adv-x="678" 
d="M-92 -252q118 19 190.5 88t85.5 178h-123q-16 19 -23 41t-7 51q0 89 54.5 147t139.5 58q82 0 130 -46.5t48 -125.5q0 -187 -148 -336t-368 -176z" />
    <glyph glyph-name="quotedblbase" unicode="&#x201e;" horiz-adv-x="1186" 
d="M432 -252q118 19 190.5 88t86.5 178h-123q-16 19 -23.5 41t-7.5 51q0 89 55.5 147t141.5 58q81 0 128.5 -46t47.5 -126q0 -187 -148 -336t-368 -176zM-80 -252q118 19 190.5 88t86.5 178h-123q-17 20 -25 42.5t-8 49.5q0 89 55.5 147t141.5 58q82 0 130 -46.5t48 -125.5
q0 -187 -149 -336t-369 -176z" />
    <glyph glyph-name="perthousand" unicode="&#x2030;" horiz-adv-x="2888" 
d="M2241 240q0 -80 22.5 -117t71.5 -37q79 0 139.5 140.5t60.5 338.5q0 80 -23 120t-69 40q-81 0 -141.5 -141t-60.5 -344zM2318 -25q-150 0 -235.5 84.5t-85.5 233.5q0 236 133.5 388.5t339.5 152.5q151 0 236 -84.5t85 -233.5q0 -235 -134 -388t-339 -153zM1346 240
q0 -79 22 -116.5t70 -37.5q79 0 139.5 140.5t60.5 338.5q0 80 -23 120t-69 40q-81 0 -140.5 -140.5t-59.5 -344.5zM1421 -25q-150 0 -235.5 84.5t-85.5 233.5q0 236 133.5 388.5t339.5 152.5q151 0 236 -84.5t85 -233.5q0 -235 -134 -388t-339 -153zM455 541q-154 0 -241 84
t-87 231q0 237 134 390t339 153q151 0 237.5 -85.5t86.5 -234.5q0 -233 -133 -385.5t-336 -152.5zM373 805q0 -79 22.5 -116.5t69.5 -37.5q79 0 140 141t61 341q0 79 -23 118t-70 39q-80 0 -140 -140.5t-60 -344.5zM1661 1374l-1118 -1374h-189l1119 1374h188z" />
    <glyph glyph-name="Acircumflex" unicode="&#xc2;" horiz-adv-x="1407" 
d="M721 1081l-262 -485h342zM711 1389h290l218 -1248l141 -20v-121h-649v123l133 12l30 33l-49 291h-444l-164 -297l23 -31l122 -10v-121h-487v119l121 18zM801 1899h228l149 -389h-207l-90 223l-176 -223h-205z" />
    <glyph glyph-name="Ecircumflex" unicode="&#xca;" horiz-adv-x="1309" 
d="M172 1374h1116l-67 -342h-162l-6 174l-27 31h-350l-88 -461h205l30 29l58 151h141l-96 -503h-135v157l-29 29h-201l-98 -498h426l26 25l89 235h178l-78 -401h-1147v119l141 14l25 33l205 1040l-21 35l-135 12v121zM751 1899h228l149 -389h-207l-90 223l-176 -223h-205z
" />
    <glyph glyph-name="Aacute" unicode="&#xc1;" horiz-adv-x="1407" 
d="M721 1081l-262 -485h342zM711 1389h290l218 -1248l141 -20v-121h-649v123l133 12l30 33l-49 291h-444l-164 -297l23 -31l122 -10v-121h-487v119l121 18zM1010 1899h305l-405 -389h-176z" />
    <glyph glyph-name="Edieresis" unicode="&#xcb;" horiz-adv-x="1309" 
d="M172 1374h1116l-67 -342h-162l-6 174l-27 31h-350l-88 -461h205l30 29l58 151h141l-96 -503h-135v157l-29 29h-201l-98 -498h426l26 25l89 235h178l-78 -401h-1147v119l141 14l25 33l205 1040l-21 35l-135 12v121zM1040 1860q64 0 110 -49t46 -117q0 -67 -46.5 -115.5
t-109.5 -48.5q-66 0 -112 47.5t-46 116.5t46.5 117.5t111.5 48.5zM573 1860q64 0 110 -49t46 -117q0 -67 -46 -115.5t-110 -48.5q-66 0 -111 47.5t-45 116.5t45.5 117.5t110.5 48.5z" />
    <glyph glyph-name="Egrave" unicode="&#xc8;" horiz-adv-x="1309" 
d="M172 1374h1116l-67 -342h-162l-6 174l-27 31h-350l-88 -461h205l30 29l58 151h141l-96 -503h-135v157l-29 29h-201l-98 -498h426l26 25l89 235h178l-78 -401h-1147v119l141 14l25 33l205 1040l-21 35l-135 12v121zM489 1899h305l125 -389h-176z" />
    <glyph glyph-name="Iacute" unicode="&#xcd;" horiz-adv-x="834" 
d="M180 1374h682v-117l-143 -8l-35 -26l-205 -1067l25 -29l141 -6v-121h-684v121l148 10l30 33l203 1055l-23 32l-139 4v119zM724 1899h305l-405 -389h-176z" />
    <glyph glyph-name="Icircumflex" unicode="&#xce;" horiz-adv-x="834" 
d="M180 1374h682v-117l-143 -8l-35 -26l-205 -1067l25 -29l141 -6v-121h-684v121l148 10l30 33l203 1055l-23 32l-139 4v119zM515 1899h228l149 -389h-207l-90 223l-176 -223h-205z" />
    <glyph glyph-name="Idieresis" unicode="&#xcf;" horiz-adv-x="834" 
d="M180 1374h682v-117l-143 -8l-35 -26l-205 -1067l25 -29l141 -6v-121h-684v121l148 10l30 33l203 1055l-23 32l-139 4v119zM804 1860q64 0 110 -49t46 -117q0 -67 -46.5 -115.5t-109.5 -48.5q-66 0 -112 47.5t-46 116.5t46.5 117.5t111.5 48.5zM337 1860q64 0 110 -49
t46 -117q0 -67 -46 -115.5t-110 -48.5q-66 0 -111 47.5t-45 116.5t45.5 117.5t110.5 48.5z" />
    <glyph glyph-name="Igrave" unicode="&#xcc;" horiz-adv-x="834" 
d="M180 1374h682v-117l-143 -8l-35 -26l-205 -1067l25 -29l141 -6v-121h-684v121l148 10l30 33l203 1055l-23 32l-139 4v119zM253 1899h305l125 -389h-176z" />
    <glyph glyph-name="Oacute" unicode="&#xd3;" horiz-adv-x="1597" 
d="M1133 850q0 193 -68.5 297t-194.5 104q-75 0 -142.5 -45t-127.5 -135q-70 -105 -108.5 -251t-38.5 -308q0 -180 72 -284.5t194 -104.5q82 0 158 53.5t129 149.5q61 112 94 248t33 276zM897 1405q285 0 449.5 -155.5t164.5 -424.5q0 -190 -68 -352t-200 -287
q-115 -107 -260.5 -162t-316.5 -55q-270 0 -431 161t-161 431q0 129 35 250t104 227q111 175 290.5 271t393.5 96zM1106 1899h305l-405 -389h-176z" />
    <glyph glyph-name="Ocircumflex" unicode="&#xd4;" horiz-adv-x="1597" 
d="M1133 850q0 193 -68.5 297t-194.5 104q-75 0 -142.5 -45t-127.5 -135q-70 -105 -108.5 -251t-38.5 -308q0 -180 72 -284.5t194 -104.5q82 0 158 53.5t129 149.5q61 112 94 248t33 276zM897 1405q285 0 449.5 -155.5t164.5 -424.5q0 -190 -68 -352t-200 -287
q-115 -107 -260.5 -162t-316.5 -55q-270 0 -431 161t-161 431q0 129 35 250t104 227q111 175 290.5 271t393.5 96zM897 1899h228l149 -389h-207l-90 223l-176 -223h-205z" />
    <glyph glyph-name="apple" unicode="&#xf000;" horiz-adv-x="1618" 
d="M836 1216q-1 6 -1.5 14t-0.5 23q0 124 95 229.5t236 131.5q1 -10 1.5 -23t0.5 -39q0 -131 -103.5 -234.5t-203.5 -103.5h-8q-3 0 -7.5 1t-8.5 1zM1505 403q-114 -247 -205 -342.5t-204 -95.5q-50 0 -131.5 33t-122.5 33q-45 0 -131 -33t-127 -33q-64 0 -128.5 44
t-129.5 132q-102 140 -157.5 295.5t-55.5 300.5q0 219 125 356.5t323 137.5q68 0 155 -34t124 -34q34 0 121.5 35t152.5 35q110 0 198 -40t161 -124q-102 -65 -151.5 -145.5t-49.5 -182.5q0 -113 60 -200t173 -138z" />
    <glyph glyph-name="Ograve" unicode="&#xd2;" horiz-adv-x="1597" 
d="M1133 850q0 193 -68.5 297t-194.5 104q-75 0 -142.5 -45t-127.5 -135q-70 -105 -108.5 -251t-38.5 -308q0 -180 72 -284.5t194 -104.5q82 0 158 53.5t129 149.5q61 112 94 248t33 276zM897 1405q285 0 449.5 -155.5t164.5 -424.5q0 -190 -68 -352t-200 -287
q-115 -107 -260.5 -162t-316.5 -55q-270 0 -431 161t-161 431q0 129 35 250t104 227q111 175 290.5 271t393.5 96zM635 1899h305l125 -389h-176z" />
    <glyph glyph-name="Uacute" unicode="&#xda;" horiz-adv-x="1569" 
d="M166 1374h659v-114l-131 -9l-28 -20l-131 -684q-13 -58 -17 -91.5t-4 -62.5q0 -104 73 -164.5t199 -60.5q61 0 119 19.5t107 56.5q44 33 71 89t52 177l143 694l-18 37l-142 19v114h510v-117l-135 -14l-31 -31l-133 -675q-33 -171 -73 -256.5t-105 -147.5
q-86 -81 -211 -122.5t-285 -41.5q-229 0 -363 102.5t-134 274.5q0 64 27 197l1 5l133 675l-32 24l-121 8v119zM1091 1899h305l-405 -389h-176z" />
    <glyph glyph-name="Ucircumflex" unicode="&#xdb;" horiz-adv-x="1569" 
d="M166 1374h659v-114l-131 -9l-28 -20l-131 -684q-13 -58 -17 -91.5t-4 -62.5q0 -104 73 -164.5t199 -60.5q61 0 119 19.5t107 56.5q44 33 71 89t52 177l143 694l-18 37l-142 19v114h510v-117l-135 -14l-31 -31l-133 -675q-33 -171 -73 -256.5t-105 -147.5
q-86 -81 -211 -122.5t-285 -41.5q-229 0 -363 102.5t-134 274.5q0 64 27 197l1 5l133 675l-32 24l-121 8v119zM882 1899h228l149 -389h-207l-90 223l-176 -223h-205z" />
    <glyph glyph-name="Ugrave" unicode="&#xd9;" horiz-adv-x="1569" 
d="M166 1374h659v-114l-131 -9l-28 -20l-131 -684q-13 -58 -17 -91.5t-4 -62.5q0 -104 73 -164.5t199 -60.5q61 0 119 19.5t107 56.5q44 33 71 89t52 177l143 694l-18 37l-142 19v114h510v-117l-135 -14l-31 -31l-133 -675q-33 -171 -73 -256.5t-105 -147.5
q-86 -81 -211 -122.5t-285 -41.5q-229 0 -363 102.5t-134 274.5q0 64 27 197l1 5l133 675l-32 24l-121 8v119zM620 1899h305l125 -389h-176z" />
    <glyph glyph-name="dotlessi" unicode="&#x131;" horiz-adv-x="739" 
d="M231 831l-176 23v94l412 86h129l-123 -620q-10 -53 -15 -98t-5 -76q0 -43 24 -68t66 -25q22 0 61 7t101 22v-100q-131 -46 -229 -68t-173 -22q-103 0 -153 43.5t-50 132.5q0 23 7 69t20 107z" />
    <glyph glyph-name="circumflex" unicode="&#x2c6;" 
d="M563 1532h228l149 -389h-207l-90 223l-176 -223h-205z" />
    <glyph glyph-name="tilde" unicode="&#x2dc;" 
d="M883 1509h135q-25 -158 -86.5 -235.5t-163.5 -77.5q-73 0 -167 46t-118 46q-39 0 -63.5 -31t-34.5 -93l-137 -1q23 157 85.5 234.5t166.5 77.5q68 0 162 -44.5t122 -44.5q42 0 65.5 29.5t33.5 93.5z" />
    <glyph glyph-name="macron" unicode="&#xaf;" 
d="M281 1399h739l-33 -170h-739z" />
    <glyph glyph-name="breve" unicode="&#x2d8;" 
d="M338 1495l124 -4q-2 -25 -3.5 -42t-1.5 -28q0 -52 42 -75t138 -23q118 0 171.5 38t68.5 130l127 4q-29 -180 -119.5 -257t-276.5 -77q-153 0 -221 48t-68 153q1 26 5 58t14 75z" />
    <glyph glyph-name="dotaccent" unicode="&#x2d9;" 
d="M618 1493q64 0 110 -49t46 -117q0 -67 -46 -115.5t-110 -48.5q-65 0 -110 47.5t-45 116.5t45.5 117.5t109.5 48.5z" />
    <glyph glyph-name="ring" unicode="&#x2da;" 
d="M631 1487q-50 0 -86.5 -36.5t-36.5 -86.5t36.5 -86.5t86.5 -36.5q52 0 88.5 36t36.5 87t-36.5 87t-88.5 36zM631 1608q103 0 174.5 -71t71.5 -173q0 -103 -71.5 -174.5t-174.5 -71.5t-173.5 71.5t-70.5 174.5t70.5 173.5t173.5 70.5z" />
    <glyph glyph-name="cedilla" unicode="&#xb8;" 
d="M317 0h125l-20 -106h20q74 0 113 -30.5t39 -88.5q0 -115 -86 -186.5t-225 -71.5q-35 0 -76.5 6t-93.5 18l22 119q46 -9 81 -13.5t58 -4.5q54 0 85.5 21.5t31.5 57.5q0 21 -21 33.5t-57 12.5q-11 -1 -37 -4q-4 0 -6 -1z" />
    <glyph glyph-name="hungarumlaut" unicode="&#x2dd;" 
d="M895 1532h305l-442 -389h-176zM526 1532h269l-385 -389h-152z" />
    <glyph glyph-name="ogonek" unicode="&#x2db;" 
d="M354 0h135q-66 -56 -100.5 -110.5t-34.5 -104.5q0 -36 24.5 -56t67.5 -20q11 0 27.5 1.5t36.5 4.5l-35 -174q-35 -8 -65 -12t-58 -4q-94 0 -146 36t-52 101q0 82 50.5 167t149.5 171z" />
    <glyph glyph-name="caron" unicode="&#x2c7;" 
d="M338 1530h205l90 -223l176 223h207l-301 -389h-228z" />
    <glyph glyph-name="Lslash" unicode="&#x141;" horiz-adv-x="1194" 
d="M170 1374h664v-119l-127 -8l-39 -26l-58 -299l207 112l60 -110l-297 -162l-119 -621h332l41 25l81 270h199l-86 -436h-1075v119l131 14l35 25l80 417l-133 -73l-48 112l209 115l97 494l-23 26l-131 11v114z" />
    <glyph glyph-name="lslash" unicode="&#x142;" horiz-adv-x="721" 
d="M537 1507h122l-110 -573l184 94l53 -108l-264 -134l-69 -366q-15 -77 -21 -117t-6 -63q0 -48 23 -73.5t67 -25.5q31 0 71 8t91 23v-98q-148 -51 -242 -74t-155 -23q-93 0 -148 49.5t-55 133.5q0 32 7 88t19 117l48 237l-144 -76l-49 111l221 113l111 555l-182 22v84z" />
    <glyph glyph-name="Scaron" unicode="&#x160;" horiz-adv-x="1214" 
d="M1159 1325l-72 -362h-176l-8 258l-29 32q-14 3 -29.5 3.5t-45.5 0.5q-130 0 -207.5 -59.5t-77.5 -157.5q0 -117 260 -244l17 -8q12 -6 36 -17q137 -66 191 -134q32 -41 48.5 -88.5t16.5 -95.5q0 -205 -184 -344.5t-463 -139.5q-97 0 -202.5 21.5t-223.5 64.5l82 381h184
v-270l31 -41q33 -3 58 -4.5t47 -1.5q144 0 232.5 62t88.5 161q0 112 -221 215q-60 28 -94 45q-120 59 -184 149t-64 199q0 192 169.5 324.5t422.5 132.5q89 0 187.5 -20.5t209.5 -61.5zM479 1897h205l90 -223l176 223h207l-301 -389h-228z" />
    <glyph glyph-name="scaron" unicode="&#x161;" horiz-adv-x="999" 
d="M713 678l-111 233q-9 2 -20.5 3t-32.5 1q-65 0 -104 -32.5t-39 -85.5q0 -76 157 -151l52 -26q146 -72 204 -136t58 -148q0 -150 -142.5 -256.5t-349.5 -106.5q-177 0 -286 66t-109 170q0 68 44 107.5t120 39.5q33 0 70.5 -12t76.5 -35l-41 -188q29 -15 61 -22t68 -7
q71 0 117.5 41t46.5 100q0 82 -159 152q-16 7 -23 10q-161 72 -219 135t-58 156q0 152 137 250t351 98q160 0 248 -50.5t88 -143.5q0 -74 -54.5 -117t-150.5 -45zM327 1530h205l90 -223l176 223h207l-301 -389h-228z" />
    <glyph glyph-name="Zcaron" unicode="&#x17d;" horiz-adv-x="1251" 
d="M229 1374h1024l7 -114l-861 -1119h428l37 31l78 260h197l-86 -432h-1078v121l856 1112h-385l-34 -19l-74 -251h-191zM498 1897h205l90 -223l176 223h207l-301 -389h-228z" />
    <glyph glyph-name="zcaron" unicode="&#x17e;" horiz-adv-x="1042" 
d="M858 1053l178 -123l-680 -639l168 49q36 -51 88.5 -77.5t116.5 -26.5q20 0 45.5 6t63.5 20l-154 174q24 52 60 78.5t81 26.5q63 0 103.5 -46.5t40.5 -119.5q0 -72 -41 -155.5t-107 -141.5q-45 -41 -109 -63.5t-134 -22.5q-72 0 -205.5 45.5t-204.5 46.5l-49 -117
l-176 105l665 655l-164 -33q-64 55 -103.5 76t-76.5 21q-27 0 -53.5 -7.5t-50.5 -21.5l137 -144q-34 -55 -72.5 -82.5t-83.5 -27.5q-48 0 -78 39.5t-30 103.5q0 62 30.5 131t86.5 133q55 63 120.5 96t135.5 33q61 0 188.5 -54t204.5 -68zM348 1530h205l90 -223l176 223h207
l-301 -389h-228z" />
    <glyph glyph-name="brokenbar" unicode="&#xa6;" 
d="M602 408v-758h-178v758h178zM602 1432v-758h-178v758h178z" />
    <glyph glyph-name="Eth" unicode="&#xd0;" horiz-adv-x="1561" 
d="M563 647l-98 -510q12 -1 25.5 -1.5t39.5 -0.5q97 0 172 21t136 65q119 89 191.5 263t72.5 376q0 189 -91.5 286t-271.5 97q-23 0 -36 -0.5t-23 -1.5l-86 -440h233l-32 -154h-232zM170 1374h664q327 0 490 -133.5t163 -400.5q0 -179 -73 -345t-206 -290
q-114 -108 -266 -156.5t-379 -48.5h-610v123l145 10l27 31l92 483h-162l35 154h158l80 413l-21 31l-137 12v117z" />
    <glyph glyph-name="eth" unicode="&#xf0;" horiz-adv-x="1321" 
d="M838 858q-38 8 -59 11t-38 3q-145 0 -231 -139t-86 -379q0 -126 40.5 -187t123.5 -61q133 0 203.5 141t70.5 408q0 54 -6 104.5t-18 98.5zM811 987q-21 54 -42 99.5t-44 82.5l-270 -96l-35 98l248 89l-54 86l-180 24v82l318 70h96l102 -148l252 88l37 -98l-225 -84
q101 -169 149.5 -321t48.5 -297q0 -306 -187 -498.5t-482 -192.5q-222 0 -352 121.5t-130 327.5q0 252 185 411.5t483 159.5q25 0 76 -3z" />
    <glyph glyph-name="Yacute" unicode="&#xdd;" horiz-adv-x="1298" 
d="M47 1374h649v-119l-123 -12l-18 -31l172 -485l350 475l-16 37l-137 14v121h518v-112l-135 -29l-514 -678l-76 -393l20 -25l150 -16v-121h-692v123l151 12l31 39l65 340l-247 725l-148 18v117zM956 1899h305l-405 -389h-176z" />
    <glyph glyph-name="yacute" unicode="&#xfd;" horiz-adv-x="1096" 
d="M309 1034h117q28 -37 44.5 -84.5t25.5 -109.5l79 -559l33 77q168 404 289 676h86l172 -55v-70l-145 -71q-102 -150 -240.5 -456t-216.5 -433q-122 -198 -243.5 -299t-237.5 -101q-81 0 -131 48t-50 122q0 68 37.5 116.5t104.5 68.5l157 -140q60 12 125 83.5t148 218.5
h-158l-145 776l-193 22v90zM809 1532h305l-405 -389h-176z" />
    <glyph glyph-name="Thorn" unicode="&#xde;" horiz-adv-x="1319" 
d="M623 985l-115 -594q25 0 52 -1q8 -1 9 -1q155 0 241.5 102t86.5 283q0 106 -59.5 159.5t-175.5 53.5q-6 0 -19 -1t-20 -1zM174 1374h660v-114l-138 -13l-26 -26l-19 -95h121q259 0 380.5 -88t121.5 -274q0 -231 -175.5 -373.5t-467.5 -142.5q-37 0 -74 2t-76 6l-14 -90
l25 -37l143 -8v-121h-678v121l133 12l33 27l205 1050l-23 41l-131 11v112z" />
    <glyph glyph-name="thorn" unicode="&#xfe;" horiz-adv-x="1305" 
d="M422 152q27 -11 53 -16t53 -5q146 0 243 143t97 361q0 98 -38.5 150.5t-110.5 52.5q-38 0 -82 -17t-105 -55zM401 25l-55 -332l193 -43v-96h-672v102l137 41l19 33l282 1575l-182 22v84l426 96h119l-119 -633q95 81 183.5 120.5t174.5 39.5q142 0 226 -101t84 -271
q0 -289 -183 -476.5t-463 -187.5q-33 0 -73 6.5t-97 20.5z" />
    <glyph glyph-name="minus" unicode="&#x2212;" horiz-adv-x="1706" 
d="M1452 696v-170h-1198v170h1198z" />
    <glyph glyph-name="multiply" unicode="&#xd7;" horiz-adv-x="1706" 
d="M862 729l461 459l117 -117l-459 -461l459 -458l-117 -119l-461 461l-459 -461l-116 119l458 458l-458 461l116 117z" />
    <glyph glyph-name="onesuperior" unicode="&#xb9;" horiz-adv-x="864" 
d="M109 549v74l151 8l21 20l127 590l-211 -20v69l331 92h134l-160 -731l14 -22l139 -8v-72h-546z" />
    <glyph glyph-name="twosuperior" unicode="&#xb2;" horiz-adv-x="864" 
d="M319 1094q-32 -9 -55.5 -13t-42.5 -4q-55 0 -86 25t-31 69q0 30 20 62.5t56 60.5q56 47 136 72t173 25q136 0 215.5 -59t79.5 -158q0 -122 -134.5 -238.5t-411.5 -235.5h366l45 117h121l-57 -268h-693v108q288 170 405.5 286t117.5 224q0 66 -38.5 97.5t-117.5 31.5h-22z
" />
    <glyph glyph-name="threesuperior" unicode="&#xb3;" horiz-adv-x="864" 
d="M340 1130q-24 -10 -47 -15t-47 -5q-50 0 -78.5 23t-28.5 63q0 79 104.5 136t260.5 57q137 0 216 -49.5t79 -133.5q0 -82 -78.5 -141t-216.5 -78q125 -7 188.5 -50.5t63.5 -121.5q0 -122 -125.5 -202.5t-321.5 -80.5q-126 0 -207.5 47.5t-81.5 118.5q0 48 35.5 79.5
t91.5 31.5q26 0 47 -5t37 -16l11 -157q27 -6 42.5 -8t28.5 -2q86 0 141.5 50t55.5 128q0 60 -42 91.5t-124 31.5q-18 0 -40.5 -2.5t-53.5 -7.5l25 108q6 -1 15 -1.5t25 -0.5q114 0 177 43.5t63 122.5q0 57 -43.5 89t-122.5 32h-14z" />
    <glyph glyph-name="onequarter" unicode="&#xbc;" horiz-adv-x="1991" 
d="M1665 598l-330 -303h258zM1716 776h182l-106 -481h150l-23 -107h-150l-49 -221h-198l47 221h-408l27 107zM1343 1374h164l-860 -1374h-164zM104 602v70l144 8l20 16l123 551l-203 -18v65l318 86h125l-152 -684l15 -20l133 -6v-68h-523z" />
    <glyph glyph-name="onehalf" unicode="&#xbd;" horiz-adv-x="1991" 
d="M1473 510q-30 -8 -53.5 -12t-41.5 -4q-51 0 -80.5 22.5t-29.5 63.5q0 28 18.5 59t52.5 57q55 43 131.5 66.5t163.5 23.5q130 0 206.5 -55.5t76.5 -148.5q0 -113 -129.5 -222t-394.5 -219h352l43 109h113l-54 -250h-661v100q278 162 389 269.5t111 208.5q0 61 -37 90.5
t-113 29.5h-23zM1343 1374h164l-860 -1374h-164zM104 602v70l144 8l20 16l123 551l-203 -18v65l318 86h125l-152 -684l15 -20l133 -6v-68h-523z" />
    <glyph glyph-name="threequarters" unicode="&#xbe;" horiz-adv-x="1991" 
d="M1665 598l-330 -303h258zM1716 776h182l-106 -481h150l-23 -107h-150l-49 -221h-198l47 221h-408l27 107zM1343 1374h164l-860 -1374h-164zM324 1145q-27 -11 -48 -16t-40 -5q-49 0 -76 21.5t-27 60.5q0 74 99 126t249 52q131 0 206 -45t75 -122q0 -79 -74.5 -133
t-206.5 -72q119 -8 179.5 -48.5t60.5 -113.5q0 -114 -120 -189t-306 -75q-120 0 -198.5 44.5t-78.5 110.5q0 45 35 74t88 29q23 0 43.5 -5t36.5 -14l10 -147q23 -5 39 -7.5t29 -2.5q80 0 134 48t54 120q0 57 -40 85.5t-119 28.5q-19 0 -41 -2.5t-47 -7.5l22 100h39
q108 0 168.5 41t60.5 113q0 54 -41.5 83.5t-117.5 29.5h-13z" />
    <glyph glyph-name="franc" unicode="&#x20a3;" horiz-adv-x="2271" 
d="M170 1374h1104l-74 -366h-162l-8 204l-24 25h-330l-94 -485h211l41 22l61 158h143l-100 -514h-137v170l-33 22h-213l-86 -446l18 -31l140 -8v-125h-670v117l143 18l25 29l207 1059l-21 24l-141 8v119zM2015 623l-62 200q-112 -48 -177 -135t-87 -219l-78 -469h-335
l163 829l-180 15v90l418 100h98l-53 -280q130 161 219 227t172 66q78 0 125 -51.5t47 -135.5q0 -107 -73 -171.5t-197 -65.5z" />
    <glyph glyph-name="Gbreve" unicode="&#x11e;" horiz-adv-x="1536" 
d="M1440 1329l-70 -371h-186v261l-31 34q-33 3 -49 3.5t-31 0.5q-279 0 -447.5 -186t-168.5 -493q0 -225 111 -341t327 -118l78 409l-23 31l-153 12v123h678v-119l-134 -16l-30 -27l-90 -458q-129 -49 -255.5 -74t-248.5 -25q-297 0 -468 154.5t-171 421.5q0 206 81.5 377
t235.5 291q120 92 272.5 139t329.5 47q112 0 221.5 -19t221.5 -57zM641 1862l124 -4q-2 -25 -3.5 -42t-1.5 -28q0 -52 42 -75t138 -23q118 0 171.5 38t68.5 130l127 4q-29 -180 -119.5 -257t-276.5 -77q-153 0 -221 48t-68 153q1 26 5 58t14 75z" />
    <glyph glyph-name="gbreve" unicode="&#x11f;" horiz-adv-x="1176" 
d="M301 49q-45 -42 -66.5 -82.5t-21.5 -83.5q0 -85 76.5 -149t183.5 -64q91 0 151 41t60 101q0 37 -32 67.5t-107 63.5zM702 805q0 56 -25.5 87.5t-72.5 31.5q-72 0 -129 -104t-57 -240q0 -60 26 -93.5t72 -33.5q74 0 130 104t56 248zM936 961h287v-127l-217 -1
q5 -24 7.5 -48.5t2.5 -49.5q0 -172 -135.5 -281t-368.5 -122l-27 -53l314 -146q131 -63 175 -114t44 -125q0 -56 -28 -107t-79 -88q-92 -68 -220 -106.5t-263 -38.5q-238 0 -366 70t-128 200q0 96 81.5 171.5t260.5 145.5q8 60 31.5 109t65.5 92q-142 21 -217.5 98
t-75.5 199q0 172 145 280.5t379 108.5q88 0 171 -17t161 -50zM414 1495l124 -4q-2 -25 -3.5 -42t-1.5 -28q0 -52 42 -75t138 -23q118 0 171.5 38t68.5 130l127 4q-29 -180 -119.5 -257t-276.5 -77q-153 0 -221 48t-68 153q1 26 5 58t14 75z" />
    <glyph glyph-name="Idotaccent" unicode="&#x130;" horiz-adv-x="834" 
d="M180 1374h682v-117l-143 -8l-35 -26l-205 -1067l25 -29l141 -6v-121h-684v121l148 10l30 33l203 1055l-23 32l-139 4v119zM570 1860q64 0 110 -49t46 -117q0 -67 -46 -115.5t-110 -48.5q-65 0 -110 47.5t-45 116.5t45.5 117.5t109.5 48.5z" />
    <glyph glyph-name="Scedilla" unicode="&#x15e;" horiz-adv-x="1214" 
d="M1159 1325l-72 -362h-176l-8 258l-29 32q-14 3 -29.5 3.5t-45.5 0.5q-130 0 -207.5 -59.5t-77.5 -157.5q0 -117 260 -244l17 -8q12 -6 36 -17q137 -66 191 -134q32 -41 48.5 -88.5t16.5 -95.5q0 -205 -184 -344.5t-463 -139.5q-97 0 -202.5 21.5t-223.5 64.5l82 381h184
v-270l31 -41q33 -3 58 -4.5t47 -1.5q144 0 232.5 62t88.5 161q0 112 -221 215q-60 28 -94 45q-120 59 -184 149t-64 199q0 192 169.5 324.5t422.5 132.5q89 0 187.5 -20.5t209.5 -61.5zM452 0h125l-20 -106h20q74 0 113 -30.5t39 -88.5q0 -115 -86 -186.5t-225 -71.5
q-35 0 -76.5 6t-93.5 18l22 119q46 -9 81 -13.5t58 -4.5q54 0 85.5 21.5t31.5 57.5q0 21 -21 33.5t-57 12.5q-11 -1 -37 -4q-4 0 -6 -1z" />
    <glyph glyph-name="scedilla" unicode="&#x15f;" horiz-adv-x="999" 
d="M713 678l-111 233q-9 2 -20.5 3t-32.5 1q-65 0 -104 -32.5t-39 -85.5q0 -76 157 -151l52 -26q146 -72 204 -136t58 -148q0 -150 -142.5 -256.5t-349.5 -106.5q-177 0 -286 66t-109 170q0 68 44 107.5t120 39.5q33 0 70.5 -12t76.5 -35l-41 -188q29 -15 61 -22t68 -7
q71 0 117.5 41t46.5 100q0 82 -159 152q-16 7 -23 10q-161 72 -219 135t-58 156q0 152 137 250t351 98q160 0 248 -50.5t88 -143.5q0 -74 -54.5 -117t-150.5 -45zM306 0h125l-20 -106h20q74 0 113 -30.5t39 -88.5q0 -115 -86 -186.5t-225 -71.5q-35 0 -76.5 6t-93.5 18
l22 119q46 -9 81 -13.5t58 -4.5q54 0 85.5 21.5t31.5 57.5q0 21 -21 33.5t-57 12.5q-11 -1 -37 -4q-4 0 -6 -1z" />
    <glyph glyph-name="Cacute" unicode="&#x106;" horiz-adv-x="1374" 
d="M1386 1333l-73 -375h-183l-4 246l-26 39q-23 3 -45 4.5t-43 1.5q-249 0 -403 -190t-154 -498q0 -213 100 -326.5t289 -113.5q25 0 38 0.5t23 1.5l43 39l103 270h188l-78 -387q-127 -38 -234.5 -57t-195.5 -19q-308 0 -485.5 164.5t-177.5 446.5q0 163 67 313t193 268
q126 119 286.5 180.5t343.5 61.5q94 0 201 -17.5t227 -52.5zM1096 1899h305l-405 -389h-176z" />
    <glyph glyph-name="cacute" unicode="&#x107;" horiz-adv-x="1018" 
d="M930 313v-145q-132 -96 -255.5 -143.5t-242.5 -47.5q-179 0 -286 115.5t-107 308.5q0 122 41.5 233t118.5 193q92 99 220.5 154t266.5 55q137 0 209 -48t72 -140q0 -83 -62.5 -136t-167.5 -61l-149 264q-91 -66 -145 -192t-54 -274q0 -126 55.5 -196.5t155.5 -70.5
q33 0 69 8t81 25q34 14 80.5 39.5t99.5 58.5zM771 1532h305l-405 -389h-176z" />
    <glyph glyph-name="Ccaron" unicode="&#x10c;" horiz-adv-x="1374" 
d="M1386 1333l-73 -375h-183l-4 246l-26 39q-23 3 -45 4.5t-43 1.5q-249 0 -403 -190t-154 -498q0 -213 100 -326.5t289 -113.5q25 0 38 0.5t23 1.5l43 39l103 270h188l-78 -387q-127 -38 -234.5 -57t-195.5 -19q-308 0 -485.5 164.5t-177.5 446.5q0 163 67 313t193 268
q126 119 286.5 180.5t343.5 61.5q94 0 201 -17.5t227 -52.5zM662 1897h205l90 -223l176 223h207l-301 -389h-228z" />
    <glyph glyph-name="ccaron" unicode="&#x10d;" horiz-adv-x="1018" 
d="M930 313v-145q-132 -96 -255.5 -143.5t-242.5 -47.5q-179 0 -286 115.5t-107 308.5q0 122 41.5 233t118.5 193q92 99 220.5 154t266.5 55q137 0 209 -48t72 -140q0 -83 -62.5 -136t-167.5 -61l-149 264q-91 -66 -145 -192t-54 -274q0 -126 55.5 -196.5t155.5 -70.5
q33 0 69 8t81 25q34 14 80.5 39.5t99.5 58.5zM337 1530h205l90 -223l176 223h207l-301 -389h-228z" />
    <glyph glyph-name="dcroat" unicode="&#x111;" horiz-adv-x="1352" 
d="M753 928q-8 1 -18 1.5t-28 0.5q-118 0 -213 -159.5t-95 -362.5q0 -107 41.5 -162.5t120.5 -55.5q33 0 75.5 14.5t106.5 47.5l91 549zM1161 1507h119l-49 -266h164l-21 -113h-162l-137 -778q-1 -7 -3 -19q-9 -57 -9 -77q0 -54 25 -80.5t77 -26.5q18 0 49 7t91 24v-100
q-110 -46 -207.5 -70t-167.5 -24q-92 0 -142 40t-59 121q-122 -90 -203 -125.5t-157 -35.5q-142 0 -233 109.5t-91 283.5q0 274 176 466.5t430 192.5q50 0 103.5 -8t111.5 -24l23 124h-250l20 113h248l13 57l-181 27v82z" />
    <glyph glyph-name="sfthyphen" unicode="&#xad;" horiz-adv-x="682" 
d="M-6 360l47 267h580l-48 -267h-579z" />
    <glyph glyph-name="middot.001" unicode="&#x2219;" horiz-adv-x="659" 
d="M328 883q81 0 138.5 -58t57.5 -139q0 -79 -58 -135.5t-138 -56.5t-136.5 56t-56.5 136q0 83 56 140t137 57z" />
    <glyph glyph-name="Euro" horiz-adv-x="1309" 
d="M1333 1319l-61 -350h-166l-6 241l-29 33q-24 11 -61.5 18t-67.5 7q-104 0 -173 -80.5t-126 -278.5h389l-47 -118l-373 -1q-2 -14 -10.5 -48t-11.5 -51q-2 -13 -5 -39.5t-5 -39.5h325l-49 -118l-293 -1q-5 -36 -7.5 -65.5t-2.5 -52.5q0 -130 53.5 -199.5t151.5 -69.5
q32 0 62.5 5t53.5 14l39 31l97 254h164l-64 -363q-140 -46 -225 -61t-193 -15q-225 0 -355 139t-132 383l-211 1l49 118h169q3 22 10 66q1 7 1 10q4 22 9.5 46.5t13.5 56.5h-199l47 118h193q95 234 267 363t388 129q121 0 220 -21t171 -61z" />
    <glyph glyph-name="Euro" unicode="&#x20ac;" horiz-adv-x="1309" 
d="M1333 1319l-61 -350h-166l-6 241l-29 33q-24 11 -61.5 18t-67.5 7q-104 0 -173 -80.5t-126 -278.5h389l-47 -118l-373 -1q-2 -14 -10.5 -48t-11.5 -51q-2 -13 -5 -39.5t-5 -39.5h325l-49 -118l-293 -1q-5 -36 -7.5 -65.5t-2.5 -52.5q0 -130 53.5 -199.5t151.5 -69.5
q32 0 62.5 5t53.5 14l39 31l97 254h164l-64 -363q-140 -46 -225 -61t-193 -15q-225 0 -355 139t-132 383l-211 1l49 118h169q3 22 10 66q1 7 1 10q4 22 9.5 46.5t13.5 56.5h-199l47 118h193q95 234 267 363t388 129q121 0 220 -21t171 -61z" />
    </font>
</defs>
</svg>
