<?xml version="1.0" standalone="no"?>
<!DOCTYPE svg PUBLIC "-//W3C//DTD SVG 1.1//EN" "http://www.w3.org/Graphics/SVG/1.1/DTD/svg11.dtd" >
<svg xmlns="http://www.w3.org/2000/svg" xmlns:xlink="http://www.w3.org/1999/xlink" version="1.1">
<metadata>
Created by FontForge 20201107 at Tue Nov 28 19:43:37 2017
 By Jimmy Wärting
Copyright 1990-2003 Bitstream Inc. All rights reserved.
</metadata>
<defs>
<font id="Charter-Italic" horiz-adv-x="0" >
  <font-face 
    font-family="Charter"
    font-weight="400"
    font-style="italic"
    font-stretch="normal"
    units-per-em="2048"
    panose-1="2 4 5 3 5 5 6 9 2 3"
    ascent="1638"
    descent="-410"
    x-height="989"
    cap-height="1374"
    bbox="-2334 -1012 3168 2419"
    underline-thickness="125"
    underline-position="-285"
    slope="-11"
    unicode-range="U+0020-FE48"
  />
<missing-glyph horiz-adv-x="1229" 
d="M102 -362v1806h1024v-1806h-1024zM217 -248h795v1577h-795v-1577z" />
    <glyph glyph-name=".notdef" horiz-adv-x="1229" 
d="M102 -362v1806h1024v-1806h-1024zM217 -248h795v1577h-795v-1577z" />
    <glyph glyph-name="space" unicode=" " horiz-adv-x="569" 
 />
    <glyph glyph-name="exclam" unicode="!" horiz-adv-x="692" 
d="M246 215q49 0 84 -34.5t35 -82.5q0 -49 -35 -82.5t-84 -33.5q-47 0 -81 34t-34 82t34 82.5t81 34.5zM539 1133l-207 -783h-101l93 783q18 157 53 211.5t106 54.5q43 0 66.5 -24.5t23.5 -67.5q0 -23 -8.5 -66t-25.5 -108z" />
    <glyph glyph-name="quotedbl" unicode="&#x22;" horiz-adv-x="678" 
d="M518 864h-31l-65 457q0 2 -1 6q-3 22 -3 33q0 49 22.5 75.5t63.5 26.5q40 0 62 -26t22 -74q0 -14 -0.5 -23t-1.5 -18zM190 864h-32l-64 457q-2 17 -3 26t-1 15q0 48 22 74t62 26q41 0 63.5 -26t22.5 -74q0 -9 -3 -34q-1 -5 -1 -7z" />
    <glyph glyph-name="numbersign" unicode="#" horiz-adv-x="1526" 
d="M662 866l-101 -299h305l105 299h-309zM758 1454l96 -37l-162 -454h316l163 489l97 -35l-160 -454h285v-97h-318l-100 -299h334v-96h-367l-172 -518l-96 33l164 485h-314l-170 -518l-96 33l168 485h-295v96h326l98 299h-324v97h357z" />
    <glyph glyph-name="dollar" unicode="$" horiz-adv-x="1139" 
d="M602 588l-94 -492q129 24 199.5 96t70.5 179q0 78 -41.5 129.5t-134.5 87.5zM645 1282q-117 -22 -185.5 -93t-68.5 -169q0 -73 39 -124t123 -87zM692 1522h84l-26 -146q68 -1 143.5 -16.5t159.5 -44.5l-64 -299h-92l10 196l-24 35q-37 17 -75.5 26.5t-75.5 10.5l-99 -516
q168 -61 246.5 -144.5t78.5 -201.5q0 -170 -126 -283t-347 -139l-41 -209h-86l41 209q-104 5 -192.5 27t-163.5 63l66 313h106l-20 -229l18 -24q54 -27 104.5 -40.5t100.5 -14.5l102 532q-156 71 -227.5 152t-71.5 188q0 159 125 274.5t318 128.5z" />
    <glyph glyph-name="percent" unicode="%" horiz-adv-x="1745" 
d="M1384 762q-50 0 -92 -37t-75 -113q-38 -83 -59 -183.5t-21 -197.5q0 -93 27.5 -137.5t86.5 -44.5q50 0 91.5 37.5t74.5 112.5q37 80 58.5 182t21.5 199q0 91 -28 136.5t-85 45.5zM1401 834q113 0 177 -76.5t64 -210.5q0 -102 -27 -202t-77 -181q-57 -92 -133.5 -140.5
t-167.5 -48.5q-113 0 -176.5 76.5t-63.5 212.5q0 102 27 203t76 180q56 91 133 139t168 48zM489 1325q-50 0 -92 -37t-75 -112q-38 -83 -59 -184t-21 -197q0 -94 27.5 -137.5t86.5 -43.5q50 0 91.5 37t74.5 111q37 80 58.5 182.5t21.5 198.5q0 91 -28 136.5t-85 45.5z
M1378 1374h125l-1141 -1374h-124zM506 1399q112 0 177 -77t65 -212q0 -102 -27.5 -202t-77.5 -181q-56 -91 -133 -138.5t-168 -47.5q-113 0 -176.5 75.5t-63.5 210.5q0 102 27.5 204t75.5 181q56 91 133 139t168 48z" />
    <glyph glyph-name="ampersand" unicode="&#x26;" horiz-adv-x="1442" 
d="M555 793q151 54 224 134t73 191q0 87 -47.5 139t-126.5 52q-104 0 -174 -68t-70 -168q0 -62 29.5 -131t91.5 -149zM793 215l-353 471q-113 -70 -164 -144.5t-51 -168.5q0 -119 76 -197t193 -78q76 0 151.5 29.5t147.5 87.5zM1362 737v-86l-145 -18q-65 -122 -130.5 -216
t-128.5 -155q63 -93 137.5 -135.5t174.5 -42.5h22v-82l-145 -8q-12 -1 -24 -1.5t-27 -0.5q-68 0 -121.5 32.5t-132.5 127.5q-102 -86 -216.5 -130.5t-234.5 -44.5q-154 0 -252 94t-98 240q0 132 86.5 240t265.5 199q-58 83 -85 148.5t-27 123.5q0 159 125.5 269t314.5 110
q136 0 217.5 -74t81.5 -194q0 -131 -107 -232t-311 -164l305 -405q39 34 82 98.5t96 167.5l-24 33l-100 20v86h401z" />
    <glyph glyph-name="quotesingle" unicode="'" horiz-adv-x="348" 
d="M190 864h-32l-66 457q-1 8 -1.5 16t-0.5 23q0 50 21.5 76t62.5 26t63.5 -26t22.5 -74q0 -9 -3 -34q-1 -5 -1 -7z" />
    <glyph glyph-name="parenleft" unicode="(" horiz-adv-x="858" 
d="M940 1470l-16 -86q-83 -12 -157.5 -53t-131.5 -106q-66 -73 -113.5 -160.5t-79.5 -194.5q-55 -183 -83.5 -342.5t-28.5 -279.5q0 -200 74 -315.5t214 -137.5l-16 -86q-197 16 -318.5 173t-121.5 399q0 136 30.5 291.5t90.5 322.5q41 114 106 211t158 182q87 82 188 128.5
t205 53.5z" />
    <glyph glyph-name="parenright" unicode=")" horiz-adv-x="858" 
d="M203 1470q196 -17 317 -171t121 -388q0 -320 -99.5 -585t-283.5 -435q-91 -82 -191.5 -129t-201.5 -53l16 86q81 11 155.5 52t133.5 108q70 77 121 175t84 220q47 175 72.5 328.5t25.5 265.5q0 192 -74.5 306t-212.5 134z" />
    <glyph glyph-name="asterisk" unicode="*" horiz-adv-x="1024" 
d="M352 1206l195 -143l-12 -25l-263 17l-69 114zM541 1006l18 -15l-143 -248l-148 -51l35 148zM604 1006l172 -166l-20 -148l-127 53l-49 246zM872 1206l136 -37l-115 -114l-266 -17l-4 27zM662 1470l57 -124l-115 -256h-29l-18 256z" />
    <glyph glyph-name="plus" unicode="+" horiz-adv-x="1706" 
d="M795 1221h118v-551h539v-117h-539v-553h-118v553h-541v117h541v551z" />
    <glyph glyph-name="comma" unicode="," horiz-adv-x="569" 
d="M-117 -346l13 67q122 23 192.5 97t87.5 196h-131q-9 15 -13.5 29t-4.5 31q0 62 41.5 102.5t103.5 40.5q63 0 97 -36.5t34 -102.5q0 -153 -121.5 -277.5t-298.5 -146.5z" />
    <glyph glyph-name="hyphen" unicode="-" horiz-adv-x="653" 
d="M74 561h458l-26 -137h-459z" />
    <glyph glyph-name="period" unicode="." horiz-adv-x="569" 
d="M174 233q51 0 87 -36t36 -86q0 -51 -36 -86t-87 -35q-50 0 -85.5 35t-35.5 86t35.5 86.5t85.5 35.5z" />
    <glyph glyph-name="slash" unicode="/" horiz-adv-x="985" 
d="M950 1374h125l-1177 -1564h-125z" />
    <glyph glyph-name="zero" unicode="0" horiz-adv-x="1139" 
d="M686 1303q-92 0 -166 -63.5t-137 -195.5q-31 -64 -57.5 -154t-49.5 -202q-16 -82 -24 -153.5t-8 -133.5q0 -165 52 -246t159 -81q88 0 163 64t136 192q29 62 56 153t50 205q17 84 25 155.5t8 131.5q0 163 -52 245.5t-155 82.5zM705 1399q175 0 275.5 -123t100.5 -338
q0 -174 -45 -344t-127 -307q-90 -152 -212 -232t-265 -80q-175 0 -276 123.5t-101 337.5q0 173 45 344t127 310q91 151 212.5 230t265.5 79z" />
    <glyph glyph-name="one" unicode="1" horiz-adv-x="1139" 
d="M778 1399h49l-243 -1272l18 -31l178 -10v-86h-612v88l213 12l33 35l204 1063l-20 21l-297 -39v84z" />
    <glyph glyph-name="two" unicode="2" horiz-adv-x="1139" 
d="M188 162h617l69 174h93l-64 -336h-948l25 129q558 391 718 575t160 367q0 107 -58 165t-165 58q-47 0 -94 -12t-99 -37l-41 -219q-24 -15 -48.5 -23t-49.5 -8q-43 0 -69.5 23t-26.5 59q0 44 22.5 88.5t65.5 83.5q76 70 184 110t221 40q171 0 265 -81t94 -226
q0 -184 -171.5 -375.5t-699.5 -554.5z" />
    <glyph glyph-name="three" unicode="3" horiz-adv-x="1139" 
d="M653 731q148 -6 231 -76.5t83 -189.5q0 -105 -58.5 -204.5t-160.5 -170.5q-81 -54 -179.5 -83.5t-201.5 -29.5q-159 0 -262 63.5t-103 158.5q0 52 30.5 83t82.5 31q17 0 35 -3.5t36 -10.5l31 -176q41 -25 83 -37t89 -12q164 0 273.5 105.5t109.5 260.5q0 106 -65.5 165
t-184.5 59q-33 0 -111 -8q-7 0 -12 -1l17 115q10 -1 20.5 -1.5t30.5 -0.5q168 0 275.5 89.5t107.5 225.5q0 102 -61.5 161t-167.5 59q-50 0 -98 -16.5t-97 -49.5l-29 -197q-43 -15 -62.5 -19.5t-33.5 -4.5q-39 0 -64.5 27t-25.5 69q0 110 145 198.5t342 88.5
q163 0 257 -75.5t94 -205.5q0 -135 -105 -238t-291 -149z" />
    <glyph glyph-name="four" unicode="4" horiz-adv-x="1139" 
d="M807 1163l-629 -633h508zM887 1386h121l-164 -856h229l-26 -133h-230l-90 -473h-158l90 473h-659l25 133z" />
    <glyph glyph-name="five" unicode="5" horiz-adv-x="1139" 
d="M346 1374h717l-29 -155h-596l-84 -418q66 17 122.5 26t107.5 9q175 0 273.5 -87.5t98.5 -242.5q0 -104 -51.5 -206t-142.5 -177q-89 -74 -198 -112t-232 -38q-151 0 -238.5 51.5t-87.5 137.5q0 50 34 84.5t85 34.5q11 0 24.5 -2t26.5 -5l53 -174q34 -15 71.5 -22.5
t78.5 -7.5q160 0 276.5 114.5t116.5 272.5q0 132 -91 198t-273 66q-15 0 -61 -3t-136 -9z" />
    <glyph glyph-name="six" unicode="6" horiz-adv-x="1139" 
d="M289 688q-20 -60 -29.5 -125t-9.5 -137q0 -169 63 -262.5t176 -93.5q148 0 250.5 125.5t102.5 310.5q0 145 -66 219t-196 74q-77 0 -152 -28.5t-139 -82.5zM999 1466l5 -104q-262 -26 -444 -176.5t-245 -392.5q86 63 175.5 96t177.5 33q164 0 261 -101t97 -272
q0 -237 -162.5 -405.5t-394.5 -168.5q-185 0 -294 126.5t-109 342.5q0 222 90.5 422t259.5 353q111 100 257 162t326 85z" />
    <glyph glyph-name="seven" unicode="7" horiz-adv-x="1139" 
d="M276 1374h945l-17 -82l-934 -1323l-8 -45h-170l916 1295h-633l-68 -187h-96z" />
    <glyph glyph-name="eight" unicode="8" horiz-adv-x="1139" 
d="M455 672q-130 -74 -188 -156t-58 -190q0 -118 77.5 -189t205.5 -71q141 0 236 87.5t95 215.5q0 136 -324 283q-29 13 -44 20zM748 723q145 -70 202.5 -138t57.5 -165q0 -190 -159 -322.5t-392 -132.5q-195 0 -307.5 87.5t-112.5 236.5q0 131 89.5 241t258.5 187
q-88 45 -129 107.5t-41 152.5q0 179 142 301.5t352 122.5q160 0 255 -79.5t95 -213.5q0 -128 -80 -227t-231 -158zM666 756q107 50 169 141t62 199q0 100 -58.5 157.5t-160.5 57.5q-122 0 -206.5 -83.5t-84.5 -205.5q0 -80 63 -140.5t216 -125.5z" />
    <glyph glyph-name="nine" unicode="9" horiz-adv-x="1139" 
d="M94 -115l-37 86q266 97 448 244.5t296 357.5q-102 -56 -189.5 -84t-160.5 -28q-159 0 -258 102t-99 266q0 124 54.5 240t150.5 197q80 66 171.5 99.5t193.5 33.5q195 0 300 -109.5t105 -312.5q0 -361 -257.5 -650.5t-717.5 -441.5zM846 705q20 82 29.5 150t9.5 126
q0 158 -66 243t-188 85q-140 0 -244 -130t-104 -309q0 -135 70.5 -215t191.5 -80q78 0 153.5 32.5t147.5 97.5z" />
    <glyph glyph-name="colon" unicode=":" horiz-adv-x="653" 
d="M217 233q51 0 87 -36t36 -86q0 -51 -36 -86t-87 -35q-50 0 -85.5 35t-35.5 86t35.5 86.5t85.5 35.5zM358 977q51 0 86 -35t35 -86t-35 -87t-86 -36q-49 0 -84.5 36.5t-35.5 86.5q0 51 35 86t85 35z" />
    <glyph glyph-name="semicolon" unicode=";" horiz-adv-x="653" 
d="M-66 -346l13 67q122 23 192.5 97t87.5 196h-131q-9 15 -13.5 29t-4.5 31q0 62 41.5 102.5t103.5 40.5q63 0 97 -36.5t34 -102.5q0 -153 -121 -277.5t-299 -146.5zM358 977q51 0 86 -35t35 -86t-35 -87t-86 -36q-49 0 -84.5 36.5t-35.5 86.5q0 51 35 86t85 35z" />
    <glyph glyph-name="less" unicode="&#x3c;" horiz-adv-x="1706" 
d="M1442 1145v-127l-1000 -408l1000 -405v-129l-1178 483v103z" />
    <glyph glyph-name="equal" unicode="=" horiz-adv-x="1706" 
d="M254 477h1198v-117h-1198v117zM254 860h1198v-117h-1198v117z" />
    <glyph glyph-name="greater" unicode="&#x3e;" horiz-adv-x="1706" 
d="M264 1145l1178 -483v-103l-1178 -483v129l1000 405l-1000 408v127z" />
    <glyph glyph-name="question" unicode="?" horiz-adv-x="995" 
d="M309 215q49 0 83 -34.5t34 -82.5q0 -49 -34 -82.5t-83 -33.5q-47 0 -81.5 34t-34.5 82q0 47 35 82t81 35zM446 590l-47 -240h-106l57 299q181 64 277 177.5t96 263.5q0 105 -61.5 160t-180.5 55h-6l-123 -203q-6 -1 -13.5 -1.5t-23.5 -0.5q-49 0 -76.5 21t-27.5 59
q0 91 97 155t243 64q169 0 264.5 -78t95.5 -215q0 -166 -117 -296t-348 -220z" />
    <glyph glyph-name="at" unicode="@" horiz-adv-x="1929" 
d="M1128 289q-86 -90 -159 -132t-142 -42q-112 0 -183 91.5t-71 237.5q0 96 29.5 185t85.5 166q74 99 179.5 156t215.5 57q49 0 98.5 -14t102.5 -42l37 47h111q-22 -55 -47 -178q-6 -27 -9 -41l-80 -352q-8 -35 -12 -63.5t-4 -49.5q0 -39 23.5 -63.5t62.5 -24.5
q43 0 90.5 28t89.5 79q68 80 106 195t38 243q0 244 -162.5 400.5t-417.5 156.5q-167 0 -306 -51.5t-249 -153.5q-128 -118 -191 -266t-63 -330q0 -335 200.5 -538t530.5 -203q140 0 276 38t263 112l28 -70q-159 -89 -317 -134.5t-305 -45.5q-172 0 -323 58.5t-269 172.5
q-114 109 -171.5 257t-57.5 329q0 203 74.5 373.5t222.5 306.5q121 110 286.5 171.5t341.5 61.5q322 0 512.5 -178t190.5 -475q0 -113 -29 -214t-86 -190q-73 -112 -179 -178.5t-210 -66.5q-75 0 -113.5 39t-38.5 116v19zM1133 921q-16 3 -27 4t-19 1q-144 0 -241.5 -130.5
t-97.5 -326.5q0 -110 43.5 -168.5t126.5 -58.5q54 0 107 33t108 102l84 430z" />
    <glyph glyph-name="A" unicode="A" horiz-adv-x="1241" 
d="M707 1186l-334 -590h428zM707 1386h135l219 -1261l35 -37l100 -10v-78h-448v78l120 10l15 29l-64 391h-497l-220 -391l17 -29l125 -10v-78h-406v78l113 12z" />
    <glyph glyph-name="B" unicode="B" horiz-adv-x="1204" 
d="M281 90q35 -3 68.5 -4.5t66.5 -1.5q227 0 341.5 90t114.5 268q0 118 -78 173t-245 55q-23 0 -59.5 -2.5t-98.5 -8.5zM408 756q34 -3 59 -4.5t45 -1.5q183 0 290 94t107 254q0 100 -71 148t-220 48q-20 0 -47.5 -1.5t-64.5 -4.5zM172 1374h526q212 0 313 -62.5t101 -193.5
q0 -146 -92.5 -245.5t-269.5 -143.5q159 -8 241 -77t82 -195q0 -230 -153.5 -343.5t-464.5 -113.5h-512v78l129 12l34 29l218 1136l-21 31l-131 10v78z" />
    <glyph glyph-name="C" unicode="C" horiz-adv-x="1237" 
d="M1274 1329l-57 -315h-87v196l-16 39q-51 27 -104.5 40.5t-112.5 13.5q-101 0 -194 -36t-168 -104q-122 -109 -189 -278t-67 -367q0 -212 111.5 -329t314.5 -117q41 0 85.5 7t90.5 21l39 35l90 236h88l-56 -324q-106 -35 -209 -53.5t-198 -18.5q-253 0 -402 154t-149 414
q0 199 83 377t234 303q107 86 234.5 131t267.5 45q87 0 179.5 -17.5t191.5 -52.5z" />
    <glyph glyph-name="D" unicode="D" horiz-adv-x="1374" 
d="M510 1280l-223 -1184h112q166 0 293.5 55t208.5 160q82 107 129 257.5t47 303.5q0 207 -112.5 307.5t-343.5 100.5h-111zM172 1374h465q312 0 475.5 -133.5t163.5 -388.5q0 -179 -66 -341.5t-188 -283.5q-119 -117 -275.5 -172t-371.5 -55h-432v78l131 12l32 29l220 1136
l-21 31l-133 10v78z" />
    <glyph glyph-name="E" unicode="E" horiz-adv-x="1118" 
d="M180 1374h953l-58 -299h-98v174l-23 31h-440l-100 -518h311l37 29l45 149h88l-86 -451h-84l8 148l-24 29h-314l-110 -572h522l37 33l69 207h95l-66 -334h-991v78l129 12l35 29l219 1136l-23 31l-131 10v78z" />
    <glyph glyph-name="F" unicode="F" horiz-adv-x="1042" 
d="M176 1374h930l-64 -321h-98v194l-20 33h-414l-102 -541h288l37 31l47 148h90l-88 -451h-88l8 147l-24 31h-289l-100 -522l28 -31l144 -10v-82h-514v78l129 10l33 29l219 1138l-21 29l-131 12v78z" />
    <glyph glyph-name="G" unicode="G" horiz-adv-x="1360" 
d="M1309 1339l-60 -325h-108l6 192l-19 43q-51 26 -102.5 38.5t-103.5 12.5q-101 0 -197 -36.5t-178 -106.5q-128 -109 -198 -276.5t-70 -364.5q0 -196 113 -318t296 -122q40 0 93 7t122 21l78 437l-20 28l-134 11v79h504v-79l-131 -11l-33 -28l-96 -494
q-125 -35 -234.5 -53.5t-197.5 -18.5q-253 0 -406 156.5t-153 413.5q0 199 87 376t245 300q115 89 249 134.5t279 45.5q104 0 198 -16t171 -46z" />
    <glyph glyph-name="H" unicode="H" horiz-adv-x="1458" 
d="M172 1374h500v-78l-135 -10l-31 -31l-96 -489h667l97 489l-25 31l-131 10v78h500v-78l-136 -10l-32 -31l-217 -1136l20 -29l131 -12v-78h-496v78l134 12l30 29l105 553h-666l-106 -553l24 -29l131 -12v-78h-497v78l131 12l32 29l220 1136l-21 31l-133 10v78z" />
    <glyph glyph-name="I" unicode="I" horiz-adv-x="639" 
d="M182 1374h500v-78l-135 -10l-33 -31l-219 -1136l24 -29l134 -12v-78h-500v78l131 12l33 29l219 1136l-23 31l-131 10v78z" />
    <glyph glyph-name="J" unicode="J" horiz-adv-x="915" 
d="M467 1374h498v-78l-134 -10l-32 -31l-137 -731q-59 -310 -169 -429.5t-327 -119.5q-74 0 -137 12.5t-115 37.5l68 344h102v-260l25 -27q18 -4 36.5 -6t34.5 -2q119 0 181.5 84.5t115.5 357.5l144 739l-23 31l-131 10v78z" />
    <glyph glyph-name="K" unicode="K" horiz-adv-x="1280" 
d="M168 1374h498v-78l-134 -10l-32 -31l-111 -559h60l563 555l-13 33l-143 10v80h496v-82l-170 -12l-539 -526l291 -566q35 -68 75 -89t126 -21h41v-78q-59 -4 -109 -6t-76 -2q-100 0 -143.5 25.5t-93.5 123.5l-238 469h-143l-94 -491l26 -29l133 -12v-78h-499v78l131 12
l32 29l220 1136l-23 31l-131 10v78z" />
    <glyph glyph-name="L" unicode="L" horiz-adv-x="1020" 
d="M172 1374h498v-78l-133 -10l-33 -31l-225 -1161h434l37 33l79 246h99l-72 -373h-913v78l131 10l32 31l220 1136l-21 31l-133 10v78z" />
    <glyph glyph-name="M" unicode="M" horiz-adv-x="1718" 
d="M172 1374h418v-55l186 -1043l574 1035v63h426v-78l-129 -10l-33 -31l-217 -1136l20 -29l131 -12v-78h-485v78l147 12l21 29l219 1149l-707 -1268h-90l-221 1262l-213 -1143l31 -29l121 -12v-78h-426v78l129 12l32 29l218 1136l-23 31l-129 10v78z" />
    <glyph glyph-name="N" unicode="N" horiz-adv-x="1399" 
d="M166 1374h352v-51l490 -1038l188 970l-20 31l-132 10v78h431v-78l-132 -10l-32 -31l-240 -1255h-119l-538 1139l-199 -1020l23 -29l131 -12v-78h-432v78l131 12l32 29l219 1136l-20 31l-133 10v78z" />
    <glyph glyph-name="O" unicode="O" horiz-adv-x="1450" 
d="M1169 858q0 205 -95.5 325t-258.5 120q-106 0 -200.5 -59t-172.5 -173q-76 -112 -118.5 -258t-42.5 -295q0 -202 96.5 -323t257.5 -121q107 0 201 58.5t172 172.5q76 113 118.5 259t42.5 294zM829 1397q94 0 176 -24t146 -70q105 -78 162 -193t57 -250q0 -170 -48.5 -323
t-139.5 -273q-106 -138 -251.5 -213.5t-305.5 -75.5q-238 0 -389.5 155.5t-151.5 399.5q0 159 49 307t143 271q104 137 249.5 213t303.5 76z" />
    <glyph glyph-name="P" unicode="P" horiz-adv-x="1110" 
d="M508 1282l-129 -665q35 -3 52.5 -4t31.5 -1q218 0 338.5 107t120.5 299q0 139 -80 203.5t-250 64.5q-15 0 -31.5 -0.5t-52.5 -3.5zM172 1374h436q123 0 188 -8.5t119 -28.5q90 -32 143.5 -110t53.5 -176q0 -240 -171 -387.5t-454 -147.5q-22 0 -87 3q-26 1 -40 1
l-77 -401l14 -29l131 -12v-78h-485v78l131 12l32 29l220 1136l-23 31l-131 10v78z" />
    <glyph glyph-name="Q" unicode="Q" horiz-adv-x="1450" 
d="M279 518q0 -199 98 -321.5t258 -122.5q107 0 201 58.5t172 172.5q76 113 118.5 259t42.5 294q0 205 -95 325t-257 120q-106 0 -200.5 -58.5t-174.5 -173.5q-76 -110 -119.5 -258t-43.5 -295zM1434 -164v-69q-103 -49 -182.5 -72t-145.5 -23q-124 0 -209.5 72t-159.5 240
q-31 -4 -60.5 -6.5t-58.5 -2.5q-230 0 -383 157.5t-153 395.5q0 159 50 307.5t144 272.5q106 138 251.5 213.5t306.5 75.5q91 0 171.5 -24.5t145.5 -72.5q104 -75 161.5 -191.5t57.5 -250.5q0 -274 -118.5 -488t-333.5 -331q82 -158 143 -207t156 -49q40 0 97.5 14t119.5 39
z" />
    <glyph glyph-name="R" unicode="R" horiz-adv-x="1233" 
d="M397 707q15 -2 30.5 -2h45.5q209 0 323.5 89t114.5 250q0 122 -77 180t-240 58q-25 0 -80 -4h-6zM156 1374h518q224 0 328 -72.5t104 -226.5q0 -159 -107 -271t-301 -155q161 -35 236 -305q10 -39 16 -59q36 -129 84 -168t156 -39h18v-76q-48 -6 -83.5 -9t-59.5 -3
q-63 0 -111 13t-77 38q-69 57 -117 277l-6 30q-2 7 -5 21q-40 183 -139 227q-17 8 -45 12t-73 4q-29 0 -96 -3q-11 0 -17 -1l-96 -491l24 -29l133 -10v-78h-499v78l131 10l32 29l220 1138l-23 29l-145 12v78z" />
    <glyph glyph-name="S" unicode="S" horiz-adv-x="1100" 
d="M1047 1337l-66 -311h-90l8 203l-25 37q-43 19 -87.5 29t-90.5 10q-139 0 -231 -79t-92 -196q0 -143 249 -258l21 -10q179 -84 243 -160t64 -188q0 -190 -156 -314.5t-399 -124.5q-103 0 -197.5 24t-179.5 71l68 325h107l-21 -235l21 -27q60 -30 116 -44.5t111 -14.5
q159 0 254.5 81.5t95.5 217.5q0 120 -194 218q-21 10 -31 15q-215 110 -280.5 184t-65.5 173q0 189 141.5 311.5t364.5 122.5q90 0 175.5 -15t166.5 -45z" />
    <glyph glyph-name="T" unicode="T" horiz-adv-x="1157" 
d="M147 1374h1102l-61 -305h-111l8 191l-22 30h-291l-225 -1171l26 -29l134 -12v-78h-500v78l131 12l33 29l219 1171h-289l-35 -30l-65 -191h-113z" />
    <glyph glyph-name="U" unicode="U" horiz-adv-x="1360" 
d="M150 1374h497v-78l-133 -10l-33 -31l-145 -745q-9 -46 -14 -86t-5 -68q0 -123 75 -188.5t216 -65.5q181 0 278.5 94t139.5 314l145 745l-24 31l-133 10v78h428v-78l-129 -10l-35 -31l-150 -763v-5q-50 -251 -151 -356q-73 -74 -183 -114t-243 -40q-204 0 -312 86
t-108 248q0 29 5.5 68.5t19.5 112.5l147 763l-22 31l-131 10v78z" />
    <glyph glyph-name="V" unicode="V" horiz-adv-x="1208" 
d="M63 1374h429v-78l-115 -10l-15 -31l162 -1067l555 1067l-16 31l-119 10v78h385v-78l-108 -12l-703 -1294h-127l-198 1259l-33 37l-97 10v78z" />
    <glyph glyph-name="W" unicode="W" horiz-adv-x="1839" 
d="M104 1374h439v-78l-117 -10l-14 -31l75 -964l508 1083h133l115 -1098l449 979l-17 31l-121 10v78h394v-78l-119 -12l-600 -1284h-117l-121 1124l-522 -1124h-129l-102 1249l-35 37l-99 10v78z" />
    <glyph glyph-name="X" unicode="X" horiz-adv-x="1165" 
d="M111 1374h497v-78l-135 -10l-31 -31l183 -424l372 424l-12 31l-117 10v78h426v-78l-143 -10l-479 -549l270 -618l21 -29l131 -12v-78h-496v78l133 12l33 29l-201 471l-422 -471l21 -29l133 -12v-78h-465v78l133 12l35 29l510 577l-246 559l-20 31l-131 10v78z" />
    <glyph glyph-name="Y" unicode="Y" horiz-adv-x="1151" 
d="M63 1374h498v-78l-133 -10l-33 -31l185 -579l428 579l-21 31l-131 10v78h459v-78l-135 -10l-33 -31l-520 -680l-90 -456l26 -29l133 -12v-78h-497v78l129 12l32 29l86 438l-229 698l-20 31l-134 10v78z" />
    <glyph glyph-name="Z" unicode="Z" horiz-adv-x="1139" 
d="M262 1374h909l-18 -86l-969 -1188h586l29 27l82 244h100l-70 -371h-962l14 84l967 1192h-508l-45 -27l-70 -192h-106z" />
    <glyph glyph-name="bracketleft" unicode="[" horiz-adv-x="862" 
d="M430 1450h485l-16 -88h-324l-296 -1546h323l-16 -86h-486z" />
    <glyph glyph-name="backslash" unicode="\" horiz-adv-x="985" 
d="M188 1374l811 -1564h-114l-813 1564h116z" />
    <glyph glyph-name="bracketright" unicode="]" horiz-adv-x="862" 
d="M240 1450h485l-330 -1722h-485l16 88h324l297 1546h-324z" />
    <glyph glyph-name="asciicircum" unicode="^" horiz-adv-x="2048" 
d="M934 1462h178l520 -565h-92l-518 436l-520 -436h-90z" />
    <glyph glyph-name="underscore" unicode="_" horiz-adv-x="1024" 
d="M0 -365h1024v-118h-1024v118z" />
    <glyph glyph-name="grave" unicode="`" horiz-adv-x="1024" 
d="M371 1507h202l123 -389h-102z" />
    <glyph glyph-name="a" unicode="a" horiz-adv-x="1075" 
d="M649 907h-28q-182 0 -299 -156.5t-117 -398.5q0 -123 44.5 -184.5t133.5 -61.5q58 0 118 34t124 102l106 540zM840 987h106q-16 -33 -35.5 -107.5t-42.5 -185.5l-73 -362q-10 -48 -15.5 -84.5t-5.5 -59.5q0 -48 26.5 -71t84.5 -23q12 0 32.5 3.5t81.5 17.5v-62
q-86 -36 -148.5 -53.5t-102.5 -17.5q-64 0 -94.5 38t-30.5 117v17q-83 -88 -158 -130t-148 -42q-131 0 -206.5 95t-75.5 263q0 101 26.5 196t79.5 183q79 130 201 199t272 69q45 0 92 -11.5t93 -33.5z" />
    <glyph glyph-name="b" unicode="b" horiz-adv-x="1038" 
d="M225 147q42 -41 87 -61t96 -20q64 0 123.5 39.5t111.5 117.5t83.5 185t31.5 208q0 115 -46.5 182.5t-123.5 67.5q-47 0 -102 -23.5t-144 -84.5zM424 1507h68q-16 -48 -27.5 -94.5t-20.5 -93.5l-88 -481q91 77 166.5 115t136.5 38q118 0 192.5 -96.5t74.5 -251.5
q0 -133 -41 -252.5t-119 -214.5q-78 -94 -182 -144t-222 -50q-83 0 -161 22.5t-150 67.5l240 1290l-178 33v51z" />
    <glyph glyph-name="c" unicode="c" horiz-adv-x="807" 
d="M628 738l-118 155h-10q-130 0 -218.5 -146t-88.5 -366q0 -132 54 -205.5t150 -73.5q73 0 156 44.5t164 125.5v-94q-92 -96 -190.5 -147t-192.5 -51q-138 0 -220.5 101t-82.5 271q0 135 43.5 254t126.5 209q77 85 173 131.5t193 46.5q82 0 136.5 -41.5t54.5 -101.5
q0 -49 -36 -80t-94 -32z" />
    <glyph glyph-name="d" unicode="d" horiz-adv-x="1071" 
d="M641 909q-7 1 -23.5 3.5t-25.5 2.5q-153 0 -268 -164t-115 -401q0 -118 47 -185t129 -67q60 0 128 45.5t134 128.5l92 521zM973 1507h53l-219 -1226q-6 -33 -9 -61.5t-3 -49.5q0 -44 22 -65t68 -21q18 0 50.5 5.5t82.5 16.5v-61q-80 -29 -144.5 -44t-107.5 -15
q-71 0 -104 35t-33 110q0 16 0.5 25t1.5 16q-74 -94 -155.5 -142t-164.5 -48q-125 0 -196.5 97t-71.5 269q0 104 25.5 198t74.5 173q81 127 205.5 201.5t255.5 74.5q44 0 84 -8.5t80 -25.5l72 409l-181 21v57z" />
    <glyph glyph-name="e" unicode="e" horiz-adv-x="868" 
d="M216 455q-4 -21 -5.5 -45t-1.5 -50q0 -123 57 -194.5t156 -71.5q72 0 156 43t172 125v-96q-95 -91 -195 -137.5t-203 -46.5q-146 0 -227.5 98t-81.5 274q0 129 48 252t134 213q75 77 166.5 122.5t171.5 45.5q97 0 154 -55t57 -148q0 -136 -148 -224t-410 -105zM225 524
q179 10 290.5 85.5t111.5 181.5q0 47 -31 78.5t-76 31.5q-94 0 -173.5 -100.5t-121.5 -276.5z" />
    <glyph glyph-name="f" unicode="f" horiz-adv-x="598" 
d="M725 1272l-168 137q-58 -38 -104 -157.5t-80 -319.5h289v-92h-306l-82 -582q-24 -172 -60 -280t-93 -189q-80 -112 -162 -171.5t-158 -59.5q-49 0 -79.5 29.5t-30.5 78.5q0 24 11.5 45t33.5 37l213 -55q57 60 94 175t76 384l86 588l-137 -15l2 68l155 63
q49 253 164.5 398t265.5 145q71 0 120.5 -36t49.5 -85q0 -40 -26.5 -68.5t-73.5 -37.5z" />
    <glyph glyph-name="g" unicode="g" horiz-adv-x="985" 
d="M285 70q-93 -22 -141 -73.5t-48 -129.5q0 -99 77.5 -163t199.5 -64q125 0 205.5 51.5t80.5 126.5q0 40 -28 72.5t-86 58.5zM637 727q0 90 -36 138t-103 48q-93 0 -164.5 -102t-71.5 -242q0 -81 36.5 -126.5t100.5 -45.5q93 0 165.5 98.5t72.5 231.5zM690 938h293v-88
h-210q12 -34 19 -68t7 -67q0 -164 -115 -275.5t-278 -111.5q-11 0 -23 0.5t-25 1.5q-13 -26 -19.5 -52.5t-6.5 -56.5v-12l325 -148q81 -37 120.5 -87t39.5 -115q0 -121 -146 -213t-347 -92q-178 0 -282.5 73.5t-104.5 198.5q0 94 63.5 161t208.5 124q-1 6 -1.5 13t-0.5 21
q0 50 19.5 97.5t62.5 101.5q-91 36 -140 100.5t-49 147.5q0 167 116 282t284 115q46 0 92.5 -12.5t97.5 -38.5z" />
    <glyph glyph-name="h" unicode="h" horiz-adv-x="1128" 
d="M457 1507h63q-18 -68 -38 -156t-44 -206l-67 -350q123 99 219 146.5t174 47.5q79 0 125.5 -44t46.5 -120q0 -29 -6 -68t-23 -116l-71 -317q-12 -52 -16.5 -82t-4.5 -52q0 -49 27 -75.5t78 -26.5q21 0 50 4.5t64 13.5v-55q-78 -31 -141 -47t-105 -16q-77 0 -113 30t-36 95
q0 22 3.5 49.5t10.5 58.5l88 379q10 41 15.5 75t5.5 56q0 68 -27 99.5t-84 31.5q-55 0 -134.5 -44t-168.5 -124l-127 -694h-174l281 1372l-193 17v51z" />
    <glyph glyph-name="i" unicode="i" horiz-adv-x="588" 
d="M371 987h53l-147 -765q-4 -19 -5.5 -31.5t-1.5 -20.5q0 -39 25 -59.5t74 -20.5q28 0 65.5 7.5t85.5 23.5v-64q-85 -35 -157.5 -53t-131.5 -18q-65 0 -98 33.5t-33 101.5q0 19 3.5 46t9.5 60l120 611l-165 30v54zM412 1442q44 0 77 -33t33 -78t-32.5 -77.5t-77.5 -32.5
q-47 0 -79 31.5t-32 78.5q0 46 32.5 78.5t78.5 32.5z" />
    <glyph glyph-name="j" unicode="j" horiz-adv-x="551" 
d="M362 987h74l-114 -729q-31 -197 -65.5 -294.5t-90.5 -176.5q-78 -111 -161 -170t-159 -59q-49 0 -78.5 29.5t-29.5 78.5q0 24 11.5 45t33.5 37l211 -55q101 109 170 549l2 10l92 604l-207 25v47zM399 1436q45 0 78 -32.5t33 -78.5q0 -45 -33 -78t-78 -33q-46 0 -78 32.5
t-32 78.5t32 78.5t78 32.5z" />
    <glyph glyph-name="k" unicode="k" horiz-adv-x="1053" 
d="M461 1507h57l-219 -1020l379 392q53 54 98 81t82 27q50 0 83.5 -29.5t33.5 -74.5q0 -41 -28.5 -73t-84.5 -54l-74 80q-52 -39 -112.5 -89t-151.5 -133q154 -346 225 -436t154 -90q19 0 42.5 3t64.5 11v-57q-81 -26 -144 -40.5t-96 -14.5q-59 0 -105 37.5t-87 119.5
l-175 353l-116 -107l-66 -393h-170l277 1380l-189 11v57z" />
    <glyph glyph-name="l" unicode="l" horiz-adv-x="563" 
d="M434 1507h55q-9 -49 -15.5 -85t-8.5 -48l-207 -1030q-11 -54 -16.5 -97.5t-5.5 -68.5q0 -47 28.5 -71.5t83.5 -24.5q24 0 59.5 8t86.5 25v-64q-81 -34 -151 -51.5t-122 -17.5q-75 0 -112 37.5t-37 113.5q0 22 9.5 82.5t27.5 153.5l196 1003l-182 21v53z" />
    <glyph glyph-name="m" unicode="m" horiz-adv-x="1669" 
d="M371 987h51l-37 -194q117 96 215 145t172 49q78 0 121 -48t45 -138q110 92 205 139t170 47q76 0 122 -47.5t46 -126.5q0 -34 -6.5 -77t-18.5 -95l-70 -318l-1 -5q-21 -96 -21 -128q0 -48 27.5 -75t76.5 -27q22 0 51 4.5t64 13.5v-55q-86 -32 -146 -47.5t-100 -15.5
q-76 0 -112.5 30t-36.5 93q0 17 4 45t12 65l88 379q9 37 14 71t5 60q0 65 -25.5 98t-75.5 33q-63 0 -137.5 -44t-140.5 -122l-133 -696h-170l123 601q9 49 13.5 84t4.5 56q0 58 -29.5 89.5t-83.5 31.5q-46 0 -125.5 -45t-164.5 -123l-129 -694h-172l170 836l-168 32v54z" />
    <glyph glyph-name="n" unicode="n" horiz-adv-x="1139" 
d="M371 987h51l-37 -196q128 101 224 148.5t173 47.5q80 0 126 -44t46 -120q0 -28 -5.5 -65t-22.5 -117l-70 -317q-1 -7 -4 -20q-18 -88 -18 -116q0 -48 27.5 -74t78.5 -26q21 0 48.5 4.5t63.5 13.5l1 -57q-80 -31 -141.5 -46t-104.5 -15q-75 0 -112.5 30.5t-37.5 92.5
q0 19 4.5 47t12.5 63l88 379q9 38 13.5 71.5t4.5 59.5q0 68 -26 98.5t-84 30.5q-57 0 -136.5 -44t-166.5 -124l-127 -692h-174l170 838l-168 30v52z" />
    <glyph glyph-name="o" unicode="o" horiz-adv-x="1028" 
d="M545 909q-137 0 -231.5 -155t-94.5 -385q0 -145 52.5 -224t146.5 -79q135 0 231 154.5t96 379.5q0 148 -52 228.5t-148 80.5zM571 989q161 0 255 -108t94 -293q0 -121 -43 -234.5t-123 -206.5q-72 -82 -163 -123.5t-198 -41.5q-159 0 -253.5 105.5t-94.5 283.5
q0 123 43.5 241.5t120.5 206.5q74 84 166.5 127t195.5 43z" />
    <glyph glyph-name="p" unicode="p" horiz-adv-x="1057" 
d="M244 137q46 -28 89.5 -41.5t86.5 -13.5q68 0 125 31t104 94q55 73 90 189t35 231q0 118 -49.5 186t-134.5 68q-46 0 -102.5 -27t-127.5 -82zM346 987h53l-24 -125q88 63 165.5 94t143.5 31q124 0 192 -93t68 -263q0 -133 -43 -246.5t-131 -210.5q-78 -86 -181 -134
t-208 -48q-38 0 -77.5 9.5t-80.5 29.5l-67 -381l194 -35v-61h-491v61l121 25l20 22l215 1192l-160 20v52z" />
    <glyph glyph-name="q" unicode="q" horiz-adv-x="1049" 
d="M643 909q-7 1 -15.5 1.5t-25.5 0.5q-69 0 -131 -32.5t-117 -98.5q-61 -74 -99 -194t-38 -244q0 -110 51 -173t140 -63q57 0 116 30.5t123 92.5l98 555zM848 997h98q-1 -5 -4 -17q-15 -59 -18 -80l-213 -1246l196 -35v-65h-504v65l125 25l23 24l82 473q-82 -77 -158 -115
t-147 -38q-128 0 -202.5 97.5t-74.5 266.5q0 119 34.5 224t100.5 192q82 107 192.5 168t221.5 61q40 0 87.5 -12.5t107.5 -38.5z" />
    <glyph glyph-name="r" unicode="r" horiz-adv-x="815" 
d="M362 987h41l-65 -280q95 134 190 207t174 73q52 0 83.5 -29.5t31.5 -76.5q0 -60 -37.5 -96.5t-99.5 -36.5h-14l-54 110q-136 -53 -203.5 -136t-95.5 -241l-84 -481h-172l170 838l-168 30v52z" />
    <glyph glyph-name="s" unicode="s" horiz-adv-x="758" 
d="M545 756l-86 118q-15 11 -30.5 16t-33.5 5q-62 0 -102.5 -39t-40.5 -98q0 -73 150 -188l4 -3q9 -7 28 -21q178 -136 178 -249q0 -137 -105 -226t-269 -89q-126 0 -199.5 48.5t-73.5 131.5q0 47 29.5 75.5t77.5 28.5q20 0 41 -8.5t47 -28.5l-37 -102q24 -35 62 -53.5
t85 -18.5q88 0 137.5 46.5t49.5 127.5q0 46 -27 85t-115 106l-9 7q-185 139 -185 251q0 127 103 218t249 91q85 0 138 -35.5t53 -91.5q0 -45 -32 -73t-87 -31z" />
    <glyph glyph-name="t" unicode="t" horiz-adv-x="682" 
d="M342 1186h94l-43 -234h295v-88h-311l-107 -547q-1 -7 -3 -19q-9 -52 -9 -71q0 -62 32 -94.5t93 -32.5q34 0 82.5 10.5t112.5 30.5v-65q-104 -45 -183 -67.5t-133 -22.5q-87 0 -129.5 46t-42.5 140q0 29 4 64.5t12 72.5l111 555l-127 -10v61l150 66z" />
    <glyph glyph-name="u" unicode="u" horiz-adv-x="1133" 
d="M383 989l33 -28l-129 -596q-12 -57 -17.5 -93.5t-5.5 -58.5q0 -53 31.5 -83t87.5 -30q60 0 136 34t155 95l153 740h166l-145 -668q-1 -5 -4 -17q-17 -84 -17 -122q0 -34 30 -57t77 -23q19 0 47.5 5.5t67.5 16.5v-57q-90 -33 -154 -48t-109 -15q-63 0 -92.5 31.5
t-29.5 99.5q0 15 0.5 23.5t0.5 14.5q-101 -84 -193.5 -126.5t-176.5 -42.5q-93 0 -146 51t-53 141q0 24 4 54t13 69l118 539l-170 30v54z" />
    <glyph glyph-name="v" unicode="v" horiz-adv-x="930" 
d="M190 991h5q75 0 108 -45t47 -190l53 -561q120 153 197.5 277.5t116.5 227.5l-39 250q25 21 51 31t51 10q52 0 80.5 -30.5t28.5 -86.5q0 -113 -146.5 -342t-414.5 -532h-99q15 27 22 60.5t7 72.5q0 14 -1 29l-3 45l-51 479q-9 77 -23.5 118t-38.5 56l-157 12v52z" />
    <glyph glyph-name="w" unicode="w" horiz-adv-x="1460" 
d="M236 993l71 -4l45 -807l18 33q255 484 359 727l123 14q6 -142 20 -343t35 -459q140 187 220 319.5t112 231.5l-41 239q19 24 45 35.5t60 11.5q50 0 78 -30.5t28 -86.5q0 -99 -112.5 -288t-413.5 -586h-119l-49 715q-44 -96 -145.5 -281t-245.5 -434h-134l17 45l-55 811
l-152 18v50z" />
    <glyph glyph-name="x" unicode="x" horiz-adv-x="977" 
d="M264 993q4 0 11.5 1t11.5 1q111 0 201 -353q10 -39 16 -60q103 208 199.5 309.5t191.5 101.5q49 0 83 -33.5t34 -80.5q0 -37 -25.5 -66t-75.5 -49l-88 80q-70 -19 -138 -105.5t-136 -245.5l15 -51q101 -354 216 -354q16 0 42.5 5.5t66.5 17.5v-64q-73 -29 -131 -44
t-99 -15q-141 0 -235 403l-2 8q-102 -214 -197 -314.5t-194 -100.5q-58 0 -92.5 30t-34.5 80q0 41 26 68t74 37l94 -88q76 40 151.5 141t133.5 242q-44 153 -80.5 237t-75.5 119l-170 22v50z" />
    <glyph glyph-name="y" unicode="y" horiz-adv-x="973" 
d="M169 993q5 1 11 1.5t17 0.5q119 0 189 -362q10 -51 15 -77l68 -347q65 166 145.5 360.5t176.5 417.5h38l162 -53v-43l-104 -62q-90 -100 -214 -372t-188 -387q-139 -254 -277 -384t-267 -130q-74 0 -123 39t-49 96q0 42 30.5 73.5t79.5 38.5l121 -120q91 6 178 93
t180 267l-6 -4l-127 616q-14 71 -34 124t-48 89l-174 15v45z" />
    <glyph glyph-name="z" unicode="z" horiz-adv-x="901" 
d="M764 1004l125 -66l-707 -788l199 51q75 -34 127.5 -51t81.5 -17q39 0 70.5 18.5t56.5 55.5l-113 125q21 36 46.5 55t51.5 19q44 0 72.5 -34.5t28.5 -88.5q0 -109 -87.5 -198t-197.5 -89q-61 0 -166.5 44t-152.5 44q-17 0 -32.5 -4.5t-33.5 -13.5l-49 -89l-113 62l705 790
l-203 -45q-57 30 -102.5 45t-77.5 15q-40 0 -73 -17t-56 -49l108 -131q-19 -33 -42.5 -49t-53.5 -16q-44 0 -70 32.5t-26 87.5q0 109 85.5 198t190.5 89q62 0 168 -55v0q58 -29 86.5 -38t53.5 -9q12 0 27.5 4t33.5 12z" />
    <glyph glyph-name="braceleft" unicode="{" horiz-adv-x="995" 
d="M856 1440v-76q-151 -5 -206.5 -56.5t-55.5 -189.5v-166q0 -169 -60 -248t-206 -110q144 -32 206 -112t62 -234v-170q0 -172 52.5 -221t207.5 -52v-79h-51q-214 0 -293.5 78.5t-79.5 295.5v174q0 154 -55.5 214.5t-196.5 60.5h-47v89q9 0 20.5 -0.5t32.5 -0.5
q135 0 189.5 58.5t54.5 205.5v209q0 174 94 252t305 78h27z" />
    <glyph glyph-name="bar" unicode="|" horiz-adv-x="1024" 
d="M449 1565h126v-2048h-126v2048z" />
    <glyph glyph-name="braceright" unicode="}" horiz-adv-x="995" 
d="M131 1440h27q211 0 305 -78t94 -252v-209q0 -147 54.5 -205.5t189.5 -58.5q21 0 32.5 0.5t20.5 0.5v-89h-47q-140 0 -196 -60.5t-56 -214.5v-174q0 -216 -80 -295t-295 -79h-49v79q155 3 207.5 52t52.5 221v170q0 154 62 234t206 112q-146 31 -206 110t-60 248v166
q0 138 -55.5 189.5t-205.5 56.5z" />
    <glyph glyph-name="asciitilde" unicode="~" horiz-adv-x="1706" 
d="M1530 758v-131q-101 -72 -197.5 -108t-189.5 -36q-43 0 -90.5 9t-100.5 26q-30 10 -87 31q-202 72 -302 72q-83 0 -173.5 -37.5t-211.5 -122.5v133q105 73 202 109t185 36q56 0 116.5 -12.5t174.5 -52.5q12 -4 35 -13q164 -59 254 -59q85 0 176 36.5t209 119.5z" />
    <glyph glyph-name="Adieresis" unicode="&#xc4;" horiz-adv-x="1241" 
d="M707 1186l-334 -590h428zM707 1386h135l219 -1261l35 -37l100 -10v-78h-448v78l120 10l15 29l-64 391h-497l-220 -391l17 -29l125 -10v-78h-406v78l113 12zM983 1810q44 0 74.5 -30.5t30.5 -73.5t-31 -74t-74 -31q-41 0 -72.5 31.5t-31.5 73.5q0 43 31 73.5t73 30.5z
M600 1810q45 0 76 -30.5t31 -73.5t-31.5 -74t-75.5 -31q-41 0 -71.5 31.5t-30.5 73.5q0 43 30 73.5t72 30.5z" />
    <glyph glyph-name="Aring" unicode="&#xc5;" horiz-adv-x="1241" 
d="M707 1186l-334 -590h428zM707 1386h135l219 -1261l35 -37l100 -10v-78h-448v78l120 10l15 29l-64 391h-497l-220 -391l17 -29l125 -10v-78h-406v78l113 12zM807 1913q-64 0 -109 -44t-45 -108q0 -62 45.5 -106.5t108.5 -44.5q64 0 109 44t45 107q0 64 -44.5 108
t-109.5 44zM805 2007q103 0 174.5 -71.5t71.5 -174.5t-70.5 -173t-173.5 -70t-174.5 70.5t-71.5 172.5q0 103 71 174.5t173 71.5z" />
    <glyph glyph-name="Ccedilla" unicode="&#xc7;" horiz-adv-x="1237" 
d="M1274 1329l-57 -315h-87v196l-16 39q-51 27 -104.5 40.5t-112.5 13.5q-101 0 -194 -36t-168 -104q-122 -109 -189 -278t-67 -367q0 -212 111.5 -329t314.5 -117q41 0 85.5 7t90.5 21l39 35l90 236h88l-56 -324q-106 -35 -209 -53.5t-198 -18.5q-253 0 -402 154t-149 414
q0 199 83 377t234 303q107 86 234.5 131t267.5 45q87 0 179.5 -17.5t191.5 -52.5zM570 0h73l-24 -124q9 0 19 0.5t24 0.5q62 0 95.5 -29.5t33.5 -85.5q0 -94 -79 -156.5t-202 -62.5q-34 0 -69 5.5t-70 15.5l14 74q30 -9 59.5 -13t59.5 -4q71 0 112.5 29t41.5 78
q0 26 -24 41.5t-64 15.5q-11 0 -37 -3q-4 -1 -6 -1z" />
    <glyph glyph-name="Eacute" unicode="&#xc9;" horiz-adv-x="1118" 
d="M180 1374h953l-58 -299h-98v174l-23 31h-440l-100 -518h311l37 29l45 149h88l-86 -451h-84l8 148l-24 29h-314l-110 -572h522l37 33l69 207h95l-66 -334h-991v78l129 12l35 29l219 1136l-23 31l-131 10v78zM893 1900h202l-375 -389h-100z" />
    <glyph glyph-name="Ntilde" unicode="&#xd1;" horiz-adv-x="1399" 
d="M166 1374h352v-51l490 -1038l188 970l-20 31l-132 10v78h431v-78l-132 -10l-32 -31l-240 -1255h-119l-538 1139l-199 -1020l23 -29l131 -12v-78h-432v78l131 12l32 29l219 1136l-20 31l-133 10v78zM1127 1843h86q-13 -110 -74 -178t-143 -68q-69 0 -162.5 51.5
t-114.5 51.5q-38 0 -65 -37t-31 -96h-88q18 120 74.5 182.5t146.5 62.5q59 0 147.5 -53t118.5 -53q42 0 68 34t37 103z" />
    <glyph glyph-name="Odieresis" unicode="&#xd6;" horiz-adv-x="1450" 
d="M1169 858q0 205 -95.5 325t-258.5 120q-106 0 -200.5 -59t-172.5 -173q-76 -112 -118.5 -258t-42.5 -295q0 -202 96.5 -323t257.5 -121q107 0 201 58.5t172 172.5q76 113 118.5 259t42.5 294zM829 1397q94 0 176 -24t146 -70q105 -78 162 -193t57 -250q0 -170 -48.5 -323
t-139.5 -273q-106 -138 -251.5 -213.5t-305.5 -75.5q-238 0 -389.5 155.5t-151.5 399.5q0 159 49 307t143 271q104 137 249.5 213t303.5 76zM1087 1810q44 0 74.5 -30.5t30.5 -73.5t-31 -74t-74 -31q-41 0 -72.5 31.5t-31.5 73.5q0 43 31 73.5t73 30.5zM704 1810
q45 0 76 -30.5t31 -73.5t-31.5 -74t-75.5 -31q-41 0 -71.5 31.5t-30.5 73.5q0 43 30 73.5t72 30.5z" />
    <glyph glyph-name="Udieresis" unicode="&#xdc;" horiz-adv-x="1360" 
d="M150 1374h497v-78l-133 -10l-33 -31l-145 -745q-9 -46 -14 -86t-5 -68q0 -123 75 -188.5t216 -65.5q181 0 278.5 94t139.5 314l145 745l-24 31l-133 10v78h428v-78l-129 -10l-35 -31l-150 -763v-5q-50 -251 -151 -356q-73 -74 -183 -114t-243 -40q-204 0 -312 86
t-108 248q0 29 5.5 68.5t19.5 112.5l147 763l-22 31l-131 10v78zM1042 1810q44 0 74.5 -30.5t30.5 -73.5t-31 -74t-74 -31q-41 0 -72.5 31.5t-31.5 73.5q0 43 31 73.5t73 30.5zM659 1810q45 0 76 -30.5t31 -73.5t-31.5 -74t-75.5 -31q-41 0 -71.5 31.5t-30.5 73.5
q0 43 30 73.5t72 30.5z" />
    <glyph glyph-name="aacute" unicode="&#xe1;" horiz-adv-x="1075" 
d="M649 907h-28q-182 0 -299 -156.5t-117 -398.5q0 -123 44.5 -184.5t133.5 -61.5q58 0 118 34t124 102l106 540zM840 987h106q-16 -33 -35.5 -107.5t-42.5 -185.5l-73 -362q-10 -48 -15.5 -84.5t-5.5 -59.5q0 -48 26.5 -71t84.5 -23q12 0 32.5 3.5t81.5 17.5v-62
q-86 -36 -148.5 -53.5t-102.5 -17.5q-64 0 -94.5 38t-30.5 117v17q-83 -88 -158 -130t-148 -42q-131 0 -206.5 95t-75.5 263q0 101 26.5 196t79.5 183q79 130 201 199t272 69q45 0 92 -11.5t93 -33.5zM818 1507h202l-375 -389h-100z" />
    <glyph glyph-name="agrave" unicode="&#xe0;" horiz-adv-x="1075" 
d="M649 907h-28q-182 0 -299 -156.5t-117 -398.5q0 -123 44.5 -184.5t133.5 -61.5q58 0 118 34t124 102l106 540zM840 987h106q-16 -33 -35.5 -107.5t-42.5 -185.5l-73 -362q-10 -48 -15.5 -84.5t-5.5 -59.5q0 -48 26.5 -71t84.5 -23q12 0 32.5 3.5t81.5 17.5v-62
q-86 -36 -148.5 -53.5t-102.5 -17.5q-64 0 -94.5 38t-30.5 117v17q-83 -88 -158 -130t-148 -42q-131 0 -206.5 95t-75.5 263q0 101 26.5 196t79.5 183q79 130 201 199t272 69q45 0 92 -11.5t93 -33.5zM398 1507h202l123 -389h-102z" />
    <glyph glyph-name="acircumflex" unicode="&#xe2;" horiz-adv-x="1075" 
d="M649 907h-28q-182 0 -299 -156.5t-117 -398.5q0 -123 44.5 -184.5t133.5 -61.5q58 0 118 34t124 102l106 540zM840 987h106q-16 -33 -35.5 -107.5t-42.5 -185.5l-73 -362q-10 -48 -15.5 -84.5t-5.5 -59.5q0 -48 26.5 -71t84.5 -23q12 0 32.5 3.5t81.5 17.5v-62
q-86 -36 -148.5 -53.5t-102.5 -17.5q-64 0 -94.5 38t-30.5 117v17q-83 -88 -158 -130t-148 -42q-131 0 -206.5 95t-75.5 263q0 101 26.5 196t79.5 183q79 130 201 199t272 69q45 0 92 -11.5t93 -33.5zM629 1507h133l152 -389h-113l-125 289l-233 -289h-113z" />
    <glyph glyph-name="adieresis" unicode="&#xe4;" horiz-adv-x="1075" 
d="M649 907h-28q-182 0 -299 -156.5t-117 -398.5q0 -123 44.5 -184.5t133.5 -61.5q58 0 118 34t124 102l106 540zM840 987h106q-16 -33 -35.5 -107.5t-42.5 -185.5l-73 -362q-10 -48 -15.5 -84.5t-5.5 -59.5q0 -48 26.5 -71t84.5 -23q12 0 32.5 3.5t81.5 17.5v-62
q-86 -36 -148.5 -53.5t-102.5 -17.5q-64 0 -94.5 38t-30.5 117v17q-83 -88 -158 -130t-148 -42q-131 0 -206.5 95t-75.5 263q0 101 26.5 196t79.5 183q79 130 201 199t272 69q45 0 92 -11.5t93 -33.5zM846 1417q44 0 74.5 -30.5t30.5 -73.5t-31 -74t-74 -31
q-41 0 -72.5 31.5t-31.5 73.5q0 43 31 73.5t73 30.5zM463 1417q45 0 76 -30.5t31 -73.5t-31.5 -74t-75.5 -31q-41 0 -71.5 31.5t-30.5 73.5q0 43 30 73.5t72 30.5z" />
    <glyph glyph-name="atilde" unicode="&#xe3;" horiz-adv-x="1075" 
d="M649 907h-28q-182 0 -299 -156.5t-117 -398.5q0 -123 44.5 -184.5t133.5 -61.5q58 0 118 34t124 102l106 540zM840 987h106q-16 -33 -35.5 -107.5t-42.5 -185.5l-73 -362q-10 -48 -15.5 -84.5t-5.5 -59.5q0 -48 26.5 -71t84.5 -23q12 0 32.5 3.5t81.5 17.5v-62
q-86 -36 -148.5 -53.5t-102.5 -17.5q-64 0 -94.5 38t-30.5 117v17q-83 -88 -158 -130t-148 -42q-131 0 -206.5 95t-75.5 263q0 101 26.5 196t79.5 183q79 130 201 199t272 69q45 0 92 -11.5t93 -33.5zM912 1450h86q-13 -110 -74 -178t-143 -68q-69 0 -162.5 51.5
t-114.5 51.5q-38 0 -65 -37t-31 -96h-88q18 120 74.5 182.5t146.5 62.5q59 0 147.5 -53t118.5 -53q42 0 68 34t37 103z" />
    <glyph glyph-name="aring" unicode="&#xe5;" horiz-adv-x="1075" 
d="M649 907h-28q-182 0 -299 -156.5t-117 -398.5q0 -123 44.5 -184.5t133.5 -61.5q58 0 118 34t124 102l106 540zM799 942l41 45h106q-16 -33 -35.5 -107.5t-42.5 -185.5l-73 -362q-10 -48 -15.5 -84.5t-5.5 -59.5q0 -48 26.5 -71t84.5 -23q12 0 32.5 3.5t81.5 17.5v-62
q-86 -36 -148.5 -53.5t-102.5 -17.5q-64 0 -94.5 38t-30.5 117v17q-83 -88 -158 -130t-148 -42q-131 0 -206.5 95t-75.5 263q0 101 26.5 196t79.5 183q79 130 201 199t272 69q45 0 92 -11.5t93 -33.5zM651 1475q-57 0 -97 -40t-40 -98q0 -56 40 -95.5t97 -39.5t97 40t40 95
q0 57 -40 97.5t-97 40.5zM651 1559q92 0 156.5 -64.5t64.5 -157.5q0 -92 -63.5 -155.5t-157.5 -63.5q-92 0 -156.5 64t-64.5 155q0 93 64.5 157.5t156.5 64.5z" />
    <glyph glyph-name="ccedilla" unicode="&#xe7;" horiz-adv-x="807" 
d="M628 738l-118 155h-10q-130 0 -218.5 -146t-88.5 -366q0 -132 54 -205.5t150 -73.5q73 0 156 44.5t164 125.5v-94q-92 -96 -190.5 -147t-192.5 -51q-138 0 -220.5 101t-82.5 271q0 135 43.5 254t126.5 209q77 85 173 131.5t193 46.5q82 0 136.5 -41.5t54.5 -101.5
q0 -49 -36 -80t-94 -32zM216 0h73l-24 -124q9 0 19 0.5t24 0.5q62 0 95.5 -29.5t33.5 -85.5q0 -94 -79 -156.5t-202 -62.5q-34 0 -69 5.5t-70 15.5l14 74q30 -9 59.5 -13t59.5 -4q71 0 112.5 29t41.5 78q0 26 -24 41.5t-64 15.5q-11 0 -37 -3q-4 -1 -6 -1z" />
    <glyph glyph-name="eacute" unicode="&#xe9;" horiz-adv-x="868" 
d="M216 455q-4 -21 -5.5 -45t-1.5 -50q0 -123 57 -194.5t156 -71.5q72 0 156 43t172 125v-96q-95 -91 -195 -137.5t-203 -46.5q-146 0 -227.5 98t-81.5 274q0 129 48 252t134 213q75 77 166.5 122.5t171.5 45.5q97 0 154 -55t57 -148q0 -136 -148 -224t-410 -105zM225 524
q179 10 290.5 85.5t111.5 181.5q0 47 -31 78.5t-76 31.5q-94 0 -173.5 -100.5t-121.5 -276.5zM741 1507h202l-375 -389h-100z" />
    <glyph glyph-name="egrave" unicode="&#xe8;" horiz-adv-x="868" 
d="M216 455q-4 -21 -5.5 -45t-1.5 -50q0 -123 57 -194.5t156 -71.5q72 0 156 43t172 125v-96q-95 -91 -195 -137.5t-203 -46.5q-146 0 -227.5 98t-81.5 274q0 129 48 252t134 213q75 77 166.5 122.5t171.5 45.5q97 0 154 -55t57 -148q0 -136 -148 -224t-410 -105zM225 524
q179 10 290.5 85.5t111.5 181.5q0 47 -31 78.5t-76 31.5q-94 0 -173.5 -100.5t-121.5 -276.5zM321 1507h202l123 -389h-102z" />
    <glyph glyph-name="ecircumflex" unicode="&#xea;" horiz-adv-x="868" 
d="M216 455q-4 -21 -5.5 -45t-1.5 -50q0 -123 57 -194.5t156 -71.5q72 0 156 43t172 125v-96q-95 -91 -195 -137.5t-203 -46.5q-146 0 -227.5 98t-81.5 274q0 129 48 252t134 213q75 77 166.5 122.5t171.5 45.5q97 0 154 -55t57 -148q0 -136 -148 -224t-410 -105zM225 524
q179 10 290.5 85.5t111.5 181.5q0 47 -31 78.5t-76 31.5q-94 0 -173.5 -100.5t-121.5 -276.5zM552 1507h133l152 -389h-113l-125 289l-233 -289h-113z" />
    <glyph glyph-name="edieresis" unicode="&#xeb;" horiz-adv-x="868" 
d="M216 455q-4 -21 -5.5 -45t-1.5 -50q0 -123 57 -194.5t156 -71.5q72 0 156 43t172 125v-96q-95 -91 -195 -137.5t-203 -46.5q-146 0 -227.5 98t-81.5 274q0 129 48 252t134 213q75 77 166.5 122.5t171.5 45.5q97 0 154 -55t57 -148q0 -136 -148 -224t-410 -105zM225 524
q179 10 290.5 85.5t111.5 181.5q0 47 -31 78.5t-76 31.5q-94 0 -173.5 -100.5t-121.5 -276.5zM769 1417q44 0 74.5 -30.5t30.5 -73.5t-31 -74t-74 -31q-41 0 -72.5 31.5t-31.5 73.5q0 43 31 73.5t73 30.5zM386 1417q45 0 76 -30.5t31 -73.5t-31.5 -74t-75.5 -31
q-41 0 -71.5 31.5t-30.5 73.5q0 43 30 73.5t72 30.5z" />
    <glyph glyph-name="iacute" unicode="&#xed;" horiz-adv-x="588" 
d="M371 987h53l-147 -765q-4 -19 -5.5 -31.5t-1.5 -20.5q0 -39 25 -59.5t74 -20.5q28 0 65.5 7.5t85.5 23.5v-64q-85 -35 -157.5 -53t-131.5 -18q-65 0 -98 33.5t-33 101.5q0 19 3.5 46t9.5 60l120 611l-165 30v54zM575 1507h202l-375 -389h-100z" />
    <glyph glyph-name="igrave" unicode="&#xec;" horiz-adv-x="588" 
d="M371 987h53l-147 -765q-4 -19 -5.5 -31.5t-1.5 -20.5q0 -39 25 -59.5t74 -20.5q28 0 65.5 7.5t85.5 23.5v-64q-85 -35 -157.5 -53t-131.5 -18q-65 0 -98 33.5t-33 101.5q0 19 3.5 46t9.5 60l120 611l-165 30v54zM155 1507h202l123 -389h-102z" />
    <glyph glyph-name="icircumflex" unicode="&#xee;" horiz-adv-x="588" 
d="M371 987h53l-147 -765q-4 -19 -5.5 -31.5t-1.5 -20.5q0 -39 25 -59.5t74 -20.5q28 0 65.5 7.5t85.5 23.5v-64q-85 -35 -157.5 -53t-131.5 -18q-65 0 -98 33.5t-33 101.5q0 19 3.5 46t9.5 60l120 611l-165 30v54zM386 1507h133l152 -389h-113l-125 289l-233 -289h-113z
" />
    <glyph glyph-name="idieresis" unicode="&#xef;" horiz-adv-x="588" 
d="M371 987h53l-147 -765q-4 -19 -5.5 -31.5t-1.5 -20.5q0 -39 25 -59.5t74 -20.5q28 0 65.5 7.5t85.5 23.5v-64q-85 -35 -157.5 -53t-131.5 -18q-65 0 -98 33.5t-33 101.5q0 19 3.5 46t9.5 60l120 611l-165 30v54zM603 1417q44 0 74.5 -30.5t30.5 -73.5t-31 -74t-74 -31
q-41 0 -72.5 31.5t-31.5 73.5q0 43 31 73.5t73 30.5zM220 1417q45 0 76 -30.5t31 -73.5t-31.5 -74t-75.5 -31q-41 0 -71.5 31.5t-30.5 73.5q0 43 30 73.5t72 30.5z" />
    <glyph glyph-name="ntilde" unicode="&#xf1;" horiz-adv-x="1139" 
d="M371 987h51l-37 -196q128 101 224 148.5t173 47.5q80 0 126 -44t46 -120q0 -28 -5.5 -65t-22.5 -117l-70 -317q-1 -7 -4 -20q-18 -88 -18 -116q0 -48 27.5 -74t78.5 -26q21 0 48.5 4.5t63.5 13.5l1 -57q-80 -31 -141.5 -46t-104.5 -15q-75 0 -112.5 30.5t-37.5 92.5
q0 19 4.5 47t12.5 63l88 379q9 38 13.5 71.5t4.5 59.5q0 68 -26 98.5t-84 30.5q-57 0 -136.5 -44t-166.5 -124l-127 -692h-174l170 838l-168 30v52zM908 1450h86q-13 -110 -74 -178t-143 -68q-69 0 -162.5 51.5t-114.5 51.5q-38 0 -65 -37t-31 -96h-88q18 120 74.5 182.5
t146.5 62.5q59 0 147.5 -53t118.5 -53q42 0 68 34t37 103z" />
    <glyph glyph-name="oacute" unicode="&#xf3;" horiz-adv-x="1028" 
d="M545 909q-137 0 -231.5 -155t-94.5 -385q0 -145 52.5 -224t146.5 -79q135 0 231 154.5t96 379.5q0 148 -52 228.5t-148 80.5zM571 989q161 0 255 -108t94 -293q0 -121 -43 -234.5t-123 -206.5q-72 -82 -163 -123.5t-198 -41.5q-159 0 -253.5 105.5t-94.5 283.5
q0 123 43.5 241.5t120.5 206.5q74 84 166.5 127t195.5 43zM793 1507h202l-375 -389h-100z" />
    <glyph glyph-name="ograve" unicode="&#xf2;" horiz-adv-x="1028" 
d="M545 909q-137 0 -231.5 -155t-94.5 -385q0 -145 52.5 -224t146.5 -79q135 0 231 154.5t96 379.5q0 148 -52 228.5t-148 80.5zM571 989q161 0 255 -108t94 -293q0 -121 -43 -234.5t-123 -206.5q-72 -82 -163 -123.5t-198 -41.5q-159 0 -253.5 105.5t-94.5 283.5
q0 123 43.5 241.5t120.5 206.5q74 84 166.5 127t195.5 43zM373 1507h202l123 -389h-102z" />
    <glyph glyph-name="ocircumflex" unicode="&#xf4;" horiz-adv-x="1028" 
d="M545 909q-137 0 -231.5 -155t-94.5 -385q0 -145 52.5 -224t146.5 -79q135 0 231 154.5t96 379.5q0 148 -52 228.5t-148 80.5zM571 989q161 0 255 -108t94 -293q0 -121 -43 -234.5t-123 -206.5q-72 -82 -163 -123.5t-198 -41.5q-159 0 -253.5 105.5t-94.5 283.5
q0 123 43.5 241.5t120.5 206.5q74 84 166.5 127t195.5 43zM604 1507h133l152 -389h-113l-125 289l-233 -289h-113z" />
    <glyph glyph-name="odieresis" unicode="&#xf6;" horiz-adv-x="1028" 
d="M545 909q-137 0 -231.5 -155t-94.5 -385q0 -145 52.5 -224t146.5 -79q135 0 231 154.5t96 379.5q0 148 -52 228.5t-148 80.5zM571 989q161 0 255 -108t94 -293q0 -121 -43 -234.5t-123 -206.5q-72 -82 -163 -123.5t-198 -41.5q-159 0 -253.5 105.5t-94.5 283.5
q0 123 43.5 241.5t120.5 206.5q74 84 166.5 127t195.5 43zM821 1417q44 0 74.5 -30.5t30.5 -73.5t-31 -74t-74 -31q-41 0 -72.5 31.5t-31.5 73.5q0 43 31 73.5t73 30.5zM438 1417q45 0 76 -30.5t31 -73.5t-31.5 -74t-75.5 -31q-41 0 -71.5 31.5t-30.5 73.5q0 43 30 73.5
t72 30.5z" />
    <glyph glyph-name="otilde" unicode="&#xf5;" horiz-adv-x="1028" 
d="M545 909q-137 0 -231.5 -155t-94.5 -385q0 -145 52.5 -224t146.5 -79q135 0 231 154.5t96 379.5q0 148 -52 228.5t-148 80.5zM571 989q161 0 255 -108t94 -293q0 -121 -43 -234.5t-123 -206.5q-72 -82 -163 -123.5t-198 -41.5q-159 0 -253.5 105.5t-94.5 283.5
q0 123 43.5 241.5t120.5 206.5q74 84 166.5 127t195.5 43zM887 1450h86q-13 -110 -74 -178t-143 -68q-69 0 -162.5 51.5t-114.5 51.5q-38 0 -65 -37t-31 -96h-88q18 120 74.5 182.5t146.5 62.5q59 0 147.5 -53t118.5 -53q42 0 68 34t37 103z" />
    <glyph glyph-name="uacute" unicode="&#xfa;" horiz-adv-x="1133" 
d="M383 989l33 -28l-129 -596q-12 -57 -17.5 -93.5t-5.5 -58.5q0 -53 31.5 -83t87.5 -30q60 0 136 34t155 95l153 740h166l-145 -668q-1 -5 -4 -17q-17 -84 -17 -122q0 -34 30 -57t77 -23q19 0 47.5 5.5t67.5 16.5v-57q-90 -33 -154 -48t-109 -15q-63 0 -92.5 31.5
t-29.5 99.5q0 15 0.5 23.5t0.5 14.5q-101 -84 -193.5 -126.5t-176.5 -42.5q-93 0 -146 51t-53 141q0 24 4 54t13 69l118 539l-170 30v54zM801 1507h202l-375 -389h-100z" />
    <glyph glyph-name="ugrave" unicode="&#xf9;" horiz-adv-x="1133" 
d="M383 989l33 -28l-129 -596q-12 -57 -17.5 -93.5t-5.5 -58.5q0 -53 31.5 -83t87.5 -30q60 0 136 34t155 95l153 740h166l-145 -668q-1 -5 -4 -17q-17 -84 -17 -122q0 -34 30 -57t77 -23q19 0 47.5 5.5t67.5 16.5v-57q-90 -33 -154 -48t-109 -15q-63 0 -92.5 31.5
t-29.5 99.5q0 15 0.5 23.5t0.5 14.5q-101 -84 -193.5 -126.5t-176.5 -42.5q-93 0 -146 51t-53 141q0 24 4 54t13 69l118 539l-170 30v54zM381 1507h202l123 -389h-102z" />
    <glyph glyph-name="ucircumflex" unicode="&#xfb;" horiz-adv-x="1133" 
d="M383 989l33 -28l-129 -596q-12 -57 -17.5 -93.5t-5.5 -58.5q0 -53 31.5 -83t87.5 -30q60 0 136 34t155 95l153 740h166l-145 -668q-1 -5 -4 -17q-17 -84 -17 -122q0 -34 30 -57t77 -23q19 0 47.5 5.5t67.5 16.5v-57q-90 -33 -154 -48t-109 -15q-63 0 -92.5 31.5
t-29.5 99.5q0 15 0.5 23.5t0.5 14.5q-101 -84 -193.5 -126.5t-176.5 -42.5q-93 0 -146 51t-53 141q0 24 4 54t13 69l118 539l-170 30v54zM612 1507h133l152 -389h-113l-125 289l-233 -289h-113z" />
    <glyph glyph-name="udieresis" unicode="&#xfc;" horiz-adv-x="1133" 
d="M383 989l33 -28l-129 -596q-12 -57 -17.5 -93.5t-5.5 -58.5q0 -53 31.5 -83t87.5 -30q60 0 136 34t155 95l153 740h166l-145 -668q-1 -5 -4 -17q-17 -84 -17 -122q0 -34 30 -57t77 -23q19 0 47.5 5.5t67.5 16.5v-57q-90 -33 -154 -48t-109 -15q-63 0 -92.5 31.5
t-29.5 99.5q0 15 0.5 23.5t0.5 14.5q-101 -84 -193.5 -126.5t-176.5 -42.5q-93 0 -146 51t-53 141q0 24 4 54t13 69l118 539l-170 30v54zM829 1417q44 0 74.5 -30.5t30.5 -73.5t-31 -74t-74 -31q-41 0 -72.5 31.5t-31.5 73.5q0 43 31 73.5t73 30.5zM446 1417q45 0 76 -30.5
t31 -73.5t-31.5 -74t-75.5 -31q-41 0 -71.5 31.5t-30.5 73.5q0 43 30 73.5t72 30.5z" />
    <glyph glyph-name="dagger" unicode="&#x2020;" horiz-adv-x="1024" 
d="M547 942h28l21 -340l-252 -866h-29l82 866zM915 1081l132 -92l-168 -94l-275 72l6 32zM256 1081l279 -82l-7 -32l-309 -72l-125 94zM662 1470l61 -155l-131 -287h-29l-24 287z" />
    <glyph glyph-name="degree" unicode="&#xb0;" horiz-adv-x="674" 
d="M338 1372q-84 0 -143.5 -58.5t-59.5 -142.5t59.5 -143t143.5 -59t142.5 59t58.5 143t-58.5 142.5t-142.5 58.5zM338 1454q117 0 200 -83t83 -200q0 -116 -83.5 -199t-201.5 -83t-199.5 82t-81.5 200q0 119 82.5 201t200.5 82z" />
    <glyph glyph-name="cent" unicode="&#xa2;" horiz-adv-x="1139" 
d="M606 930q-151 -42 -248.5 -192t-97.5 -341q0 -117 49 -195.5t137 -103.5zM664 1231h92l-39 -203h39q75 0 137.5 -11t112.5 -34l-43 -231h-109l10 145q-36 20 -77 30.5t-87 10.5l-161 -844q49 0 94.5 10t85.5 29l45 152h108l-47 -240q-63 -22 -127 -32.5t-131 -10.5h-47
l-39 -203h-92l39 207q-162 26 -252 125t-90 252q0 246 149 424t390 217z" />
    <glyph glyph-name="sterling" unicode="&#xa3;" horiz-adv-x="1139" 
d="M956 1120l-92 178h-8q-155 0 -241 -129t-136 -450h377v-94h-395q-26 -168 -100 -287.5t-195 -187.5l2 -4q47 4 85 7t56 3h609v-156h-961v117q146 29 218 133t116 375h-144v94h160q33 326 177 502t378 176q114 0 186 -41.5t72 -104.5q0 -52 -40 -84.5t-124 -46.5z" />
    <glyph glyph-name="section" unicode="&#xa7;" horiz-adv-x="1024" 
d="M492 868q-110 -45 -169 -116.5t-59 -159.5q0 -79 48 -133.5t192 -126.5q112 64 167.5 137t55.5 156q0 75 -57.5 135t-177.5 108zM973 1423l-51 -264h-91l9 164q-50 31 -95.5 46t-89.5 15q-98 0 -169.5 -59t-71.5 -137q0 -89 177 -179q52 -26 81 -42q115 -63 166 -131.5
t51 -159.5q0 -114 -88 -219.5t-232 -161.5q86 -44 127 -97.5t41 -121.5q0 -150 -127.5 -256.5t-314.5 -106.5q-71 0 -142.5 16t-144.5 48l45 264h101l-7 -184q46 -27 91 -40.5t94 -13.5q103 0 175.5 59t72.5 138q0 105 -222 218q-47 24 -73 38q-92 48 -137.5 116.5
t-45.5 159.5q0 121 82 220t230 155q-87 49 -124.5 100t-37.5 119q0 155 124.5 249.5t332.5 94.5q65 0 130 -11.5t134 -35.5z" />
    <glyph glyph-name="bullet" unicode="&#x2022;" horiz-adv-x="1208" 
d="M307 762q0 123 87 209t210 86q122 0 208.5 -86.5t86.5 -208.5t-87.5 -209.5t-209.5 -87.5q-123 0 -209 87t-86 210z" />
    <glyph glyph-name="paragraph" unicode="&#xb6;" horiz-adv-x="991" 
d="M537 1374h401v-74l-127 -20v-1442h-100v1452h-156v-715h-37q-235 0 -350 98t-115 298q0 210 115.5 306.5t368.5 96.5z" />
    <glyph glyph-name="germandbls" unicode="&#xdf;" horiz-adv-x="1176" 
d="M1003 895q-27 3 -48.5 4.5t-39.5 1.5q-108 0 -169.5 -39.5t-61.5 -107.5q0 -39 26.5 -74.5t127.5 -112.5q8 -6 24 -19q180 -137 180 -251q0 -137 -105 -226t-269 -89q-125 0 -198 48.5t-73 131.5q0 47 29.5 75.5t77.5 28.5q20 0 41 -8.5t47 -28.5l-37 -102
q25 -36 61.5 -54t83.5 -18q88 0 138.5 46.5t50.5 127.5q0 46 -27 85t-114 106l-10 7q-185 139 -185 251q0 123 92.5 209t239.5 98q23 81 35 146.5t12 117.5q0 84 -45.5 128t-130.5 44q-157 0 -253 -133t-136 -405l-93 -625q-26 -182 -61 -285.5t-92 -183.5
q-80 -112 -162 -171.5t-158 -59.5q-49 0 -79.5 29.5t-30.5 78.5q0 24 11.5 45t33.5 37l213 -55q57 60 94 175t76 384l86 588q49 334 190 502.5t371 168.5q143 0 223 -71t80 -197q0 -55 -16.5 -144t-49.5 -204z" />
    <glyph glyph-name="registered" unicode="&#xae;" horiz-adv-x="1843" 
d="M793 1069v-342q9 -1 20 -1.5t31 -0.5q128 0 195 43.5t67 126.5q0 86 -67.5 132t-192.5 46q-9 0 -19.5 -0.5t-33.5 -3.5zM520 1147h432q169 0 250.5 -55t81.5 -168q0 -86 -64 -146t-184 -86q49 -8 85 -27t63 -53q32 -39 57 -122q10 -35 16 -50q26 -65 67.5 -88.5
t131.5 -23.5v-74q-44 -8 -75 -12t-52 -4q-48 0 -87.5 14t-74.5 45q-45 38 -84 155q-17 53 -28 78q-30 67 -73 92t-130 25q-23 0 -35.5 -0.5t-23.5 -1.5v-307l129 -14v-76h-392v74l109 14v721l-119 20v70zM928 1403q-139 0 -268 -54.5t-228 -154.5q-100 -104 -152.5 -230.5
t-52.5 -267.5q0 -144 52 -270t153 -227q104 -103 229 -155t265 -52q142 0 267.5 53t223.5 154q100 103 153.5 231.5t53.5 265.5q0 141 -53.5 272t-151.5 228q-98 98 -227 152.5t-264 54.5zM928 1487q155 0 302.5 -62.5t258.5 -175.5q108 -109 166.5 -255.5t58.5 -305.5
q0 -153 -63 -299t-178 -260q-112 -109 -253.5 -166t-304.5 -57q-151 0 -293 60t-253 171q-114 113 -173 256t-59 303q0 158 59 300t171 255q111 113 257 174.5t304 61.5z" />
    <glyph glyph-name="copyright" unicode="&#xa9;" horiz-adv-x="1843" 
d="M1247 1128v-245h-88l-31 153q-38 23 -77 34t-82 11q-147 0 -242.5 -109.5t-95.5 -277.5q0 -167 94 -279t233 -112q33 0 73.5 9.5t101.5 31.5l26 172h88v-256q-73 -25 -149 -38t-152 -13q-218 0 -355.5 135t-137.5 348q0 217 139 350.5t366 133.5q69 0 142 -12t147 -36z
M928 1403q-139 0 -268 -54.5t-228 -154.5q-100 -104 -152.5 -230.5t-52.5 -267.5q0 -144 52 -270t153 -227q104 -103 229 -155t265 -52q142 0 267.5 53t223.5 154q100 103 153.5 231.5t53.5 265.5q0 141 -53.5 272t-151.5 228q-98 98 -227 152.5t-264 54.5zM928 1487
q155 0 302.5 -62.5t258.5 -175.5q108 -109 166.5 -255.5t58.5 -305.5q0 -153 -63 -299t-178 -260q-112 -109 -253.5 -166t-304.5 -57q-151 0 -293 60t-253 171q-114 113 -173 256t-59 303q0 158 59 300t171 255q111 113 257 174.5t304 61.5z" />
    <glyph glyph-name="trademark" unicode="&#x2122;" horiz-adv-x="1683" 
d="M772 1356h209v-25l139 -368l142 366v27h204v-47l-65 -11v-428l65 -8v-45h-219v45l62 8v435l-189 -488h-45l-180 488v-435l63 -8v-45h-184v45l64 8v428l-66 11v47zM242 1356h469v-142h-54l-12 82l-14 13h-107v-439l78 -8v-45h-250v45l80 8v439h-106l-17 -13l-12 -82h-55
v142z" />
    <glyph glyph-name="acute" unicode="&#xb4;" horiz-adv-x="1024" 
d="M791 1507h202l-375 -389h-100z" />
    <glyph glyph-name="dieresis" unicode="&#xa8;" horiz-adv-x="1024" 
d="M819 1417q44 0 74.5 -30.5t30.5 -73.5t-31 -74t-74 -31q-41 0 -72.5 31.5t-31.5 73.5q0 43 31 73.5t73 30.5zM436 1417q45 0 76 -30.5t31 -73.5t-31.5 -74t-75.5 -31q-41 0 -71.5 31.5t-30.5 73.5q0 43 30 73.5t72 30.5z" />
    <glyph glyph-name="notequal" unicode="&#x2260;" horiz-adv-x="1706" 
d="M1210 1180l88 -70l-196 -250h350v-115h-424l-211 -270h635v-115h-709l-251 -319l-89 70l197 249h-346v115h420l211 270h-631v115h704z" />
    <glyph glyph-name="AE" unicode="&#xc6;" horiz-adv-x="1788" 
d="M1012 1313l-566 -692h435zM692 1374h1108l-59 -299h-96v174l-23 31h-440l-101 -518h312l34 29l48 149h88l-88 -451h-84l8 148l-23 29h-313l-111 -572h523l34 33l72 207h94l-65 -334h-989v78l129 12l32 29l80 405h-493l-326 -399l4 -29l131 -18v-78h-414v78l125 26
l934 1145l-12 31l-119 12v82z" />
    <glyph glyph-name="Oslash" unicode="&#xd8;" horiz-adv-x="1450" 
d="M1075 1192l-669 -1030q52 -48 110.5 -71t126.5 -23q109 0 204 58t173 173q76 112 119 258t43 291q0 108 -26.5 194t-80.5 150zM1010 1249q-44 27 -92 40.5t-101 13.5q-118 0 -212.5 -56.5t-174.5 -173.5q-75 -109 -118.5 -255t-43.5 -292q0 -84 19 -158.5t57 -142.5z
M1186 1522l76 -47l-113 -172q108 -83 164.5 -195.5t56.5 -247.5q0 -170 -48.5 -323t-139.5 -273q-106 -138 -251 -213.5t-304 -75.5q-78 0 -151.5 19t-143.5 57l-131 -203l-66 50l131 202q-88 73 -134 184.5t-46 254.5q0 156 48.5 301t141.5 268q106 138 252.5 213.5
t309.5 75.5q67 0 125.5 -13t109.5 -38z" />
    <glyph glyph-name="infinity" unicode="&#x221e;" horiz-adv-x="1706" 
d="M905 559q51 -95 119 -141.5t156 -46.5q102 0 168.5 71t66.5 181q0 108 -61 179.5t-152 71.5q-85 0 -153.5 -72.5t-143.5 -242.5zM803 666q-51 95 -119 142.5t-154 47.5q-105 0 -171 -71t-66 -183q0 -108 61 -179t152 -71q85 0 152 69t145 245zM866 494
q-71 -138 -148 -201.5t-173 -63.5q-134 0 -226 109t-92 272q0 172 82.5 277.5t214.5 105.5q97 0 172 -63t144 -203q67 138 146 204t175 66q134 0 226 -108.5t92 -272.5q0 -171 -82 -277t-213 -106q-96 0 -169 60t-149 201z" />
    <glyph glyph-name="plusminus" unicode="&#xb1;" horiz-adv-x="1706" 
d="M254 158h1198v-117h-1198v117zM795 1180h118v-344h539v-117h-539v-344h-118v344h-541v117h541v344z" />
    <glyph glyph-name="lessequal" unicode="&#x2264;" horiz-adv-x="1706" 
d="M262 150h1182v-117h-1182v117zM1444 1192v-125l-977 -324l977 -323v-125l-1182 399v101z" />
    <glyph glyph-name="greaterequal" unicode="&#x2265;" horiz-adv-x="1706" 
d="M262 150h1182v-117h-1182v117zM262 1192l1182 -397v-101l-1182 -399v125l979 323l-979 324v125z" />
    <glyph glyph-name="yen" unicode="&#xa5;" horiz-adv-x="1139" 
d="M115 1360h440v-82l-125 -12l-22 -23l178 -553l411 537l-12 28l-98 23v82h375v-82l-123 -25l-297 -391h280v-84h-354l-158 -211h455v-84h-465l-68 -362l29 -29l137 -10v-82h-522v82l150 10l43 29l67 362h-432v84h449l-70 211h-320v84h285l-127 395l-106 21v82z" />
    <glyph glyph-name="mu" unicode="&#xb5;" horiz-adv-x="1120" 
d="M164 193q-27 -136 -52 -339q-34 -272 -112 -272q-37 0 -58.5 23.5t-21.5 64.5q0 40 64.5 273.5t105.5 427.5l109 514h147l-104 -492q-6 -30 -9.5 -58.5t-3.5 -53.5q0 -83 42 -129t118 -46q98 0 163.5 68.5t94.5 200.5l111 510h149l-114 -531q-13 -59 -17 -87.5t-4 -49.5
q0 -48 26 -78t66 -30q35 0 65.5 18t51.5 51t41 93.5t39 60.5q12 0 19 -10t7 -27q0 -25 -11 -66.5t-29 -83.5q-38 -82 -95 -122.5t-135 -40.5q-68 0 -108.5 51t-40.5 139v23q-46 -110 -116 -164t-165 -54q-96 0 -152.5 54.5t-70.5 161.5z" />
    <glyph glyph-name="partialdiff" unicode="&#x2202;" horiz-adv-x="1044" 
d="M754 604q13 81 19.5 161.5t6.5 158.5q0 140 -39.5 216.5t-111.5 76.5q-53 0 -117 -63.5t-109 -63.5q-29 0 -51 21.5t-22 51.5q0 59 68 105.5t163 46.5q171 0 273 -152.5t102 -412.5q0 -335 -139 -555t-344 -220q-147 0 -241.5 106.5t-94.5 272.5q0 189 108.5 316
t266.5 127q99 0 162.5 -47t99.5 -146zM709 483q0 117 -45 180.5t-127 63.5q-113 0 -184.5 -127.5t-71.5 -333.5q0 -117 44 -178t128 -61q111 0 183.5 128t72.5 328z" />
    <glyph glyph-name="summation" unicode="&#x2211;" horiz-adv-x="1434" 
d="M12 1473h1135l98 -340h-74l-67 219q-8 27 -32 39t-73 12h-741l864 -850v-37l-858 -756h893q60 0 77.5 13t29.5 51l71 229h74l-135 -446h-1260v28l959 838l-961 950v50z" />
    <glyph glyph-name="product" unicode="&#x220f;" horiz-adv-x="1595" 
d="M57 1473h1479v-70h-186v-1727h186v-69h-555v69h197v1727h-762v-1727h196v-69h-555v69h187v1727h-187v70z" />
    <glyph glyph-name="integral" unicode="&#x222b;" horiz-adv-x="1020" 
d="M301 -268q103 0 116 664q3 141 5 216q12 503 102 719.5t281 216.5q76 0 122 -39t46 -104q0 -48 -31 -77.5t-82 -29.5q-53 0 -85 35t-32 92q0 8 -6 15.5t-14 7.5q-105 0 -119 -634q-3 -157 -6 -245q-10 -308 -31.5 -461t-62.5 -247q-49 -114 -123 -173t-168 -59
q-73 0 -119.5 38t-46.5 97q0 53 31.5 84t83.5 31q47 0 79.5 -29t32.5 -67q0 -24 7.5 -37.5t19.5 -13.5z" />
    <glyph glyph-name="ordfeminine" unicode="&#xaa;" horiz-adv-x="807" 
d="M487 1315h-22q-135 0 -223 -109.5t-88 -279.5q0 -86 33 -129t100 -43q43 0 88 23.5t94 72.5l80 377zM631 1370h80q-13 -22 -28 -74t-32 -131l-55 -254q-7 -32 -10.5 -57.5t-3.5 -42.5q0 -34 19.5 -50t62.5 -16q14 0 73 12q8 2 13 3v-43q-63 -25 -110.5 -37t-78.5 -12
q-48 0 -71 26t-23 82v12q-62 -61 -118 -90.5t-111 -29.5q-99 0 -155 66.5t-56 183.5q0 72 20 139t59 127q59 90 150 138t205 48q36 0 71 -7.5t68 -23.5z" />
    <glyph glyph-name="ordmasculine" unicode="&#xba;" horiz-adv-x="772" 
d="M410 1317q-104 0 -175 -108.5t-71 -270.5q0 -101 39.5 -157t109.5 -56q102 0 174 108.5t72 266.5q0 103 -39 160t-110 57zM428 1372q121 0 191.5 -75.5t70.5 -204.5q0 -85 -32.5 -165t-92.5 -145q-53 -56 -121.5 -85t-148.5 -29q-118 0 -189 74t-71 198q0 87 32.5 169.5
t90.5 143.5q55 59 123.5 89t146.5 30z" />
    <glyph glyph-name="Omega.MacRoman" horiz-adv-x="1567" 
d="M1100 188v-26h313l66 203h61l-108 -365h-500q134 233 202 451t68 413q0 271 -107.5 416t-308.5 145t-309 -145t-108 -416q0 -195 68 -411t204 -453h-500l-110 365h61l68 -203h311v26q-165 203 -234 361.5t-69 327.5q0 272 174.5 446t443.5 174t443 -174.5t174 -445.5
q0 -169 -69 -327.5t-234 -361.5z" />
    <glyph glyph-name="ae" unicode="&#xe6;" horiz-adv-x="1374" 
d="M737 524q179 10 290.5 85.5t111.5 181.5q0 46 -30.5 77t-76.5 31q-95 0 -174 -99.5t-121 -275.5zM577 204q-7 46 -10.5 81.5t-3.5 66.5q0 27 2.5 56t7.5 65q-200 -25 -292.5 -81.5t-92.5 -153.5q0 -64 35.5 -98t102.5 -34q56 0 119 25t132 73zM596 139
q-109 -77 -205.5 -116t-179.5 -39q-95 0 -151 56t-56 150q0 152 145 240.5t441 118.5l24 125q7 29 10 53.5t3 44.5q0 61 -35.5 94t-102.5 33q-29 0 -62.5 -8t-74.5 -25l-33 -168h-200q0 125 121.5 207t308.5 82q91 0 145.5 -33.5t75.5 -103.5q88 72 161 104.5t144 32.5
q97 0 154 -55t57 -148q0 -136 -148 -224t-410 -105q-4 -21 -5.5 -45t-1.5 -50q0 -123 57 -194.5t156 -71.5q72 0 156 43t172 125v-96q-94 -90 -194 -136t-204 -46q-93 0 -158.5 38t-109.5 117z" />
    <glyph glyph-name="oslash" unicode="&#xf8;" horiz-adv-x="1028" 
d="M723 791l-430 -678q23 -24 54.5 -35.5t70.5 -11.5q142 0 242 153.5t100 376.5q0 62 -9.5 110.5t-27.5 84.5zM684 852q-28 29 -61 43t-74 14q-140 0 -240 -156t-100 -380q0 -58 10 -109t31 -98zM848 1120l57 -37l-110 -172q61 -55 93 -137t32 -186q0 -120 -43 -234
t-123 -207q-73 -82 -164.5 -123.5t-196.5 -41.5q-37 0 -76.5 8t-78.5 24l-115 -178l-51 35l108 178q-68 59 -101.5 138.5t-33.5 183.5q0 123 43.5 241.5t120.5 206.5q75 84 166.5 127t195.5 43q50 0 93 -10t77 -31z" />
    <glyph glyph-name="questiondown" unicode="&#xbf;" horiz-adv-x="995" 
d="M569 1030h107l-58 -299q-181 -63 -276.5 -176.5t-95.5 -263.5q0 -106 61.5 -160.5t179.5 -54.5h7l122 202q8 2 16 2.5t21 0.5q52 0 78.5 -20.5t26.5 -59.5q0 -92 -96.5 -155.5t-241.5 -63.5q-170 0 -266.5 78t-96.5 214q0 165 118 295.5t349 221.5zM659 1399q47 0 82 -35
t35 -82q0 -48 -34.5 -82.5t-82.5 -34.5q-49 0 -82.5 34t-33.5 83t34 83t82 34z" />
    <glyph glyph-name="exclamdown" unicode="&#xa1;" horiz-adv-x="692" 
d="M367 1030h100l-92 -782q-18 -157 -53.5 -211.5t-106.5 -54.5q-44 0 -67 25t-23 73q0 16 8.5 57.5t26.5 110.5zM453 1399q46 0 80 -35t34 -82q0 -48 -33.5 -82.5t-80.5 -34.5q-50 0 -84.5 34t-34.5 83t34.5 83t84.5 34z" />
    <glyph glyph-name="logicalnot" unicode="&#xac;" horiz-adv-x="1706" 
d="M254 858h1198v-502h-115v385h-1083v117z" />
    <glyph glyph-name="radical" unicode="&#x221a;" horiz-adv-x="1288" 
d="M1106 1647h182v-82h-119l-594 -1606h-53l-323 893l-119 -43l-23 68l262 92l265 -729z" />
    <glyph glyph-name="florin" unicode="&#x192;" horiz-adv-x="1139" 
d="M1034 1149l-145 147q-92 -30 -143.5 -110t-88.5 -268l-30 -164h323v-101h-342q-56 -338 -108.5 -498.5t-128.5 -260.5q-84 -111 -198.5 -175.5t-223.5 -64.5q-53 0 -84 25.5t-31 68.5t26 81t74 65l187 -117q90 46 142.5 139.5t90.5 288.5l88 448h-225v101h244l28 153
q26 131 72 214.5t129 152.5q70 58 153 91.5t156 33.5q68 0 111 -29.5t43 -73.5t-29 -80.5t-90 -66.5z" />
    <glyph glyph-name="approxequal" unicode="&#x2248;" horiz-adv-x="1706" 
d="M1530 584v-131q-107 -75 -202 -110.5t-187 -35.5q-98 0 -288 69.5t-290 69.5q-82 0 -169.5 -35.5t-215.5 -123.5v131q108 74 203.5 110.5t183.5 36.5q111 0 301.5 -69.5t276.5 -69.5q85 0 173.5 35.5t213.5 122.5zM1530 934v-131q-104 -73 -200 -108.5t-187 -35.5
q-100 0 -290 69t-290 69q-83 0 -171.5 -36t-213.5 -122v131q106 73 202 109t185 36q111 0 300.5 -68.5t277.5 -68.5q87 0 175 35t212 121z" />
    <glyph glyph-name="Delta" unicode="&#x2206;" horiz-adv-x="1208" 
d="M555 1212l-389 -1042h768zM596 1497h29l555 -1497h-1151z" />
    <glyph glyph-name="guillemotleft" unicode="&#xab;" horiz-adv-x="905" 
d="M850 846l-25 -135l-282 -219l196 -222l-24 -133l-283 273l31 163zM446 846l-26 -135l-283 -219l199 -222l-27 -133l-282 273l30 163z" />
    <glyph glyph-name="guillemotright" unicode="&#xbb;" horiz-adv-x="905" 
d="M528 846l283 -273l-31 -163l-389 -273l27 133l282 222l-198 219zM123 846l285 -273l-31 -163l-389 -273l24 133l283 222l-197 219z" />
    <glyph glyph-name="ellipsis" unicode="&#x2026;" horiz-adv-x="2048" 
d="M231 233q51 0 87 -36t36 -86q0 -51 -36 -86t-87 -35q-50 0 -85.5 35t-35.5 86t35.5 86.5t85.5 35.5zM913 233q51 0 87 -36t36 -86q0 -51 -36 -86t-87 -35q-50 0 -85.5 35t-35.5 86t35.5 86.5t85.5 35.5zM1597 233q51 0 87 -36t36 -86q0 -51 -36 -86t-87 -35
q-50 0 -85.5 35t-35.5 86t35.5 86.5t85.5 35.5z" />
    <glyph glyph-name="nonbreakingspace" unicode="&#xa0;" horiz-adv-x="1139" 
 />
    <glyph glyph-name="Agrave" unicode="&#xc0;" horiz-adv-x="1241" 
d="M707 1186l-334 -590h428zM707 1386h135l219 -1261l35 -37l100 -10v-78h-448v78l120 10l15 29l-64 391h-497l-220 -391l17 -29l125 -10v-78h-406v78l113 12zM535 1900h202l123 -389h-102z" />
    <glyph glyph-name="Atilde" unicode="&#xc3;" horiz-adv-x="1241" 
d="M707 1186l-334 -590h428zM707 1386h135l219 -1261l35 -37l100 -10v-78h-448v78l120 10l15 29l-64 391h-497l-220 -391l17 -29l125 -10v-78h-406v78l113 12zM1049 1843h86q-13 -110 -74 -178t-143 -68q-69 0 -162.5 51.5t-114.5 51.5q-38 0 -65 -37t-31 -96h-88
q18 120 74.5 182.5t146.5 62.5q59 0 147.5 -53t118.5 -53q42 0 68 34t37 103z" />
    <glyph glyph-name="Otilde" unicode="&#xd5;" horiz-adv-x="1450" 
d="M1169 858q0 205 -95.5 325t-258.5 120q-106 0 -200.5 -59t-172.5 -173q-76 -112 -118.5 -258t-42.5 -295q0 -202 96.5 -323t257.5 -121q107 0 201 58.5t172 172.5q76 113 118.5 259t42.5 294zM829 1397q94 0 176 -24t146 -70q105 -78 162 -193t57 -250q0 -170 -48.5 -323
t-139.5 -273q-106 -138 -251.5 -213.5t-305.5 -75.5q-238 0 -389.5 155.5t-151.5 399.5q0 159 49 307t143 271q104 137 249.5 213t303.5 76zM1153 1843h86q-13 -110 -74 -178t-143 -68q-69 0 -162.5 51.5t-114.5 51.5q-38 0 -65 -37t-31 -96h-88q18 120 74.5 182.5
t146.5 62.5q59 0 147.5 -53t118.5 -53q42 0 68 34t37 103z" />
    <glyph glyph-name="OE" unicode="&#x152;" horiz-adv-x="2062" 
d="M1241 1139l41 235h774l-59 -299h-99v174l-20 31h-440l-101 -518h312l34 29l48 149h88l-88 -451h-84l8 148l-23 29h-313l-111 -572h523l34 33l72 207h94l-65 -334h-844l31 174q-95 -101 -201 -150t-229 -49q-237 0 -388 155.5t-151 399.5q0 211 82.5 395.5t232.5 309.5
q97 80 209.5 121t233.5 41q146 0 243.5 -63t155.5 -195zM1169 858q0 205 -95.5 325t-258.5 120q-106 0 -200.5 -59t-172.5 -173q-76 -110 -118.5 -256.5t-42.5 -296.5q0 -203 96.5 -323.5t257.5 -120.5q107 0 201 58.5t172 172.5q76 113 118.5 259t42.5 294z" />
    <glyph glyph-name="oe" unicode="&#x153;" horiz-adv-x="1536" 
d="M895 524q178 10 288.5 85.5t110.5 181.5q0 47 -29.5 78.5t-74.5 31.5q-95 0 -174 -100.5t-121 -276.5zM879 799q81 90 174.5 140t179.5 50q95 0 152 -55.5t57 -149.5q0 -136 -148.5 -224t-410.5 -105q-3 -21 -4.5 -45t-1.5 -50q0 -123 57.5 -194.5t157.5 -71.5
q71 0 154 43t171 125v-96q-94 -91 -194 -137.5t-201 -46.5q-97 0 -165.5 41t-106.5 122q-77 -82 -165.5 -122.5t-191.5 -40.5q-159 0 -253.5 105.5t-94.5 283.5q0 123 43.5 241.5t120.5 206.5q75 84 166.5 127t195.5 43q107 0 185 -48.5t123 -141.5zM539 909
q-134 0 -226 -155.5t-92 -388.5q0 -142 51.5 -220.5t143.5 -78.5q133 0 226 153.5t93 380.5q0 147 -51.5 228t-144.5 81z" />
    <glyph glyph-name="endash" unicode="&#x2013;" horiz-adv-x="1024" 
d="M-25 555h1022l-22 -125h-1024z" />
    <glyph glyph-name="emdash" unicode="&#x2014;" horiz-adv-x="2048" 
d="M2030 555l-25 -125h-2044l25 125h2044z" />
    <glyph glyph-name="quotedblleft" unicode="&#x201c;" horiz-adv-x="825" 
d="M829 1460h89q-118 -108 -174 -194.5t-56 -159.5v-8h131q8 -14 11.5 -26.5t3.5 -27.5q0 -55 -43.5 -97t-104.5 -42q-60 0 -94.5 36.5t-34.5 100.5q0 96 70 203.5t202 214.5zM416 1460h88q-119 -108 -174.5 -195t-55.5 -163v-4h132q7 -14 10.5 -26.5t3.5 -27.5
q0 -56 -42.5 -97.5t-103.5 -41.5q-60 0 -95.5 37t-35.5 100q0 96 70 203.5t203 214.5z" />
    <glyph glyph-name="quotedblright" unicode="&#x201d;" horiz-adv-x="825" 
d="M606 905h-88q117 106 173.5 193t56.5 162v8h-134q-7 13 -10.5 26t-3.5 27q0 55 44 97t104 42q59 0 94 -36.5t35 -98.5q0 -98 -69 -205.5t-202 -214.5zM193 905h-89q117 106 173.5 193t56.5 162v8h-131q-8 13 -11.5 26t-3.5 27q0 56 43 97.5t103 41.5t95.5 -36.5
t35.5 -98.5q0 -98 -69.5 -205t-202.5 -215z" />
    <glyph glyph-name="quoteleft" unicode="&#x2018;" horiz-adv-x="412" 
d="M416 1460h88q-119 -108 -174.5 -195t-55.5 -163v-4h132q7 -14 10.5 -26.5t3.5 -27.5q0 -56 -42.5 -97.5t-103.5 -41.5q-60 0 -95.5 37t-35.5 100q0 96 70 203.5t203 214.5z" />
    <glyph glyph-name="quoteright" unicode="&#x2019;" horiz-adv-x="412" 
d="M193 905h-89q117 106 173.5 193t56.5 162v8h-131q-8 13 -11.5 26t-3.5 27q0 56 43 97.5t103 41.5t95.5 -36.5t35.5 -98.5q0 -98 -69.5 -205t-202.5 -215z" />
    <glyph glyph-name="divide" unicode="&#xf7;" horiz-adv-x="1706" 
d="M854 365q47 0 81 -34t34 -81t-33.5 -81t-81.5 -34t-81.5 33.5t-33.5 81.5t34 81.5t81 33.5zM254 670h1198v-117h-1198v117zM854 1085q48 0 81.5 -33.5t33.5 -80.5q0 -48 -33.5 -81.5t-81.5 -33.5q-49 0 -82 33.5t-33 81.5q0 47 34 80.5t81 33.5z" />
    <glyph glyph-name="lozenge" unicode="&#x25ca;" horiz-adv-x="1012" 
d="M506 1409l-385 -817l385 -825l385 825zM506 1653l500 -1061l-500 -1069l-500 1069z" />
    <glyph glyph-name="ydieresis" unicode="&#xff;" horiz-adv-x="973" 
d="M169 993q5 1 11 1.5t17 0.5q119 0 189 -362q10 -51 15 -77l68 -347q65 166 145.5 360.5t176.5 417.5h38l162 -53v-43l-104 -62q-90 -100 -214 -372t-188 -387q-139 -254 -277 -384t-267 -130q-74 0 -123 39t-49 96q0 42 30.5 73.5t79.5 38.5l121 -120q91 6 178 93
t180 267l-6 -4l-127 616q-14 71 -34 124t-48 89l-174 15v45zM795 1417q44 0 74.5 -30.5t30.5 -73.5t-31 -74t-74 -31q-41 0 -72.5 31.5t-31.5 73.5q0 43 31 73.5t73 30.5zM412 1417q45 0 76 -30.5t31 -73.5t-31.5 -74t-75.5 -31q-41 0 -71.5 31.5t-30.5 73.5q0 43 30 73.5
t72 30.5z" />
    <glyph glyph-name="Ydieresis" unicode="&#x178;" horiz-adv-x="1151" 
d="M63 1374h498v-78l-133 -10l-33 -31l185 -579l428 579l-21 31l-131 10v78h459v-78l-135 -10l-33 -31l-520 -680l-90 -456l26 -29l133 -12v-78h-497v78l129 12l32 29l86 438l-229 698l-20 31l-134 10v78zM938 1810q44 0 74.5 -30.5t30.5 -73.5t-31 -74t-74 -31
q-41 0 -72.5 31.5t-31.5 73.5q0 43 31 73.5t73 30.5zM555 1810q45 0 76 -30.5t31 -73.5t-31.5 -74t-75.5 -31q-41 0 -71.5 31.5t-30.5 73.5q0 43 30 73.5t72 30.5z" />
    <glyph glyph-name="fraction" unicode="&#x2215;" horiz-adv-x="342" 
d="M678 1374h125l-1141 -1374h-125z" />
    <glyph glyph-name="currency" unicode="&#xa4;" horiz-adv-x="1139" 
d="M1176 1329l-56 -315h-104l4 198l-21 37q-45 26 -96 40t-100 14q-124 0 -215 -100t-158 -310h463l-35 -86h-450q-13 -55 -23 -107.5t-18 -105.5h397l-35 -86h-373q0 -13 -3 -53.5t-3 -61.5q0 -164 58.5 -241.5t181.5 -77.5q33 0 75 6.5t97 19.5l39 33l90 238h104l-57 -324
q-110 -37 -197.5 -54.5t-165.5 -17.5q-200 0 -306.5 119t-106.5 342q0 19 3 65q1 5 1 7h-168l35 86h141q6 50 16 101.5t25 111.5h-164l35 86h156q80 235 238 370.5t349 135.5q76 0 160 -17t187 -53z" />
    <glyph glyph-name="guilsinglleft" unicode="&#x2039;" horiz-adv-x="502" 
d="M446 846l-26 -135l-283 -219l199 -222l-27 -133l-282 273l30 163z" />
    <glyph glyph-name="guilsinglright" unicode="&#x203a;" horiz-adv-x="502" 
d="M123 846l285 -273l-31 -163l-389 -273l24 133l283 222l-197 219z" />
    <glyph glyph-name="fi" unicode="&#xf001;" horiz-adv-x="1176" 
d="M725 1272l-168 137q-58 -38 -104 -157.5t-80 -319.5h340l256 55h53l-147 -765q-4 -19 -5.5 -31.5t-1.5 -20.5q0 -39 25 -59.5t74 -20.5q28 0 65.5 7.5t85.5 23.5v-64q-85 -35 -157.5 -53t-131.5 -18q-65 0 -98 33.5t-33 101.5q0 19 3.5 46t9.5 60l120 611l-475 2
l-82 -582q-24 -172 -60 -280t-93 -189q-80 -112 -162 -171.5t-158 -59.5q-49 0 -79.5 29.5t-30.5 78.5q0 24 11.5 45t33.5 37l213 -55q57 60 94 175t76 384l86 588l-137 -15l2 68l155 63q49 253 164.5 398t265.5 145q71 0 120.5 -36t49.5 -85q0 -40 -26.5 -68.5t-73.5 -37.5
zM1010 1442q44 0 77 -33t33 -78t-32.5 -77.5t-77.5 -32.5q-47 0 -79 31.5t-32 78.5q0 46 32.5 78.5t78.5 32.5z" />
    <glyph glyph-name="fi" unicode="&#xfb01;" horiz-adv-x="1176" 
d="M725 1272l-168 137q-58 -38 -104 -157.5t-80 -319.5h340l256 55h53l-147 -765q-4 -19 -5.5 -31.5t-1.5 -20.5q0 -39 25 -59.5t74 -20.5q28 0 65.5 7.5t85.5 23.5v-64q-85 -35 -157.5 -53t-131.5 -18q-65 0 -98 33.5t-33 101.5q0 19 3.5 46t9.5 60l120 611l-475 2
l-82 -582q-24 -172 -60 -280t-93 -189q-80 -112 -162 -171.5t-158 -59.5q-49 0 -79.5 29.5t-30.5 78.5q0 24 11.5 45t33.5 37l213 -55q57 60 94 175t76 384l86 588l-137 -15l2 68l155 63q49 253 164.5 398t265.5 145q71 0 120.5 -36t49.5 -85q0 -40 -26.5 -68.5t-73.5 -37.5
zM1010 1442q44 0 77 -33t33 -78t-32.5 -77.5t-77.5 -32.5q-47 0 -79 31.5t-32 78.5q0 46 32.5 78.5t78.5 32.5z" />
    <glyph glyph-name="fl" unicode="&#xf002;" horiz-adv-x="1186" 
d="M1055 1507h55q-9 -48 -16 -85t-9 -48l-206 -1030q-11 -54 -17 -97.5t-6 -68.5q0 -47 28.5 -71.5t84.5 -24.5q24 0 59.5 8t85.5 25v-64q-81 -34 -150.5 -51.5t-121.5 -17.5q-75 0 -111.5 37t-36.5 114q0 25 9.5 88t25.5 148l197 1003l-101 10l-100 -110l-168 137
q-58 -38 -104 -157.5t-80 -319.5h286v-94h-303l-82 -580q-24 -172 -60 -280t-93 -189q-80 -112 -162 -171.5t-158 -59.5q-49 0 -79.5 29.5t-30.5 78.5q0 24 11.5 45t33.5 37l213 -55q57 60 94 175t76 384l86 588l-137 -15l2 68l155 63q49 253 164.5 398t265.5 145
q42 0 73.5 -11t55.5 -34z" />
    <glyph glyph-name="fl" unicode="&#xfb02;" horiz-adv-x="1186" 
d="M1055 1507h55q-9 -48 -16 -85t-9 -48l-206 -1030q-11 -54 -17 -97.5t-6 -68.5q0 -47 28.5 -71.5t84.5 -24.5q24 0 59.5 8t85.5 25v-64q-81 -34 -150.5 -51.5t-121.5 -17.5q-75 0 -111.5 37t-36.5 114q0 25 9.5 88t25.5 148l197 1003l-101 10l-100 -110l-168 137
q-58 -38 -104 -157.5t-80 -319.5h286v-94h-303l-82 -580q-24 -172 -60 -280t-93 -189q-80 -112 -162 -171.5t-158 -59.5q-49 0 -79.5 29.5t-30.5 78.5q0 24 11.5 45t33.5 37l213 -55q57 60 94 175t76 384l86 588l-137 -15l2 68l155 63q49 253 164.5 398t265.5 145
q42 0 73.5 -11t55.5 -34z" />
    <glyph glyph-name="daggerdbl" unicode="&#x2021;" horiz-adv-x="1024" 
d="M399 172h29l21 -287l-123 -155l-62 155zM766 309l133 -92l-168 -94l-276 72l6 32zM109 309l278 -82l-6 -32l-309 -72l-127 94zM547 942h28l33 -340l-164 -342h-28l-39 342zM915 1081l132 -92l-168 -94l-275 72l6 32zM256 1081l279 -82l-7 -32l-309 -72l-125 94zM662 1470
l61 -155l-131 -287h-29l-24 287z" />
    <glyph glyph-name="periodcentered" unicode="&#xb7;" horiz-adv-x="569" 
d="M283 809q50 0 86.5 -36t36.5 -87q0 -50 -36 -85.5t-87 -35.5q-50 0 -85.5 35.5t-35.5 85.5q0 51 35 87t86 36z" />
    <glyph glyph-name="quotesinglbase" unicode="&#x201a;" horiz-adv-x="412" 
d="M-45 -336h-88q120 110 174.5 196.5t54.5 164.5h-131q-7 13 -10.5 26.5t-3.5 28.5q0 55 43 96t102 41q60 0 95.5 -36t35.5 -97q0 -98 -69.5 -205t-202.5 -215z" />
    <glyph glyph-name="quotedblbase" unicode="&#x201e;" horiz-adv-x="825" 
d="M369 -336h-88q119 110 174 196.5t55 164.5h-133q-7 12 -10.5 26t-4.5 29q0 55 44 96t104 41t94.5 -36t34.5 -97q0 -98 -69 -205.5t-201 -214.5zM-45 -336h-88q120 110 174.5 196.5t54.5 164.5h-131q-7 13 -10.5 26.5t-3.5 28.5q0 55 43 96t102 41q60 0 95.5 -36t35.5 -97
q0 -98 -69.5 -205t-202.5 -215z" />
    <glyph glyph-name="perthousand" unicode="&#x2030;" horiz-adv-x="2509" 
d="M2146 762q-50 0 -90.5 -37t-75.5 -113q-37 -83 -58 -183.5t-21 -197.5q0 -94 27 -138t85 -44q49 0 91.5 38t76.5 112q37 80 58.5 182t21.5 199q0 90 -29 136t-86 46zM1384 762q-50 0 -92 -37t-75 -113q-38 -83 -59 -183.5t-21 -197.5q0 -93 27.5 -137.5t86.5 -44.5
q50 0 91.5 37.5t74.5 112.5q37 80 58.5 182t21.5 199q0 91 -28 136.5t-85 45.5zM2163 834q113 0 177 -76.5t64 -210.5q0 -102 -27 -202t-77 -181q-57 -92 -134 -140.5t-167 -48.5q-113 0 -176.5 76t-63.5 211q0 100 28 202.5t77 182.5q56 91 132.5 139t166.5 48zM1401 834
q113 0 177 -76.5t64 -210.5q0 -102 -27 -202t-77 -181q-57 -92 -133.5 -140.5t-167.5 -48.5q-113 0 -176.5 76.5t-63.5 212.5q0 102 27 203t76 180q56 91 133 139t168 48zM489 1325q-50 0 -92 -37t-75 -112q-38 -83 -59 -184t-21 -197q0 -94 27.5 -137.5t86.5 -43.5
q50 0 91.5 37t74.5 111q37 80 58.5 182.5t21.5 198.5q0 91 -28 136.5t-85 45.5zM1378 1374h125l-1141 -1374h-124zM506 1399q112 0 177 -77t65 -212q0 -102 -27.5 -202t-77.5 -181q-56 -91 -133 -138.5t-168 -47.5q-113 0 -176.5 75.5t-63.5 210.5q0 102 27.5 204t75.5 181
q56 91 133 139t168 48z" />
    <glyph glyph-name="Acircumflex" unicode="&#xc2;" horiz-adv-x="1241" 
d="M707 1186l-334 -590h428zM707 1386h135l219 -1261l35 -37l100 -10v-78h-448v78l120 10l15 29l-64 391h-497l-220 -391l17 -29l125 -10v-78h-406v78l113 12zM766 1900h133l152 -389h-113l-125 289l-233 -289h-113z" />
    <glyph glyph-name="Ecircumflex" unicode="&#xca;" horiz-adv-x="1118" 
d="M180 1374h953l-58 -299h-98v174l-23 31h-440l-100 -518h311l37 29l45 149h88l-86 -451h-84l8 148l-24 29h-314l-110 -572h522l37 33l69 207h95l-66 -334h-991v78l129 12l35 29l219 1136l-23 31l-131 10v78zM704 1900h133l152 -389h-113l-125 289l-233 -289h-113z" />
    <glyph glyph-name="Aacute" unicode="&#xc1;" horiz-adv-x="1241" 
d="M707 1186l-334 -590h428zM707 1386h135l219 -1261l35 -37l100 -10v-78h-448v78l120 10l15 29l-64 391h-497l-220 -391l17 -29l125 -10v-78h-406v78l113 12zM955 1900h202l-375 -389h-100z" />
    <glyph glyph-name="Edieresis" unicode="&#xcb;" horiz-adv-x="1118" 
d="M180 1374h953l-58 -299h-98v174l-23 31h-440l-100 -518h311l37 29l45 149h88l-86 -451h-84l8 148l-24 29h-314l-110 -572h522l37 33l69 207h95l-66 -334h-991v78l129 12l35 29l219 1136l-23 31l-131 10v78zM921 1810q44 0 74.5 -30.5t30.5 -73.5t-31 -74t-74 -31
q-41 0 -72.5 31.5t-31.5 73.5q0 43 31 73.5t73 30.5zM538 1810q45 0 76 -30.5t31 -73.5t-31.5 -74t-75.5 -31q-41 0 -71.5 31.5t-30.5 73.5q0 43 30 73.5t72 30.5z" />
    <glyph glyph-name="Egrave" unicode="&#xc8;" horiz-adv-x="1118" 
d="M180 1374h953l-58 -299h-98v174l-23 31h-440l-100 -518h311l37 29l45 149h88l-86 -451h-84l8 148l-24 29h-314l-110 -572h522l37 33l69 207h95l-66 -334h-991v78l129 12l35 29l219 1136l-23 31l-131 10v78zM473 1900h202l123 -389h-102z" />
    <glyph glyph-name="Iacute" unicode="&#xcd;" horiz-adv-x="639" 
d="M182 1374h500v-78l-135 -10l-33 -31l-219 -1136l24 -29l134 -12v-78h-500v78l131 12l33 29l219 1136l-23 31l-131 10v78zM655 1900h202l-375 -389h-100z" />
    <glyph glyph-name="Icircumflex" unicode="&#xce;" horiz-adv-x="639" 
d="M182 1374h500v-78l-135 -10l-33 -31l-219 -1136l24 -29l134 -12v-78h-500v78l131 12l33 29l219 1136l-23 31l-131 10v78zM466 1900h133l152 -389h-113l-125 289l-233 -289h-113z" />
    <glyph glyph-name="Idieresis" unicode="&#xcf;" horiz-adv-x="639" 
d="M182 1374h500v-78l-135 -10l-33 -31l-219 -1136l24 -29l134 -12v-78h-500v78l131 12l33 29l219 1136l-23 31l-131 10v78zM683 1810q44 0 74.5 -30.5t30.5 -73.5t-31 -74t-74 -31q-41 0 -72.5 31.5t-31.5 73.5q0 43 31 73.5t73 30.5zM300 1810q45 0 76 -30.5t31 -73.5
t-31.5 -74t-75.5 -31q-41 0 -71.5 31.5t-30.5 73.5q0 43 30 73.5t72 30.5z" />
    <glyph glyph-name="Igrave" unicode="&#xcc;" horiz-adv-x="639" 
d="M182 1374h500v-78l-135 -10l-33 -31l-219 -1136l24 -29l134 -12v-78h-500v78l131 12l33 29l219 1136l-23 31l-131 10v78zM235 1900h202l123 -389h-102z" />
    <glyph glyph-name="Oacute" unicode="&#xd3;" horiz-adv-x="1450" 
d="M1169 858q0 205 -95.5 325t-258.5 120q-106 0 -200.5 -59t-172.5 -173q-76 -112 -118.5 -258t-42.5 -295q0 -202 96.5 -323t257.5 -121q107 0 201 58.5t172 172.5q76 113 118.5 259t42.5 294zM829 1397q94 0 176 -24t146 -70q105 -78 162 -193t57 -250q0 -170 -48.5 -323
t-139.5 -273q-106 -138 -251.5 -213.5t-305.5 -75.5q-238 0 -389.5 155.5t-151.5 399.5q0 159 49 307t143 271q104 137 249.5 213t303.5 76zM1059 1900h202l-375 -389h-100z" />
    <glyph glyph-name="Ocircumflex" unicode="&#xd4;" horiz-adv-x="1450" 
d="M1169 858q0 205 -95.5 325t-258.5 120q-106 0 -200.5 -59t-172.5 -173q-76 -112 -118.5 -258t-42.5 -295q0 -202 96.5 -323t257.5 -121q107 0 201 58.5t172 172.5q76 113 118.5 259t42.5 294zM829 1397q94 0 176 -24t146 -70q105 -78 162 -193t57 -250q0 -170 -48.5 -323
t-139.5 -273q-106 -138 -251.5 -213.5t-305.5 -75.5q-238 0 -389.5 155.5t-151.5 399.5q0 159 49 307t143 271q104 137 249.5 213t303.5 76zM870 1900h133l152 -389h-113l-125 289l-233 -289h-113z" />
    <glyph glyph-name="apple" unicode="&#xf000;" horiz-adv-x="1618" 
d="M836 1216q-1 6 -1.5 14t-0.5 23q0 124 95 229.5t236 131.5q1 -10 1.5 -23t0.5 -39q0 -131 -103.5 -234.5t-203.5 -103.5h-8q-3 0 -7.5 1t-8.5 1zM1505 403q-114 -247 -205 -342.5t-204 -95.5q-50 0 -131.5 33t-122.5 33q-45 0 -131 -33t-127 -33q-64 0 -128.5 44
t-129.5 132q-102 140 -157.5 295.5t-55.5 300.5q0 219 125 356.5t323 137.5q68 0 155 -34t124 -34q34 0 121.5 35t152.5 35q110 0 198 -40t161 -124q-102 -65 -151.5 -145.5t-49.5 -182.5q0 -113 60 -200t173 -138z" />
    <glyph glyph-name="Ograve" unicode="&#xd2;" horiz-adv-x="1450" 
d="M1169 858q0 205 -95.5 325t-258.5 120q-106 0 -200.5 -59t-172.5 -173q-76 -112 -118.5 -258t-42.5 -295q0 -202 96.5 -323t257.5 -121q107 0 201 58.5t172 172.5q76 113 118.5 259t42.5 294zM829 1397q94 0 176 -24t146 -70q105 -78 162 -193t57 -250q0 -170 -48.5 -323
t-139.5 -273q-106 -138 -251.5 -213.5t-305.5 -75.5q-238 0 -389.5 155.5t-151.5 399.5q0 159 49 307t143 271q104 137 249.5 213t303.5 76zM639 1900h202l123 -389h-102z" />
    <glyph glyph-name="Uacute" unicode="&#xda;" horiz-adv-x="1360" 
d="M150 1374h497v-78l-133 -10l-33 -31l-145 -745q-9 -46 -14 -86t-5 -68q0 -123 75 -188.5t216 -65.5q181 0 278.5 94t139.5 314l145 745l-24 31l-133 10v78h428v-78l-129 -10l-35 -31l-150 -763v-5q-50 -251 -151 -356q-73 -74 -183 -114t-243 -40q-204 0 -312 86
t-108 248q0 29 5.5 68.5t19.5 112.5l147 763l-22 31l-131 10v78zM1014 1900h202l-375 -389h-100z" />
    <glyph glyph-name="Ucircumflex" unicode="&#xdb;" horiz-adv-x="1360" 
d="M150 1374h497v-78l-133 -10l-33 -31l-145 -745q-9 -46 -14 -86t-5 -68q0 -123 75 -188.5t216 -65.5q181 0 278.5 94t139.5 314l145 745l-24 31l-133 10v78h428v-78l-129 -10l-35 -31l-150 -763v-5q-50 -251 -151 -356q-73 -74 -183 -114t-243 -40q-204 0 -312 86
t-108 248q0 29 5.5 68.5t19.5 112.5l147 763l-22 31l-131 10v78zM825 1900h133l152 -389h-113l-125 289l-233 -289h-113z" />
    <glyph glyph-name="Ugrave" unicode="&#xd9;" horiz-adv-x="1360" 
d="M150 1374h497v-78l-133 -10l-33 -31l-145 -745q-9 -46 -14 -86t-5 -68q0 -123 75 -188.5t216 -65.5q181 0 278.5 94t139.5 314l145 745l-24 31l-133 10v78h428v-78l-129 -10l-35 -31l-150 -763v-5q-50 -251 -151 -356q-73 -74 -183 -114t-243 -40q-204 0 -312 86
t-108 248q0 29 5.5 68.5t19.5 112.5l147 763l-22 31l-131 10v78zM594 1900h202l123 -389h-102z" />
    <glyph glyph-name="dotlessi" unicode="&#x131;" horiz-adv-x="588" 
d="M371 987h53l-147 -765q-4 -19 -5.5 -31.5t-1.5 -20.5q0 -39 25 -59.5t74 -20.5q28 0 65.5 7.5t85.5 23.5v-64q-85 -35 -157.5 -53t-131.5 -18q-65 0 -98 33.5t-33 101.5q0 19 3.5 46t9.5 60l120 611l-165 30v54z" />
    <glyph glyph-name="circumflex" unicode="&#x2c6;" horiz-adv-x="1024" 
d="M602 1507h133l152 -389h-113l-125 289l-233 -289h-113z" />
    <glyph glyph-name="tilde" unicode="&#x2dc;" horiz-adv-x="1024" 
d="M885 1450h86q-13 -110 -74 -178t-143 -68q-69 0 -162.5 51.5t-114.5 51.5q-38 0 -65 -37t-31 -96h-88q18 120 74.5 182.5t146.5 62.5q59 0 147.5 -53t118.5 -53q42 0 68 34t37 103z" />
    <glyph glyph-name="macron" unicode="&#xaf;" horiz-adv-x="1024" 
d="M336 1364h616l-18 -104h-617z" />
    <glyph glyph-name="breve" unicode="&#x2d8;" horiz-adv-x="1024" 
d="M369 1452h81q-1 -7 -1 -13.5v-19.5q0 -68 40.5 -98.5t131.5 -30.5q120 0 173 35.5t74 126.5h80q-29 -152 -111 -221.5t-231 -69.5q-124 0 -184 52t-60 161q1 19 2 37t5 41z" />
    <glyph glyph-name="dotaccent" unicode="&#x2d9;" horiz-adv-x="1024" 
d="M621 1427q49 0 83.5 -33.5t34.5 -80.5t-35 -81t-83 -34q-45 0 -78 34t-33 81t32.5 80.5t78.5 33.5z" />
    <glyph glyph-name="ring" unicode="&#x2da;" horiz-adv-x="1024" 
d="M651 1499q-57 0 -96 -39.5t-39 -97.5q0 -57 39 -96t96 -39t97 39.5t40 95.5q0 57 -40 97t-97 40zM651 1583q93 0 157 -63.5t64 -155.5q0 -93 -64 -157t-157 -64q-92 0 -156.5 64.5t-64.5 156.5t64.5 155.5t156.5 63.5z" />
    <glyph glyph-name="cedilla" unicode="&#xb8;" horiz-adv-x="1024" 
d="M324 0h73l-24 -124q9 0 19 0.5t24 0.5q62 0 95.5 -29.5t33.5 -85.5q0 -94 -79 -156.5t-202 -62.5q-34 0 -69 5.5t-70 15.5l14 74q30 -9 59.5 -13t59.5 -4q71 0 112.5 29t41.5 78q0 26 -24 41.5t-64 15.5q-11 0 -37 -3q-4 -1 -6 -1z" />
    <glyph glyph-name="hungarumlaut" unicode="&#x2dd;" horiz-adv-x="1024" 
d="M946 1507h219l-493 -389h-97zM637 1507h188l-379 -389h-88z" />
    <glyph glyph-name="ogonek" unicode="&#x2db;" horiz-adv-x="1024" 
d="M469 0q-72 -53 -113 -120t-41 -130q0 -39 26 -61.5t71 -22.5q9 0 41 5q18 2 28 3l-20 -102q-26 -7 -52 -10.5t-55 -3.5q-81 0 -124.5 32.5t-43.5 94.5q0 83 52.5 168.5t142.5 146.5h88z" />
    <glyph glyph-name="caron" unicode="&#x2c7;" horiz-adv-x="1024" 
d="M377 1507h115l122 -288l236 288h111l-299 -389h-134z" />
    <glyph glyph-name="Lslash" unicode="&#x141;" horiz-adv-x="1020" 
d="M172 1374h498v-78l-133 -10l-33 -31l-82 -417l207 112l47 -84l-275 -145l-122 -627h434l37 33l79 246h99l-72 -373h-913v78l131 10l32 31l93 485l-144 -80l-43 86l211 117l103 528l-21 31l-133 10v78z" />
    <glyph glyph-name="lslash" unicode="&#x142;" horiz-adv-x="563" 
d="M434 1507h55q-9 -49 -15.5 -85t-8.5 -48l-100 -510l194 101l39 -72l-256 -133l-84 -416q-11 -52 -16.5 -96t-5.5 -70q0 -47 28.5 -71.5t83.5 -24.5q24 0 59.5 8t86.5 25v-64q-81 -34 -151 -51.5t-122 -17.5q-75 0 -112 37.5t-37 113.5q0 21 9 79.5t28 156.5l59 305
l-162 -88l-35 76l211 108l123 602l-182 21v53z" />
    <glyph glyph-name="Scaron" unicode="&#x160;" horiz-adv-x="1100" 
d="M1047 1337l-66 -311h-90l8 203l-25 37q-43 19 -87.5 29t-90.5 10q-139 0 -231 -79t-92 -196q0 -143 249 -258l21 -10q179 -84 243 -160t64 -188q0 -190 -156 -314.5t-399 -124.5q-103 0 -197.5 24t-179.5 71l68 325h107l-21 -235l21 -27q60 -30 116 -44.5t111 -14.5
q159 0 254.5 81.5t95.5 217.5q0 120 -194 218q-21 10 -31 15q-215 110 -280.5 184t-65.5 173q0 189 141.5 311.5t364.5 122.5q90 0 175.5 -15t166.5 -45zM469 1900h115l122 -288l236 288h111l-299 -389h-134z" />
    <glyph glyph-name="scaron" unicode="&#x161;" horiz-adv-x="758" 
d="M545 756l-86 118q-15 11 -30.5 16t-33.5 5q-62 0 -102.5 -39t-40.5 -98q0 -73 150 -188l4 -3q9 -7 28 -21q178 -136 178 -249q0 -137 -105 -226t-269 -89q-126 0 -199.5 48.5t-73.5 131.5q0 47 29.5 75.5t77.5 28.5q20 0 41 -8.5t47 -28.5l-37 -102q24 -35 62 -53.5
t85 -18.5q88 0 137.5 46.5t49.5 127.5q0 46 -27 85t-115 106l-9 7q-185 139 -185 251q0 127 103 218t249 91q85 0 138 -35.5t53 -91.5q0 -45 -32 -73t-87 -31zM245 1507h115l122 -288l236 288h111l-299 -389h-134z" />
    <glyph glyph-name="Zcaron" unicode="&#x17d;" horiz-adv-x="1139" 
d="M262 1374h909l-18 -86l-969 -1188h586l29 27l82 244h100l-70 -371h-962l14 84l967 1192h-508l-45 -27l-70 -192h-106zM490 1900h115l122 -288l236 288h111l-299 -389h-134z" />
    <glyph glyph-name="zcaron" unicode="&#x17e;" horiz-adv-x="901" 
d="M764 1004l125 -66l-707 -788l199 51q75 -34 127.5 -51t81.5 -17q39 0 70.5 18.5t56.5 55.5l-113 125q21 36 46.5 55t51.5 19q44 0 72.5 -34.5t28.5 -88.5q0 -109 -87.5 -198t-197.5 -89q-61 0 -166.5 44t-152.5 44q-17 0 -32.5 -4.5t-33.5 -13.5l-49 -89l-113 62l705 790
l-203 -45q-57 30 -102.5 45t-77.5 15q-40 0 -73 -17t-56 -49l108 -131q-19 -33 -42.5 -49t-53.5 -16q-44 0 -70 32.5t-26 87.5q0 109 85.5 198t190.5 89q62 0 168 -55v0q58 -29 86.5 -38t53.5 -9q12 0 27.5 4t33.5 12zM317 1507h115l122 -288l236 288h111l-299 -389h-134z
" />
    <glyph glyph-name="brokenbar" unicode="&#xa6;" horiz-adv-x="1024" 
d="M449 408h126v-758h-126v758zM449 1432h126v-758h-126v758z" />
    <glyph glyph-name="Eth" unicode="&#xd0;" horiz-adv-x="1374" 
d="M510 1280l-96 -508h307l-19 -94h-309l-106 -582h112q166 0 295 55t209 160q81 106 127.5 256t46.5 305q0 208 -112 308t-342 100h-113zM174 1374h465q312 0 474.5 -133t162.5 -389q0 -180 -65.5 -342.5t-186.5 -282.5q-118 -116 -275.5 -171.5t-373.5 -55.5h-432v78
l131 12l32 29l109 559h-176l10 94h184l93 483l-21 31l-131 10v78z" />
    <glyph glyph-name="eth" unicode="&#xf0;" horiz-adv-x="1024" 
d="M696 895q-30 7 -59 10.5t-57 3.5q-162 0 -261.5 -149t-99.5 -391q0 -144 52.5 -223.5t146.5 -79.5q137 0 229 149t92 379q0 78 -10.5 153.5t-32.5 147.5zM675 975q-23 59 -46 110.5t-47 98.5l-285 -115l-29 76l269 104l-72 105l-160 41l8 57l240 33l125 -178l242 94
l30 -72l-229 -92q95 -179 140.5 -332.5t45.5 -294.5q0 -274 -145.5 -451t-368.5 -177q-159 0 -253.5 105t-94.5 284q0 124 44.5 244.5t123.5 211.5q67 78 153.5 118t188.5 40q33 0 62.5 -2.5t57.5 -7.5z" />
    <glyph glyph-name="Yacute" unicode="&#xdd;" horiz-adv-x="1151" 
d="M63 1374h498v-78l-133 -10l-33 -31l185 -579l428 579l-21 31l-131 10v78h459v-78l-135 -10l-33 -31l-520 -680l-90 -456l26 -29l133 -12v-78h-497v78l129 12l32 29l86 438l-229 698l-20 31l-134 10v78zM910 1900h202l-375 -389h-100z" />
    <glyph glyph-name="yacute" unicode="&#xfd;" horiz-adv-x="973" 
d="M169 993q5 1 11 1.5t17 0.5q119 0 189 -362q10 -51 15 -77l68 -347q65 166 145.5 360.5t176.5 417.5h38l162 -53v-43l-104 -62q-90 -100 -214 -372t-188 -387q-139 -254 -277 -384t-267 -130q-74 0 -123 39t-49 96q0 42 30.5 73.5t79.5 38.5l121 -120q91 6 178 93
t180 267l-6 -4l-127 616q-14 71 -34 124t-48 89l-174 15v45zM767 1507h202l-375 -389h-100z" />
    <glyph glyph-name="Thorn" unicode="&#xde;" horiz-adv-x="1090" 
d="M457 1024l-131 -665q32 -3 48.5 -4t28.5 -1q219 0 341 107.5t122 298.5q0 138 -79 203t-248 65q-26 0 -77 -4h-5zM170 1374h498v-78l-133 -10l-33 -29l-27 -141h80q263 0 383.5 -80t120.5 -254q0 -230 -172.5 -377t-448.5 -147q-29 0 -110 3q-14 1 -21 1l-28 -143l14 -29
l131 -12v-78h-483v78l129 12l32 29l222 1138l-25 29l-129 10v78z" />
    <glyph glyph-name="thorn" unicode="&#xfe;" horiz-adv-x="1057" 
d="M244 137q46 -28 89.5 -41.5t86.5 -13.5q68 0 125 31t104 94q55 73 90 189t35 231q0 118 -49.5 186t-134.5 68q-46 0 -102.5 -27t-127.5 -82zM434 1507h55q-13 -73 -17.5 -97.5t-6.5 -35.5l-90 -512q90 64 167 95.5t142 31.5q124 0 192 -94t68 -264q0 -133 -43 -246.5
t-131 -210.5q-78 -86 -181 -134t-208 -48q-38 0 -77.5 9.5t-80.5 29.5l-67 -381l194 -35v-61h-491v61l121 25l20 22l305 1710l-182 21v53z" />
    <glyph glyph-name="minus" unicode="&#x2212;" horiz-adv-x="1706" 
d="M254 670h1198v-119h-1198v119z" />
    <glyph glyph-name="multiply" unicode="&#xd7;" horiz-adv-x="1706" 
d="M381 1169l477 -477l475 477l82 -82l-475 -477l475 -475l-82 -82l-475 475l-477 -475l-80 82l475 475l-475 477z" />
    <glyph glyph-name="onesuperior" unicode="&#xb9;" horiz-adv-x="752" 
d="M514 1389h33l-160 -764l12 -19l117 -6v-51h-403v53l139 6l22 23l136 637l-15 12l-196 -23v50z" />
    <glyph glyph-name="twosuperior" unicode="&#xb2;" horiz-adv-x="752" 
d="M125 645h405l48 105h61l-43 -201h-627l17 78q371 235 476 345t105 220q0 63 -38.5 98t-108.5 35q-31 0 -62 -7t-65 -22l-29 -131q-15 -9 -31 -13.5t-32 -4.5q-29 0 -46.5 13.5t-17.5 35.5q0 26 15 52.5t43 49.5q51 42 122.5 66.5t145.5 24.5q112 0 173.5 -48.5
t61.5 -136.5q0 -111 -113 -226.5t-460 -332.5z" />
    <glyph glyph-name="threesuperior" unicode="&#xb3;" horiz-adv-x="752" 
d="M433 987q96 -3 151 -45.5t55 -114.5q0 -62 -38.5 -121.5t-106.5 -103.5q-53 -32 -118.5 -49.5t-133.5 -17.5q-105 0 -172.5 38t-67.5 95q0 32 20 50.5t54 18.5q12 0 23 -2t24 -6l20 -106q25 -15 52.5 -22t60.5 -7q109 0 181.5 63t72.5 156q0 64 -43.5 98.5t-122.5 34.5
q-23 0 -73 -3q-5 -1 -7 -1l10 69q6 0 13.5 -0.5t19.5 -0.5q112 0 183 53t71 135q0 62 -40.5 97.5t-110.5 35.5q-33 0 -64 -10t-65 -31l-19 -116q-29 -9 -41.5 -12t-21.5 -3q-26 0 -43 16t-17 42q0 65 96 118.5t226 53.5q107 0 169 -45.5t62 -122.5q0 -81 -69 -143.5
t-190 -90.5z" />
    <glyph glyph-name="onequarter" unicode="&#xbc;" horiz-adv-x="1776" 
d="M1567 651l-396 -354h320zM1618 776h76l-103 -479h144l-17 -74h-145l-55 -266h-101l58 266h-416l16 74zM1395 1374h125l-1141 -1374h-125zM489 1386h31l-153 -710l12 -19l113 -4v-49h-388v49l136 6l20 21l129 596l-14 10l-187 -20v47z" />
    <glyph glyph-name="onehalf" unicode="&#xbd;" horiz-adv-x="1776" 
d="M1178 90h389l43 98h57l-39 -188h-598l17 72q350 217 451 321t101 207q0 60 -36.5 92.5t-104.5 32.5q-27 0 -56.5 -7t-64.5 -22l-26 -121q-16 -9 -31.5 -13.5t-30.5 -4.5q-26 0 -42.5 13t-16.5 34q0 25 14 49t41 47q47 38 115.5 60t138.5 22q108 0 167.5 -45t59.5 -127
q0 -101 -107 -207.5t-441 -312.5zM1395 1374h125l-1141 -1374h-125zM489 1386h31l-153 -710l12 -19l113 -4v-49h-388v49l136 6l20 21l129 596l-14 10l-187 -20v47z" />
    <glyph glyph-name="threequarters" unicode="&#xbe;" horiz-adv-x="1778" 
d="M1567 651l-396 -354h320zM1618 776h76l-103 -479h144l-17 -74h-145l-55 -266h-101l58 266h-416l16 74zM1395 1374h125l-1141 -1374h-125zM412 1014q92 -3 144 -42.5t52 -107.5q0 -58 -36.5 -114t-100.5 -95q-51 -31 -112.5 -47t-127.5 -16q-99 0 -164 35t-65 88
q0 29 19 47t51 18q12 0 23 -2t22 -6l20 -98q26 -15 53 -22t56 -7q103 0 172 59t69 146q0 59 -41.5 92t-115.5 33q-21 0 -67 -3q-7 -1 -11 -1l10 65q7 -1 13.5 -1.5t19.5 -0.5q105 0 172.5 50.5t67.5 125.5q0 57 -39 90t-105 33q-31 0 -61 -9t-62 -28l-18 -110q-4 -1 -14 -4
q-34 -8 -46 -8q-25 0 -41 14.5t-16 38.5q0 61 91.5 110t215.5 49q103 0 162.5 -41.5t59.5 -113.5q0 -76 -66.5 -134t-183.5 -83z" />
    <glyph glyph-name="franc" unicode="&#x20a3;" horiz-adv-x="1858" 
d="M176 1374h930l-64 -321h-98v194l-20 33h-414l-102 -541h288l37 31l47 148h90l-88 -451h-88l8 147l-24 31h-289l-100 -522l28 -31l144 -10v-82h-514v78l129 10l33 29l219 1138l-21 29l-131 12v78zM1404 987h41l-65 -280q95 134 190 207t174 73q52 0 83.5 -29.5t31.5 -76.5
q0 -60 -37.5 -96.5t-99.5 -36.5h-14l-54 110q-136 -53 -203.5 -136t-95.5 -241l-84 -481h-172l170 838l-168 30v52z" />
    <glyph glyph-name="Gbreve" unicode="&#x11e;" horiz-adv-x="1360" 
d="M1309 1339l-60 -325h-108l6 192l-19 43q-51 26 -102.5 38.5t-103.5 12.5q-101 0 -197 -36.5t-178 -106.5q-128 -109 -198 -276.5t-70 -364.5q0 -196 113 -318t296 -122q40 0 93 7t122 21l78 437l-20 28l-134 11v79h504v-79l-131 -11l-33 -28l-96 -494
q-125 -35 -234.5 -53.5t-197.5 -18.5q-253 0 -406 156.5t-153 413.5q0 199 87 376t245 300q115 89 249 134.5t279 45.5q104 0 198 -16t171 -46zM592 1845h81q-1 -7 -1 -13.5v-19.5q0 -68 40.5 -98.5t131.5 -30.5q120 0 173 35.5t74 126.5h80q-29 -152 -111 -221.5
t-231 -69.5q-124 0 -184 52t-60 161q1 19 2 37t5 41z" />
    <glyph glyph-name="gbreve" unicode="&#x11f;" horiz-adv-x="985" 
d="M285 70q-93 -22 -141 -73.5t-48 -129.5q0 -99 77.5 -163t199.5 -64q125 0 205.5 51.5t80.5 126.5q0 40 -28 72.5t-86 58.5zM637 727q0 90 -36 138t-103 48q-93 0 -164.5 -102t-71.5 -242q0 -81 36.5 -126.5t100.5 -45.5q93 0 165.5 98.5t72.5 231.5zM690 938h293v-88
h-210q12 -34 19 -68t7 -67q0 -164 -115 -275.5t-278 -111.5q-11 0 -23 0.5t-25 1.5q-13 -26 -19.5 -52.5t-6.5 -56.5v-12l325 -148q81 -37 120.5 -87t39.5 -115q0 -121 -146 -213t-347 -92q-178 0 -282.5 73.5t-104.5 198.5q0 94 63.5 161t208.5 124q-1 6 -1.5 13t-0.5 21
q0 50 19.5 97.5t62.5 101.5q-91 36 -140 100.5t-49 147.5q0 167 116 282t284 115q46 0 92.5 -12.5t97.5 -38.5zM352 1452h81q-1 -7 -1 -13.5v-19.5q0 -68 40.5 -98.5t131.5 -30.5q120 0 173 35.5t74 126.5h80q-29 -152 -111 -221.5t-231 -69.5q-124 0 -184 52t-60 161
q1 19 2 37t5 41z" />
    <glyph glyph-name="Idotaccent" unicode="&#x130;" horiz-adv-x="639" 
d="M182 1374h500v-78l-135 -10l-33 -31l-219 -1136l24 -29l134 -12v-78h-500v78l131 12l33 29l219 1136l-23 31l-131 10v78zM485 1820q49 0 83.5 -33.5t34.5 -80.5t-35 -81t-83 -34q-45 0 -78 34t-33 81t32.5 80.5t78.5 33.5z" />
    <glyph glyph-name="Scedilla" unicode="&#x15e;" horiz-adv-x="1100" 
d="M1047 1337l-66 -311h-90l8 203l-25 37q-43 19 -87.5 29t-90.5 10q-139 0 -231 -79t-92 -196q0 -143 249 -258l21 -10q179 -84 243 -160t64 -188q0 -190 -156 -314.5t-399 -124.5q-103 0 -197.5 24t-179.5 71l68 325h107l-21 -235l21 -27q60 -30 116 -44.5t111 -14.5
q159 0 254.5 81.5t95.5 217.5q0 120 -194 218q-21 10 -31 15q-215 110 -280.5 184t-65.5 173q0 189 141.5 311.5t364.5 122.5q90 0 175.5 -15t166.5 -45zM363 0h73l-24 -124q9 0 19 0.5t24 0.5q62 0 95.5 -29.5t33.5 -85.5q0 -94 -79 -156.5t-202 -62.5q-34 0 -69 5.5
t-70 15.5l14 74q30 -9 59.5 -13t59.5 -4q71 0 112.5 29t41.5 78q0 26 -24 41.5t-64 15.5q-11 0 -37 -3q-4 -1 -6 -1z" />
    <glyph glyph-name="scedilla" unicode="&#x15f;" horiz-adv-x="758" 
d="M545 756l-86 118q-15 11 -30.5 16t-33.5 5q-62 0 -102.5 -39t-40.5 -98q0 -73 150 -188l4 -3q9 -7 28 -21q178 -136 178 -249q0 -137 -105 -226t-269 -89q-126 0 -199.5 48.5t-73.5 131.5q0 47 29.5 75.5t77.5 28.5q20 0 41 -8.5t47 -28.5l-37 -102q24 -35 62 -53.5
t85 -18.5q88 0 137.5 46.5t49.5 127.5q0 46 -27 85t-115 106l-9 7q-185 139 -185 251q0 127 103 218t249 91q85 0 138 -35.5t53 -91.5q0 -45 -32 -73t-87 -31zM192 0h73l-24 -124q9 0 19 0.5t24 0.5q62 0 95.5 -29.5t33.5 -85.5q0 -94 -79 -156.5t-202 -62.5q-34 0 -69 5.5
t-70 15.5l14 74q30 -9 59.5 -13t59.5 -4q71 0 112.5 29t41.5 78q0 26 -24 41.5t-64 15.5q-11 0 -37 -3q-4 -1 -6 -1z" />
    <glyph glyph-name="Cacute" unicode="&#x106;" horiz-adv-x="1237" 
d="M1274 1329l-57 -315h-87v196l-16 39q-51 27 -104.5 40.5t-112.5 13.5q-101 0 -194 -36t-168 -104q-122 -109 -189 -278t-67 -367q0 -212 111.5 -329t314.5 -117q41 0 85.5 7t90.5 21l39 35l90 236h88l-56 -324q-106 -35 -209 -53.5t-198 -18.5q-253 0 -402 154t-149 414
q0 199 83 377t234 303q107 86 234.5 131t267.5 45q87 0 179.5 -17.5t191.5 -52.5zM1022 1900h202l-375 -389h-100z" />
    <glyph glyph-name="cacute" unicode="&#x107;" horiz-adv-x="807" 
d="M628 738l-118 155h-10q-130 0 -218.5 -146t-88.5 -366q0 -132 54 -205.5t150 -73.5q73 0 156 44.5t164 125.5v-94q-92 -96 -190.5 -147t-192.5 -51q-138 0 -220.5 101t-82.5 271q0 135 43.5 254t126.5 209q77 85 173 131.5t193 46.5q82 0 136.5 -41.5t54.5 -101.5
q0 -49 -36 -80t-94 -32zM683 1507h202l-375 -389h-100z" />
    <glyph glyph-name="Ccaron" unicode="&#x10c;" horiz-adv-x="1237" 
d="M1274 1329l-57 -315h-87v196l-16 39q-51 27 -104.5 40.5t-112.5 13.5q-101 0 -194 -36t-168 -104q-122 -109 -189 -278t-67 -367q0 -212 111.5 -329t314.5 -117q41 0 85.5 7t90.5 21l39 35l90 236h88l-56 -324q-106 -35 -209 -53.5t-198 -18.5q-253 0 -402 154t-149 414
q0 199 83 377t234 303q107 86 234.5 131t267.5 45q87 0 179.5 -17.5t191.5 -52.5zM608 1900h115l122 -288l236 288h111l-299 -389h-134z" />
    <glyph glyph-name="ccaron" unicode="&#x10d;" horiz-adv-x="807" 
d="M628 738l-118 155h-10q-130 0 -218.5 -146t-88.5 -366q0 -132 54 -205.5t150 -73.5q73 0 156 44.5t164 125.5v-94q-92 -96 -190.5 -147t-192.5 -51q-138 0 -220.5 101t-82.5 271q0 135 43.5 254t126.5 209q77 85 173 131.5t193 46.5q82 0 136.5 -41.5t54.5 -101.5
q0 -49 -36 -80t-94 -32zM269 1507h115l122 -288l236 288h111l-299 -389h-134z" />
    <glyph glyph-name="dcroat" unicode="&#x111;" horiz-adv-x="1071" 
d="M641 909q-4 1 -21.5 3.5t-27.5 2.5q-152 0 -267.5 -163.5t-115.5 -401.5q0 -118 47 -185t129 -67q59 0 128 46t134 128l92 521zM973 1507h53l-47 -260h135l-10 -76h-137l-160 -890q-6 -34 -9 -63t-3 -48q0 -44 22 -65t68 -21q20 0 52.5 5.5t80.5 16.5v-61
q-76 -28 -142 -43.5t-110 -15.5q-70 0 -103.5 35.5t-33.5 109.5q0 16 0.5 25t1.5 16q-72 -92 -154.5 -141t-165.5 -49q-125 0 -196.5 97t-71.5 269q0 269 168 458t393 189q44 0 84 -8.5t80 -25.5l37 210h-275l15 76h274l21 123l-181 21v57z" />
    <glyph glyph-name="sfthyphen" unicode="&#xad;" horiz-adv-x="653" 
d="M74 561h458l-26 -137h-459z" />
    <glyph glyph-name="middot.001" unicode="&#x2219;" horiz-adv-x="569" 
d="M283 809q50 0 86.5 -36t36.5 -87q0 -50 -36 -85.5t-87 -35.5q-50 0 -85.5 35.5t-35.5 85.5q0 51 35 87t86 36z" />
    <glyph glyph-name="Euro" horiz-adv-x="1139" 
d="M1176 1329l-56 -315h-104l4 198l-21 37q-45 26 -96 40t-100 14q-124 0 -215 -100t-158 -310h463l-35 -86h-450q-13 -55 -23 -107.5t-18 -105.5h397l-35 -86h-373q0 -13 -3 -53.5t-3 -61.5q0 -164 58.5 -241.5t181.5 -77.5q33 0 75 6.5t97 19.5l39 33l90 238h104l-57 -324
q-110 -37 -197.5 -54.5t-165.5 -17.5q-200 0 -306.5 119t-106.5 342q0 19 3 65q1 5 1 7h-168l35 86h141q6 50 16 101.5t25 111.5h-164l35 86h156q80 235 238 370.5t349 135.5q76 0 160 -17t187 -53z" />
    <glyph glyph-name="Euro" unicode="&#x20ac;" horiz-adv-x="1139" 
d="M1176 1329l-56 -315h-104l4 198l-21 37q-45 26 -96 40t-100 14q-124 0 -215 -100t-158 -310h463l-35 -86h-450q-13 -55 -23 -107.5t-18 -105.5h397l-35 -86h-373q0 -13 -3 -53.5t-3 -61.5q0 -164 58.5 -241.5t181.5 -77.5q33 0 75 6.5t97 19.5l39 33l90 238h104l-57 -324
q-110 -37 -197.5 -54.5t-165.5 -17.5q-200 0 -306.5 119t-106.5 342q0 19 3 65q1 5 1 7h-168l35 86h141q6 50 16 101.5t25 111.5h-164l35 86h156q80 235 238 370.5t349 135.5q76 0 160 -17t187 -53z" />
    <glyph glyph-name="gravecmb" unicode="&#x300;" 
d="M-1024 1507h202l123 -389h-102z" />
    <glyph glyph-name="acutecmb" unicode="&#x301;" 
d="M-751 1507h202l-375 -389h-100z" />
    <glyph glyph-name="circumflexcmb" unicode="&#x302;" 
d="M-725 1507h133l152 -389h-113l-125 289l-233 -289h-113z" />
    <glyph glyph-name="tildecmb" unicode="&#x303;" 
d="M-432 1450h86q-13 -110 -74 -178t-143 -68q-69 0 -162.5 51.5t-114.5 51.5q-38 0 -65 -37t-31 -96h-88q18 120 74.5 182.5t146.5 62.5q59 0 147.5 -53t118.5 -53q42 0 68 34t37 103z" />
    <glyph glyph-name="macroncmb" unicode="&#x304;" 
d="M-731 1493h616l-18 -104h-617z" />
    <glyph glyph-name="brevecmb" unicode="&#x306;" 
d="M-1017 1452h81q-1 -7 -1 -13.5v-19.5q0 -68 40.5 -98.5t131.5 -30.5q120 0 173 35.5t74 126.5h80q-29 -152 -111 -221.5t-231 -69.5q-124 0 -184 52t-60 161q1 19 2 37t5 41z" />
    <glyph glyph-name="dotaccentcmb" unicode="&#x307;" 
d="M-913 1427q49 0 83.5 -33.5t34.5 -80.5t-35 -81t-83 -34q-45 0 -78 34t-33 81t32.5 80.5t78.5 33.5z" />
    <glyph glyph-name="dieresiscmb" unicode="&#x308;" 
d="M-539 1417q44 0 74.5 -30.5t30.5 -73.5t-31 -74t-74 -31q-41 0 -72.5 31.5t-31.5 73.5q0 43 31 73.5t73 30.5zM-922 1417q45 0 76 -30.5t31 -73.5t-31.5 -74t-75.5 -31q-41 0 -71.5 31.5t-30.5 73.5q0 43 30 73.5t72 30.5z" />
    <glyph glyph-name="hookabovecmb" unicode="&#x309;" 
d="M-517 1185l-29 -96h-62l34 120q107 25 164 71t57 106q0 43 -36.5 65t-107.5 22h-3l-73 -82h-8.5h-13.5q-30 0 -46 8.5t-16 23.5q0 37 57.5 62.5t144.5 25.5q101 0 157.5 -31.5t56.5 -86.5q0 -67 -70 -119t-206 -89z" />
    <glyph glyph-name="ringcmb" unicode="&#x30a;" 
d="M-803 1499q-57 0 -96 -39.5t-39 -97.5q0 -57 39 -96t96 -39t97 39.5t40 95.5q0 57 -40 97t-97 40zM-803 1583q93 0 157 -63.5t64 -155.5q0 -93 -64 -157t-157 -64q-92 0 -156.5 64.5t-64.5 156.5t64.5 155.5t156.5 63.5z" />
    <glyph glyph-name="hungarumlautcmb" unicode="&#x30b;" 
d="M-436 1507h219l-493 -389h-97zM-745 1507h188l-379 -389h-88z" />
    <glyph glyph-name="caroncmb" unicode="&#x30c;" 
d="M-1024 1507h115l122 -288l236 288h111l-299 -389h-134z" />
    <glyph glyph-name="doublegravecmb" unicode="&#x30f;" 
d="M-1024 1507h202l123 -389h-102zM-689 1508h202l123 -389h-102z" />
    <glyph glyph-name="invertedbrevecmb" unicode="&#x311;" 
d="M-579 1452h81q-1 -7 -1 -13.5v-19.5q0 -68 40.5 -98.5t131.5 -30.5q120 0 173 35.5t74 126.5h80q-29 -152 -111 -221.5t-231 -69.5q-124 0 -184 52t-60 161q1 19 2 37t5 41z" />
    <glyph glyph-name="horncmb" unicode="&#x31b;" 
d="M-569 1074l12 50q115 17 181.5 72t82.5 145h-123q-9 11 -13 21.5t-4 23.5q0 46 39 76t97 30q60 0 92 -27t32 -76q0 -114 -114.5 -206.5t-281.5 -108.5z" />
    <glyph glyph-name="dotbelowcmb" unicode="&#x323;" 
d="M-448 -140q51 0 87 -36t36 -86q0 -51 -36 -86t-87 -35q-50 0 -85.5 35t-35.5 86t35.5 86.5t85.5 35.5z" />
    <glyph glyph-name="dieresisbelowcmb" unicode="&#x324;" 
d="M-539 -140q44 0 74.5 -30.5t30.5 -73.5t-31 -74t-74 -31q-41 0 -72.5 31.5t-31.5 73.5q0 43 31 73.5t73 30.5zM-922 -140q45 0 76 -30.5t31 -73.5t-31.5 -74t-75.5 -31q-41 0 -71.5 31.5t-30.5 73.5q0 43 30 73.5t72 30.5z" />
    <glyph glyph-name="ringbelowcmb" unicode="&#x325;" 
d="M-698 -146q-51 0 -86.5 -34t-35.5 -85q0 -49 35.5 -83t86.5 -34t87 34.5t36 82.5q0 50 -36 84.5t-87 34.5zM-698 -73q84 0 141.5 -55t57.5 -135q0 -81 -57.5 -136.5t-141.5 -55.5q-83 0 -141 56t-58 136t58 135t141 55z" />
    <glyph glyph-name="commabelowcmb" unicode="&#x326;" 
d="M-569 -456l13 51q114 17 180.5 72.5t82.5 146.5h-123q-9 12 -13 22.5t-4 22.5q0 46 39 76.5t97 30.5q60 0 92 -27t32 -77q0 -115 -114.5 -208t-281.5 -110z" />
    <glyph glyph-name="cedillacmb" unicode="&#x327;" 
d="M-825 0h73l-24 -124q9 0 19 0.5t24 0.5q62 0 95.5 -29.5t33.5 -85.5q0 -94 -79 -156.5t-202 -62.5q-34 0 -69 5.5t-70 15.5l14 74q30 -9 59.5 -13t59.5 -4q71 0 112.5 29t41.5 78q0 26 -24 41.5t-64 15.5q-11 0 -37 -3q-4 -1 -6 -1z" />
    <glyph glyph-name="ogonekcmb" unicode="&#x328;" 
d="M-741 0q-72 -53 -113 -120t-41 -130q0 -39 26 -61.5t71 -22.5q9 0 41 5q18 2 28 3l-20 -102q-26 -7 -52 -10.5t-55 -3.5q-81 0 -124.5 32.5t-43.5 94.5q0 83 52.5 168.5t142.5 146.5h88z" />
    <glyph glyph-name="circumflexbelowcmb" unicode="&#x32d;" 
d="M-725 -140h133l152 -389h-113l-125 289l-233 -289h-113z" />
    <glyph glyph-name="brevebelowcmb" unicode="&#x32e;" 
d="M-1017 -140h81q-1 -7 -1 -13.5v-19.5q0 -68 40.5 -98.5t131.5 -30.5q120 0 173 35.5t74 126.5h80q-29 -152 -111 -221.5t-231 -69.5q-124 0 -184 52t-60 161q1 19 2 37t5 41z" />
    <glyph glyph-name="tildebelowcmb" unicode="&#x330;" 
d="M-432 -140h86q-13 -110 -74 -178t-143 -68q-69 0 -162.5 51.5t-114.5 51.5q-38 0 -65 -37t-31 -96h-88q18 120 74.5 182.5t146.5 62.5q59 0 147.5 -53t118.5 -53q42 0 68 34t37 103z" />
    <glyph glyph-name="macronbelowcmb" unicode="&#x331;" 
d="M-673 -205h616l-18 -104h-617z" />
    <glyph glyph-name="clickdental" unicode="&#x1c0;" horiz-adv-x="1024" 
d="M449 1565h126v-2048h-126v2048z" />
    <glyph glyph-name="clicklateral" unicode="&#x1c1;" horiz-adv-x="2048" 
d="M449 1565h126v-2048h-126v2048zM1473 1565h126v-2048h-126v2048z" />
    <glyph glyph-name="centigrade" unicode="&#x2103;" horiz-adv-x="1911" 
d="M338 1372q-84 0 -143.5 -58.5t-59.5 -142.5t59.5 -143t143.5 -59t142.5 59t58.5 143t-58.5 142.5t-142.5 58.5zM338 1454q117 0 200 -83t83 -200q0 -116 -83.5 -199t-201.5 -83t-199.5 82t-81.5 200q0 119 82.5 201t200.5 82zM1948 1329l-57 -315h-87v196l-16 39
q-51 27 -104.5 40.5t-112.5 13.5q-101 0 -194 -36t-168 -104q-122 -109 -189 -278t-67 -367q0 -212 111.5 -329t314.5 -117q41 0 85.5 7t90.5 21l39 35l90 236h88l-56 -324q-106 -35 -209 -53.5t-198 -18.5q-253 0 -402 154t-149 414q0 199 83 377t234 303q107 86 234.5 131
t267.5 45q87 0 179.5 -17.5t191.5 -52.5z" />
    <glyph glyph-name="fahrenheit" unicode="&#x2109;" horiz-adv-x="1716" 
d="M338 1372q-84 0 -143.5 -58.5t-59.5 -142.5t59.5 -143t143.5 -59t142.5 59t58.5 143t-58.5 142.5t-142.5 58.5zM338 1454q117 0 200 -83t83 -200q0 -116 -83.5 -199t-201.5 -83t-199.5 82t-81.5 200q0 119 82.5 201t200.5 82zM850 1374h930l-64 -321h-98v194l-20 33h-414
l-102 -541h288l37 31l47 148h90l-88 -451h-88l8 147l-24 31h-289l-100 -522l28 -31l144 -10v-82h-514v78l129 10l33 29l219 1138l-21 29l-131 12v78z" />
    <glyph glyph-name="kelvin" unicode="&#x212a;" horiz-adv-x="1280" 
d="M168 1374h498v-78l-134 -10l-32 -31l-111 -559h60l563 555l-13 33l-143 10v80h496v-82l-170 -12l-539 -526l291 -566q35 -68 75 -89t126 -21h41v-78q-59 -4 -109 -6t-76 -2q-100 0 -143.5 25.5t-93.5 123.5l-238 469h-143l-94 -491l26 -29l133 -12v-78h-499v78l131 12
l32 29l220 1136l-23 31l-131 10v78z" />
    <glyph glyph-name="angstrom" unicode="&#x212b;" horiz-adv-x="1241" 
d="M707 1186l-334 -590h428zM707 1386h135l219 -1261l35 -37l100 -10v-78h-448v78l120 10l15 29l-64 391h-497l-220 -391l17 -29l125 -10v-78h-406v78l113 12zM807 1913q-64 0 -109 -44t-45 -108q0 -62 45.5 -106.5t108.5 -44.5q64 0 109 44t45 107q0 64 -44.5 108
t-109.5 44zM805 2007q103 0 174.5 -71.5t71.5 -174.5t-70.5 -173t-173.5 -70t-174.5 70.5t-71.5 172.5q0 103 71 174.5t173 71.5z" />
    <glyph glyph-name="Oneroman" unicode="&#x2160;" horiz-adv-x="639" 
d="M182 1374h500v-78l-135 -10l-33 -31l-219 -1136l24 -29l134 -12v-78h-500v78l131 12l33 29l219 1136l-23 31l-131 10v78z" />
    <glyph glyph-name="Tworoman" unicode="&#x2161;" horiz-adv-x="1278" 
d="M182 1374h500v-78l-135 -10l-33 -31l-219 -1136l24 -29l134 -12v-78h-500v78l131 12l33 29l219 1136l-23 31l-131 10v78zM821 1374h500v-78l-135 -10l-33 -31l-219 -1136l24 -29l134 -12v-78h-500v78l131 12l33 29l219 1136l-23 31l-131 10v78z" />
    <glyph glyph-name="Threeroman" unicode="&#x2162;" horiz-adv-x="1917" 
d="M182 1374h500v-78l-135 -10l-33 -31l-219 -1136l24 -29l134 -12v-78h-500v78l131 12l33 29l219 1136l-23 31l-131 10v78zM821 1374h500v-78l-135 -10l-33 -31l-219 -1136l24 -29l134 -12v-78h-500v78l131 12l33 29l219 1136l-23 31l-131 10v78zM1460 1374h500v-78
l-135 -10l-33 -31l-219 -1136l24 -29l134 -12v-78h-500v78l131 12l33 29l219 1136l-23 31l-131 10v78z" />
    <glyph glyph-name="Fourroman" unicode="&#x2163;" horiz-adv-x="1847" 
d="M182 1374h500v-78l-135 -10l-33 -31l-219 -1136l24 -29l134 -12v-78h-500v78l131 12l33 29l219 1136l-23 31l-131 10v78zM702 1374h429v-78l-115 -10l-15 -31l162 -1067l555 1067l-16 31l-119 10v78h385v-78l-108 -12l-703 -1294h-127l-198 1259l-33 37l-97 10v78z" />
    <glyph glyph-name="Fiveroman" unicode="&#x2164;" horiz-adv-x="1208" 
d="M63 1374h429v-78l-115 -10l-15 -31l162 -1067l555 1067l-16 31l-119 10v78h385v-78l-108 -12l-703 -1294h-127l-198 1259l-33 37l-97 10v78z" />
    <glyph glyph-name="Sixroman" unicode="&#x2165;" horiz-adv-x="1847" 
d="M63 1374h429v-78l-115 -10l-15 -31l162 -1067l555 1067l-16 31l-119 10v78h385v-78l-108 -12l-703 -1294h-127l-198 1259l-33 37l-97 10v78zM1390 1374h500v-78l-135 -10l-33 -31l-219 -1136l24 -29l134 -12v-78h-500v78l131 12l33 29l219 1136l-23 31l-131 10v78z" />
    <glyph glyph-name="Sevenroman" unicode="&#x2166;" horiz-adv-x="2486" 
d="M63 1374h429v-78l-115 -10l-15 -31l162 -1067l555 1067l-16 31l-119 10v78h385v-78l-108 -12l-703 -1294h-127l-198 1259l-33 37l-97 10v78zM1390 1374h500v-78l-135 -10l-33 -31l-219 -1136l24 -29l134 -12v-78h-500v78l131 12l33 29l219 1136l-23 31l-131 10v78z
M2029 1374h500v-78l-135 -10l-33 -31l-219 -1136l24 -29l134 -12v-78h-500v78l131 12l33 29l219 1136l-23 31l-131 10v78z" />
    <glyph glyph-name="Eightroman" unicode="&#x2167;" horiz-adv-x="3125" 
d="M63 1374h429v-78l-115 -10l-15 -31l162 -1067l555 1067l-16 31l-119 10v78h385v-78l-108 -12l-703 -1294h-127l-198 1259l-33 37l-97 10v78zM1390 1374h500v-78l-135 -10l-33 -31l-219 -1136l24 -29l134 -12v-78h-500v78l131 12l33 29l219 1136l-23 31l-131 10v78z
M2029 1374h500v-78l-135 -10l-33 -31l-219 -1136l24 -29l134 -12v-78h-500v78l131 12l33 29l219 1136l-23 31l-131 10v78zM2668 1374h500v-78l-135 -10l-33 -31l-219 -1136l24 -29l134 -12v-78h-500v78l131 12l33 29l219 1136l-23 31l-131 10v78z" />
    <glyph glyph-name="Nineroman" unicode="&#x2168;" horiz-adv-x="1804" 
d="M182 1374h500v-78l-135 -10l-33 -31l-219 -1136l24 -29l134 -12v-78h-500v78l131 12l33 29l219 1136l-23 31l-131 10v78zM750 1374h497v-78l-135 -10l-31 -31l183 -424l372 424l-12 31l-117 10v78h426v-78l-143 -10l-479 -549l270 -618l21 -29l131 -12v-78h-496v78
l133 12l33 29l-201 471l-422 -471l21 -29l133 -12v-78h-465v78l133 12l35 29l510 577l-246 559l-20 31l-131 10v78z" />
    <glyph glyph-name="Tenroman" unicode="&#x2169;" horiz-adv-x="1165" 
d="M111 1374h497v-78l-135 -10l-31 -31l183 -424l372 424l-12 31l-117 10v78h426v-78l-143 -10l-479 -549l270 -618l21 -29l131 -12v-78h-496v78l133 12l33 29l-201 471l-422 -471l21 -29l133 -12v-78h-465v78l133 12l35 29l510 577l-246 559l-20 31l-131 10v78z" />
    <glyph glyph-name="Elevenroman" unicode="&#x216a;" horiz-adv-x="1804" 
d="M111 1374h497v-78l-135 -10l-31 -31l183 -424l372 424l-12 31l-117 10v78h426v-78l-143 -10l-479 -549l270 -618l21 -29l131 -12v-78h-496v78l133 12l33 29l-201 471l-422 -471l21 -29l133 -12v-78h-465v78l133 12l35 29l510 577l-246 559l-20 31l-131 10v78zM1347 1374
h500v-78l-135 -10l-33 -31l-219 -1136l24 -29l134 -12v-78h-500v78l131 12l33 29l219 1136l-23 31l-131 10v78z" />
    <glyph glyph-name="Twelveroman" unicode="&#x216b;" horiz-adv-x="2443" 
d="M111 1374h497v-78l-135 -10l-31 -31l183 -424l372 424l-12 31l-117 10v78h426v-78l-143 -10l-479 -549l270 -618l21 -29l131 -12v-78h-496v78l133 12l33 29l-201 471l-422 -471l21 -29l133 -12v-78h-465v78l133 12l35 29l510 577l-246 559l-20 31l-131 10v78zM1347 1374
h500v-78l-135 -10l-33 -31l-219 -1136l24 -29l134 -12v-78h-500v78l131 12l33 29l219 1136l-23 31l-131 10v78zM1986 1374h500v-78l-135 -10l-33 -31l-219 -1136l24 -29l134 -12v-78h-500v78l131 12l33 29l219 1136l-23 31l-131 10v78z" />
    <glyph glyph-name="uni216C" unicode="&#x216c;" horiz-adv-x="1020" 
d="M172 1374h498v-78l-133 -10l-33 -31l-225 -1161h434l37 33l79 246h99l-72 -373h-913v78l131 10l32 31l220 1136l-21 31l-133 10v78z" />
    <glyph glyph-name="uni216D" unicode="&#x216d;" horiz-adv-x="1237" 
d="M1274 1329l-57 -315h-87v196l-16 39q-51 27 -104.5 40.5t-112.5 13.5q-101 0 -194 -36t-168 -104q-122 -109 -189 -278t-67 -367q0 -212 111.5 -329t314.5 -117q41 0 85.5 7t90.5 21l39 35l90 236h88l-56 -324q-106 -35 -209 -53.5t-198 -18.5q-253 0 -402 154t-149 414
q0 199 83 377t234 303q107 86 234.5 131t267.5 45q87 0 179.5 -17.5t191.5 -52.5z" />
    <glyph glyph-name="uni216E" unicode="&#x216e;" horiz-adv-x="1374" 
d="M510 1280l-223 -1184h112q166 0 293.5 55t208.5 160q82 107 129 257.5t47 303.5q0 207 -112.5 307.5t-343.5 100.5h-111zM172 1374h465q312 0 475.5 -133.5t163.5 -388.5q0 -179 -66 -341.5t-188 -283.5q-119 -117 -275.5 -172t-371.5 -55h-432v78l131 12l32 29l220 1136
l-21 31l-133 10v78z" />
    <glyph glyph-name="uni216F" unicode="&#x216f;" horiz-adv-x="1718" 
d="M172 1374h418v-55l186 -1043l574 1035v63h426v-78l-129 -10l-33 -31l-217 -1136l20 -29l131 -12v-78h-485v78l147 12l21 29l219 1149l-707 -1268h-90l-221 1262l-213 -1143l31 -29l121 -12v-78h-426v78l129 12l32 29l218 1136l-23 31l-129 10v78z" />
    <glyph glyph-name="oneroman" unicode="&#x2170;" horiz-adv-x="588" 
d="M371 987h53l-147 -765q-4 -19 -5.5 -31.5t-1.5 -20.5q0 -39 25 -59.5t74 -20.5q28 0 65.5 7.5t85.5 23.5v-64q-85 -35 -157.5 -53t-131.5 -18q-65 0 -98 33.5t-33 101.5q0 19 3.5 46t9.5 60l120 611l-165 30v54zM412 1442q44 0 77 -33t33 -78t-32.5 -77.5t-77.5 -32.5
q-47 0 -79 31.5t-32 78.5q0 46 32.5 78.5t78.5 32.5z" />
    <glyph glyph-name="tworoman" unicode="&#x2171;" horiz-adv-x="1176" 
d="M371 987h53l-147 -765q-4 -19 -5.5 -31.5t-1.5 -20.5q0 -39 25 -59.5t74 -20.5q28 0 65.5 7.5t85.5 23.5v-64q-85 -35 -157.5 -53t-131.5 -18q-65 0 -98 33.5t-33 101.5q0 19 3.5 46t9.5 60l120 611l-165 30v54zM412 1442q44 0 77 -33t33 -78t-32.5 -77.5t-77.5 -32.5
q-47 0 -79 31.5t-32 78.5q0 46 32.5 78.5t78.5 32.5zM959 987h53l-147 -765q-4 -19 -5.5 -31.5t-1.5 -20.5q0 -39 25 -59.5t74 -20.5q28 0 65.5 7.5t85.5 23.5v-64q-85 -35 -157.5 -53t-131.5 -18q-65 0 -98 33.5t-33 101.5q0 19 3.5 46t9.5 60l120 611l-165 30v54z
M1000 1442q44 0 77 -33t33 -78t-32.5 -77.5t-77.5 -32.5q-47 0 -79 31.5t-32 78.5q0 46 32.5 78.5t78.5 32.5z" />
    <glyph glyph-name="threeroman" unicode="&#x2172;" horiz-adv-x="1764" 
d="M371 987h53l-147 -765q-4 -19 -5.5 -31.5t-1.5 -20.5q0 -39 25 -59.5t74 -20.5q28 0 65.5 7.5t85.5 23.5v-64q-85 -35 -157.5 -53t-131.5 -18q-65 0 -98 33.5t-33 101.5q0 19 3.5 46t9.5 60l120 611l-165 30v54zM412 1442q44 0 77 -33t33 -78t-32.5 -77.5t-77.5 -32.5
q-47 0 -79 31.5t-32 78.5q0 46 32.5 78.5t78.5 32.5zM959 987h53l-147 -765q-4 -19 -5.5 -31.5t-1.5 -20.5q0 -39 25 -59.5t74 -20.5q28 0 65.5 7.5t85.5 23.5v-64q-85 -35 -157.5 -53t-131.5 -18q-65 0 -98 33.5t-33 101.5q0 19 3.5 46t9.5 60l120 611l-165 30v54z
M1000 1442q44 0 77 -33t33 -78t-32.5 -77.5t-77.5 -32.5q-47 0 -79 31.5t-32 78.5q0 46 32.5 78.5t78.5 32.5zM1547 987h53l-147 -765q-4 -19 -5.5 -31.5t-1.5 -20.5q0 -39 25 -59.5t74 -20.5q28 0 65.5 7.5t85.5 23.5v-64q-85 -35 -157.5 -53t-131.5 -18q-65 0 -98 33.5
t-33 101.5q0 19 3.5 46t9.5 60l120 611l-165 30v54zM1588 1442q44 0 77 -33t33 -78t-32.5 -77.5t-77.5 -32.5q-47 0 -79 31.5t-32 78.5q0 46 32.5 78.5t78.5 32.5z" />
    <glyph glyph-name="fourroman" unicode="&#x2173;" horiz-adv-x="1518" 
d="M371 987h53l-147 -765q-4 -19 -5.5 -31.5t-1.5 -20.5q0 -39 25 -59.5t74 -20.5q28 0 65.5 7.5t85.5 23.5v-64q-85 -35 -157.5 -53t-131.5 -18q-65 0 -98 33.5t-33 101.5q0 19 3.5 46t9.5 60l120 611l-165 30v54zM412 1442q44 0 77 -33t33 -78t-32.5 -77.5t-77.5 -32.5
q-47 0 -79 31.5t-32 78.5q0 46 32.5 78.5t78.5 32.5zM778 991h5q75 0 108 -45t47 -190l53 -561q120 153 197.5 277.5t116.5 227.5l-39 250q25 21 51 31t51 10q52 0 80.5 -30.5t28.5 -86.5q0 -113 -146.5 -342t-414.5 -532h-99q15 27 22 60.5t7 72.5q0 14 -1 29l-3 45
l-51 479q-9 77 -23.5 118t-38.5 56l-157 12v52z" />
    <glyph glyph-name="fiveroman" unicode="&#x2174;" horiz-adv-x="930" 
d="M190 991h5q75 0 108 -45t47 -190l53 -561q120 153 197.5 277.5t116.5 227.5l-39 250q25 21 51 31t51 10q52 0 80.5 -30.5t28.5 -86.5q0 -113 -146.5 -342t-414.5 -532h-99q15 27 22 60.5t7 72.5q0 14 -1 29l-3 45l-51 479q-9 77 -23.5 118t-38.5 56l-157 12v52z" />
    <glyph glyph-name="sixroman" unicode="&#x2175;" horiz-adv-x="1518" 
d="M190 991h5q75 0 108 -45t47 -190l53 -561q120 153 197.5 277.5t116.5 227.5l-39 250q25 21 51 31t51 10q52 0 80.5 -30.5t28.5 -86.5q0 -113 -146.5 -342t-414.5 -532h-99q15 27 22 60.5t7 72.5q0 14 -1 29l-3 45l-51 479q-9 77 -23.5 118t-38.5 56l-157 12v52zM1301 987
h53l-147 -765q-4 -19 -5.5 -31.5t-1.5 -20.5q0 -39 25 -59.5t74 -20.5q28 0 65.5 7.5t85.5 23.5v-64q-85 -35 -157.5 -53t-131.5 -18q-65 0 -98 33.5t-33 101.5q0 19 3.5 46t9.5 60l120 611l-165 30v54zM1342 1442q44 0 77 -33t33 -78t-32.5 -77.5t-77.5 -32.5
q-47 0 -79 31.5t-32 78.5q0 46 32.5 78.5t78.5 32.5z" />
    <glyph glyph-name="sevenroman" unicode="&#x2176;" horiz-adv-x="2106" 
d="M190 991h5q75 0 108 -45t47 -190l53 -561q120 153 197.5 277.5t116.5 227.5l-39 250q25 21 51 31t51 10q52 0 80.5 -30.5t28.5 -86.5q0 -113 -146.5 -342t-414.5 -532h-99q15 27 22 60.5t7 72.5q0 14 -1 29l-3 45l-51 479q-9 77 -23.5 118t-38.5 56l-157 12v52zM1301 987
h53l-147 -765q-4 -19 -5.5 -31.5t-1.5 -20.5q0 -39 25 -59.5t74 -20.5q28 0 65.5 7.5t85.5 23.5v-64q-85 -35 -157.5 -53t-131.5 -18q-65 0 -98 33.5t-33 101.5q0 19 3.5 46t9.5 60l120 611l-165 30v54zM1342 1442q44 0 77 -33t33 -78t-32.5 -77.5t-77.5 -32.5
q-47 0 -79 31.5t-32 78.5q0 46 32.5 78.5t78.5 32.5zM1889 987h53l-147 -765q-4 -19 -5.5 -31.5t-1.5 -20.5q0 -39 25 -59.5t74 -20.5q28 0 65.5 7.5t85.5 23.5v-64q-85 -35 -157.5 -53t-131.5 -18q-65 0 -98 33.5t-33 101.5q0 19 3.5 46t9.5 60l120 611l-165 30v54z
M1930 1442q44 0 77 -33t33 -78t-32.5 -77.5t-77.5 -32.5q-47 0 -79 31.5t-32 78.5q0 46 32.5 78.5t78.5 32.5z" />
    <glyph glyph-name="eightroman" unicode="&#x2177;" horiz-adv-x="2694" 
d="M190 991h5q75 0 108 -45t47 -190l53 -561q120 153 197.5 277.5t116.5 227.5l-39 250q25 21 51 31t51 10q52 0 80.5 -30.5t28.5 -86.5q0 -113 -146.5 -342t-414.5 -532h-99q15 27 22 60.5t7 72.5q0 14 -1 29l-3 45l-51 479q-9 77 -23.5 118t-38.5 56l-157 12v52zM1301 987
h53l-147 -765q-4 -19 -5.5 -31.5t-1.5 -20.5q0 -39 25 -59.5t74 -20.5q28 0 65.5 7.5t85.5 23.5v-64q-85 -35 -157.5 -53t-131.5 -18q-65 0 -98 33.5t-33 101.5q0 19 3.5 46t9.5 60l120 611l-165 30v54zM1342 1442q44 0 77 -33t33 -78t-32.5 -77.5t-77.5 -32.5
q-47 0 -79 31.5t-32 78.5q0 46 32.5 78.5t78.5 32.5zM1889 987h53l-147 -765q-4 -19 -5.5 -31.5t-1.5 -20.5q0 -39 25 -59.5t74 -20.5q28 0 65.5 7.5t85.5 23.5v-64q-85 -35 -157.5 -53t-131.5 -18q-65 0 -98 33.5t-33 101.5q0 19 3.5 46t9.5 60l120 611l-165 30v54z
M1930 1442q44 0 77 -33t33 -78t-32.5 -77.5t-77.5 -32.5q-47 0 -79 31.5t-32 78.5q0 46 32.5 78.5t78.5 32.5zM2477 987h53l-147 -765q-4 -19 -5.5 -31.5t-1.5 -20.5q0 -39 25 -59.5t74 -20.5q28 0 65.5 7.5t85.5 23.5v-64q-85 -35 -157.5 -53t-131.5 -18q-65 0 -98 33.5
t-33 101.5q0 19 3.5 46t9.5 60l120 611l-165 30v54zM2518 1442q44 0 77 -33t33 -78t-32.5 -77.5t-77.5 -32.5q-47 0 -79 31.5t-32 78.5q0 46 32.5 78.5t78.5 32.5z" />
    <glyph glyph-name="nineroman" unicode="&#x2178;" horiz-adv-x="1565" 
d="M371 987h53l-147 -765q-4 -19 -5.5 -31.5t-1.5 -20.5q0 -39 25 -59.5t74 -20.5q28 0 65.5 7.5t85.5 23.5v-64q-85 -35 -157.5 -53t-131.5 -18q-65 0 -98 33.5t-33 101.5q0 19 3.5 46t9.5 60l120 611l-165 30v54zM412 1442q44 0 77 -33t33 -78t-32.5 -77.5t-77.5 -32.5
q-47 0 -79 31.5t-32 78.5q0 46 32.5 78.5t78.5 32.5zM852 993q4 0 11.5 1t11.5 1q111 0 201 -353q10 -39 16 -60q103 208 199.5 309.5t191.5 101.5q49 0 83 -33.5t34 -80.5q0 -37 -25.5 -66t-75.5 -49l-88 80q-70 -19 -138 -105.5t-136 -245.5l15 -51q101 -354 216 -354
q16 0 42.5 5.5t66.5 17.5v-64q-73 -29 -131 -44t-99 -15q-141 0 -235 403l-2 8q-102 -214 -197 -314.5t-194 -100.5q-58 0 -92.5 30t-34.5 80q0 41 26 68t74 37l94 -88q76 40 151.5 141t133.5 242q-44 153 -80.5 237t-75.5 119l-170 22v50z" />
    <glyph glyph-name="tenroman" unicode="&#x2179;" horiz-adv-x="977" 
d="M264 993q4 0 11.5 1t11.5 1q111 0 201 -353q10 -39 16 -60q103 208 199.5 309.5t191.5 101.5q49 0 83 -33.5t34 -80.5q0 -37 -25.5 -66t-75.5 -49l-88 80q-70 -19 -138 -105.5t-136 -245.5l15 -51q101 -354 216 -354q16 0 42.5 5.5t66.5 17.5v-64q-73 -29 -131 -44
t-99 -15q-141 0 -235 403l-2 8q-102 -214 -197 -314.5t-194 -100.5q-58 0 -92.5 30t-34.5 80q0 41 26 68t74 37l94 -88q76 40 151.5 141t133.5 242q-44 153 -80.5 237t-75.5 119l-170 22v50z" />
    <glyph glyph-name="elevenroman" unicode="&#x217a;" horiz-adv-x="1565" 
d="M264 993q4 0 11.5 1t11.5 1q111 0 201 -353q10 -39 16 -60q103 208 199.5 309.5t191.5 101.5q49 0 83 -33.5t34 -80.5q0 -37 -25.5 -66t-75.5 -49l-88 80q-70 -19 -138 -105.5t-136 -245.5l15 -51q101 -354 216 -354q16 0 42.5 5.5t66.5 17.5v-64q-73 -29 -131 -44
t-99 -15q-141 0 -235 403l-2 8q-102 -214 -197 -314.5t-194 -100.5q-58 0 -92.5 30t-34.5 80q0 41 26 68t74 37l94 -88q76 40 151.5 141t133.5 242q-44 153 -80.5 237t-75.5 119l-170 22v50zM1348 987h53l-147 -765q-4 -19 -5.5 -31.5t-1.5 -20.5q0 -39 25 -59.5t74 -20.5
q28 0 65.5 7.5t85.5 23.5v-64q-85 -35 -157.5 -53t-131.5 -18q-65 0 -98 33.5t-33 101.5q0 19 3.5 46t9.5 60l120 611l-165 30v54zM1389 1442q44 0 77 -33t33 -78t-32.5 -77.5t-77.5 -32.5q-47 0 -79 31.5t-32 78.5q0 46 32.5 78.5t78.5 32.5z" />
    <glyph glyph-name="twelveroman" unicode="&#x217b;" horiz-adv-x="2153" 
d="M264 993q4 0 11.5 1t11.5 1q111 0 201 -353q10 -39 16 -60q103 208 199.5 309.5t191.5 101.5q49 0 83 -33.5t34 -80.5q0 -37 -25.5 -66t-75.5 -49l-88 80q-70 -19 -138 -105.5t-136 -245.5l15 -51q101 -354 216 -354q16 0 42.5 5.5t66.5 17.5v-64q-73 -29 -131 -44
t-99 -15q-141 0 -235 403l-2 8q-102 -214 -197 -314.5t-194 -100.5q-58 0 -92.5 30t-34.5 80q0 41 26 68t74 37l94 -88q76 40 151.5 141t133.5 242q-44 153 -80.5 237t-75.5 119l-170 22v50zM1348 987h53l-147 -765q-4 -19 -5.5 -31.5t-1.5 -20.5q0 -39 25 -59.5t74 -20.5
q28 0 65.5 7.5t85.5 23.5v-64q-85 -35 -157.5 -53t-131.5 -18q-65 0 -98 33.5t-33 101.5q0 19 3.5 46t9.5 60l120 611l-165 30v54zM1389 1442q44 0 77 -33t33 -78t-32.5 -77.5t-77.5 -32.5q-47 0 -79 31.5t-32 78.5q0 46 32.5 78.5t78.5 32.5zM1936 987h53l-147 -765
q-4 -19 -5.5 -31.5t-1.5 -20.5q0 -39 25 -59.5t74 -20.5q28 0 65.5 7.5t85.5 23.5v-64q-85 -35 -157.5 -53t-131.5 -18q-65 0 -98 33.5t-33 101.5q0 19 3.5 46t9.5 60l120 611l-165 30v54zM1977 1442q44 0 77 -33t33 -78t-32.5 -77.5t-77.5 -32.5q-47 0 -79 31.5t-32 78.5
q0 46 32.5 78.5t78.5 32.5z" />
    <glyph glyph-name="uni217C" unicode="&#x217c;" horiz-adv-x="563" 
d="M434 1507h55q-9 -49 -15.5 -85t-8.5 -48l-207 -1030q-11 -54 -16.5 -97.5t-5.5 -68.5q0 -47 28.5 -71.5t83.5 -24.5q24 0 59.5 8t86.5 25v-64q-81 -34 -151 -51.5t-122 -17.5q-75 0 -112 37.5t-37 113.5q0 22 9.5 82.5t27.5 153.5l196 1003l-182 21v53z" />
    <glyph glyph-name="uni217D" unicode="&#x217d;" horiz-adv-x="807" 
d="M628 738l-118 155h-10q-130 0 -218.5 -146t-88.5 -366q0 -132 54 -205.5t150 -73.5q73 0 156 44.5t164 125.5v-94q-92 -96 -190.5 -147t-192.5 -51q-138 0 -220.5 101t-82.5 271q0 135 43.5 254t126.5 209q77 85 173 131.5t193 46.5q82 0 136.5 -41.5t54.5 -101.5
q0 -49 -36 -80t-94 -32z" />
    <glyph glyph-name="uni217E" unicode="&#x217e;" horiz-adv-x="1071" 
d="M641 909q-7 1 -23.5 3.5t-25.5 2.5q-153 0 -268 -164t-115 -401q0 -118 47 -185t129 -67q60 0 128 45.5t134 128.5l92 521zM973 1507h53l-219 -1226q-6 -33 -9 -61.5t-3 -49.5q0 -44 22 -65t68 -21q18 0 50.5 5.5t82.5 16.5v-61q-80 -29 -144.5 -44t-107.5 -15
q-71 0 -104 35t-33 110q0 16 0.5 25t1.5 16q-74 -94 -155.5 -142t-164.5 -48q-125 0 -196.5 97t-71.5 269q0 104 25.5 198t74.5 173q81 127 205.5 201.5t255.5 74.5q44 0 84 -8.5t80 -25.5l72 409l-181 21v57z" />
    <glyph glyph-name="thousandroman" unicode="&#x217f;" horiz-adv-x="1669" 
d="M371 987h51l-37 -194q117 96 215 145t172 49q78 0 121 -48t45 -138q110 92 205 139t170 47q76 0 122 -47.5t46 -126.5q0 -34 -6.5 -77t-18.5 -95l-70 -318l-1 -5q-21 -96 -21 -128q0 -48 27.5 -75t76.5 -27q22 0 51 4.5t64 13.5v-55q-86 -32 -146 -47.5t-100 -15.5
q-76 0 -112.5 30t-36.5 93q0 17 4 45t12 65l88 379q9 37 14 71t5 60q0 65 -25.5 98t-75.5 33q-63 0 -137.5 -44t-140.5 -122l-133 -696h-170l123 601q9 49 13.5 84t4.5 56q0 58 -29.5 89.5t-83.5 31.5q-46 0 -125.5 -45t-164.5 -123l-129 -694h-172l170 836l-168 32v54z" />
    <glyph glyph-name="Dcroat" unicode="&#x110;" horiz-adv-x="1374" 
d="M510 1280l-96 -508h307l-19 -94h-309l-106 -582h112q166 0 295 55t209 160q81 106 127.5 256t46.5 305q0 208 -112 308t-342 100h-113zM174 1374h465q312 0 474.5 -133t162.5 -389q0 -180 -65.5 -342.5t-186.5 -282.5q-118 -116 -275.5 -171.5t-373.5 -55.5h-432v78
l131 12l32 29l109 559h-176l10 94h184l93 483l-21 31l-131 10v78z" />
    <glyph glyph-name="Ibreve" unicode="&#x12c;" horiz-adv-x="639" 
d="M182 1374h500v-78l-135 -10l-33 -31l-219 -1136l24 -29l134 -12v-78h-500v78l131 12l33 29l219 1136l-23 31l-131 10v78zM213 1767h81q-1 -7 -1 -13.5v-19.5q0 -68 40.5 -98.5t131.5 -30.5q120 0 173 35.5t74 126.5h80q-29 -152 -111 -221.5t-231 -69.5q-124 0 -184 52
t-60 161q1 19 2 37t5 41z" />
    <glyph glyph-name="ibreve" unicode="&#x12d;" horiz-adv-x="588" 
d="M371 987h53l-147 -765q-4 -19 -5.5 -31.5t-1.5 -20.5q0 -39 25 -59.5t74 -20.5q28 0 65.5 7.5t85.5 23.5v-64q-85 -35 -157.5 -53t-131.5 -18q-65 0 -98 33.5t-33 101.5q0 19 3.5 46t9.5 60l120 611l-165 30v54zM154 1380h81q-1 -7 -1 -13.5v-19.5q0 -68 40.5 -98.5
t131.5 -30.5q120 0 173 35.5t74 126.5h80q-29 -152 -111 -221.5t-231 -69.5q-124 0 -184 52t-60 161q1 19 2 37t5 41z" />
    <glyph glyph-name="IJ" unicode="&#x132;" horiz-adv-x="1554" 
d="M182 1374h500v-78l-135 -10l-33 -31l-219 -1136l24 -29l134 -12v-78h-500v78l131 12l33 29l219 1136l-23 31l-131 10v78zM1106 1374h498v-78l-134 -10l-32 -31l-137 -731q-59 -310 -169 -429.5t-327 -119.5q-74 0 -137 12.5t-115 37.5l68 344h102v-260l25 -27
q18 -4 36.5 -6t34.5 -2q119 0 181.5 84.5t115.5 357.5l144 739l-23 31l-131 10v78z" />
    <glyph glyph-name="ij" unicode="&#x133;" horiz-adv-x="1139" 
d="M371 987h53l-147 -765q-4 -19 -5.5 -31.5t-1.5 -20.5q0 -39 25 -59.5t74 -20.5q28 0 65.5 7.5t85.5 23.5v-64q-85 -35 -157.5 -53t-131.5 -18q-65 0 -98 33.5t-33 101.5q0 19 3.5 46t9.5 60l120 611l-165 30v54zM412 1442q44 0 77 -33t33 -78t-32.5 -77.5t-77.5 -32.5
q-47 0 -79 31.5t-32 78.5q0 46 32.5 78.5t78.5 32.5zM950 987h74l-114 -729q-31 -197 -65.5 -294.5t-90.5 -176.5q-78 -111 -161 -170t-159 -59q-49 0 -78.5 29.5t-29.5 78.5q0 24 11.5 45t33.5 37l211 -55q101 109 170 549l2 10l92 604l-207 25v47zM987 1436q45 0 78 -32.5
t33 -78.5q0 -45 -33 -78t-78 -33q-46 0 -78 32.5t-32 78.5t32 78.5t78 32.5z" />
    <glyph glyph-name="Jcircumflex" unicode="&#x134;" horiz-adv-x="915" 
d="M467 1374h498v-78l-134 -10l-32 -31l-137 -731q-59 -310 -169 -429.5t-327 -119.5q-74 0 -137 12.5t-115 37.5l68 344h102v-260l25 -27q18 -4 36.5 -6t34.5 -2q119 0 181.5 84.5t115.5 357.5l144 739l-23 31l-131 10v78zM639 1865h133l152 -389h-113l-125 289l-233 -289
h-113z" />
    <glyph glyph-name="napostrophe" unicode="&#x149;" horiz-adv-x="1551" 
d="M193 905h-89q117 106 173.5 193t56.5 162v8h-131q-8 13 -11.5 26t-3.5 27q0 56 43 97.5t103 41.5t95.5 -36.5t35.5 -98.5q0 -98 -69.5 -205t-202.5 -215zM783 987h51l-37 -196q128 101 224 148.5t173 47.5q80 0 126 -44t46 -120q0 -28 -5.5 -65t-22.5 -117l-70 -317
q-1 -7 -4 -20q-18 -88 -18 -116q0 -48 27.5 -74t78.5 -26q21 0 48.5 4.5t63.5 13.5l1 -57q-80 -31 -141.5 -46t-104.5 -15q-75 0 -112.5 30.5t-37.5 92.5q0 19 4.5 47t12.5 63l88 379q9 38 13.5 71.5t4.5 59.5q0 68 -26 98.5t-84 30.5q-57 0 -136.5 -44t-166.5 -124
l-127 -692h-174l170 838l-168 30v52z" />
    <glyph glyph-name="clickretroflex" unicode="&#x1c3;" horiz-adv-x="692" 
d="M246 215q49 0 84 -34.5t35 -82.5q0 -49 -35 -82.5t-84 -33.5q-47 0 -81 34t-34 82t34 82.5t81 34.5zM539 1133l-207 -783h-101l93 783q18 157 53 211.5t106 54.5q43 0 66.5 -24.5t23.5 -67.5q0 -23 -8.5 -66t-25.5 -108z" />
    <glyph glyph-name="DZcaron" unicode="&#x1c4;" horiz-adv-x="2513" 
d="M510 1280l-223 -1184h112q166 0 293.5 55t208.5 160q82 107 129 257.5t47 303.5q0 207 -112.5 307.5t-343.5 100.5h-111zM172 1374h465q312 0 475.5 -133.5t163.5 -388.5q0 -179 -66 -341.5t-188 -283.5q-119 -117 -275.5 -172t-371.5 -55h-432v78l131 12l32 29l220 1136
l-21 31l-133 10v78zM1636 1374h909l-18 -86l-969 -1188h586l29 27l82 244h100l-70 -371h-962l14 84l967 1192h-508l-45 -27l-70 -192h-106zM1832 1865h115l122 -288l236 288h111l-299 -389h-134z" />
    <glyph glyph-name="Dzcaron" unicode="&#x1c5;" horiz-adv-x="2316" 
d="M510 1280l-223 -1184h112q166 0 293.5 55t208.5 160q82 107 129 257.5t47 303.5q0 207 -112.5 307.5t-343.5 100.5h-111zM172 1374h465q312 0 475.5 -133.5t163.5 -388.5q0 -179 -66 -341.5t-188 -283.5q-119 -117 -275.5 -172t-371.5 -55h-432v78l131 12l32 29l220 1136
l-21 31l-133 10v78zM2138 1004l125 -66l-707 -788l199 51q75 -34 127.5 -51t81.5 -17q39 0 70.5 18.5t56.5 55.5l-113 125q21 36 46.5 55t51.5 19q44 0 72.5 -34.5t28.5 -88.5q0 -109 -87.5 -198t-197.5 -89q-61 0 -166.5 44t-152.5 44q-17 0 -32.5 -4.5t-33.5 -13.5
l-49 -89l-113 62l705 790l-203 -45q-57 30 -102.5 45t-77.5 15q-40 0 -73 -17t-56 -49l108 -131q-19 -33 -42.5 -49t-53.5 -16q-44 0 -70 32.5t-26 87.5q0 109 85.5 198t190.5 89q62 0 168 -55v0q58 -29 86.5 -38t53.5 -9q12 0 27.5 4t33.5 12zM1669 1495h115l122 -288
l236 288h111l-299 -389h-134z" />
    <glyph glyph-name="dzcaron" unicode="&#x1c6;" horiz-adv-x="2013" 
d="M641 909q-7 1 -23.5 3.5t-25.5 2.5q-153 0 -268 -164t-115 -401q0 -118 47 -185t129 -67q60 0 128 45.5t134 128.5l92 521zM973 1507h53l-219 -1226q-6 -33 -9 -61.5t-3 -49.5q0 -44 22 -65t68 -21q18 0 50.5 5.5t82.5 16.5v-61q-80 -29 -144.5 -44t-107.5 -15
q-71 0 -104 35t-33 110q0 16 0.5 25t1.5 16q-74 -94 -155.5 -142t-164.5 -48q-125 0 -196.5 97t-71.5 269q0 104 25.5 198t74.5 173q81 127 205.5 201.5t255.5 74.5q44 0 84 -8.5t80 -25.5l72 409l-181 21v57zM1835 1004l125 -66l-707 -788l199 51q75 -34 127.5 -51
t81.5 -17q39 0 70.5 18.5t56.5 55.5l-113 125q21 36 46.5 55t51.5 19q44 0 72.5 -34.5t28.5 -88.5q0 -109 -87.5 -198t-197.5 -89q-61 0 -166.5 44t-152.5 44q-17 0 -32.5 -4.5t-33.5 -13.5l-49 -89l-113 62l705 790l-203 -45q-57 30 -102.5 45t-77.5 15q-40 0 -73 -17
t-56 -49l108 -131q-19 -33 -42.5 -49t-53.5 -16q-44 0 -70 32.5t-26 87.5q0 109 85.5 198t190.5 89q62 0 168 -55v0q58 -29 86.5 -38t53.5 -9q12 0 27.5 4t33.5 12zM1366 1495h115l122 -288l236 288h111l-299 -389h-134z" />
    <glyph glyph-name="LJ" unicode="&#x1c7;" horiz-adv-x="1935" 
d="M172 1374h498v-78l-133 -10l-33 -31l-225 -1161h434l37 33l79 246h99l-72 -373h-913v78l131 10l32 31l220 1136l-21 31l-133 10v78zM1487 1374h498v-78l-134 -10l-32 -31l-137 -731q-59 -310 -169 -429.5t-327 -119.5q-74 0 -137 12.5t-115 37.5l68 344h102v-260l25 -27
q18 -4 36.5 -6t34.5 -2q119 0 181.5 84.5t115.5 357.5l144 739l-23 31l-131 10v78z" />
    <glyph glyph-name="Lj" unicode="&#x1c8;" horiz-adv-x="1571" 
d="M172 1374h498v-78l-133 -10l-33 -31l-225 -1161h434l37 33l79 246h99l-72 -373h-913v78l131 10l32 31l220 1136l-21 31l-133 10v78zM1382 987h74l-114 -729q-31 -197 -65.5 -294.5t-90.5 -176.5q-78 -111 -161 -170t-159 -59q-49 0 -78.5 29.5t-29.5 78.5q0 24 11.5 45
t33.5 37l211 -55q101 109 170 549l2 10l92 604l-207 25v47zM1419 1436q45 0 78 -32.5t33 -78.5q0 -45 -33 -78t-78 -33q-46 0 -78 32.5t-32 78.5t32 78.5t78 32.5z" />
    <glyph glyph-name="lj" unicode="&#x1c9;" horiz-adv-x="1114" 
d="M434 1507h55q-9 -49 -15.5 -85t-8.5 -48l-207 -1030q-11 -54 -16.5 -97.5t-5.5 -68.5q0 -47 28.5 -71.5t83.5 -24.5q24 0 59.5 8t86.5 25v-64q-81 -34 -151 -51.5t-122 -17.5q-75 0 -112 37.5t-37 113.5q0 22 9.5 82.5t27.5 153.5l196 1003l-182 21v53zM925 987h74
l-114 -729q-31 -197 -65.5 -294.5t-90.5 -176.5q-78 -111 -161 -170t-159 -59q-49 0 -78.5 29.5t-29.5 78.5q0 24 11.5 45t33.5 37l211 -55q101 109 170 549l2 10l92 604l-207 25v47zM962 1436q45 0 78 -32.5t33 -78.5q0 -45 -33 -78t-78 -33q-46 0 -78 32.5t-32 78.5
t32 78.5t78 32.5z" />
    <glyph glyph-name="NJ" unicode="&#x1ca;" horiz-adv-x="2314" 
d="M166 1374h352v-51l490 -1038l188 970l-20 31l-132 10v78h431v-78l-132 -10l-32 -31l-240 -1255h-119l-538 1139l-199 -1020l23 -29l131 -12v-78h-432v78l131 12l32 29l219 1136l-20 31l-133 10v78zM1866 1374h498v-78l-134 -10l-32 -31l-137 -731q-59 -310 -169 -429.5
t-327 -119.5q-74 0 -137 12.5t-115 37.5l68 344h102v-260l25 -27q18 -4 36.5 -6t34.5 -2q119 0 181.5 84.5t115.5 357.5l144 739l-23 31l-131 10v78z" />
    <glyph glyph-name="Nj" unicode="&#x1cb;" horiz-adv-x="1950" 
d="M166 1374h352v-51l490 -1038l188 970l-20 31l-132 10v78h431v-78l-132 -10l-32 -31l-240 -1255h-119l-538 1139l-199 -1020l23 -29l131 -12v-78h-432v78l131 12l32 29l219 1136l-20 31l-133 10v78zM1761 987h74l-114 -729q-31 -197 -65.5 -294.5t-90.5 -176.5
q-78 -111 -161 -170t-159 -59q-49 0 -78.5 29.5t-29.5 78.5q0 24 11.5 45t33.5 37l211 -55q101 109 170 549l2 10l92 604l-207 25v47zM1798 1436q45 0 78 -32.5t33 -78.5q0 -45 -33 -78t-78 -33q-46 0 -78 32.5t-32 78.5t32 78.5t78 32.5z" />
    <glyph glyph-name="nj" unicode="&#x1cc;" horiz-adv-x="1690" 
d="M371 987h51l-37 -196q128 101 224 148.5t173 47.5q80 0 126 -44t46 -120q0 -28 -5.5 -65t-22.5 -117l-70 -317q-1 -7 -4 -20q-18 -88 -18 -116q0 -48 27.5 -74t78.5 -26q21 0 48.5 4.5t63.5 13.5l1 -57q-80 -31 -141.5 -46t-104.5 -15q-75 0 -112.5 30.5t-37.5 92.5
q0 19 4.5 47t12.5 63l88 379q9 38 13.5 71.5t4.5 59.5q0 68 -26 98.5t-84 30.5q-57 0 -136.5 -44t-166.5 -124l-127 -692h-174l170 838l-168 30v52zM1501 987h74l-114 -729q-31 -197 -65.5 -294.5t-90.5 -176.5q-78 -111 -161 -170t-159 -59q-49 0 -78.5 29.5t-29.5 78.5
q0 24 11.5 45t33.5 37l211 -55q101 109 170 549l2 10l92 604l-207 25v47zM1538 1436q45 0 78 -32.5t33 -78.5q0 -45 -33 -78t-78 -33q-46 0 -78 32.5t-32 78.5t32 78.5t78 32.5z" />
    <glyph glyph-name="Acaron" unicode="&#x1cd;" horiz-adv-x="1241" 
d="M707 1186l-334 -590h428zM707 1386h135l219 -1261l35 -37l100 -10v-78h-448v78l120 10l15 29l-64 391h-497l-220 -391l17 -29l125 -10v-78h-406v78l113 12zM416 1877h115l122 -288l236 288h111l-299 -389h-134z" />
    <glyph glyph-name="acaron" unicode="&#x1ce;" horiz-adv-x="1075" 
d="M649 907h-28q-182 0 -299 -156.5t-117 -398.5q0 -123 44.5 -184.5t133.5 -61.5q58 0 118 34t124 102l106 540zM840 987h106q-16 -33 -35.5 -107.5t-42.5 -185.5l-73 -362q-10 -48 -15.5 -84.5t-5.5 -59.5q0 -48 26.5 -71t84.5 -23q12 0 32.5 3.5t81.5 17.5v-62
q-86 -36 -148.5 -53.5t-102.5 -17.5q-64 0 -94.5 38t-30.5 117v17q-83 -88 -158 -130t-148 -42q-131 0 -206.5 95t-75.5 263q0 101 26.5 196t79.5 183q79 130 201 199t272 69q45 0 92 -11.5t93 -33.5zM381 1478h115l122 -288l236 288h111l-299 -389h-134z" />
    <glyph glyph-name="Icaron" unicode="&#x1cf;" horiz-adv-x="639" 
d="M182 1374h500v-78l-135 -10l-33 -31l-219 -1136l24 -29l134 -12v-78h-500v78l131 12l33 29l219 1136l-23 31l-131 10v78zM216 1865h115l122 -288l236 288h111l-299 -389h-134z" />
    <glyph glyph-name="icaron" unicode="&#x1d0;" horiz-adv-x="588" 
d="M371 987h53l-147 -765q-4 -19 -5.5 -31.5t-1.5 -20.5q0 -39 25 -59.5t74 -20.5q28 0 65.5 7.5t85.5 23.5v-64q-85 -35 -157.5 -53t-131.5 -18q-65 0 -98 33.5t-33 101.5q0 19 3.5 46t9.5 60l120 611l-165 30v54zM157 1478h115l122 -288l236 288h111l-299 -389h-134z" />
    <glyph glyph-name="Ocaron" unicode="&#x1d1;" horiz-adv-x="1450" 
d="M1169 858q0 205 -95.5 325t-258.5 120q-106 0 -200.5 -59t-172.5 -173q-76 -112 -118.5 -258t-42.5 -295q0 -202 96.5 -323t257.5 -121q107 0 201 58.5t172 172.5q76 113 118.5 259t42.5 294zM829 1397q94 0 176 -24t146 -70q105 -78 162 -193t57 -250q0 -170 -48.5 -323
t-139.5 -273q-106 -138 -251.5 -213.5t-305.5 -75.5q-238 0 -389.5 155.5t-151.5 399.5q0 159 49 307t143 271q104 137 249.5 213t303.5 76zM630 1888h115l122 -288l236 288h111l-299 -389h-134z" />
    <glyph glyph-name="ocaron" unicode="&#x1d2;" horiz-adv-x="1028" 
d="M545 909q-137 0 -231.5 -155t-94.5 -385q0 -145 52.5 -224t146.5 -79q135 0 231 154.5t96 379.5q0 148 -52 228.5t-148 80.5zM571 989q161 0 255 -108t94 -293q0 -121 -43 -234.5t-123 -206.5q-72 -82 -163 -123.5t-198 -41.5q-159 0 -253.5 105.5t-94.5 283.5
q0 123 43.5 241.5t120.5 206.5q74 84 166.5 127t195.5 43zM346 1480h115l122 -288l236 288h111l-299 -389h-134z" />
    <glyph glyph-name="Ucaron" unicode="&#x1d3;" horiz-adv-x="1360" 
d="M150 1374h497v-78l-133 -10l-33 -31l-145 -745q-9 -46 -14 -86t-5 -68q0 -123 75 -188.5t216 -65.5q181 0 278.5 94t139.5 314l145 745l-24 31l-133 10v78h428v-78l-129 -10l-35 -31l-150 -763v-5q-50 -251 -151 -356q-73 -74 -183 -114t-243 -40q-204 0 -312 86
t-108 248q0 29 5.5 68.5t19.5 112.5l147 763l-22 31l-131 10v78zM687 1865h115l122 -288l236 288h111l-299 -389h-134z" />
    <glyph glyph-name="ucaron" unicode="&#x1d4;" horiz-adv-x="1133" 
d="M383 989l33 -28l-129 -596q-12 -57 -17.5 -93.5t-5.5 -58.5q0 -53 31.5 -83t87.5 -30q60 0 136 34t155 95l153 740h166l-145 -668q-1 -5 -4 -17q-17 -84 -17 -122q0 -34 30 -57t77 -23q19 0 47.5 5.5t67.5 16.5v-57q-90 -33 -154 -48t-109 -15q-63 0 -92.5 31.5
t-29.5 99.5q0 15 0.5 23.5t0.5 14.5q-101 -84 -193.5 -126.5t-176.5 -42.5q-93 0 -146 51t-53 141q0 24 4 54t13 69l118 539l-170 30v54zM418 1480h115l122 -288l236 288h111l-299 -389h-134z" />
    <glyph glyph-name="Udieresismacron" unicode="&#x1d5;" horiz-adv-x="1360" 
d="M150 1374h497v-78l-133 -10l-33 -31l-145 -745q-9 -46 -14 -86t-5 -68q0 -123 75 -188.5t216 -65.5q181 0 278.5 94t139.5 314l145 745l-24 31l-133 10v78h428v-78l-129 -10l-35 -31l-150 -763v-5q-50 -251 -151 -356q-73 -74 -183 -114t-243 -40q-204 0 -312 86
t-108 248q0 29 5.5 68.5t19.5 112.5l147 763l-22 31l-131 10v78zM1152 1685q44 0 74.5 -30.5t30.5 -73.5t-31 -74t-74 -31q-41 0 -72.5 31.5t-31.5 73.5q0 43 31 73.5t73 30.5zM769 1685q45 0 76 -30.5t31 -73.5t-31.5 -74t-75.5 -31q-41 0 -71.5 31.5t-30.5 73.5
q0 43 30 73.5t72 30.5zM713 1891h616l-18 -104h-617z" />
    <glyph glyph-name="udieresismacron" unicode="&#x1d6;" horiz-adv-x="1133" 
d="M383 989l33 -28l-129 -596q-12 -57 -17.5 -93.5t-5.5 -58.5q0 -53 31.5 -83t87.5 -30q60 0 136 34t155 95l153 740h166l-145 -668q-1 -5 -4 -17q-17 -84 -17 -122q0 -34 30 -57t77 -23q19 0 47.5 5.5t67.5 16.5v-57q-90 -33 -154 -48t-109 -15q-63 0 -92.5 31.5
t-29.5 99.5q0 15 0.5 23.5t0.5 14.5q-101 -84 -193.5 -126.5t-176.5 -42.5q-93 0 -146 51t-53 141q0 24 4 54t13 69l118 539l-170 30v54zM883 1300q44 0 74.5 -30.5t30.5 -73.5t-31 -74t-74 -31q-41 0 -72.5 31.5t-31.5 73.5q0 43 31 73.5t73 30.5zM500 1300q45 0 76 -30.5
t31 -73.5t-31.5 -74t-75.5 -31q-41 0 -71.5 31.5t-30.5 73.5q0 43 30 73.5t72 30.5zM444 1506h616l-18 -104h-617z" />
    <glyph glyph-name="Udieresisacute" unicode="&#x1d7;" horiz-adv-x="1360" 
d="M150 1374h497v-78l-133 -10l-33 -31l-145 -745q-9 -46 -14 -86t-5 -68q0 -123 75 -188.5t216 -65.5q181 0 278.5 94t139.5 314l145 745l-24 31l-133 10v78h428v-78l-129 -10l-35 -31l-150 -763v-5q-50 -251 -151 -356q-73 -74 -183 -114t-243 -40q-204 0 -312 86
t-108 248q0 29 5.5 68.5t19.5 112.5l147 763l-22 31l-131 10v78zM1152 1685q44 0 74.5 -30.5t30.5 -73.5t-31 -74t-74 -31q-41 0 -72.5 31.5t-31.5 73.5q0 43 31 73.5t73 30.5zM769 1685q45 0 76 -30.5t31 -73.5t-31.5 -74t-75.5 -31q-41 0 -71.5 31.5t-30.5 73.5
q0 43 30 73.5t72 30.5zM1075 2176h202l-375 -389h-100z" />
    <glyph glyph-name="udieresisacute" unicode="&#x1d8;" horiz-adv-x="1133" 
d="M383 989l33 -28l-129 -596q-12 -57 -17.5 -93.5t-5.5 -58.5q0 -53 31.5 -83t87.5 -30q60 0 136 34t155 95l153 740h166l-145 -668q-1 -5 -4 -17q-17 -84 -17 -122q0 -34 30 -57t77 -23q19 0 47.5 5.5t67.5 16.5v-57q-90 -33 -154 -48t-109 -15q-63 0 -92.5 31.5
t-29.5 99.5q0 15 0.5 23.5t0.5 14.5q-101 -84 -193.5 -126.5t-176.5 -42.5q-93 0 -146 51t-53 141q0 24 4 54t13 69l118 539l-170 30v54zM883 1300q44 0 74.5 -30.5t30.5 -73.5t-31 -74t-74 -31q-41 0 -72.5 31.5t-31.5 73.5q0 43 31 73.5t73 30.5zM500 1300q45 0 76 -30.5
t31 -73.5t-31.5 -74t-75.5 -31q-41 0 -71.5 31.5t-30.5 73.5q0 43 30 73.5t72 30.5zM806 1791h202l-375 -389h-100z" />
    <glyph glyph-name="Udieresiscaron" unicode="&#x1d9;" horiz-adv-x="1360" 
d="M150 1374h497v-78l-133 -10l-33 -31l-145 -745q-9 -46 -14 -86t-5 -68q0 -123 75 -188.5t216 -65.5q181 0 278.5 94t139.5 314l145 745l-24 31l-133 10v78h428v-78l-129 -10l-35 -31l-150 -763v-5q-50 -251 -151 -356q-73 -74 -183 -114t-243 -40q-204 0 -312 86
t-108 248q0 29 5.5 68.5t19.5 112.5l147 763l-22 31l-131 10v78zM1152 1685q44 0 74.5 -30.5t30.5 -73.5t-31 -74t-74 -31q-41 0 -72.5 31.5t-31.5 73.5q0 43 31 73.5t73 30.5zM769 1685q45 0 76 -30.5t31 -73.5t-31.5 -74t-75.5 -31q-41 0 -71.5 31.5t-30.5 73.5
q0 43 30 73.5t72 30.5zM748 2176h115l122 -288l236 288h111l-299 -389h-134z" />
    <glyph glyph-name="udieresiscaron" unicode="&#x1da;" horiz-adv-x="1133" 
d="M383 989l33 -28l-129 -596q-12 -57 -17.5 -93.5t-5.5 -58.5q0 -53 31.5 -83t87.5 -30q60 0 136 34t155 95l153 740h166l-145 -668q-1 -5 -4 -17q-17 -84 -17 -122q0 -34 30 -57t77 -23q19 0 47.5 5.5t67.5 16.5v-57q-90 -33 -154 -48t-109 -15q-63 0 -92.5 31.5
t-29.5 99.5q0 15 0.5 23.5t0.5 14.5q-101 -84 -193.5 -126.5t-176.5 -42.5q-93 0 -146 51t-53 141q0 24 4 54t13 69l118 539l-170 30v54zM883 1300q44 0 74.5 -30.5t30.5 -73.5t-31 -74t-74 -31q-41 0 -72.5 31.5t-31.5 73.5q0 43 31 73.5t73 30.5zM500 1300q45 0 76 -30.5
t31 -73.5t-31.5 -74t-75.5 -31q-41 0 -71.5 31.5t-30.5 73.5q0 43 30 73.5t72 30.5zM479 1791h115l122 -288l236 288h111l-299 -389h-134z" />
    <glyph glyph-name="Udieresisgrave" unicode="&#x1db;" horiz-adv-x="1360" 
d="M150 1374h497v-78l-133 -10l-33 -31l-145 -745q-9 -46 -14 -86t-5 -68q0 -123 75 -188.5t216 -65.5q181 0 278.5 94t139.5 314l145 745l-24 31l-133 10v78h428v-78l-129 -10l-35 -31l-150 -763v-5q-50 -251 -151 -356q-73 -74 -183 -114t-243 -40q-204 0 -312 86
t-108 248q0 29 5.5 68.5t19.5 112.5l147 763l-22 31l-131 10v78zM1152 1685q44 0 74.5 -30.5t30.5 -73.5t-31 -74t-74 -31q-41 0 -72.5 31.5t-31.5 73.5q0 43 31 73.5t73 30.5zM769 1685q45 0 76 -30.5t31 -73.5t-31.5 -74t-75.5 -31q-41 0 -71.5 31.5t-30.5 73.5
q0 43 30 73.5t72 30.5zM877 2176h202l123 -389h-102z" />
    <glyph glyph-name="udieresisgrave" unicode="&#x1dc;" horiz-adv-x="1133" 
d="M383 989l33 -28l-129 -596q-12 -57 -17.5 -93.5t-5.5 -58.5q0 -53 31.5 -83t87.5 -30q60 0 136 34t155 95l153 740h166l-145 -668q-1 -5 -4 -17q-17 -84 -17 -122q0 -34 30 -57t77 -23q19 0 47.5 5.5t67.5 16.5v-57q-90 -33 -154 -48t-109 -15q-63 0 -92.5 31.5
t-29.5 99.5q0 15 0.5 23.5t0.5 14.5q-101 -84 -193.5 -126.5t-176.5 -42.5q-93 0 -146 51t-53 141q0 24 4 54t13 69l118 539l-170 30v54zM883 1300q44 0 74.5 -30.5t30.5 -73.5t-31 -74t-74 -31q-41 0 -72.5 31.5t-31.5 73.5q0 43 31 73.5t73 30.5zM500 1300q45 0 76 -30.5
t31 -73.5t-31.5 -74t-75.5 -31q-41 0 -71.5 31.5t-30.5 73.5q0 43 30 73.5t72 30.5zM608 1791h202l123 -389h-102z" />
    <glyph glyph-name="Adieresismacron" unicode="&#x1de;" horiz-adv-x="1241" 
d="M707 1186l-334 -590h428zM707 1386h135l219 -1261l35 -37l100 -10v-78h-448v78l120 10l15 29l-64 391h-497l-220 -391l17 -29l125 -10v-78h-406v78l113 12zM881 1697q44 0 74.5 -30.5t30.5 -73.5t-31 -74t-74 -31q-41 0 -72.5 31.5t-31.5 73.5q0 43 31 73.5t73 30.5z
M498 1697q45 0 76 -30.5t31 -73.5t-31.5 -74t-75.5 -31q-41 0 -71.5 31.5t-30.5 73.5q0 43 30 73.5t72 30.5zM442 1903h616l-18 -104h-617z" />
    <glyph glyph-name="adieresismacron" unicode="&#x1df;" horiz-adv-x="1075" 
d="M649 907h-28q-182 0 -299 -156.5t-117 -398.5q0 -123 44.5 -184.5t133.5 -61.5q58 0 118 34t124 102l106 540zM840 987h106q-16 -33 -35.5 -107.5t-42.5 -185.5l-73 -362q-10 -48 -15.5 -84.5t-5.5 -59.5q0 -48 26.5 -71t84.5 -23q12 0 32.5 3.5t81.5 17.5v-62
q-86 -36 -148.5 -53.5t-102.5 -17.5q-64 0 -94.5 38t-30.5 117v17q-83 -88 -158 -130t-148 -42q-131 0 -206.5 95t-75.5 263q0 101 26.5 196t79.5 183q79 130 201 199t272 69q45 0 92 -11.5t93 -33.5zM845 1298q44 0 74.5 -30.5t30.5 -73.5t-31 -74t-74 -31
q-41 0 -72.5 31.5t-31.5 73.5q0 43 31 73.5t73 30.5zM462 1298q45 0 76 -30.5t31 -73.5t-31.5 -74t-75.5 -31q-41 0 -71.5 31.5t-30.5 73.5q0 43 30 73.5t72 30.5zM406 1504h616l-18 -104h-617z" />
    <glyph glyph-name="Adotmacron" unicode="&#x1e0;" horiz-adv-x="1241" 
d="M707 1186l-334 -590h428zM707 1386h135l219 -1261l35 -37l100 -10v-78h-448v78l120 10l15 29l-64 391h-497l-220 -391l17 -29l125 -10v-78h-406v78l113 12zM689 1717q49 0 83.5 -33.5t34.5 -80.5t-35 -81t-83 -34q-45 0 -78 34t-33 81t32.5 80.5t78.5 33.5zM445 1923h616
l-18 -104h-617z" />
    <glyph glyph-name="adotmacron" unicode="&#x1e1;" horiz-adv-x="1075" 
d="M649 907h-28q-182 0 -299 -156.5t-117 -398.5q0 -123 44.5 -184.5t133.5 -61.5q58 0 118 34t124 102l106 540zM840 987h106q-16 -33 -35.5 -107.5t-42.5 -185.5l-73 -362q-10 -48 -15.5 -84.5t-5.5 -59.5q0 -48 26.5 -71t84.5 -23q12 0 32.5 3.5t81.5 17.5v-62
q-86 -36 -148.5 -53.5t-102.5 -17.5q-64 0 -94.5 38t-30.5 117v17q-83 -88 -158 -130t-148 -42q-131 0 -206.5 95t-75.5 263q0 101 26.5 196t79.5 183q79 130 201 199t272 69q45 0 92 -11.5t93 -33.5zM653 1318q49 0 83.5 -33.5t34.5 -80.5t-35 -81t-83 -34q-45 0 -78 34
t-33 81t32.5 80.5t78.5 33.5zM410 1524h616l-18 -104h-617z" />
    <glyph glyph-name="AEmacron" unicode="&#x1e2;" horiz-adv-x="1788" 
d="M1012 1313l-566 -692h435zM692 1374h1108l-59 -299h-96v174l-23 31h-440l-101 -518h312l34 29l48 149h88l-88 -451h-84l8 148l-23 29h-313l-111 -572h523l34 33l72 207h94l-65 -334h-989v78l129 12l32 29l80 405h-493l-326 -399l4 -29l131 -18v-78h-414v78l125 26
l934 1145l-12 31l-119 12v82zM645 1580h616l-18 -104h-617z" />
    <glyph glyph-name="aemacron" unicode="&#x1e3;" horiz-adv-x="1374" 
d="M737 524q179 10 290.5 85.5t111.5 181.5q0 46 -30.5 77t-76.5 31q-95 0 -174 -99.5t-121 -275.5zM577 204q-7 46 -10.5 81.5t-3.5 66.5q0 27 2.5 56t7.5 65q-200 -25 -292.5 -81.5t-92.5 -153.5q0 -64 35.5 -98t102.5 -34q56 0 119 25t132 73zM596 139
q-109 -77 -205.5 -116t-179.5 -39q-95 0 -151 56t-56 150q0 152 145 240.5t441 118.5l24 125q7 29 10 53.5t3 44.5q0 61 -35.5 94t-102.5 33q-29 0 -62.5 -8t-74.5 -25l-33 -168h-200q0 125 121.5 207t308.5 82q91 0 145.5 -33.5t75.5 -103.5q88 72 161 104.5t144 32.5
q97 0 154 -55t57 -148q0 -136 -148 -224t-410 -105q-4 -21 -5.5 -45t-1.5 -50q0 -123 57 -194.5t156 -71.5q72 0 156 43t172 125v-96q-94 -90 -194 -136t-204 -46q-93 0 -158.5 38t-109.5 117zM474 1193h616l-18 -104h-617z" />
    <glyph glyph-name="Gcaron" unicode="&#x1e6;" horiz-adv-x="1360" 
d="M1309 1339l-60 -325h-108l6 192l-19 43q-51 26 -102.5 38.5t-103.5 12.5q-101 0 -197 -36.5t-178 -106.5q-128 -109 -198 -276.5t-70 -364.5q0 -196 113 -318t296 -122q40 0 93 7t122 21l78 437l-20 28l-134 11v79h504v-79l-131 -11l-33 -28l-96 -494
q-125 -35 -234.5 -53.5t-197.5 -18.5q-253 0 -406 156.5t-153 413.5q0 199 87 376t245 300q115 89 249 134.5t279 45.5q104 0 198 -16t171 -46zM608 1892h115l122 -288l236 288h111l-299 -389h-134z" />
    <glyph glyph-name="gcaron" unicode="&#x1e7;" horiz-adv-x="985" 
d="M285 70q-93 -22 -141 -73.5t-48 -129.5q0 -99 77.5 -163t199.5 -64q125 0 205.5 51.5t80.5 126.5q0 40 -28 72.5t-86 58.5zM637 727q0 90 -36 138t-103 48q-93 0 -164.5 -102t-71.5 -242q0 -81 36.5 -126.5t100.5 -45.5q93 0 165.5 98.5t72.5 231.5zM690 938h293v-88
h-210q12 -34 19 -68t7 -67q0 -164 -115 -275.5t-278 -111.5q-11 0 -23 0.5t-25 1.5q-13 -26 -19.5 -52.5t-6.5 -56.5v-12l325 -148q81 -37 120.5 -87t39.5 -115q0 -121 -146 -213t-347 -92q-178 0 -282.5 73.5t-104.5 198.5q0 94 63.5 161t208.5 124q-1 6 -1.5 13t-0.5 21
q0 50 19.5 97.5t62.5 101.5q-91 36 -140 100.5t-49 147.5q0 167 116 282t284 115q46 0 92.5 -12.5t97.5 -38.5zM365 1480h115l122 -288l236 288h111l-299 -389h-134z" />
    <glyph glyph-name="Kcaron" unicode="&#x1e8;" horiz-adv-x="1280" 
d="M168 1374h498v-78l-134 -10l-32 -31l-111 -559h60l563 555l-13 33l-143 10v80h496v-82l-170 -12l-539 -526l291 -566q35 -68 75 -89t126 -21h41v-78q-59 -4 -109 -6t-76 -2q-100 0 -143.5 25.5t-93.5 123.5l-238 469h-143l-94 -491l26 -29l133 -12v-78h-499v78l131 12
l32 29l220 1136l-23 31l-131 10v78zM544 1865h115l122 -288l236 288h111l-299 -389h-134z" />
    <glyph glyph-name="kcaron" unicode="&#x1e9;" horiz-adv-x="1053" 
d="M461 1507h57l-219 -1020l379 392q53 54 98 81t82 27q50 0 83.5 -29.5t33.5 -74.5q0 -41 -28.5 -73t-84.5 -54l-74 80q-52 -39 -112.5 -89t-151.5 -133q154 -346 225 -436t154 -90q19 0 42.5 3t64.5 11v-57q-81 -26 -144 -40.5t-96 -14.5q-59 0 -105 37.5t-87 119.5
l-175 353l-116 -107l-66 -393h-170l277 1380l-189 11v57zM443 1998h115l122 -288l236 288h111l-299 -389h-134z" />
    <glyph glyph-name="Oogonek" unicode="&#x1ea;" horiz-adv-x="1450" 
d="M1169 858q0 205 -95.5 325t-258.5 120q-106 0 -200.5 -59t-172.5 -173q-76 -112 -118.5 -258t-42.5 -295q0 -202 96.5 -323t257.5 -121q107 0 201 58.5t172 172.5q76 113 118.5 259t42.5 294zM829 1397q94 0 176 -24t146 -70q105 -78 162 -193t57 -250q0 -170 -48.5 -323
t-139.5 -273q-106 -138 -251.5 -213.5t-305.5 -75.5q-238 0 -389.5 155.5t-151.5 399.5q0 159 49 307t143 271q104 137 249.5 213t303.5 76zM682 -25q-72 -53 -113 -120t-41 -130q0 -39 26 -61.5t71 -22.5q9 0 41 5q18 2 28 3l-20 -102q-26 -7 -52 -10.5t-55 -3.5
q-81 0 -124.5 32.5t-43.5 94.5q0 83 52.5 168.5t142.5 146.5h88z" />
    <glyph glyph-name="oogonek" unicode="&#x1eb;" horiz-adv-x="1028" 
d="M545 909q-137 0 -231.5 -155t-94.5 -385q0 -145 52.5 -224t146.5 -79q135 0 231 154.5t96 379.5q0 148 -52 228.5t-148 80.5zM571 989q161 0 255 -108t94 -293q0 -121 -43 -234.5t-123 -206.5q-72 -82 -163 -123.5t-198 -41.5q-159 0 -253.5 105.5t-94.5 283.5
q0 123 43.5 241.5t120.5 206.5q74 84 166.5 127t195.5 43zM478 -18q-72 -53 -113 -120t-41 -130q0 -39 26 -61.5t71 -22.5q9 0 41 5q18 2 28 3l-20 -102q-26 -7 -52 -10.5t-55 -3.5q-81 0 -124.5 32.5t-43.5 94.5q0 83 52.5 168.5t142.5 146.5h88z" />
    <glyph glyph-name="Oogonekmacron" unicode="&#x1ec;" horiz-adv-x="1450" 
d="M1169 858q0 205 -95.5 325t-258.5 120q-106 0 -200.5 -59t-172.5 -173q-76 -112 -118.5 -258t-42.5 -295q0 -202 96.5 -323t257.5 -121q107 0 201 58.5t172 172.5q76 113 118.5 259t42.5 294zM829 1397q94 0 176 -24t146 -70q105 -78 162 -193t57 -250q0 -170 -48.5 -323
t-139.5 -273q-106 -138 -251.5 -213.5t-305.5 -75.5q-238 0 -389.5 155.5t-151.5 399.5q0 159 49 307t143 271q104 137 249.5 213t303.5 76zM682 -25q-72 -53 -113 -120t-41 -130q0 -39 26 -61.5t71 -22.5q9 0 41 5q18 2 28 3l-20 -102q-26 -7 -52 -10.5t-55 -3.5
q-81 0 -124.5 32.5t-43.5 94.5q0 83 52.5 168.5t142.5 146.5h88zM595 1603h616l-18 -104h-617z" />
    <glyph glyph-name="oogonekmacron" unicode="&#x1ed;" horiz-adv-x="1028" 
d="M545 909q-137 0 -231.5 -155t-94.5 -385q0 -145 52.5 -224t146.5 -79q135 0 231 154.5t96 379.5q0 148 -52 228.5t-148 80.5zM571 989q161 0 255 -108t94 -293q0 -121 -43 -234.5t-123 -206.5q-72 -82 -163 -123.5t-198 -41.5q-159 0 -253.5 105.5t-94.5 283.5
q0 123 43.5 241.5t120.5 206.5q74 84 166.5 127t195.5 43zM478 -18q-72 -53 -113 -120t-41 -130q0 -39 26 -61.5t71 -22.5q9 0 41 5q18 2 28 3l-20 -102q-26 -7 -52 -10.5t-55 -3.5q-81 0 -124.5 32.5t-43.5 94.5q0 83 52.5 168.5t142.5 146.5h88zM312 1195h616l-18 -104
h-617z" />
    <glyph glyph-name="DZ" unicode="&#x1f1;" horiz-adv-x="2513" 
d="M510 1280l-223 -1184h112q166 0 293.5 55t208.5 160q82 107 129 257.5t47 303.5q0 207 -112.5 307.5t-343.5 100.5h-111zM172 1374h465q312 0 475.5 -133.5t163.5 -388.5q0 -179 -66 -341.5t-188 -283.5q-119 -117 -275.5 -172t-371.5 -55h-432v78l131 12l32 29l220 1136
l-21 31l-133 10v78zM1636 1374h909l-18 -86l-969 -1188h586l29 27l82 244h100l-70 -371h-962l14 84l967 1192h-508l-45 -27l-70 -192h-106z" />
    <glyph glyph-name="Dz" unicode="&#x1f2;" horiz-adv-x="2275" 
d="M510 1280l-223 -1184h112q166 0 293.5 55t208.5 160q82 107 129 257.5t47 303.5q0 207 -112.5 307.5t-343.5 100.5h-111zM172 1374h465q312 0 475.5 -133.5t163.5 -388.5q0 -179 -66 -341.5t-188 -283.5q-119 -117 -275.5 -172t-371.5 -55h-432v78l131 12l32 29l220 1136
l-21 31l-133 10v78zM2138 1004l125 -66l-707 -788l199 51q75 -34 127.5 -51t81.5 -17q39 0 70.5 18.5t56.5 55.5l-113 125q21 36 46.5 55t51.5 19q44 0 72.5 -34.5t28.5 -88.5q0 -109 -87.5 -198t-197.5 -89q-61 0 -166.5 44t-152.5 44q-17 0 -32.5 -4.5t-33.5 -13.5
l-49 -89l-113 62l705 790l-203 -45q-57 30 -102.5 45t-77.5 15q-40 0 -73 -17t-56 -49l108 -131q-19 -33 -42.5 -49t-53.5 -16q-44 0 -70 32.5t-26 87.5q0 109 85.5 198t190.5 89q62 0 168 -55v0q58 -29 86.5 -38t53.5 -9q12 0 27.5 4t33.5 12z" />
    <glyph glyph-name="dz" unicode="&#x1f3;" horiz-adv-x="1972" 
d="M641 909q-7 1 -23.5 3.5t-25.5 2.5q-153 0 -268 -164t-115 -401q0 -118 47 -185t129 -67q60 0 128 45.5t134 128.5l92 521zM973 1507h53l-219 -1226q-6 -33 -9 -61.5t-3 -49.5q0 -44 22 -65t68 -21q18 0 50.5 5.5t82.5 16.5v-61q-80 -29 -144.5 -44t-107.5 -15
q-71 0 -104 35t-33 110q0 16 0.5 25t1.5 16q-74 -94 -155.5 -142t-164.5 -48q-125 0 -196.5 97t-71.5 269q0 104 25.5 198t74.5 173q81 127 205.5 201.5t255.5 74.5q44 0 84 -8.5t80 -25.5l72 409l-181 21v57zM1835 1004l125 -66l-707 -788l199 51q75 -34 127.5 -51
t81.5 -17q39 0 70.5 18.5t56.5 55.5l-113 125q21 36 46.5 55t51.5 19q44 0 72.5 -34.5t28.5 -88.5q0 -109 -87.5 -198t-197.5 -89q-61 0 -166.5 44t-152.5 44q-17 0 -32.5 -4.5t-33.5 -13.5l-49 -89l-113 62l705 790l-203 -45q-57 30 -102.5 45t-77.5 15q-40 0 -73 -17
t-56 -49l108 -131q-19 -33 -42.5 -49t-53.5 -16q-44 0 -70 32.5t-26 87.5q0 109 85.5 198t190.5 89q62 0 168 -55v0q58 -29 86.5 -38t53.5 -9q12 0 27.5 4t33.5 12z" />
    <glyph glyph-name="Gacute" unicode="&#x1f4;" horiz-adv-x="1360" 
d="M1309 1339l-60 -325h-108l6 192l-19 43q-51 26 -102.5 38.5t-103.5 12.5q-101 0 -197 -36.5t-178 -106.5q-128 -109 -198 -276.5t-70 -364.5q0 -196 113 -318t296 -122q40 0 93 7t122 21l78 437l-20 28l-134 11v79h504v-79l-131 -11l-33 -28l-96 -494
q-125 -35 -234.5 -53.5t-197.5 -18.5q-253 0 -406 156.5t-153 413.5q0 199 87 376t245 300q115 89 249 134.5t279 45.5q104 0 198 -16t171 -46zM935 1892h202l-375 -389h-100z" />
    <glyph glyph-name="gacute" unicode="&#x1f5;" horiz-adv-x="985" 
d="M285 70q-93 -22 -141 -73.5t-48 -129.5q0 -99 77.5 -163t199.5 -64q125 0 205.5 51.5t80.5 126.5q0 40 -28 72.5t-86 58.5zM637 727q0 90 -36 138t-103 48q-93 0 -164.5 -102t-71.5 -242q0 -81 36.5 -126.5t100.5 -45.5q93 0 165.5 98.5t72.5 231.5zM690 938h293v-88
h-210q12 -34 19 -68t7 -67q0 -164 -115 -275.5t-278 -111.5q-11 0 -23 0.5t-25 1.5q-13 -26 -19.5 -52.5t-6.5 -56.5v-12l325 -148q81 -37 120.5 -87t39.5 -115q0 -121 -146 -213t-347 -92q-178 0 -282.5 73.5t-104.5 198.5q0 94 63.5 161t208.5 124q-1 6 -1.5 13t-0.5 21
q0 50 19.5 97.5t62.5 101.5q-91 36 -140 100.5t-49 147.5q0 167 116 282t284 115q46 0 92.5 -12.5t97.5 -38.5zM692 1480h202l-375 -389h-100z" />
    <glyph glyph-name="Ngrave" unicode="&#x1f8;" horiz-adv-x="1399" 
d="M166 1374h352v-51l490 -1038l188 970l-20 31l-132 10v78h431v-78l-132 -10l-32 -31l-240 -1255h-119l-538 1139l-199 -1020l23 -29l131 -12v-78h-432v78l131 12l32 29l219 1136l-20 31l-133 10v78zM733 1865h202l123 -389h-102z" />
    <glyph glyph-name="ngrave" unicode="&#x1f9;" horiz-adv-x="1139" 
d="M371 987h51l-37 -196q128 101 224 148.5t173 47.5q80 0 126 -44t46 -120q0 -28 -5.5 -65t-22.5 -117l-70 -317q-1 -7 -4 -20q-18 -88 -18 -116q0 -48 27.5 -74t78.5 -26q21 0 48.5 4.5t63.5 13.5l1 -57q-80 -31 -141.5 -46t-104.5 -15q-75 0 -112.5 30.5t-37.5 92.5
q0 19 4.5 47t12.5 63l88 379q9 38 13.5 71.5t4.5 59.5q0 68 -26 98.5t-84 30.5q-57 0 -136.5 -44t-166.5 -124l-127 -692h-174l170 838l-168 30v52zM552 1478h202l123 -389h-102z" />
    <glyph glyph-name="Aringacute" unicode="&#x1fa;" horiz-adv-x="1241" 
d="M707 1186l-334 -590h428zM707 1386h135l219 -1261l35 -37l100 -10v-78h-448v78l120 10l15 29l-64 391h-497l-220 -391l17 -29l125 -10v-78h-406v78l113 12zM714 1844q-57 0 -96 -39.5t-39 -97.5q0 -57 39 -96t96 -39t97 39.5t40 95.5q0 57 -40 97t-97 40zM714 1928
q93 0 157 -63.5t64 -155.5q0 -93 -64 -157t-157 -64q-92 0 -156.5 64.5t-64.5 156.5t64.5 155.5t156.5 63.5zM849 2419h202l-375 -389h-100z" />
    <glyph glyph-name="aringacute" unicode="&#x1fb;" horiz-adv-x="1075" 
d="M649 907h-28q-182 0 -299 -156.5t-117 -398.5q0 -123 44.5 -184.5t133.5 -61.5q58 0 118 34t124 102l106 540zM840 987h106q-16 -33 -35.5 -107.5t-42.5 -185.5l-73 -362q-10 -48 -15.5 -84.5t-5.5 -59.5q0 -48 26.5 -71t84.5 -23q12 0 32.5 3.5t81.5 17.5v-62
q-86 -36 -148.5 -53.5t-102.5 -17.5q-64 0 -94.5 38t-30.5 117v17q-83 -88 -158 -130t-148 -42q-131 0 -206.5 95t-75.5 263q0 101 26.5 196t79.5 183q79 130 201 199t272 69q45 0 92 -11.5t93 -33.5zM678 1445q-57 0 -96 -39.5t-39 -97.5q0 -57 39 -96t96 -39t97 39.5
t40 95.5q0 57 -40 97t-97 40zM678 1529q93 0 157 -63.5t64 -155.5q0 -93 -64 -157t-157 -64q-92 0 -156.5 64.5t-64.5 156.5t64.5 155.5t156.5 63.5zM813 2020h202l-375 -389h-100z" />
    <glyph glyph-name="AEacute" unicode="&#x1fc;" horiz-adv-x="1788" 
d="M1012 1313l-566 -692h435zM692 1374h1108l-59 -299h-96v174l-23 31h-440l-101 -518h312l34 29l48 149h88l-88 -451h-84l8 148l-23 29h-313l-111 -572h523l34 33l72 207h94l-65 -334h-989v78l129 12l32 29l80 405h-493l-326 -399l4 -29l131 -18v-78h-414v78l125 26
l934 1145l-12 31l-119 12v82zM1007 1865h202l-375 -389h-100z" />
    <glyph glyph-name="aeacute" unicode="&#x1fd;" horiz-adv-x="1374" 
d="M737 524q179 10 290.5 85.5t111.5 181.5q0 46 -30.5 77t-76.5 31q-95 0 -174 -99.5t-121 -275.5zM577 204q-7 46 -10.5 81.5t-3.5 66.5q0 27 2.5 56t7.5 65q-200 -25 -292.5 -81.5t-92.5 -153.5q0 -64 35.5 -98t102.5 -34q56 0 119 25t132 73zM596 139
q-109 -77 -205.5 -116t-179.5 -39q-95 0 -151 56t-56 150q0 152 145 240.5t441 118.5l24 125q7 29 10 53.5t3 44.5q0 61 -35.5 94t-102.5 33q-29 0 -62.5 -8t-74.5 -25l-33 -168h-200q0 125 121.5 207t308.5 82q91 0 145.5 -33.5t75.5 -103.5q88 72 161 104.5t144 32.5
q97 0 154 -55t57 -148q0 -136 -148 -224t-410 -105q-4 -21 -5.5 -45t-1.5 -50q0 -123 57 -194.5t156 -71.5q72 0 156 43t172 125v-96q-94 -90 -194 -136t-204 -46q-93 0 -158.5 38t-109.5 117zM836 1478h202l-375 -389h-100z" />
    <glyph glyph-name="Oslashacute" unicode="&#x1fe;" horiz-adv-x="1450" 
d="M1075 1192l-669 -1030q52 -48 110.5 -71t126.5 -23q109 0 204 58t173 173q76 112 119 258t43 291q0 108 -26.5 194t-80.5 150zM1010 1249q-44 27 -92 40.5t-101 13.5q-118 0 -212.5 -56.5t-174.5 -173.5q-75 -109 -118.5 -255t-43.5 -292q0 -84 19 -158.5t57 -142.5z
M1186 1522l76 -47l-113 -172q108 -83 164.5 -195.5t56.5 -247.5q0 -170 -48.5 -323t-139.5 -273q-106 -138 -251 -213.5t-304 -75.5q-78 0 -151.5 19t-143.5 57l-131 -203l-66 50l131 202q-88 73 -134 184.5t-46 254.5q0 156 48.5 301t141.5 268q106 138 252.5 213.5
t309.5 75.5q67 0 125.5 -13t109.5 -38zM983 2013h202l-375 -389h-100z" />
    <glyph glyph-name="oslashacute" unicode="&#x1ff;" horiz-adv-x="1028" 
d="M723 791l-430 -678q23 -24 54.5 -35.5t70.5 -11.5q142 0 242 153.5t100 376.5q0 62 -9.5 110.5t-27.5 84.5zM684 852q-28 29 -61 43t-74 14q-140 0 -240 -156t-100 -380q0 -58 10 -109t31 -98zM848 1120l57 -37l-110 -172q61 -55 93 -137t32 -186q0 -120 -43 -234
t-123 -207q-73 -82 -164.5 -123.5t-196.5 -41.5q-37 0 -76.5 8t-78.5 24l-115 -178l-51 35l108 178q-68 59 -101.5 138.5t-33.5 183.5q0 123 43.5 241.5t120.5 206.5q75 84 166.5 127t195.5 43q50 0 93 -10t77 -31zM699 1611h202l-375 -389h-100z" />
    <glyph glyph-name="Adblgrave" unicode="&#x200;" horiz-adv-x="1241" 
d="M707 1186l-334 -590h428zM707 1386h135l219 -1261l35 -37l100 -10v-78h-448v78l120 10l15 29l-64 391h-497l-220 -391l17 -29l125 -10v-78h-406v78l113 12zM378 1877h202l123 -389h-102zM713 1878h202l123 -389h-102z" />
    <glyph glyph-name="adblgrave" unicode="&#x201;" horiz-adv-x="1075" 
d="M649 907h-28q-182 0 -299 -156.5t-117 -398.5q0 -123 44.5 -184.5t133.5 -61.5q58 0 118 34t124 102l106 540zM840 987h106q-16 -33 -35.5 -107.5t-42.5 -185.5l-73 -362q-10 -48 -15.5 -84.5t-5.5 -59.5q0 -48 26.5 -71t84.5 -23q12 0 32.5 3.5t81.5 17.5v-62
q-86 -36 -148.5 -53.5t-102.5 -17.5q-64 0 -94.5 38t-30.5 117v17q-83 -88 -158 -130t-148 -42q-131 0 -206.5 95t-75.5 263q0 101 26.5 196t79.5 183q79 130 201 199t272 69q45 0 92 -11.5t93 -33.5zM343 1478h202l123 -389h-102zM678 1479h202l123 -389h-102z" />
    <glyph glyph-name="Ainvertedbreve" unicode="&#x202;" horiz-adv-x="1241" 
d="M707 1186l-334 -590h428zM707 1386h135l219 -1261l35 -37l100 -10v-78h-448v78l120 10l15 29l-64 391h-497l-220 -391l17 -29l125 -10v-78h-406v78l113 12zM412 1779h81q-1 -7 -1 -13.5v-19.5q0 -68 40.5 -98.5t131.5 -30.5q120 0 173 35.5t74 126.5h80
q-29 -152 -111 -221.5t-231 -69.5q-124 0 -184 52t-60 161q1 19 2 37t5 41z" />
    <glyph glyph-name="ainvertedbreve" unicode="&#x203;" horiz-adv-x="1075" 
d="M649 907h-28q-182 0 -299 -156.5t-117 -398.5q0 -123 44.5 -184.5t133.5 -61.5q58 0 118 34t124 102l106 540zM840 987h106q-16 -33 -35.5 -107.5t-42.5 -185.5l-73 -362q-10 -48 -15.5 -84.5t-5.5 -59.5q0 -48 26.5 -71t84.5 -23q12 0 32.5 3.5t81.5 17.5v-62
q-86 -36 -148.5 -53.5t-102.5 -17.5q-64 0 -94.5 38t-30.5 117v17q-83 -88 -158 -130t-148 -42q-131 0 -206.5 95t-75.5 263q0 101 26.5 196t79.5 183q79 130 201 199t272 69q45 0 92 -11.5t93 -33.5zM377 1380h81q-1 -7 -1 -13.5v-19.5q0 -68 40.5 -98.5t131.5 -30.5
q120 0 173 35.5t74 126.5h80q-29 -152 -111 -221.5t-231 -69.5q-124 0 -184 52t-60 161q1 19 2 37t5 41z" />
    <glyph glyph-name="Edblgrave" unicode="&#x204;" horiz-adv-x="1118" 
d="M180 1374h953l-58 -299h-98v174l-23 31h-440l-100 -518h311l37 29l45 149h88l-86 -451h-84l8 148l-24 29h-314l-110 -572h522l37 33l69 207h95l-66 -334h-991v78l129 12l35 29l219 1136l-23 31l-131 10v78zM402 1865h202l123 -389h-102zM737 1866h202l123 -389h-102z" />
    <glyph glyph-name="edblgrave" unicode="&#x205;" horiz-adv-x="868" 
d="M216 455q-4 -21 -5.5 -45t-1.5 -50q0 -123 57 -194.5t156 -71.5q72 0 156 43t172 125v-96q-95 -91 -195 -137.5t-203 -46.5q-146 0 -227.5 98t-81.5 274q0 129 48 252t134 213q75 77 166.5 122.5t171.5 45.5q97 0 154 -55t57 -148q0 -136 -148 -224t-410 -105zM225 524
q179 10 290.5 85.5t111.5 181.5q0 47 -31 78.5t-76 31.5q-94 0 -173.5 -100.5t-121.5 -276.5zM234 1478h202l123 -389h-102zM569 1479h202l123 -389h-102z" />
    <glyph glyph-name="Einvertedbreve" unicode="&#x206;" horiz-adv-x="1118" 
d="M180 1374h953l-58 -299h-98v174l-23 31h-440l-100 -518h311l37 29l45 149h88l-86 -451h-84l8 148l-24 29h-314l-110 -572h522l37 33l69 207h95l-66 -334h-991v78l129 12l35 29l219 1136l-23 31l-131 10v78zM436 1767h81q-1 -7 -1 -13.5v-19.5q0 -68 40.5 -98.5
t131.5 -30.5q120 0 173 35.5t74 126.5h80q-29 -152 -111 -221.5t-231 -69.5q-124 0 -184 52t-60 161q1 19 2 37t5 41z" />
    <glyph glyph-name="einvertedbreve" unicode="&#x207;" horiz-adv-x="868" 
d="M216 455q-4 -21 -5.5 -45t-1.5 -50q0 -123 57 -194.5t156 -71.5q72 0 156 43t172 125v-96q-95 -91 -195 -137.5t-203 -46.5q-146 0 -227.5 98t-81.5 274q0 129 48 252t134 213q75 77 166.5 122.5t171.5 45.5q97 0 154 -55t57 -148q0 -136 -148 -224t-410 -105zM225 524
q179 10 290.5 85.5t111.5 181.5q0 47 -31 78.5t-76 31.5q-94 0 -173.5 -100.5t-121.5 -276.5zM268 1380h81q-1 -7 -1 -13.5v-19.5q0 -68 40.5 -98.5t131.5 -30.5q120 0 173 35.5t74 126.5h80q-29 -152 -111 -221.5t-231 -69.5q-124 0 -184 52t-60 161q1 19 2 37t5 41z" />
    <glyph glyph-name="Idblgrave" unicode="&#x208;" horiz-adv-x="639" 
d="M182 1374h500v-78l-135 -10l-33 -31l-219 -1136l24 -29l134 -12v-78h-500v78l131 12l33 29l219 1136l-23 31l-131 10v78zM178 1865h202l123 -389h-102zM513 1866h202l123 -389h-102z" />
    <glyph glyph-name="idblgrave" unicode="&#x209;" horiz-adv-x="588" 
d="M371 987h53l-147 -765q-4 -19 -5.5 -31.5t-1.5 -20.5q0 -39 25 -59.5t74 -20.5q28 0 65.5 7.5t85.5 23.5v-64q-85 -35 -157.5 -53t-131.5 -18q-65 0 -98 33.5t-33 101.5q0 19 3.5 46t9.5 60l120 611l-165 30v54zM119 1478h202l123 -389h-102zM454 1479h202l123 -389h-102
z" />
    <glyph glyph-name="Iinvertedbreve" unicode="&#x20a;" horiz-adv-x="639" 
d="M182 1374h500v-78l-135 -10l-33 -31l-219 -1136l24 -29l134 -12v-78h-500v78l131 12l33 29l219 1136l-23 31l-131 10v78zM212 1767h81q-1 -7 -1 -13.5v-19.5q0 -68 40.5 -98.5t131.5 -30.5q120 0 173 35.5t74 126.5h80q-29 -152 -111 -221.5t-231 -69.5q-124 0 -184 52
t-60 161q1 19 2 37t5 41z" />
    <glyph glyph-name="iinvertedbreve" unicode="&#x20b;" horiz-adv-x="588" 
d="M371 987h53l-147 -765q-4 -19 -5.5 -31.5t-1.5 -20.5q0 -39 25 -59.5t74 -20.5q28 0 65.5 7.5t85.5 23.5v-64q-85 -35 -157.5 -53t-131.5 -18q-65 0 -98 33.5t-33 101.5q0 19 3.5 46t9.5 60l120 611l-165 30v54zM153 1380h81q-1 -7 -1 -13.5v-19.5q0 -68 40.5 -98.5
t131.5 -30.5q120 0 173 35.5t74 126.5h80q-29 -152 -111 -221.5t-231 -69.5q-124 0 -184 52t-60 161q1 19 2 37t5 41z" />
    <glyph glyph-name="Odblgrave" unicode="&#x20c;" horiz-adv-x="1450" 
d="M1169 858q0 205 -95.5 325t-258.5 120q-106 0 -200.5 -59t-172.5 -173q-76 -112 -118.5 -258t-42.5 -295q0 -202 96.5 -323t257.5 -121q107 0 201 58.5t172 172.5q76 113 118.5 259t42.5 294zM829 1397q94 0 176 -24t146 -70q105 -78 162 -193t57 -250q0 -170 -48.5 -323
t-139.5 -273q-106 -138 -251.5 -213.5t-305.5 -75.5q-238 0 -389.5 155.5t-151.5 399.5q0 159 49 307t143 271q104 137 249.5 213t303.5 76zM592 1888h202l123 -389h-102zM927 1889h202l123 -389h-102z" />
    <glyph glyph-name="odblgrave" unicode="&#x20d;" horiz-adv-x="1028" 
d="M545 909q-137 0 -231.5 -155t-94.5 -385q0 -145 52.5 -224t146.5 -79q135 0 231 154.5t96 379.5q0 148 -52 228.5t-148 80.5zM571 989q161 0 255 -108t94 -293q0 -121 -43 -234.5t-123 -206.5q-72 -82 -163 -123.5t-198 -41.5q-159 0 -253.5 105.5t-94.5 283.5
q0 123 43.5 241.5t120.5 206.5q74 84 166.5 127t195.5 43zM308 1480h202l123 -389h-102zM643 1481h202l123 -389h-102z" />
    <glyph glyph-name="Oinvertedbreve" unicode="&#x20e;" horiz-adv-x="1450" 
d="M1169 858q0 205 -95.5 325t-258.5 120q-106 0 -200.5 -59t-172.5 -173q-76 -112 -118.5 -258t-42.5 -295q0 -202 96.5 -323t257.5 -121q107 0 201 58.5t172 172.5q76 113 118.5 259t42.5 294zM829 1397q94 0 176 -24t146 -70q105 -78 162 -193t57 -250q0 -170 -48.5 -323
t-139.5 -273q-106 -138 -251.5 -213.5t-305.5 -75.5q-238 0 -389.5 155.5t-151.5 399.5q0 159 49 307t143 271q104 137 249.5 213t303.5 76zM625 1790h81q-1 -7 -1 -13.5v-19.5q0 -68 40.5 -98.5t131.5 -30.5q120 0 173 35.5t74 126.5h80q-29 -152 -111 -221.5t-231 -69.5
q-124 0 -184 52t-60 161q1 19 2 37t5 41z" />
    <glyph glyph-name="oinvertedbreve" unicode="&#x20f;" horiz-adv-x="1028" 
d="M545 909q-137 0 -231.5 -155t-94.5 -385q0 -145 52.5 -224t146.5 -79q135 0 231 154.5t96 379.5q0 148 -52 228.5t-148 80.5zM571 989q161 0 255 -108t94 -293q0 -121 -43 -234.5t-123 -206.5q-72 -82 -163 -123.5t-198 -41.5q-159 0 -253.5 105.5t-94.5 283.5
q0 123 43.5 241.5t120.5 206.5q74 84 166.5 127t195.5 43zM342 1382h81q-1 -7 -1 -13.5v-19.5q0 -68 40.5 -98.5t131.5 -30.5q120 0 173 35.5t74 126.5h80q-29 -152 -111 -221.5t-231 -69.5q-124 0 -184 52t-60 161q1 19 2 37t5 41z" />
    <glyph glyph-name="Rdblgrave" unicode="&#x210;" horiz-adv-x="1233" 
d="M397 707q15 -2 30.5 -2h45.5q209 0 323.5 89t114.5 250q0 122 -77 180t-240 58q-25 0 -80 -4h-6zM156 1374h518q224 0 328 -72.5t104 -226.5q0 -159 -107 -271t-301 -155q161 -35 236 -305q10 -39 16 -59q36 -129 84 -168t156 -39h18v-76q-48 -6 -83.5 -9t-59.5 -3
q-63 0 -111 13t-77 38q-69 57 -117 277l-6 30q-2 7 -5 21q-40 183 -139 227q-17 8 -45 12t-73 4q-29 0 -96 -3q-11 0 -17 -1l-96 -491l24 -29l133 -10v-78h-499v78l131 10l32 29l220 1138l-23 29l-145 12v78zM435 1865h202l123 -389h-102zM770 1866h202l123 -389h-102z" />
    <glyph glyph-name="rdblgrave" unicode="&#x211;" horiz-adv-x="815" 
d="M362 987h41l-65 -280q95 134 190 207t174 73q52 0 83.5 -29.5t31.5 -76.5q0 -60 -37.5 -96.5t-99.5 -36.5h-14l-54 110q-136 -53 -203.5 -136t-95.5 -241l-84 -481h-172l170 838l-168 30v52zM261 1478h202l123 -389h-102zM596 1479h202l123 -389h-102z" />
    <glyph glyph-name="Rinvertedbreve" unicode="&#x212;" horiz-adv-x="1233" 
d="M397 707q15 -2 30.5 -2h45.5q209 0 323.5 89t114.5 250q0 122 -77 180t-240 58q-25 0 -80 -4h-6zM156 1374h518q224 0 328 -72.5t104 -226.5q0 -159 -107 -271t-301 -155q161 -35 236 -305q10 -39 16 -59q36 -129 84 -168t156 -39h18v-76q-48 -6 -83.5 -9t-59.5 -3
q-63 0 -111 13t-77 38q-69 57 -117 277l-6 30q-2 7 -5 21q-40 183 -139 227q-17 8 -45 12t-73 4q-29 0 -96 -3q-11 0 -17 -1l-96 -491l24 -29l133 -10v-78h-499v78l131 10l32 29l220 1138l-23 29l-145 12v78zM469 1767h81q-1 -7 -1 -13.5v-19.5q0 -68 40.5 -98.5
t131.5 -30.5q120 0 173 35.5t74 126.5h80q-29 -152 -111 -221.5t-231 -69.5q-124 0 -184 52t-60 161q1 19 2 37t5 41z" />
    <glyph glyph-name="rinvertedbreve" unicode="&#x213;" horiz-adv-x="815" 
d="M362 987h41l-65 -280q95 134 190 207t174 73q52 0 83.5 -29.5t31.5 -76.5q0 -60 -37.5 -96.5t-99.5 -36.5h-14l-54 110q-136 -53 -203.5 -136t-95.5 -241l-84 -481h-172l170 838l-168 30v52zM295 1380h81q-1 -7 -1 -13.5v-19.5q0 -68 40.5 -98.5t131.5 -30.5
q120 0 173 35.5t74 126.5h80q-29 -152 -111 -221.5t-231 -69.5q-124 0 -184 52t-60 161q1 19 2 37t5 41z" />
    <glyph glyph-name="Udblgrave" unicode="&#x214;" horiz-adv-x="1360" 
d="M150 1374h497v-78l-133 -10l-33 -31l-145 -745q-9 -46 -14 -86t-5 -68q0 -123 75 -188.5t216 -65.5q181 0 278.5 94t139.5 314l145 745l-24 31l-133 10v78h428v-78l-129 -10l-35 -31l-150 -763v-5q-50 -251 -151 -356q-73 -74 -183 -114t-243 -40q-204 0 -312 86
t-108 248q0 29 5.5 68.5t19.5 112.5l147 763l-22 31l-131 10v78zM649 1865h202l123 -389h-102zM984 1866h202l123 -389h-102z" />
    <glyph glyph-name="udblgrave" unicode="&#x215;" horiz-adv-x="1133" 
d="M383 989l33 -28l-129 -596q-12 -57 -17.5 -93.5t-5.5 -58.5q0 -53 31.5 -83t87.5 -30q60 0 136 34t155 95l153 740h166l-145 -668q-1 -5 -4 -17q-17 -84 -17 -122q0 -34 30 -57t77 -23q19 0 47.5 5.5t67.5 16.5v-57q-90 -33 -154 -48t-109 -15q-63 0 -92.5 31.5
t-29.5 99.5q0 15 0.5 23.5t0.5 14.5q-101 -84 -193.5 -126.5t-176.5 -42.5q-93 0 -146 51t-53 141q0 24 4 54t13 69l118 539l-170 30v54zM380 1480h202l123 -389h-102zM715 1481h202l123 -389h-102z" />
    <glyph glyph-name="Uinvertedbreve" unicode="&#x216;" horiz-adv-x="1360" 
d="M150 1374h497v-78l-133 -10l-33 -31l-145 -745q-9 -46 -14 -86t-5 -68q0 -123 75 -188.5t216 -65.5q181 0 278.5 94t139.5 314l145 745l-24 31l-133 10v78h428v-78l-129 -10l-35 -31l-150 -763v-5q-50 -251 -151 -356q-73 -74 -183 -114t-243 -40q-204 0 -312 86
t-108 248q0 29 5.5 68.5t19.5 112.5l147 763l-22 31l-131 10v78zM683 1767h81q-1 -7 -1 -13.5v-19.5q0 -68 40.5 -98.5t131.5 -30.5q120 0 173 35.5t74 126.5h80q-29 -152 -111 -221.5t-231 -69.5q-124 0 -184 52t-60 161q1 19 2 37t5 41z" />
    <glyph glyph-name="uinvertedbreve" unicode="&#x217;" horiz-adv-x="1133" 
d="M383 989l33 -28l-129 -596q-12 -57 -17.5 -93.5t-5.5 -58.5q0 -53 31.5 -83t87.5 -30q60 0 136 34t155 95l153 740h166l-145 -668q-1 -5 -4 -17q-17 -84 -17 -122q0 -34 30 -57t77 -23q19 0 47.5 5.5t67.5 16.5v-57q-90 -33 -154 -48t-109 -15q-63 0 -92.5 31.5
t-29.5 99.5q0 15 0.5 23.5t0.5 14.5q-101 -84 -193.5 -126.5t-176.5 -42.5q-93 0 -146 51t-53 141q0 24 4 54t13 69l118 539l-170 30v54zM414 1382h81q-1 -7 -1 -13.5v-19.5q0 -68 40.5 -98.5t131.5 -30.5q120 0 173 35.5t74 126.5h80q-29 -152 -111 -221.5t-231 -69.5
q-124 0 -184 52t-60 161q1 19 2 37t5 41z" />
    <glyph glyph-name="Scommaaccent" unicode="&#x218;" horiz-adv-x="1100" 
d="M1047 1337l-66 -311h-90l8 203l-25 37q-43 19 -87.5 29t-90.5 10q-139 0 -231 -79t-92 -196q0 -143 249 -258l21 -10q179 -84 243 -160t64 -188q0 -190 -156 -314.5t-399 -124.5q-103 0 -197.5 24t-179.5 71l68 325h107l-21 -235l21 -27q60 -30 116 -44.5t111 -14.5
q159 0 254.5 81.5t95.5 217.5q0 120 -194 218q-21 10 -31 15q-215 110 -280.5 184t-65.5 173q0 189 141.5 311.5t364.5 122.5q90 0 175.5 -15t166.5 -45zM136 -549l13 51q114 17 180.5 72.5t82.5 146.5h-123q-9 12 -13 22.5t-4 22.5q0 46 39 76.5t97 30.5q60 0 92 -27
t32 -77q0 -115 -114.5 -208t-281.5 -110z" />
    <glyph glyph-name="scommaaccent" unicode="&#x219;" horiz-adv-x="758" 
d="M545 756l-86 118q-15 11 -30.5 16t-33.5 5q-62 0 -102.5 -39t-40.5 -98q0 -73 150 -188l4 -3q9 -7 28 -21q178 -136 178 -249q0 -137 -105 -226t-269 -89q-126 0 -199.5 48.5t-73.5 131.5q0 47 29.5 75.5t77.5 28.5q20 0 41 -8.5t47 -28.5l-37 -102q24 -35 62 -53.5
t85 -18.5q88 0 137.5 46.5t49.5 127.5q0 46 -27 85t-115 106l-9 7q-185 139 -185 251q0 127 103 218t249 91q85 0 138 -35.5t53 -91.5q0 -45 -32 -73t-87 -31zM-41 -542l13 51q114 17 180.5 72.5t82.5 146.5h-123q-9 12 -13 22.5t-4 22.5q0 46 39 76.5t97 30.5q60 0 92 -27
t32 -77q0 -115 -114.5 -208t-281.5 -110z" />
    <glyph glyph-name="Tcommaaccent" unicode="&#x21a;" horiz-adv-x="1157" 
d="M147 1374h1102l-61 -305h-111l8 191l-22 30h-291l-225 -1171l26 -29l134 -12v-78h-500v78l131 12l33 29l219 1171h-289l-35 -30l-65 -191h-113zM277 -524l13 51q114 17 180.5 72.5t82.5 146.5h-123q-9 12 -13 22.5t-4 22.5q0 46 39 76.5t97 30.5q60 0 92 -27t32 -77
q0 -115 -114.5 -208t-281.5 -110z" />
    <glyph glyph-name="tcommaaccent" unicode="&#x21b;" horiz-adv-x="682" 
d="M342 1186h94l-43 -234h295v-88h-311l-107 -547q-1 -7 -3 -19q-9 -52 -9 -71q0 -62 32 -94.5t93 -32.5q34 0 82.5 10.5t112.5 30.5v-65q-104 -45 -183 -67.5t-133 -22.5q-87 0 -129.5 46t-42.5 140q0 29 4 64.5t12 72.5l111 555l-127 -10v61l150 66zM15 -538l13 51
q114 17 180.5 72.5t82.5 146.5h-123q-9 12 -13 22.5t-4 22.5q0 46 39 76.5t97 30.5q60 0 92 -27t32 -77q0 -115 -114.5 -208t-281.5 -110z" />
    <glyph glyph-name="Hcaron" unicode="&#x21e;" horiz-adv-x="1458" 
d="M172 1374h500v-78l-135 -10l-31 -31l-96 -489h667l97 489l-25 31l-131 10v78h500v-78l-136 -10l-32 -31l-217 -1136l20 -29l131 -12v-78h-496v78l134 12l30 29l105 553h-666l-106 -553l24 -29l131 -12v-78h-497v78l131 12l32 29l220 1136l-21 31l-133 10v78zM629 1865
h115l122 -288l236 288h111l-299 -389h-134z" />
    <glyph glyph-name="hcaron" unicode="&#x21f;" horiz-adv-x="1128" 
d="M457 1507h63q-18 -68 -38 -156t-44 -206l-67 -350q123 99 219 146.5t174 47.5q79 0 125.5 -44t46.5 -120q0 -29 -6 -68t-23 -116l-71 -317q-12 -52 -16.5 -82t-4.5 -52q0 -49 27 -75.5t78 -26.5q21 0 50 4.5t64 13.5v-55q-78 -31 -141 -47t-105 -16q-77 0 -113 30t-36 95
q0 22 3.5 49.5t10.5 58.5l88 379q10 41 15.5 75t5.5 56q0 68 -27 99.5t-84 31.5q-55 0 -134.5 -44t-168.5 -124l-127 -694h-174l281 1372l-193 17v51zM453 1998h115l122 -288l236 288h111l-299 -389h-134z" />
    <glyph glyph-name="Adotaccent" unicode="&#x226;" horiz-adv-x="1241" 
d="M707 1186l-334 -590h428zM707 1386h135l219 -1261l35 -37l100 -10v-78h-448v78l120 10l15 29l-64 391h-497l-220 -391l17 -29l125 -10v-78h-406v78l113 12zM689 1717q49 0 83.5 -33.5t34.5 -80.5t-35 -81t-83 -34q-45 0 -78 34t-33 81t32.5 80.5t78.5 33.5z" />
    <glyph glyph-name="adotaccent" unicode="&#x227;" horiz-adv-x="1075" 
d="M649 907h-28q-182 0 -299 -156.5t-117 -398.5q0 -123 44.5 -184.5t133.5 -61.5q58 0 118 34t124 102l106 540zM840 987h106q-16 -33 -35.5 -107.5t-42.5 -185.5l-73 -362q-10 -48 -15.5 -84.5t-5.5 -59.5q0 -48 26.5 -71t84.5 -23q12 0 32.5 3.5t81.5 17.5v-62
q-86 -36 -148.5 -53.5t-102.5 -17.5q-64 0 -94.5 38t-30.5 117v17q-83 -88 -158 -130t-148 -42q-131 0 -206.5 95t-75.5 263q0 101 26.5 196t79.5 183q79 130 201 199t272 69q45 0 92 -11.5t93 -33.5zM653 1318q49 0 83.5 -33.5t34.5 -80.5t-35 -81t-83 -34q-45 0 -78 34
t-33 81t32.5 80.5t78.5 33.5z" />
    <glyph glyph-name="Ecedilla" unicode="&#x228;" horiz-adv-x="1118" 
d="M180 1374h953l-58 -299h-98v174l-23 31h-440l-100 -518h311l37 29l45 149h88l-86 -451h-84l8 148l-24 29h-314l-110 -572h522l37 33l69 207h95l-66 -334h-991v78l129 12l35 29l219 1136l-23 31l-131 10v78zM353 0h73l-24 -124q9 0 19 0.5t24 0.5q62 0 95.5 -29.5
t33.5 -85.5q0 -94 -79 -156.5t-202 -62.5q-34 0 -69 5.5t-70 15.5l14 74q30 -9 59.5 -13t59.5 -4q71 0 112.5 29t41.5 78q0 26 -24 41.5t-64 15.5q-11 0 -37 -3q-4 -1 -6 -1z" />
    <glyph glyph-name="ecedilla" unicode="&#x229;" horiz-adv-x="868" 
d="M216 455q-4 -21 -5.5 -45t-1.5 -50q0 -123 57 -194.5t156 -71.5q72 0 156 43t172 125v-96q-95 -91 -195 -137.5t-203 -46.5q-146 0 -227.5 98t-81.5 274q0 129 48 252t134 213q75 77 166.5 122.5t171.5 45.5q97 0 154 -55t57 -148q0 -136 -148 -224t-410 -105zM225 524
q179 10 290.5 85.5t111.5 181.5q0 47 -31 78.5t-76 31.5q-94 0 -173.5 -100.5t-121.5 -276.5zM256 -18h73l-24 -124q9 0 19 0.5t24 0.5q62 0 95.5 -29.5t33.5 -85.5q0 -94 -79 -156.5t-202 -62.5q-34 0 -69 5.5t-70 15.5l14 74q30 -9 59.5 -13t59.5 -4q71 0 112.5 29
t41.5 78q0 26 -24 41.5t-64 15.5q-11 0 -37 -3q-4 -1 -6 -1z" />
    <glyph glyph-name="Odieresismacron" unicode="&#x22a;" horiz-adv-x="1450" 
d="M1169 858q0 205 -95.5 325t-258.5 120q-106 0 -200.5 -59t-172.5 -173q-76 -112 -118.5 -258t-42.5 -295q0 -202 96.5 -323t257.5 -121q107 0 201 58.5t172 172.5q76 113 118.5 259t42.5 294zM829 1397q94 0 176 -24t146 -70q105 -78 162 -193t57 -250q0 -170 -48.5 -323
t-139.5 -273q-106 -138 -251.5 -213.5t-305.5 -75.5q-238 0 -389.5 155.5t-151.5 399.5q0 159 49 307t143 271q104 137 249.5 213t303.5 76zM1094 1708q44 0 74.5 -30.5t30.5 -73.5t-31 -74t-74 -31q-41 0 -72.5 31.5t-31.5 73.5q0 43 31 73.5t73 30.5zM711 1708
q45 0 76 -30.5t31 -73.5t-31.5 -74t-75.5 -31q-41 0 -71.5 31.5t-30.5 73.5q0 43 30 73.5t72 30.5zM654 1914h616l-18 -104h-617z" />
    <glyph glyph-name="odieresismacron" unicode="&#x22b;" horiz-adv-x="1028" 
d="M545 909q-137 0 -231.5 -155t-94.5 -385q0 -145 52.5 -224t146.5 -79q135 0 231 154.5t96 379.5q0 148 -52 228.5t-148 80.5zM571 989q161 0 255 -108t94 -293q0 -121 -43 -234.5t-123 -206.5q-72 -82 -163 -123.5t-198 -41.5q-159 0 -253.5 105.5t-94.5 283.5
q0 123 43.5 241.5t120.5 206.5q74 84 166.5 127t195.5 43zM811 1300q44 0 74.5 -30.5t30.5 -73.5t-31 -74t-74 -31q-41 0 -72.5 31.5t-31.5 73.5q0 43 31 73.5t73 30.5zM428 1300q45 0 76 -30.5t31 -73.5t-31.5 -74t-75.5 -31q-41 0 -71.5 31.5t-30.5 73.5q0 43 30 73.5
t72 30.5zM372 1506h616l-18 -104h-617z" />
    <glyph glyph-name="Otildemacron" unicode="&#x22c;" horiz-adv-x="1450" 
d="M1169 858q0 205 -95.5 325t-258.5 120q-106 0 -200.5 -59t-172.5 -173q-76 -112 -118.5 -258t-42.5 -295q0 -202 96.5 -323t257.5 -121q107 0 201 58.5t172 172.5q76 113 118.5 259t42.5 294zM829 1397q94 0 176 -24t146 -70q105 -78 162 -193t57 -250q0 -170 -48.5 -323
t-139.5 -273q-106 -138 -251.5 -213.5t-305.5 -75.5q-238 0 -389.5 155.5t-151.5 399.5q0 159 49 307t143 271q104 137 249.5 213t303.5 76zM1164 1775h86q-13 -110 -74 -178t-143 -68q-69 0 -162.5 51.5t-114.5 51.5q-38 0 -65 -37t-31 -96h-88q18 120 74.5 182.5
t146.5 62.5q59 0 147.5 -53t118.5 -53q42 0 68 34t37 103zM668 1981h616l-18 -104h-617z" />
    <glyph glyph-name="otildemacron" unicode="&#x22d;" horiz-adv-x="1028" 
d="M545 909q-137 0 -231.5 -155t-94.5 -385q0 -145 52.5 -224t146.5 -79q135 0 231 154.5t96 379.5q0 148 -52 228.5t-148 80.5zM571 989q161 0 255 -108t94 -293q0 -121 -43 -234.5t-123 -206.5q-72 -82 -163 -123.5t-198 -41.5q-159 0 -253.5 105.5t-94.5 283.5
q0 123 43.5 241.5t120.5 206.5q74 84 166.5 127t195.5 43zM880 1367h86q-13 -110 -74 -178t-143 -68q-69 0 -162.5 51.5t-114.5 51.5q-38 0 -65 -37t-31 -96h-88q18 120 74.5 182.5t146.5 62.5q59 0 147.5 -53t118.5 -53q42 0 68 34t37 103zM384 1573h616l-18 -104h-617z
" />
    <glyph glyph-name="Odotaccent" unicode="&#x22e;" horiz-adv-x="1450" 
d="M1169 858q0 205 -95.5 325t-258.5 120q-106 0 -200.5 -59t-172.5 -173q-76 -112 -118.5 -258t-42.5 -295q0 -202 96.5 -323t257.5 -121q107 0 201 58.5t172 172.5q76 113 118.5 259t42.5 294zM829 1397q94 0 176 -24t146 -70q105 -78 162 -193t57 -250q0 -170 -48.5 -323
t-139.5 -273q-106 -138 -251.5 -213.5t-305.5 -75.5q-238 0 -389.5 155.5t-151.5 399.5q0 159 49 307t143 271q104 137 249.5 213t303.5 76zM902 1728q49 0 83.5 -33.5t34.5 -80.5t-35 -81t-83 -34q-45 0 -78 34t-33 81t32.5 80.5t78.5 33.5z" />
    <glyph glyph-name="odotaccent" unicode="&#x22f;" horiz-adv-x="1028" 
d="M545 909q-137 0 -231.5 -155t-94.5 -385q0 -145 52.5 -224t146.5 -79q135 0 231 154.5t96 379.5q0 148 -52 228.5t-148 80.5zM571 989q161 0 255 -108t94 -293q0 -121 -43 -234.5t-123 -206.5q-72 -82 -163 -123.5t-198 -41.5q-159 0 -253.5 105.5t-94.5 283.5
q0 123 43.5 241.5t120.5 206.5q74 84 166.5 127t195.5 43zM619 1320q49 0 83.5 -33.5t34.5 -80.5t-35 -81t-83 -34q-45 0 -78 34t-33 81t32.5 80.5t78.5 33.5z" />
    <glyph glyph-name="Odotaccentmacron" unicode="&#x230;" horiz-adv-x="1450" 
d="M1169 858q0 205 -95.5 325t-258.5 120q-106 0 -200.5 -59t-172.5 -173q-76 -112 -118.5 -258t-42.5 -295q0 -202 96.5 -323t257.5 -121q107 0 201 58.5t172 172.5q76 113 118.5 259t42.5 294zM829 1397q94 0 176 -24t146 -70q105 -78 162 -193t57 -250q0 -170 -48.5 -323
t-139.5 -273q-106 -138 -251.5 -213.5t-305.5 -75.5q-238 0 -389.5 155.5t-151.5 399.5q0 159 49 307t143 271q104 137 249.5 213t303.5 76zM902 1728q49 0 83.5 -33.5t34.5 -80.5t-35 -81t-83 -34q-45 0 -78 34t-33 81t32.5 80.5t78.5 33.5zM658 1934h616l-18 -104h-617z
" />
    <glyph glyph-name="odotaccentmacron" unicode="&#x231;" horiz-adv-x="1028" 
d="M545 909q-137 0 -231.5 -155t-94.5 -385q0 -145 52.5 -224t146.5 -79q135 0 231 154.5t96 379.5q0 148 -52 228.5t-148 80.5zM571 989q161 0 255 -108t94 -293q0 -121 -43 -234.5t-123 -206.5q-72 -82 -163 -123.5t-198 -41.5q-159 0 -253.5 105.5t-94.5 283.5
q0 123 43.5 241.5t120.5 206.5q74 84 166.5 127t195.5 43zM619 1320q49 0 83.5 -33.5t34.5 -80.5t-35 -81t-83 -34q-45 0 -78 34t-33 81t32.5 80.5t78.5 33.5zM375 1526h616l-18 -104h-617z" />
    <glyph glyph-name="Ymacron" unicode="&#x232;" horiz-adv-x="1151" 
d="M63 1374h498v-78l-133 -10l-33 -31l185 -579l428 579l-21 31l-131 10v78h459v-78l-135 -10l-33 -31l-520 -680l-90 -456l26 -29l133 -12v-78h-497v78l129 12l32 29l86 438l-229 698l-20 31l-134 10v78zM552 1580h616l-18 -104h-617z" />
    <glyph glyph-name="ymacron" unicode="&#x233;" horiz-adv-x="973" 
d="M169 993q5 1 11 1.5t17 0.5q119 0 189 -362q10 -51 15 -77l68 -347q65 166 145.5 360.5t176.5 417.5h38l162 -53v-43l-104 -62q-90 -100 -214 -372t-188 -387q-139 -254 -277 -384t-267 -130q-74 0 -123 39t-49 96q0 42 30.5 73.5t79.5 38.5l121 -120q91 6 178 93
t180 267l-6 -4l-127 616q-14 71 -34 124t-48 89l-174 15v45zM251 1201h616l-18 -104h-617z" />
    <glyph glyph-name="commaturnedmod" unicode="&#x2bb;" horiz-adv-x="412" 
d="M416 1460h88q-119 -108 -174.5 -195t-55.5 -163v-4h132q7 -14 10.5 -26.5t3.5 -27.5q0 -56 -42.5 -97.5t-103.5 -41.5q-60 0 -95.5 37t-35.5 100q0 96 70 203.5t203 214.5z" />
    <glyph glyph-name="afii57929" unicode="&#x2bc;" horiz-adv-x="412" 
d="M193 905h-89q117 106 173.5 193t56.5 162v8h-131q-8 13 -11.5 26t-3.5 27q0 56 43 97.5t103 41.5t95.5 -36.5t35.5 -98.5q0 -98 -69.5 -205t-202.5 -215z" />
    <glyph glyph-name="uni02EE" unicode="&#x2ee;" horiz-adv-x="825" 
d="M606 905h-88q117 106 173.5 193t56.5 162v8h-134q-7 13 -10.5 26t-3.5 27q0 55 44 97t104 42q59 0 94 -36.5t35 -98.5q0 -98 -69 -205.5t-202 -214.5zM193 905h-89q117 106 173.5 193t56.5 162v8h-131q-8 13 -11.5 26t-3.5 27q0 56 43 97.5t103 41.5t95.5 -36.5
t35.5 -98.5q0 -98 -69.5 -205t-202.5 -215z" />
    <glyph glyph-name="palochkacyrillic" unicode="&#x4c0;" horiz-adv-x="639" 
d="M182 1374h500v-78l-135 -10l-33 -31l-219 -1136l24 -29l134 -12v-78h-500v78l131 12l33 29l219 1136l-23 31l-131 10v78z" />
    <glyph glyph-name="Aringbelow" unicode="&#x1e00;" horiz-adv-x="1241" 
d="M707 1186l-334 -590h428zM707 1386h135l219 -1261l35 -37l100 -10v-78h-448v78l120 10l15 29l-64 391h-497l-220 -391l17 -29l125 -10v-78h-406v78l113 12zM320 -186q-57 0 -96 -39.5t-39 -97.5q0 -57 39 -96t96 -39t97 39.5t40 95.5q0 57 -40 97t-97 40zM320 -102
q93 0 157 -63.5t64 -155.5q0 -93 -64 -157t-157 -64q-92 0 -156.5 64.5t-64.5 156.5t64.5 155.5t156.5 63.5z" />
    <glyph glyph-name="aringbelow" unicode="&#x1e01;" horiz-adv-x="1075" 
d="M649 907h-28q-182 0 -299 -156.5t-117 -398.5q0 -123 44.5 -184.5t133.5 -61.5q58 0 118 34t124 102l106 540zM840 987h106q-16 -33 -35.5 -107.5t-42.5 -185.5l-73 -362q-10 -48 -15.5 -84.5t-5.5 -59.5q0 -48 26.5 -71t84.5 -23q12 0 32.5 3.5t81.5 17.5v-62
q-86 -36 -148.5 -53.5t-102.5 -17.5q-64 0 -94.5 38t-30.5 117v17q-83 -88 -158 -130t-148 -42q-131 0 -206.5 95t-75.5 263q0 101 26.5 196t79.5 183q79 130 201 199t272 69q45 0 92 -11.5t93 -33.5zM357 -204q-57 0 -96 -39.5t-39 -97.5q0 -57 39 -96t96 -39t97 39.5
t40 95.5q0 57 -40 97t-97 40zM357 -120q93 0 157 -63.5t64 -155.5q0 -93 -64 -157t-157 -64q-92 0 -156.5 64.5t-64.5 156.5t64.5 155.5t156.5 63.5z" />
    <glyph glyph-name="Bdotaccent" unicode="&#x1e02;" horiz-adv-x="1204" 
d="M281 90q35 -3 68.5 -4.5t66.5 -1.5q227 0 341.5 90t114.5 268q0 118 -78 173t-245 55q-23 0 -59.5 -2.5t-98.5 -8.5zM408 756q34 -3 59 -4.5t45 -1.5q183 0 290 94t107 254q0 100 -71 148t-220 48q-20 0 -47.5 -1.5t-64.5 -4.5zM172 1374h526q212 0 313 -62.5t101 -193.5
q0 -146 -92.5 -245.5t-269.5 -143.5q159 -8 241 -77t82 -195q0 -230 -153.5 -343.5t-464.5 -113.5h-512v78l129 12l34 29l218 1136l-21 31l-131 10v78zM699 1705q49 0 83.5 -33.5t34.5 -80.5t-35 -81t-83 -34q-45 0 -78 34t-33 81t32.5 80.5t78.5 33.5z" />
    <glyph glyph-name="bdotaccent" unicode="&#x1e03;" horiz-adv-x="1038" 
d="M225 147q42 -41 87 -61t96 -20q64 0 123.5 39.5t111.5 117.5t83.5 185t31.5 208q0 115 -46.5 182.5t-123.5 67.5q-47 0 -102 -23.5t-144 -84.5zM424 1507h68q-16 -48 -27.5 -94.5t-20.5 -93.5l-88 -481q91 77 166.5 115t136.5 38q118 0 192.5 -96.5t74.5 -251.5
q0 -133 -41 -252.5t-119 -214.5q-78 -94 -182 -144t-222 -50q-83 0 -161 22.5t-150 67.5l240 1290l-178 33v51zM674 1838q49 0 83.5 -33.5t34.5 -80.5t-35 -81t-83 -34q-45 0 -78 34t-33 81t32.5 80.5t78.5 33.5z" />
    <glyph glyph-name="Bdotbelow" unicode="&#x1e04;" horiz-adv-x="1204" 
d="M281 90q35 -3 68.5 -4.5t66.5 -1.5q227 0 341.5 90t114.5 268q0 118 -78 173t-245 55q-23 0 -59.5 -2.5t-98.5 -8.5zM408 756q34 -3 59 -4.5t45 -1.5q183 0 290 94t107 254q0 100 -71 148t-220 48q-20 0 -47.5 -1.5t-64.5 -4.5zM172 1374h526q212 0 313 -62.5t101 -193.5
q0 -146 -92.5 -245.5t-269.5 -143.5q159 -8 241 -77t82 -195q0 -230 -153.5 -343.5t-464.5 -113.5h-512v78l129 12l34 29l218 1136l-21 31l-131 10v78zM348 -102q49 0 83.5 -33.5t34.5 -80.5t-35 -81t-83 -34q-45 0 -78 34t-33 81t32.5 80.5t78.5 33.5z" />
    <glyph glyph-name="bdotbelow" unicode="&#x1e05;" horiz-adv-x="1038" 
d="M225 147q42 -41 87 -61t96 -20q64 0 123.5 39.5t111.5 117.5t83.5 185t31.5 208q0 115 -46.5 182.5t-123.5 67.5q-47 0 -102 -23.5t-144 -84.5zM424 1507h68q-16 -48 -27.5 -94.5t-20.5 -93.5l-88 -481q91 77 166.5 115t136.5 38q118 0 192.5 -96.5t74.5 -251.5
q0 -133 -41 -252.5t-119 -214.5q-78 -94 -182 -144t-222 -50q-83 0 -161 22.5t-150 67.5l240 1290l-178 33v51zM295 -120q49 0 83.5 -33.5t34.5 -80.5t-35 -81t-83 -34q-45 0 -78 34t-33 81t32.5 80.5t78.5 33.5z" />
    <glyph glyph-name="Blinebelow" unicode="&#x1e06;" horiz-adv-x="1204" 
d="M281 90q35 -3 68.5 -4.5t66.5 -1.5q227 0 341.5 90t114.5 268q0 118 -78 173t-245 55q-23 0 -59.5 -2.5t-98.5 -8.5zM408 756q34 -3 59 -4.5t45 -1.5q183 0 290 94t107 254q0 100 -71 148t-220 48q-20 0 -47.5 -1.5t-64.5 -4.5zM172 1374h526q212 0 313 -62.5t101 -193.5
q0 -146 -92.5 -245.5t-269.5 -143.5q159 -8 241 -77t82 -195q0 -230 -153.5 -343.5t-464.5 -113.5h-512v78l129 12l34 29l218 1136l-21 31l-131 10v78zM66 -102h616l-18 -104h-617z" />
    <glyph glyph-name="blinebelow" unicode="&#x1e07;" horiz-adv-x="1038" 
d="M225 147q42 -41 87 -61t96 -20q64 0 123.5 39.5t111.5 117.5t83.5 185t31.5 208q0 115 -46.5 182.5t-123.5 67.5q-47 0 -102 -23.5t-144 -84.5zM424 1507h68q-16 -48 -27.5 -94.5t-20.5 -93.5l-88 -481q91 77 166.5 115t136.5 38q118 0 192.5 -96.5t74.5 -251.5
q0 -133 -41 -252.5t-119 -214.5q-78 -94 -182 -144t-222 -50q-83 0 -161 22.5t-150 67.5l240 1290l-178 33v51zM12 -120h616l-18 -104h-617z" />
    <glyph glyph-name="Ddotaccent" unicode="&#x1e0a;" horiz-adv-x="1374" 
d="M510 1280l-223 -1184h112q166 0 293.5 55t208.5 160q82 107 129 257.5t47 303.5q0 207 -112.5 307.5t-343.5 100.5h-111zM172 1374h465q312 0 475.5 -133.5t163.5 -388.5q0 -179 -66 -341.5t-188 -283.5q-119 -117 -275.5 -172t-371.5 -55h-432v78l131 12l32 29l220 1136
l-21 31l-133 10v78zM781 1705q49 0 83.5 -33.5t34.5 -80.5t-35 -81t-83 -34q-45 0 -78 34t-33 81t32.5 80.5t78.5 33.5z" />
    <glyph glyph-name="ddotaccent" unicode="&#x1e0b;" horiz-adv-x="1071" 
d="M641 909q-7 1 -23.5 3.5t-25.5 2.5q-153 0 -268 -164t-115 -401q0 -118 47 -185t129 -67q60 0 128 45.5t134 128.5l92 521zM973 1507h53l-219 -1226q-6 -33 -9 -61.5t-3 -49.5q0 -44 22 -65t68 -21q18 0 50.5 5.5t82.5 16.5v-61q-80 -29 -144.5 -44t-107.5 -15
q-71 0 -104 35t-33 110q0 16 0.5 25t1.5 16q-74 -94 -155.5 -142t-164.5 -48q-125 0 -196.5 97t-71.5 269q0 104 25.5 198t74.5 173q81 127 205.5 201.5t255.5 74.5q44 0 84 -8.5t80 -25.5l72 409l-181 21v57zM720 1838q49 0 83.5 -33.5t34.5 -80.5t-35 -81t-83 -34
q-45 0 -78 34t-33 81t32.5 80.5t78.5 33.5z" />
    <glyph glyph-name="Ddotbelow" unicode="&#x1e0c;" horiz-adv-x="1374" 
d="M510 1280l-223 -1184h112q166 0 293.5 55t208.5 160q82 107 129 257.5t47 303.5q0 207 -112.5 307.5t-343.5 100.5h-111zM172 1374h465q312 0 475.5 -133.5t163.5 -388.5q0 -179 -66 -341.5t-188 -283.5q-119 -117 -275.5 -172t-371.5 -55h-432v78l131 12l32 29l220 1136
l-21 31l-133 10v78zM430 -102q49 0 83.5 -33.5t34.5 -80.5t-35 -81t-83 -34q-45 0 -78 34t-33 81t32.5 80.5t78.5 33.5z" />
    <glyph glyph-name="ddotbelow" unicode="&#x1e0d;" horiz-adv-x="1071" 
d="M641 909q-7 1 -23.5 3.5t-25.5 2.5q-153 0 -268 -164t-115 -401q0 -118 47 -185t129 -67q60 0 128 45.5t134 128.5l92 521zM973 1507h53l-219 -1226q-6 -33 -9 -61.5t-3 -49.5q0 -44 22 -65t68 -21q18 0 50.5 5.5t82.5 16.5v-61q-80 -29 -144.5 -44t-107.5 -15
q-71 0 -104 35t-33 110q0 16 0.5 25t1.5 16q-74 -94 -155.5 -142t-164.5 -48q-125 0 -196.5 97t-71.5 269q0 104 25.5 198t74.5 173q81 127 205.5 201.5t255.5 74.5q44 0 84 -8.5t80 -25.5l72 409l-181 21v57zM341 -120q49 0 83.5 -33.5t34.5 -80.5t-35 -81t-83 -34
q-45 0 -78 34t-33 81t32.5 80.5t78.5 33.5z" />
    <glyph glyph-name="Dlinebelow" unicode="&#x1e0e;" horiz-adv-x="1374" 
d="M510 1280l-223 -1184h112q166 0 293.5 55t208.5 160q82 107 129 257.5t47 303.5q0 207 -112.5 307.5t-343.5 100.5h-111zM172 1374h465q312 0 475.5 -133.5t163.5 -388.5q0 -179 -66 -341.5t-188 -283.5q-119 -117 -275.5 -172t-371.5 -55h-432v78l131 12l32 29l220 1136
l-21 31l-133 10v78zM148 -102h616l-18 -104h-617z" />
    <glyph glyph-name="dlinebelow" unicode="&#x1e0f;" horiz-adv-x="1071" 
d="M641 909q-7 1 -23.5 3.5t-25.5 2.5q-153 0 -268 -164t-115 -401q0 -118 47 -185t129 -67q60 0 128 45.5t134 128.5l92 521zM973 1507h53l-219 -1226q-6 -33 -9 -61.5t-3 -49.5q0 -44 22 -65t68 -21q18 0 50.5 5.5t82.5 16.5v-61q-80 -29 -144.5 -44t-107.5 -15
q-71 0 -104 35t-33 110q0 16 0.5 25t1.5 16q-74 -94 -155.5 -142t-164.5 -48q-125 0 -196.5 97t-71.5 269q0 104 25.5 198t74.5 173q81 127 205.5 201.5t255.5 74.5q44 0 84 -8.5t80 -25.5l72 409l-181 21v57zM58 -120h616l-18 -104h-617z" />
    <glyph glyph-name="Dcommaaccent" unicode="&#x1e10;" horiz-adv-x="1374" 
d="M510 1280l-223 -1184h112q166 0 293.5 55t208.5 160q82 107 129 257.5t47 303.5q0 207 -112.5 307.5t-343.5 100.5h-111zM172 1374h465q312 0 475.5 -133.5t163.5 -388.5q0 -179 -66 -341.5t-188 -283.5q-119 -117 -275.5 -172t-371.5 -55h-432v78l131 12l32 29l220 1136
l-21 31l-133 10v78zM218 -524l13 51q114 17 180.5 72.5t82.5 146.5h-123q-9 12 -13 22.5t-4 22.5q0 46 39 76.5t97 30.5q60 0 92 -27t32 -77q0 -115 -114.5 -208t-281.5 -110z" />
    <glyph glyph-name="dcommaaccent" unicode="&#x1e11;" horiz-adv-x="1071" 
d="M641 909q-7 1 -23.5 3.5t-25.5 2.5q-153 0 -268 -164t-115 -401q0 -118 47 -185t129 -67q60 0 128 45.5t134 128.5l92 521zM973 1507h53l-219 -1226q-6 -33 -9 -61.5t-3 -49.5q0 -44 22 -65t68 -21q18 0 50.5 5.5t82.5 16.5v-61q-80 -29 -144.5 -44t-107.5 -15
q-71 0 -104 35t-33 110q0 16 0.5 25t1.5 16q-74 -94 -155.5 -142t-164.5 -48q-125 0 -196.5 97t-71.5 269q0 104 25.5 198t74.5 173q81 127 205.5 201.5t255.5 74.5q44 0 84 -8.5t80 -25.5l72 409l-181 21v57zM129 -542l13 51q114 17 180.5 72.5t82.5 146.5h-123
q-9 12 -13 22.5t-4 22.5q0 46 39 76.5t97 30.5q60 0 92 -27t32 -77q0 -115 -114.5 -208t-281.5 -110z" />
    <glyph glyph-name="Dcircumflexbelow" unicode="&#x1e12;" horiz-adv-x="1374" 
d="M510 1280l-223 -1184h112q166 0 293.5 55t208.5 160q82 107 129 257.5t47 303.5q0 207 -112.5 307.5t-343.5 100.5h-111zM172 1374h465q312 0 475.5 -133.5t163.5 -388.5q0 -179 -66 -341.5t-188 -283.5q-119 -117 -275.5 -172t-371.5 -55h-432v78l131 12l32 29l220 1136
l-21 31l-133 10v78zM426 -102h133l152 -389h-113l-125 289l-233 -289h-113z" />
    <glyph glyph-name="dcircumflexbelow" unicode="&#x1e13;" horiz-adv-x="1071" 
d="M641 909q-7 1 -23.5 3.5t-25.5 2.5q-153 0 -268 -164t-115 -401q0 -118 47 -185t129 -67q60 0 128 45.5t134 128.5l92 521zM973 1507h53l-219 -1226q-6 -33 -9 -61.5t-3 -49.5q0 -44 22 -65t68 -21q18 0 50.5 5.5t82.5 16.5v-61q-80 -29 -144.5 -44t-107.5 -15
q-71 0 -104 35t-33 110q0 16 0.5 25t1.5 16q-74 -94 -155.5 -142t-164.5 -48q-125 0 -196.5 97t-71.5 269q0 104 25.5 198t74.5 173q81 127 205.5 201.5t255.5 74.5q44 0 84 -8.5t80 -25.5l72 409l-181 21v57zM336 -120h133l152 -389h-113l-125 289l-233 -289h-113z" />
    <glyph glyph-name="Emacrongrave" unicode="&#x1e14;" horiz-adv-x="1118" 
d="M180 1374h953l-58 -299h-98v174l-23 31h-440l-100 -518h311l37 29l45 149h88l-86 -451h-84l8 148l-24 29h-314l-110 -572h522l37 33l69 207h95l-66 -334h-991v78l129 12l35 29l219 1136l-23 31l-131 10v78zM405 1580h616l-18 -104h-617zM608 2071h202l123 -389h-102z" />
    <glyph glyph-name="emacrongrave" unicode="&#x1e15;" horiz-adv-x="868" 
d="M216 455q-4 -21 -5.5 -45t-1.5 -50q0 -123 57 -194.5t156 -71.5q72 0 156 43t172 125v-96q-95 -91 -195 -137.5t-203 -46.5q-146 0 -227.5 98t-81.5 274q0 129 48 252t134 213q75 77 166.5 122.5t171.5 45.5q97 0 154 -55t57 -148q0 -136 -148 -224t-410 -105zM225 524
q179 10 290.5 85.5t111.5 181.5q0 47 -31 78.5t-76 31.5q-94 0 -173.5 -100.5t-121.5 -276.5zM237 1193h616l-18 -104h-617zM440 1684h202l123 -389h-102z" />
    <glyph glyph-name="Emacronacute" unicode="&#x1e16;" horiz-adv-x="1118" 
d="M180 1374h953l-58 -299h-98v174l-23 31h-440l-100 -518h311l37 29l45 149h88l-86 -451h-84l8 148l-24 29h-314l-110 -572h522l37 33l69 207h95l-66 -334h-991v78l129 12l35 29l219 1136l-23 31l-131 10v78zM405 1580h616l-18 -104h-617zM806 2071h202l-375 -389h-100z
" />
    <glyph glyph-name="emacronacute" unicode="&#x1e17;" horiz-adv-x="868" 
d="M216 455q-4 -21 -5.5 -45t-1.5 -50q0 -123 57 -194.5t156 -71.5q72 0 156 43t172 125v-96q-95 -91 -195 -137.5t-203 -46.5q-146 0 -227.5 98t-81.5 274q0 129 48 252t134 213q75 77 166.5 122.5t171.5 45.5q97 0 154 -55t57 -148q0 -136 -148 -224t-410 -105zM225 524
q179 10 290.5 85.5t111.5 181.5q0 47 -31 78.5t-76 31.5q-94 0 -173.5 -100.5t-121.5 -276.5zM237 1193h616l-18 -104h-617zM638 1684h202l-375 -389h-100z" />
    <glyph glyph-name="Ecircumflexbelow" unicode="&#x1e18;" horiz-adv-x="1118" 
d="M180 1374h953l-58 -299h-98v174l-23 31h-440l-100 -518h311l37 29l45 149h88l-86 -451h-84l8 148l-24 29h-314l-110 -572h522l37 33l69 207h95l-66 -334h-991v78l129 12l35 29l219 1136l-23 31l-131 10v78zM358 -102h133l152 -389h-113l-125 289l-233 -289h-113z" />
    <glyph glyph-name="ecircumflexbelow" unicode="&#x1e19;" horiz-adv-x="868" 
d="M216 455q-4 -21 -5.5 -45t-1.5 -50q0 -123 57 -194.5t156 -71.5q72 0 156 43t172 125v-96q-95 -91 -195 -137.5t-203 -46.5q-146 0 -227.5 98t-81.5 274q0 129 48 252t134 213q75 77 166.5 122.5t171.5 45.5q97 0 154 -55t57 -148q0 -136 -148 -224t-410 -105zM225 524
q179 10 290.5 85.5t111.5 181.5q0 47 -31 78.5t-76 31.5q-94 0 -173.5 -100.5t-121.5 -276.5zM260 -120h133l152 -389h-113l-125 289l-233 -289h-113z" />
    <glyph glyph-name="Etildebelow" unicode="&#x1e1a;" horiz-adv-x="1118" 
d="M180 1374h953l-58 -299h-98v174l-23 31h-440l-100 -518h311l37 29l45 149h88l-86 -451h-84l8 148l-24 29h-314l-110 -572h522l37 33l69 207h95l-66 -334h-991v78l129 12l35 29l219 1136l-23 31l-131 10v78zM615 -102h86q-13 -110 -74 -178t-143 -68q-69 0 -162.5 51.5
t-114.5 51.5q-38 0 -65 -37t-31 -96h-88q18 120 74.5 182.5t146.5 62.5q59 0 147.5 -53t118.5 -53q42 0 68 34t37 103z" />
    <glyph glyph-name="etildebelow" unicode="&#x1e1b;" horiz-adv-x="868" 
d="M216 455q-4 -21 -5.5 -45t-1.5 -50q0 -123 57 -194.5t156 -71.5q72 0 156 43t172 125v-96q-95 -91 -195 -137.5t-203 -46.5q-146 0 -227.5 98t-81.5 274q0 129 48 252t134 213q75 77 166.5 122.5t171.5 45.5q97 0 154 -55t57 -148q0 -136 -148 -224t-410 -105zM225 524
q179 10 290.5 85.5t111.5 181.5q0 47 -31 78.5t-76 31.5q-94 0 -173.5 -100.5t-121.5 -276.5zM517 -120h86q-13 -110 -74 -178t-143 -68q-69 0 -162.5 51.5t-114.5 51.5q-38 0 -65 -37t-31 -96h-88q18 120 74.5 182.5t146.5 62.5q59 0 147.5 -53t118.5 -53q42 0 68 34
t37 103z" />
    <glyph glyph-name="Ecedillabreve" unicode="&#x1e1c;" horiz-adv-x="1118" 
d="M180 1374h953l-58 -299h-98v174l-23 31h-440l-100 -518h311l37 29l45 149h88l-86 -451h-84l8 148l-24 29h-314l-110 -572h522l37 33l69 207h95l-66 -334h-991v78l129 12l35 29l219 1136l-23 31l-131 10v78zM437 1767h81q-1 -7 -1 -13.5v-19.5q0 -68 40.5 -98.5
t131.5 -30.5q120 0 173 35.5t74 126.5h80q-29 -152 -111 -221.5t-231 -69.5q-124 0 -184 52t-60 161q1 19 2 37t5 41zM353 0h73l-24 -124q9 0 19 0.5t24 0.5q62 0 95.5 -29.5t33.5 -85.5q0 -94 -79 -156.5t-202 -62.5q-34 0 -69 5.5t-70 15.5l14 74q30 -9 59.5 -13t59.5 -4
q71 0 112.5 29t41.5 78q0 26 -24 41.5t-64 15.5q-11 0 -37 -3q-4 -1 -6 -1z" />
    <glyph glyph-name="ecedillabreve" unicode="&#x1e1d;" horiz-adv-x="868" 
d="M216 455q-4 -21 -5.5 -45t-1.5 -50q0 -123 57 -194.5t156 -71.5q72 0 156 43t172 125v-96q-95 -91 -195 -137.5t-203 -46.5q-146 0 -227.5 98t-81.5 274q0 129 48 252t134 213q75 77 166.5 122.5t171.5 45.5q97 0 154 -55t57 -148q0 -136 -148 -224t-410 -105zM225 524
q179 10 290.5 85.5t111.5 181.5q0 47 -31 78.5t-76 31.5q-94 0 -173.5 -100.5t-121.5 -276.5zM269 1380h81q-1 -7 -1 -13.5v-19.5q0 -68 40.5 -98.5t131.5 -30.5q120 0 173 35.5t74 126.5h80q-29 -152 -111 -221.5t-231 -69.5q-124 0 -184 52t-60 161q1 19 2 37t5 41z
M256 -18h73l-24 -124q9 0 19 0.5t24 0.5q62 0 95.5 -29.5t33.5 -85.5q0 -94 -79 -156.5t-202 -62.5q-34 0 -69 5.5t-70 15.5l14 74q30 -9 59.5 -13t59.5 -4q71 0 112.5 29t41.5 78q0 26 -24 41.5t-64 15.5q-11 0 -37 -3q-4 -1 -6 -1z" />
    <glyph glyph-name="Fdotaccent" unicode="&#x1e1e;" horiz-adv-x="1042" 
d="M176 1374h930l-64 -321h-98v194l-20 33h-414l-102 -541h288l37 31l47 148h90l-88 -451h-88l8 147l-24 31h-289l-100 -522l28 -31l144 -10v-82h-514v78l129 10l33 29l219 1138l-21 29l-131 12v78zM698 1705q49 0 83.5 -33.5t34.5 -80.5t-35 -81t-83 -34q-45 0 -78 34
t-33 81t32.5 80.5t78.5 33.5z" />
    <glyph glyph-name="fdotaccent" unicode="&#x1e1f;" horiz-adv-x="598" 
d="M725 1272l-168 137q-58 -38 -104 -157.5t-80 -319.5h289v-92h-306l-82 -582q-24 -172 -60 -280t-93 -189q-80 -112 -162 -171.5t-158 -59.5q-49 0 -79.5 29.5t-30.5 78.5q0 24 11.5 45t33.5 37l213 -55q57 60 94 175t76 384l86 588l-137 -15l2 68l155 63
q49 253 164.5 398t265.5 145q71 0 120.5 -36t49.5 -85q0 -40 -26.5 -68.5t-73.5 -37.5zM484 1830q49 0 83.5 -33.5t34.5 -80.5t-35 -81t-83 -34q-45 0 -78 34t-33 81t32.5 80.5t78.5 33.5z" />
    <glyph glyph-name="Gmacron" unicode="&#x1e20;" horiz-adv-x="1360" 
d="M1309 1339l-60 -325h-108l6 192l-19 43q-51 26 -102.5 38.5t-103.5 12.5q-101 0 -197 -36.5t-178 -106.5q-128 -109 -198 -276.5t-70 -364.5q0 -196 113 -318t296 -122q40 0 93 7t122 21l78 437l-20 28l-134 11v79h504v-79l-131 -11l-33 -28l-96 -494
q-125 -35 -234.5 -53.5t-197.5 -18.5q-253 0 -406 156.5t-153 413.5q0 199 87 376t245 300q115 89 249 134.5t279 45.5q104 0 198 -16t171 -46zM574 1607h616l-18 -104h-617z" />
    <glyph glyph-name="gmacron" unicode="&#x1e21;" horiz-adv-x="985" 
d="M285 70q-93 -22 -141 -73.5t-48 -129.5q0 -99 77.5 -163t199.5 -64q125 0 205.5 51.5t80.5 126.5q0 40 -28 72.5t-86 58.5zM637 727q0 90 -36 138t-103 48q-93 0 -164.5 -102t-71.5 -242q0 -81 36.5 -126.5t100.5 -45.5q93 0 165.5 98.5t72.5 231.5zM690 938h293v-88
h-210q12 -34 19 -68t7 -67q0 -164 -115 -275.5t-278 -111.5q-11 0 -23 0.5t-25 1.5q-13 -26 -19.5 -52.5t-6.5 -56.5v-12l325 -148q81 -37 120.5 -87t39.5 -115q0 -121 -146 -213t-347 -92q-178 0 -282.5 73.5t-104.5 198.5q0 94 63.5 161t208.5 124q-1 6 -1.5 13t-0.5 21
q0 50 19.5 97.5t62.5 101.5q-91 36 -140 100.5t-49 147.5q0 167 116 282t284 115q46 0 92.5 -12.5t97.5 -38.5zM331 1195h616l-18 -104h-617z" />
    <glyph glyph-name="Hdotaccent" unicode="&#x1e22;" horiz-adv-x="1458" 
d="M172 1374h500v-78l-135 -10l-31 -31l-96 -489h667l97 489l-25 31l-131 10v78h500v-78l-136 -10l-32 -31l-217 -1136l20 -29l131 -12v-78h-496v78l134 12l30 29l105 553h-666l-106 -553l24 -29l131 -12v-78h-497v78l131 12l32 29l220 1136l-21 31l-133 10v78zM902 1705
q49 0 83.5 -33.5t34.5 -80.5t-35 -81t-83 -34q-45 0 -78 34t-33 81t32.5 80.5t78.5 33.5z" />
    <glyph glyph-name="hdotaccent" unicode="&#x1e23;" horiz-adv-x="1128" 
d="M457 1507h63q-18 -68 -38 -156t-44 -206l-67 -350q123 99 219 146.5t174 47.5q79 0 125.5 -44t46.5 -120q0 -29 -6 -68t-23 -116l-71 -317q-12 -52 -16.5 -82t-4.5 -52q0 -49 27 -75.5t78 -26.5q21 0 50 4.5t64 13.5v-55q-78 -31 -141 -47t-105 -16q-77 0 -113 30t-36 95
q0 22 3.5 49.5t10.5 58.5l88 379q10 41 15.5 75t5.5 56q0 68 -27 99.5t-84 31.5q-55 0 -134.5 -44t-168.5 -124l-127 -694h-174l281 1372l-193 17v51zM725 1838q49 0 83.5 -33.5t34.5 -80.5t-35 -81t-83 -34q-45 0 -78 34t-33 81t32.5 80.5t78.5 33.5z" />
    <glyph glyph-name="Hdotbelow" unicode="&#x1e24;" horiz-adv-x="1458" 
d="M172 1374h500v-78l-135 -10l-31 -31l-96 -489h667l97 489l-25 31l-131 10v78h500v-78l-136 -10l-32 -31l-217 -1136l20 -29l131 -12v-78h-496v78l134 12l30 29l105 553h-666l-106 -553l24 -29l131 -12v-78h-497v78l131 12l32 29l220 1136l-21 31l-133 10v78zM551 -102
q49 0 83.5 -33.5t34.5 -80.5t-35 -81t-83 -34q-45 0 -78 34t-33 81t32.5 80.5t78.5 33.5z" />
    <glyph glyph-name="hdotbelow" unicode="&#x1e25;" horiz-adv-x="1128" 
d="M457 1507h63q-18 -68 -38 -156t-44 -206l-67 -350q123 99 219 146.5t174 47.5q79 0 125.5 -44t46.5 -120q0 -29 -6 -68t-23 -116l-71 -317q-12 -52 -16.5 -82t-4.5 -52q0 -49 27 -75.5t78 -26.5q21 0 50 4.5t64 13.5v-55q-78 -31 -141 -47t-105 -16q-77 0 -113 30t-36 95
q0 22 3.5 49.5t10.5 58.5l88 379q10 41 15.5 75t5.5 56q0 68 -27 99.5t-84 31.5q-55 0 -134.5 -44t-168.5 -124l-127 -694h-174l281 1372l-193 17v51zM347 -114q49 0 83.5 -33.5t34.5 -80.5t-35 -81t-83 -34q-45 0 -78 34t-33 81t32.5 80.5t78.5 33.5z" />
    <glyph glyph-name="Hdieresis" unicode="&#x1e26;" horiz-adv-x="1458" 
d="M172 1374h500v-78l-135 -10l-31 -31l-96 -489h667l97 489l-25 31l-131 10v78h500v-78l-136 -10l-32 -31l-217 -1136l20 -29l131 -12v-78h-496v78l134 12l30 29l105 553h-666l-106 -553l24 -29l131 -12v-78h-497v78l131 12l32 29l220 1136l-21 31l-133 10v78zM1094 1685
q44 0 74.5 -30.5t30.5 -73.5t-31 -74t-74 -31q-41 0 -72.5 31.5t-31.5 73.5q0 43 31 73.5t73 30.5zM711 1685q45 0 76 -30.5t31 -73.5t-31.5 -74t-75.5 -31q-41 0 -71.5 31.5t-30.5 73.5q0 43 30 73.5t72 30.5z" />
    <glyph glyph-name="hdieresis" unicode="&#x1e27;" horiz-adv-x="1128" 
d="M457 1507h63q-18 -68 -38 -156t-44 -206l-67 -350q123 99 219 146.5t174 47.5q79 0 125.5 -44t46.5 -120q0 -29 -6 -68t-23 -116l-71 -317q-12 -52 -16.5 -82t-4.5 -52q0 -49 27 -75.5t78 -26.5q21 0 50 4.5t64 13.5v-55q-78 -31 -141 -47t-105 -16q-77 0 -113 30t-36 95
q0 22 3.5 49.5t10.5 58.5l88 379q10 41 15.5 75t5.5 56q0 68 -27 99.5t-84 31.5q-55 0 -134.5 -44t-168.5 -124l-127 -694h-174l281 1372l-193 17v51zM917 1818q44 0 74.5 -30.5t30.5 -73.5t-31 -74t-74 -31q-41 0 -72.5 31.5t-31.5 73.5q0 43 31 73.5t73 30.5zM534 1818
q45 0 76 -30.5t31 -73.5t-31.5 -74t-75.5 -31q-41 0 -71.5 31.5t-30.5 73.5q0 43 30 73.5t72 30.5z" />
    <glyph glyph-name="Hcedilla" unicode="&#x1e28;" horiz-adv-x="1458" 
d="M172 1374h500v-78l-135 -10l-31 -31l-96 -489h667l97 489l-25 31l-131 10v78h500v-78l-136 -10l-32 -31l-217 -1136l20 -29l131 -12v-78h-496v78l134 12l30 29l105 553h-666l-106 -553l24 -29l131 -12v-78h-497v78l131 12l32 29l220 1136l-21 31l-133 10v78zM54 0h73
l-24 -124q9 0 19 0.5t24 0.5q62 0 95.5 -29.5t33.5 -85.5q0 -94 -79 -156.5t-202 -62.5q-34 0 -69 5.5t-70 15.5l14 74q30 -9 59.5 -13t59.5 -4q71 0 112.5 29t41.5 78q0 26 -24 41.5t-64 15.5q-11 0 -37 -3q-4 -1 -6 -1z" />
    <glyph glyph-name="hcedilla" unicode="&#x1e29;" horiz-adv-x="1128" 
d="M457 1507h63q-18 -68 -38 -156t-44 -206l-67 -350q123 99 219 146.5t174 47.5q79 0 125.5 -44t46.5 -120q0 -29 -6 -68t-23 -116l-71 -317q-12 -52 -16.5 -82t-4.5 -52q0 -49 27 -75.5t78 -26.5q21 0 50 4.5t64 13.5v-55q-78 -31 -141 -47t-105 -16q-77 0 -113 30t-36 95
q0 22 3.5 49.5t10.5 58.5l88 379q10 41 15.5 75t5.5 56q0 68 -27 99.5t-84 31.5q-55 0 -134.5 -44t-168.5 -124l-127 -694h-174l281 1372l-193 17v51zM158 -12h73l-24 -124q9 0 19 0.5t24 0.5q62 0 95.5 -29.5t33.5 -85.5q0 -94 -79 -156.5t-202 -62.5q-34 0 -69 5.5
t-70 15.5l14 74q30 -9 59.5 -13t59.5 -4q71 0 112.5 29t41.5 78q0 26 -24 41.5t-64 15.5q-11 0 -37 -3q-4 -1 -6 -1z" />
    <glyph glyph-name="Hbrevebelow" unicode="&#x1e2a;" horiz-adv-x="1458" 
d="M172 1374h500v-78l-135 -10l-31 -31l-96 -489h667l97 489l-25 31l-131 10v78h500v-78l-136 -10l-32 -31l-217 -1136l20 -29l131 -12v-78h-496v78l134 12l30 29l105 553h-666l-106 -553l24 -29l131 -12v-78h-497v78l131 12l32 29l220 1136l-21 31l-133 10v78zM263 -102h81
q-1 -7 -1 -13.5v-19.5q0 -68 40.5 -98.5t131.5 -30.5q120 0 173 35.5t74 126.5h80q-29 -152 -111 -221.5t-231 -69.5q-124 0 -184 52t-60 161q1 19 2 37t5 41z" />
    <glyph glyph-name="hbrevebelow" unicode="&#x1e2b;" horiz-adv-x="1128" 
d="M457 1507h63q-18 -68 -38 -156t-44 -206l-67 -350q123 99 219 146.5t174 47.5q79 0 125.5 -44t46.5 -120q0 -29 -6 -68t-23 -116l-71 -317q-12 -52 -16.5 -82t-4.5 -52q0 -49 27 -75.5t78 -26.5q21 0 50 4.5t64 13.5v-55q-78 -31 -141 -47t-105 -16q-77 0 -113 30t-36 95
q0 22 3.5 49.5t10.5 58.5l88 379q10 41 15.5 75t5.5 56q0 68 -27 99.5t-84 31.5q-55 0 -134.5 -44t-168.5 -124l-127 -694h-174l281 1372l-193 17v51zM59 -114h81q-1 -7 -1 -13.5v-19.5q0 -68 40.5 -98.5t131.5 -30.5q120 0 173 35.5t74 126.5h80q-29 -152 -111 -221.5
t-231 -69.5q-124 0 -184 52t-60 161q1 19 2 37t5 41z" />
    <glyph glyph-name="Itildebelow" unicode="&#x1e2c;" horiz-adv-x="639" 
d="M182 1374h500v-78l-135 -10l-33 -31l-219 -1136l24 -29l134 -12v-78h-500v78l131 12l33 29l219 1136l-23 31l-131 10v78zM391 -102h86q-13 -110 -74 -178t-143 -68q-69 0 -162.5 51.5t-114.5 51.5q-38 0 -65 -37t-31 -96h-88q18 120 74.5 182.5t146.5 62.5
q59 0 147.5 -53t118.5 -53q42 0 68 34t37 103z" />
    </font>
</defs>
</svg>
